<svg width="18" height="18" viewBox="0 0 18 18" fill="none" xmlns="http://www.w3.org/2000/svg">
<path fill-rule="evenodd" clip-rule="evenodd" d="M2.23077 2C2.10332 2 2 2.10332 2 2.23077V3.69233H16V2.23077C16 2.10332 15.8967 2 15.7692 2H2.23077ZM18 2.23077C18 0.99875 17.0013 0 15.7692 0H2.23077C0.998749 0 0 0.998749 0 2.23077V15.7692C0 17.0013 0.99875 18 2.23077 18H5.91733C5.9193 18 5.92128 18 5.92325 18C5.92523 18 5.9272 18 5.92918 18H15.7692C17.0013 18 18 17.0013 18 15.7692V2.23077ZM16 5.69233H6.92325V16H15.7692C15.8967 16 16 15.8967 16 15.7692V5.69233ZM4.92325 16V5.69233H2V15.7692C2 15.8967 2.10332 16 2.23077 16H4.92325Z" fill="#5D3F92"/>
</svg>
