<svg width="22" height="16" viewBox="0 0 22 16" fill="none" xmlns="http://www.w3.org/2000/svg">
<path d="M11 15.9985C9.19586 16.0218 7.41037 15.6173 5.7794 14.8158C4.51516 14.175 3.37992 13.2901 2.4343 12.2082C1.43267 11.0897 0.644014 9.7842 0.11 8.36081L0 7.99972L0.1155 7.63864C0.649897 6.21649 1.43686 4.91136 2.4354 3.79123C3.38068 2.70947 4.51554 1.82452 5.7794 1.18363C7.41038 0.382138 9.19587 -0.0223458 11 0.000952277C12.8041 -0.0223056 14.5896 0.382176 16.2206 1.18363C17.4849 1.82437 18.6201 2.70933 19.5657 3.79123C20.5692 4.90826 21.3581 6.21413 21.89 7.63864L22 7.99972L21.8845 8.36081C20.1588 13.0273 15.8116 16.0777 11 15.9985ZM11 2.28632C7.25546 2.16442 3.81856 4.42895 2.3287 7.99972C3.81832 11.5707 7.25537 13.8353 11 13.7131C14.7445 13.8347 18.1812 11.5703 19.6713 7.99972C18.1834 4.42722 14.7452 2.16185 11 2.28632ZM11 11.4278C9.41306 11.4387 8.0403 10.2821 7.72306 8.66679C7.40582 7.05151 8.2327 5.42872 9.69692 4.79297C11.1611 4.15723 12.8538 4.6861 13.7374 6.05546C14.621 7.42481 14.4489 9.25219 13.3265 10.4176C12.712 11.0635 11.8742 11.4273 11 11.4278Z" fill="white"/>
</svg>
