<svg width="16" height="16" viewBox="0 0 16 16" fill="none" xmlns="http://www.w3.org/2000/svg">
<path d="M15.6647 14.7692L11.1302 10.2564C12.0385 9.13984 12.3669 7.69914 12.3669 6.15385C12.3669 2.57231 9.78218 0 6.18345 0C2.58472 0 0 2.57231 0 6.15385C0 9.73538 2.58472 12.3077 6.18345 12.3077C7.73616 12.3077 9.18383 11.9809 10.3058 11.0769L14.8403 15.5897C14.9743 15.7231 15.2139 16 15.3898 16C15.5657 16 15.7415 15.933 15.8755 15.7996C16.1441 15.5323 15.9334 15.0366 15.6647 14.7692ZM6.18345 11.4872C3.34183 11.4872 0.824461 8.98189 0.824461 6.15385C0.824461 3.3258 3.34183 0.820513 6.18345 0.820513C9.02507 0.820513 11.5424 3.25744 11.5424 6.08548C11.5424 8.91353 9.02504 11.4872 6.18345 11.4872Z" fill="#7C7C7C"/>
</svg>
