<svg width="26" height="26" viewBox="0 0 26 26" fill="none" xmlns="http://www.w3.org/2000/svg">
<g opacity="0.8">
<path opacity="0.2" d="M26 12.9999C26 20.1797 20.1798 26 13.0001 26C5.8203 26 0 20.1797 0 12.9999C0 5.82026 5.8203 0 13.0001 0C20.1797 0 26 5.82026 26 12.9999Z" fill="#505050"/>
<path d="M12.9567 16.4188L12.9117 16.4736V19.2799L12.9567 19.4113L16.6157 14.2583L12.9567 16.4188Z" fill="white"/>
<path d="M12.9567 19.4113V16.4188L9.29999 14.2583L12.9567 19.4113Z" fill="white"/>
<path fill-rule="evenodd" clip-rule="evenodd" d="M12.8769 7.27148L12.9567 7L16.6135 13.0675L12.9568 11.4054L12.9567 15.229L12.8769 15.1493V11.4417V7.27148Z" fill="white"/>
<path d="M12.9567 15.229L16.6135 13.0675L12.9568 11.4054L12.9567 15.229Z" fill="white"/>
<path fill-rule="evenodd" clip-rule="evenodd" d="M9.29999 13.0675L12.9567 7L12.9568 11.4054L12.9567 15.229L12.8769 15.1493V11.4417L9.29999 13.0675Z" fill="white"/>
<path d="M12.9567 15.229L12.8769 15.1493V11.4417L9.29999 13.0675L12.9567 15.229Z" fill="white"/>
</g>
</svg>
