<svg width="24" height="24" viewBox="0 0 24 24" fill="none" xmlns="http://www.w3.org/2000/svg">
<path d="M10.8023 6.85225C10.3196 6.85226 10.561 6.1277 9.83692 5.00062C9.11288 3.87354 5.25132 2.66595 3.401 6.93276C2.81407 8.11471 2.64814 10.2306 3.21796 12.4722C3.36811 13.0629 3.65943 13.6694 3.94185 14.2433C5.24637 16.8929 10.1906 20.1668 10.6193 21.9719C10.9675 19.7178 15.9289 16.0207 19.0664 11.5123C19.9735 10.2089 21.1581 7.97007 21.1581 5.39389C21.1581 -1.20759 13.9398 2.26343 12.4113 4.43708C10.8828 6.61074 11.285 6.85225 10.8023 6.85225ZM10.4805 24C10.1323 24 10.3196 23.517 9.27377 22.848C-9.11347 11.6605 4.46179 -1.48044 10.7054 4.43563C10.7905 4.51592 10.8824 4.59248 10.9632 4.67861C11.0432 4.59256 11.0437 4.59809 11.285 4.35657C20.7921 -7.30532 33.4886 6.52977 13.0549 21.3433C11.7222 22.3094 11.0232 24 10.4805 24Z" fill="#873DC1"/>
</svg>
