<svg width="10" height="16" viewBox="0 0 10 16" fill="none" xmlns="http://www.w3.org/2000/svg">
<g filter="url(#filter0_d_716_14002)">
<path d="M8.99769 6.84413L4.99884 0L4.99884 4.96928L8.99769 6.84413Z" fill="white" shape-rendering="crispEdges"/>
<path d="M4.9988 14V10.6244L1 8.18739L4.9988 14Z" fill="white" shape-rendering="crispEdges"/>
<path d="M4.9988 10.6244V14L9.00005 8.18739L4.9988 10.6244Z" fill="white" shape-rendering="crispEdges"/>
<path d="M1 6.84413L4.99884 9.28232L4.99884 4.96928L1 6.84413Z" fill="white" shape-rendering="crispEdges"/>
<path d="M4.99884 0L1 6.84413L4.99884 4.96928L4.99884 0Z" fill="white" shape-rendering="crispEdges"/>
<path d="M4.99884 9.28232L8.99769 6.84413L4.99884 4.96928L4.99884 9.28232Z" fill="white" shape-rendering="crispEdges"/>
<path d="M8.99769 6.84413L4.99884 0L4.99884 4.96928L8.99769 6.84413Z" fill="#7C7C7C" shape-rendering="crispEdges"/>
<path d="M4.9988 14V10.6244L1 8.18739L4.9988 14Z" fill="#7C7C7C" fill-opacity="0.5" shape-rendering="crispEdges"/>
<path d="M4.9988 10.6244V14L9.00005 8.18739L4.9988 10.6244Z" fill="#7C7C7C" shape-rendering="crispEdges"/>
<path d="M1 6.84413L4.99884 9.28232L4.99884 4.96928L1 6.84413Z" fill="#7C7C7C" fill-opacity="0.25" shape-rendering="crispEdges"/>
<path d="M4.99884 0L1 6.84413L4.99884 4.96928L4.99884 0Z" fill="#7C7C7C" fill-opacity="0.5" shape-rendering="crispEdges"/>
<path d="M4.99884 9.28232L8.99769 6.84413L4.99884 4.96928L4.99884 9.28232Z" fill="#7C7C7C" fill-opacity="0.5" shape-rendering="crispEdges"/>
</g>
<defs>
<filter id="filter0_d_716_14002" x="0" y="0" width="10" height="16" filterUnits="userSpaceOnUse" color-interpolation-filters="sRGB">
<feFlood flood-opacity="0" result="BackgroundImageFix"/>
<feColorMatrix in="SourceAlpha" type="matrix" values="0 0 0 0 0 0 0 0 0 0 0 0 0 0 0 0 0 0 127 0" result="hardAlpha"/>
<feOffset dy="1"/>
<feGaussianBlur stdDeviation="0.5"/>
<feComposite in2="hardAlpha" operator="out"/>
<feColorMatrix type="matrix" values="0 0 0 0 1 0 0 0 0 1 0 0 0 0 1 0 0 0 0.25 0"/>
<feBlend mode="normal" in2="BackgroundImageFix" result="effect1_dropShadow_716_14002"/>
<feBlend mode="normal" in="SourceGraphic" in2="effect1_dropShadow_716_14002" result="shape"/>
</filter>
</defs>
</svg>
