<svg width="29" height="11" viewBox="0 0 29 11" fill="none" xmlns="http://www.w3.org/2000/svg">
<path d="M0 0.499999V7.21429C0 7.80476 0.0931796 8.32381 0.279539 8.77143C0.465899 9.21905 0.726802 9.59524 1.06225 9.9C1.3977 10.2048 1.79371 10.4333 2.25029 10.5857C2.70687 10.7476 3.20538 10.8286 3.74582 10.8286C4.27695 10.8286 4.7708 10.7476 5.22738 10.5857C5.68396 10.4333 6.07998 10.2048 6.41542 9.9C6.76019 9.59524 7.02575 9.21905 7.21211 8.77143C7.39847 8.32381 7.49165 7.80476 7.49165 7.21429V0.499999H5.49294V7.08571C5.49294 7.65714 5.34386 8.11905 5.04568 8.47143C4.75682 8.81429 4.32354 8.98571 3.74582 8.98571C3.16811 8.98571 2.73017 8.81429 2.43199 8.47143C2.14313 8.11905 1.9987 7.65714 1.9987 7.08571V0.499999H0Z" fill="#873DC1"/>
<path d="M16.4894 0.499999V6.7L9.5289 0V10.5H11.4577V4.3L18.4182 11V0.499999H16.4894Z" fill="#873DC1"/>
<path d="M20.5439 0.499999V10.5H22.5846V0.499999H20.5439ZM23.8705 10.5C24.8954 10.5 25.79 10.2952 26.554 9.88571C27.3274 9.47619 27.9284 8.9 28.3571 8.15714C28.7857 7.40476 29 6.51905 29 5.5C29 4.48095 28.7857 3.6 28.3571 2.85714C27.9284 2.10476 27.3274 1.52381 26.554 1.11429C25.79 0.704762 24.8954 0.499999 23.8705 0.499999H21.8298V2.35714H23.8006C24.2292 2.35714 24.6345 2.41905 25.0166 2.54286C25.3986 2.65714 25.7341 2.84286 26.0229 3.1C26.3118 3.35714 26.5354 3.68571 26.6938 4.08571C26.8615 4.47619 26.9454 4.94762 26.9454 5.5C26.9454 6.05238 26.8615 6.52857 26.6938 6.92857C26.5354 7.31905 26.3118 7.64286 26.0229 7.9C25.7341 8.15714 25.3986 8.34762 25.0166 8.47143C24.6345 8.58571 24.2292 8.64286 23.8006 8.64286H21.8298V10.5H23.8705Z" fill="#873DC1"/>
</svg>
