<svg width="16" height="16" viewBox="0 0 16 16" fill="none" xmlns="http://www.w3.org/2000/svg">
<path d="M14.9818 5.81943C14.8882 5.83852 14.7993 5.87585 14.7201 5.9293C14.7161 5.93199 14.7121 5.93472 14.7082 5.93749L14.7054 5.9395C14.6325 5.99137 14.5698 6.05626 14.5204 6.13097C14.4677 6.21065 14.4312 6.29993 14.4131 6.39371C14.3949 6.48749 14.3954 6.58392 14.4145 6.67751C14.6985 8.0564 14.5302 9.49009 13.9346 10.7658C13.339 12.0414 12.3479 13.0911 11.1084 13.7589C9.86894 14.4267 8.44712 14.677 7.05403 14.4728C5.66094 14.2686 4.37084 13.6206 3.37524 12.6252C2.37965 11.6297 1.73162 10.3397 1.52737 8.94683C1.32311 7.5539 1.57352 6.13225 2.2414 4.8929C2.90929 3.65356 3.95906 2.66258 5.23488 2.06709C6.5107 1.47159 7.94456 1.30331 9.32362 1.58723C9.5165 1.6258 9.71681 1.58618 9.88048 1.47708C9.94974 1.43091 10.01 1.3739 10.0595 1.30887C10.1269 1.22024 10.1741 1.11672 10.1963 1.00548C10.2349 0.812621 10.1953 0.612336 10.0862 0.448688C9.97707 0.28504 9.80741 0.171434 9.61453 0.132862C9.0823 0.0337117 8.54124 -0.0101524 7.99999 0.00196928C6.41774 0.00196928 4.87102 0.471103 3.55543 1.35005C2.23984 2.22899 1.21447 3.47826 0.608966 4.93989C0.00346631 6.40152 -0.15496 8.00986 0.153721 9.56151C0.462402 11.1132 1.22433 12.5385 2.34314 13.6571C3.46196 14.7758 4.88742 15.5377 6.43927 15.8463C7.99111 16.1549 9.59964 15.9965 11.0614 15.3911C12.5233 14.7857 13.7727 13.7604 14.6517 12.445C15.5308 11.1296 16 9.58304 16 8.00098C16.0015 7.46365 15.9479 6.92757 15.84 6.40118C15.8225 6.30628 15.7864 6.21579 15.7337 6.13499C15.6809 6.0542 15.6126 5.9847 15.5328 5.93056C15.4529 5.87641 15.363 5.8387 15.2684 5.81962C15.1739 5.80055 15.0764 5.80048 14.9818 5.81943Z" fill="#CCB7F2"/>
<path fill-rule="evenodd" clip-rule="evenodd" d="M14.5204 6.13097C14.5698 6.05626 14.6325 5.99137 14.7054 5.9395L14.7082 5.93749C14.4783 5.97856 14.2417 5.99999 14 5.99999C13.4144 5.99999 12.8581 5.87414 12.3569 5.648C12.3571 5.65115 12.3574 5.65428 12.3576 5.65743C12.3616 5.71116 12.3636 5.76519 12.3636 5.81943V6.54662C12.3604 7.08477 12.1584 7.60275 11.7963 8.00098C12.1584 8.39922 12.3604 8.91719 12.3636 9.45535V10.1825C12.3636 10.7611 12.1337 11.316 11.7246 11.7251C11.3154 12.1342 10.7605 12.3641 10.1818 12.3641H9.45453C8.87588 12.3641 8.32092 12.1342 7.91175 11.7251C7.50258 11.316 7.27271 10.7611 7.27271 10.1825V9.45535C7.27592 8.91719 7.47796 8.39922 7.83999 8.00098C7.47796 7.60275 7.27592 7.08477 7.27271 6.54662V5.81943C7.27271 5.24085 7.50258 4.68597 7.91175 4.27685C8.32092 3.86773 8.87588 3.63788 9.45453 3.63788H10.1818C10.239 3.63788 10.296 3.64013 10.3526 3.64458C10.1261 3.14293 10 2.58619 10 1.99999C10 1.7643 10.0204 1.53337 10.0595 1.30887C10.01 1.3739 9.94974 1.43091 9.88048 1.47708C9.71681 1.58618 9.5165 1.6258 9.32362 1.58723C7.94456 1.30331 6.5107 1.47159 5.23488 2.06709C3.95906 2.66258 2.90929 3.65356 2.2414 4.8929C1.57352 6.13225 1.32311 7.5539 1.52737 8.94683C1.73162 10.3397 2.37965 11.6297 3.37524 12.6252C4.37084 13.6206 5.66094 14.2686 7.05403 14.4728C8.44712 14.677 9.86894 14.4267 11.1084 13.7589C12.3479 13.0911 13.339 12.0414 13.9346 10.7658C14.5302 9.49009 14.6985 8.0564 14.4145 6.67751C14.3954 6.58392 14.3949 6.48749 14.4131 6.39371C14.4312 6.29993 14.4677 6.21065 14.5204 6.13097ZM4.36363 11.6369V4.36507C4.36363 4.17221 4.44025 3.98725 4.57664 3.85087C4.71303 3.7145 4.89802 3.63788 5.0909 3.63788C5.28379 3.63788 5.46877 3.7145 5.60516 3.85087C5.74155 3.98725 5.81817 4.17221 5.81817 4.36507V11.6369C5.81817 11.8298 5.74155 12.0147 5.60516 12.1511C5.46877 12.2875 5.28379 12.3641 5.0909 12.3641C4.89802 12.3641 4.71303 12.2875 4.57664 12.1511C4.44025 12.0147 4.36363 11.8298 4.36363 11.6369Z" fill="#CCB7F2"/>
<path d="M10.6961 10.6967C10.8324 10.5604 10.9091 10.3754 10.9091 10.1825V9.45535C10.9091 9.26249 10.8324 9.07753 10.6961 8.94115C10.5597 8.80478 10.3747 8.72817 10.1818 8.72817H9.45453C9.26164 8.72817 9.07666 8.80478 8.94027 8.94115C8.80388 9.07753 8.72726 9.26249 8.72726 9.45535V10.1825C8.72726 10.3754 8.80388 10.5604 8.94027 10.6967C9.07666 10.8331 9.26164 10.9097 9.45453 10.9097H10.1818C10.3747 10.9097 10.5597 10.8331 10.6961 10.6967Z" fill="#CCB7F2"/>
<path d="M10.9091 6.54662V5.81943C10.9091 5.62657 10.8324 5.44161 10.6961 5.30524C10.5597 5.16887 10.3747 5.09225 10.1818 5.09225H9.45453C9.26164 5.09225 9.07666 5.16887 8.94027 5.30524C8.80388 5.44161 8.72726 5.62657 8.72726 5.81943V6.54662C8.72726 6.73948 8.80388 6.92444 8.94027 7.06081C9.07666 7.19719 9.26164 7.2738 9.45453 7.2738H10.1818C10.3747 7.2738 10.5597 7.19719 10.6961 7.06081C10.8324 6.92444 10.9091 6.73948 10.9091 6.54662Z" fill="#CCB7F2"/>
<path d="M4.36363 4.36507V11.6369C4.36363 11.8298 4.44025 12.0147 4.57664 12.1511C4.71303 12.2875 4.89802 12.3641 5.0909 12.3641C5.28379 12.3641 5.46877 12.2875 5.60516 12.1511C5.74155 12.0147 5.81817 11.8298 5.81817 11.6369V4.36507C5.81817 4.17221 5.74155 3.98725 5.60516 3.85087C5.46877 3.7145 5.28379 3.63788 5.0909 3.63788C4.89802 3.63788 4.71303 3.7145 4.57664 3.85087C4.44025 3.98725 4.36363 4.17221 4.36363 4.36507Z" fill="#5D3F92"/>
<path fill-rule="evenodd" clip-rule="evenodd" d="M7.27271 5.81943V6.54662C7.27592 7.08477 7.47796 7.60275 7.83999 8.00098C7.47796 8.39922 7.27592 8.91719 7.27271 9.45535V10.1825C7.27271 10.7611 7.50258 11.316 7.91175 11.7251C8.32092 12.1342 8.87588 12.3641 9.45453 12.3641H10.1818C10.7605 12.3641 11.3154 12.1342 11.7246 11.7251C12.1337 11.316 12.3636 10.7611 12.3636 10.1825V9.45535C12.3604 8.91719 12.1584 8.39922 11.7963 8.00098C12.1584 7.60275 12.3604 7.08477 12.3636 6.54662V5.81943C12.3636 5.76519 12.3616 5.71116 12.3576 5.65743L12.3569 5.648C12.3162 5.13216 12.0931 4.64537 11.7246 4.27685C11.3666 3.91887 10.8969 3.69815 10.3974 3.64856C10.3825 3.64708 10.3676 3.64575 10.3526 3.64458C10.296 3.64013 10.239 3.63788 10.1818 3.63788H9.45453C8.87588 3.63788 8.32092 3.86773 7.91175 4.27685C7.50258 4.68597 7.27271 5.24085 7.27271 5.81943ZM10.9091 10.1825C10.9091 10.3754 10.8324 10.5604 10.6961 10.6967C10.5597 10.8331 10.3747 10.9097 10.1818 10.9097H9.45453C9.26164 10.9097 9.07666 10.8331 8.94027 10.6967C8.80388 10.5604 8.72726 10.3754 8.72726 10.1825V9.45535C8.72726 9.26249 8.80388 9.07753 8.94027 8.94115C9.07666 8.80478 9.26164 8.72817 9.45453 8.72817H10.1818C10.3747 8.72817 10.5597 8.80478 10.6961 8.94115C10.8324 9.07753 10.9091 9.26249 10.9091 9.45535V10.1825ZM10.9091 5.81943V6.54662C10.9091 6.73948 10.8324 6.92444 10.6961 7.06081C10.5597 7.19719 10.3747 7.2738 10.1818 7.2738H9.45453C9.26164 7.2738 9.07666 7.19719 8.94027 7.06081C8.80388 6.92444 8.72726 6.73948 8.72726 6.54662V5.81943C8.72726 5.62657 8.80388 5.44161 8.94027 5.30524C9.07666 5.16887 9.26164 5.09225 9.45453 5.09225H10.1818C10.3747 5.09225 10.5597 5.16887 10.6961 5.30524C10.8324 5.44161 10.9091 5.62657 10.9091 5.81943Z" fill="#5D3F92"/>
<path d="M12.3636 2.9107H13.0909V3.63788C13.0909 3.83075 13.1675 4.01571 13.3039 4.15208C13.4403 4.28845 13.6253 4.36507 13.8182 4.36507C14.011 4.36507 14.196 4.28845 14.3324 4.15208C14.4688 4.01571 14.5454 3.83075 14.5454 3.63788V2.9107H15.2727C15.4656 2.9107 15.6506 2.83409 15.787 2.69771C15.9233 2.56134 16 2.37638 16 2.18352C16 1.99066 15.9233 1.8057 15.787 1.66932C15.6506 1.53295 15.4656 1.45634 15.2727 1.45634H14.5454V0.729152C14.5454 0.536291 14.4688 0.35133 14.3324 0.214956C14.196 0.078583 14.011 0.00196928 13.8182 0.00196928C13.6253 0.00196928 13.4403 0.078583 13.3039 0.214956C13.1675 0.35133 13.0909 0.536291 13.0909 0.729152V1.45634H12.3636C12.1707 1.45634 11.9857 1.53295 11.8494 1.66932C11.713 1.8057 11.6363 1.99066 11.6363 2.18352C11.6363 2.37638 11.713 2.56134 11.8494 2.69771C11.9857 2.83409 12.1707 2.9107 12.3636 2.9107Z" fill="#873DC1"/>
</svg>
