<svg width="16" height="16" viewBox="0 0 16 16" fill="none" xmlns="http://www.w3.org/2000/svg">
<path fill-rule="evenodd" clip-rule="evenodd" d="M8.00024 15C11.8662 15 15.0002 11.866 15.0002 8C15.0002 4.13401 11.8662 1 8.00024 1C4.13425 1 1.00024 4.13401 1.00024 8C1.00024 11.866 4.13425 15 8.00024 15ZM8.00024 16C12.4185 16 16.0002 12.4183 16.0002 8C16.0002 3.58172 12.4185 0 8.00024 0C3.58197 0 0.000244141 3.58172 0.000244141 8C0.000244141 12.4183 3.58197 16 8.00024 16Z" fill="#CCB7F2"/>
<path d="M7.00024 6.24319H9.00024V12H7.00024V6.24319ZM7.00024 4.96552V4H9.00024V4.96552H7.00024Z" fill="#5D3F92"/>
<path fill-rule="evenodd" clip-rule="evenodd" d="M15.0002 8C15.0002 11.866 11.8662 15 8.00024 15C4.13425 15 1.00024 11.866 1.00024 8C1.00024 4.13401 4.13425 1 8.00024 1C11.8662 1 15.0002 4.13401 15.0002 8ZM9.00024 6.24319H7.00024V12H9.00024V6.24319ZM7.00024 4V4.96552H9.00024V4H7.00024Z" fill="#CCB7F2"/>
</svg>
