<svg width="14" height="16" viewBox="0 0 14 16" fill="none" xmlns="http://www.w3.org/2000/svg">
<path d="M2.625 4.21053C2.625 1.88512 4.58375 0 7 0C9.41625 0 11.375 1.88512 11.375 4.21053C11.375 6.53594 9.41625 8.42105 7 8.42105C4.58375 8.42105 2.625 6.53594 2.625 4.21053ZM7 6.73684C8.44975 6.73684 9.625 5.60577 9.625 4.21053C9.625 2.81528 8.44975 1.68421 7 1.68421C5.55025 1.68421 4.375 2.81528 4.375 4.21053C4.375 5.60577 5.55025 6.73684 7 6.73684Z" fill="#7C7C7C"/>
<path d="M2.05025 11.2363C0.737498 12.4997 0 14.2133 0 16H1.75C1.75 14.66 2.30312 13.3748 3.28769 12.4272C4.27226 11.4797 5.60761 10.9474 7 10.9474C8.39239 10.9474 9.72775 11.4797 10.7123 12.4272C11.6969 13.3748 12.25 14.66 12.25 16H14C14 14.2133 13.2625 12.4997 11.9497 11.2363C10.637 9.97293 8.85651 9.26316 7 9.26316C5.14348 9.26316 3.36301 9.97293 2.05025 11.2363Z" fill="#7C7C7C"/>
</svg>
