<svg width="16" height="16" viewBox="0 0 16 16" fill="none" xmlns="http://www.w3.org/2000/svg">
<path d="M8.92643 5.97105C8.85744 5.44244 8.8 4.67849 8.8 3.6C8.8 2.5215 8.85744 1.75756 8.92643 1.22895C9.0158 0.54421 9.54965 0.0957025 10.2389 0.0538353C10.7319 0.023891 11.4294 -4.24271e-08 12.4 0C13.3706 4.24272e-08 14.0681 0.0238911 14.5611 0.0538355C15.2504 0.0957028 15.7842 0.54421 15.8736 1.22895C15.9426 1.75756 16 2.5215 16 3.6C16 4.6785 15.9426 5.44244 15.8736 5.97105C15.7842 6.65579 15.2504 7.1043 14.5611 7.14616C14.0681 7.17611 13.3706 7.2 12.4 7.2C11.4294 7.2 10.7319 7.17611 10.2389 7.14616C9.54964 7.1043 9.0158 6.65579 8.92643 5.97105Z" fill="#CCB7F2"/>
<path d="M8.82271 11.9145C8.80897 12.0515 8.8 12.2127 8.8 12.4C8.8 12.5873 8.80897 12.7485 8.82271 12.8855C8.8635 13.2925 9.20931 13.5443 9.618 13.5599C9.96754 13.5732 10.4796 13.5869 11.2057 13.5943C11.2021 13.247 11.2 12.8508 11.2 12.4C11.2 11.9492 11.2021 11.553 11.2057 11.2057C10.4796 11.2131 9.96754 11.2268 9.618 11.2401C9.20931 11.2557 8.8635 11.5075 8.82271 11.9145Z" fill="#5D3F92"/>
<path d="M11.2057 13.5943C11.553 13.5979 11.9492 13.6 12.4 13.6C12.8508 13.6 13.247 13.5979 13.5943 13.5943C13.5979 13.247 13.6 12.8508 13.6 12.4C13.6 11.9492 13.5979 11.553 13.5943 11.2057C13.247 11.2021 12.8508 11.2 12.4 11.2C11.9492 11.2 11.553 11.2021 11.2057 11.2057C11.2021 11.553 11.2 11.9492 11.2 12.4C11.2 12.8508 11.2021 13.247 11.2057 13.5943Z" fill="#5D3F92"/>
<path d="M12.8855 8.82271C12.7485 8.80897 12.5873 8.8 12.4 8.8C12.2127 8.8 12.0515 8.80897 11.9145 8.82271C11.5075 8.8635 11.2557 9.20931 11.2401 9.618C11.2268 9.96754 11.2131 10.4796 11.2057 11.2057C11.553 11.2021 11.9492 11.2 12.4 11.2C12.8508 11.2 13.247 11.2021 13.5943 11.2057C13.5869 10.4796 13.5732 9.96754 13.5599 9.618C13.5443 9.20931 13.2925 8.8635 12.8855 8.82271Z" fill="#5D3F92"/>
<path d="M15.9773 12.8855C15.991 12.7485 16 12.5873 16 12.4C16 12.2127 15.991 12.0515 15.9773 11.9145C15.9365 11.5075 15.5907 11.2557 15.182 11.2401C14.8325 11.2268 14.3204 11.2131 13.5943 11.2057C13.5979 11.553 13.6 11.9492 13.6 12.4C13.6 12.8508 13.5979 13.247 13.5943 13.5943C14.3204 13.5869 14.8325 13.5732 15.182 13.5599C15.5907 13.5443 15.9365 13.2925 15.9773 12.8855Z" fill="#5D3F92"/>
<path d="M11.9145 15.9773C12.0515 15.991 12.2127 16 12.4 16C12.5873 16 12.7485 15.991 12.8855 15.9773C13.2925 15.9365 13.5443 15.5907 13.5599 15.182C13.5732 14.8325 13.5869 14.3204 13.5943 13.5943C13.247 13.5979 12.8508 13.6 12.4 13.6C11.9492 13.6 11.553 13.5979 11.2057 13.5943C11.2131 14.3204 11.2268 14.8325 11.2401 15.182C11.2557 15.5907 11.5075 15.9365 11.9145 15.9773Z" fill="#5D3F92"/>
<path d="M5.97105 7.07357C5.44244 7.14256 4.6785 7.2 3.6 7.2C2.5215 7.2 1.75756 7.14256 1.22895 7.07357C0.54421 6.9842 0.0957027 6.45035 0.0538354 5.76107C0.0238911 5.26809 0 4.57062 0 3.6C0 2.62938 0.0238911 1.93191 0.0538354 1.43893C0.0957027 0.749645 0.54421 0.215801 1.22895 0.126431C1.75756 0.0574398 2.5215 1.57361e-07 3.6 1.57361e-07C4.6785 1.57361e-07 5.44244 0.0574398 5.97105 0.126431C6.65579 0.215801 7.1043 0.749646 7.14616 1.43893C7.17611 1.93191 7.2 2.62938 7.2 3.6C7.2 4.57062 7.17611 5.26809 7.14616 5.76107C7.1043 6.45035 6.65579 6.9842 5.97105 7.07357Z" fill="#873DC1"/>
<path d="M5.97105 8.92643C5.44244 8.85744 4.6785 8.8 3.6 8.8C2.5215 8.8 1.75756 8.85744 1.22895 8.92643C0.54421 9.0158 0.0957027 9.54964 0.0538354 10.2389C0.0238911 10.7319 0 11.4294 0 12.4C0 13.3706 0.0238911 14.0681 0.0538354 14.5611C0.0957027 15.2504 0.54421 15.7842 1.22895 15.8736C1.75756 15.9426 2.5215 16 3.6 16C4.6785 16 5.44244 15.9426 5.97105 15.8736C6.65579 15.7842 7.1043 15.2504 7.14616 14.5611C7.17611 14.0681 7.2 13.3706 7.2 12.4C7.2 11.4294 7.17611 10.7319 7.14616 10.2389C7.1043 9.54964 6.65579 9.0158 5.97105 8.92643Z" fill="#5D3F92"/>
</svg>
