<svg width="16" height="14" viewBox="0 0 16 14" fill="none" xmlns="http://www.w3.org/2000/svg">
<path fill-rule="evenodd" clip-rule="evenodd" d="M16 7C16 4.34036 15.8878 2.71188 15.7851 1.77872C15.7094 1.0898 15.2512 0.557735 14.5832 0.432607C13.5281 0.234944 11.5312 0 8 0C4.46879 0 2.4719 0.234944 1.41675 0.432607C0.748799 0.557735 0.290633 1.0898 0.214864 1.77872C0.112234 2.71188 0 4.34037 0 7C0 8.28428 0.0261696 9.32812 0.0647908 10.1693C1.99179 8.27272 3.287 7.27646 4.05883 6.76514C4.61051 6.39966 5.27995 6.46384 5.7903 6.8873C6.42995 7.41803 7.48628 8.35994 9.11471 9.98301C10.275 8.93457 11.1154 8.30443 11.6779 7.93181C12.2295 7.56633 12.899 7.63051 13.4093 8.05396C13.9364 8.4913 14.7464 9.20783 15.9263 10.3546C15.9279 10.3227 15.9295 10.2906 15.9311 10.2581C15.9719 9.40185 16 8.32982 16 7ZM12.1905 5.83333C13.0321 5.83333 13.7143 5.13689 13.7143 4.27778C13.7143 3.41867 13.0321 2.72222 12.1905 2.72222C11.3489 2.72222 10.6667 3.41867 10.6667 4.27778C10.6667 5.13689 11.3489 5.83333 12.1905 5.83333Z" fill="#CCB7F2"/>
<path d="M8 14C11.5312 14 13.5281 13.7651 14.5833 13.5674C15.2512 13.4423 15.7094 12.9102 15.7851 12.2213C15.8345 11.7724 15.8861 11.1626 15.9263 10.3546C14.7464 9.20783 13.9364 8.4913 13.4093 8.05396C12.899 7.63051 12.2295 7.56633 11.6779 7.93181C11.1154 8.30443 10.275 8.93457 9.11471 9.98301C7.48628 8.35994 6.42995 7.41803 5.7903 6.8873C5.27995 6.46384 4.61051 6.39966 4.05883 6.76514C3.287 7.27646 1.99179 8.27272 0.0647908 10.1693L0.0689456 10.2581C0.109833 11.1143 0.163549 11.7547 0.214864 12.2213C0.290633 12.9102 0.748801 13.4423 1.41675 13.5674C2.47191 13.7651 4.46879 14 8 14Z" fill="#5D3F92"/>
<path d="M13.7143 4.27778C13.7143 5.13689 13.0321 5.83333 12.1905 5.83333C11.3489 5.83333 10.6667 5.13689 10.6667 4.27778C10.6667 3.41867 11.3489 2.72222 12.1905 2.72222C13.0321 2.72222 13.7143 3.41867 13.7143 4.27778Z" fill="#5D3F92"/>
</svg>
