<svg width="16" height="16" viewBox="0 0 16 16" fill="none" xmlns="http://www.w3.org/2000/svg">
<path d="M16 4.50275C16 4.13934 15.8023 3.80086 15.4751 3.60435L9.76074 0.171418C9.00015 -0.285504 7.99988 0.22484 7.99988 1.06981V6.00661C7.99988 6.37002 8.19762 6.70849 8.52473 6.905L14.2391 10.3379C14.9997 10.7949 16 10.2845 16 9.43954V4.50275Z" fill="#CCB7F2"/>
<path d="M0 4.50269C0 4.13928 0.19774 3.8008 0.524855 3.60429L6.23926 0.171357C6.99985 -0.285565 7.99988 0.22484 7.99988 1.06981V6.00661C7.99988 6.37002 7.80238 6.70843 7.47527 6.90494L1.76086 10.3379C1.00027 10.7948 0 10.2845 0 9.43948V4.50269Z" fill="#5D3F92"/>
<path d="M8.3491 15.8391C7.9687 16.06 7.48529 16.0529 7.1125 15.821L1.45428 12.3004C0.7684 11.8736 0.77652 10.9294 1.46965 10.513L7.3823 6.96097C7.75876 6.73481 8.24184 6.73481 8.61831 6.96097L14.4794 10.482C15.1856 10.9063 15.1777 11.8735 14.4646 12.2876L8.3491 15.8391Z" fill="#873DC1"/>
<path d="M11.4286 7.80877C11.4286 7.95432 11.3438 8.08988 11.2036 8.16858L8.7546 9.5435C8.42864 9.7265 7.99995 9.5221 7.99995 9.18368V7.20647C7.99995 7.06092 8.08469 6.92536 8.22489 6.84665L10.6739 5.47174C10.9999 5.28874 11.4286 5.49314 11.4286 5.83155V7.80877Z" fill="#5D3F92"/>
<path d="M4.57143 7.8088C4.57143 7.95434 4.65617 8.0899 4.79637 8.16861L7.2454 9.54352C7.57136 9.72652 7.99995 9.5221 7.99995 9.18368V7.20647C7.99995 7.06092 7.91531 6.92538 7.77511 6.84668L5.32608 5.47177C5.00012 5.28877 4.57143 5.49316 4.57143 5.83158V7.8088Z" fill="#CCB7F2"/>
<path d="M8.14961 3.26849C7.98659 3.18001 7.77941 3.18285 7.61964 3.27575L5.19469 4.68576C4.90074 4.85668 4.90422 5.23485 5.20128 5.40162L7.73527 6.82424C7.89661 6.91482 8.10365 6.91482 8.26499 6.82424L10.7769 5.41403C11.0795 5.24411 11.0761 4.85675 10.7706 4.6909L8.14961 3.26849Z" fill="#873DC1"/>
</svg>
