<svg width="16" height="16" viewBox="0 0 16 16" fill="none" xmlns="http://www.w3.org/2000/svg">
<path d="M6.60234 7.81395L5.81818 8.18605C5.81818 8.18605 6.36052 8.43164 7.08366 9.17583C7.80681 9.92001 8 10.4186 8 10.4186L8.36364 9.60249L6.60234 7.81395Z" fill="#5D3F92"/>
<path fill-rule="evenodd" clip-rule="evenodd" d="M15.7069 3.34297L10.9562 9.53555C10.6718 9.9063 10.2808 10.1768 9.82835 10.2566C9.37445 10.3366 8.74087 10.4186 8 10.4186L8.36364 9.60249L6.60234 7.81395L5.81818 8.18605C5.81819 7.39079 5.92141 6.71876 6.01755 6.26531C6.10506 5.85251 6.3508 5.50195 6.67304 5.24014L12.7516 0.301665C12.9487 0.14146 13.1726 0.0116536 13.4236 0.00154561C13.8339 -0.0149724 14.5264 0.0910156 15.219 0.803729C15.9116 1.51645 16.0146 2.22917 15.9985 2.65134C15.9887 2.90967 15.8625 3.14005 15.7069 3.34297Z" fill="#5D3F92"/>
<path d="M1.0983 16C5.50153 16 8.37428 14.9588 8 10.4186C8 10.4186 7.80681 9.92001 7.08366 9.17583C6.36052 8.43164 5.81818 8.18605 5.81818 8.18605C1.5959 8.18605 1.19996 10.4376 0.855887 12.3944C0.761723 12.9298 0.671442 13.4433 0.50768 13.8824C0.455994 14.021 0.389188 14.1684 0.321119 14.3186C0.0639951 14.8861 -0.21115 15.4934 0.242606 15.8137C0.43869 15.9521 0.720343 16 1.0983 16Z" fill="#CCB7F2"/>
</svg>
