<svg width="16" height="16" viewBox="0 0 16 16" fill="none" xmlns="http://www.w3.org/2000/svg">
<path d="M3.63636 13.8321L1.27274 15.8581C1.13967 15.9721 0.966774 16.0377 0.802429 15.9768C0.669403 15.9275 0.500841 15.8363 0.332279 15.6677C0.163718 15.4992 0.0725504 15.3306 0.0232421 15.1976C-0.0376749 15.0332 0.0278574 14.8603 0.141923 14.7273L2.16788 12.3636L3.63636 13.8321Z" fill="#873DC1"/>
<path d="M5.98435 15.1573C5.30703 15.1966 4.01722 15.254 2.0503 15.2727C1.97109 15.2735 1.8931 15.2486 1.83043 15.2002C1.66257 15.0704 1.47891 14.9137 1.29526 14.73C1.09875 14.5335 0.933058 14.337 0.798192 14.1598C0.750765 14.0975 0.726517 14.0203 0.727268 13.942C0.734477 13.1902 0.747337 12.5374 0.76266 11.9801C0.771764 11.6491 0.781738 11.3517 0.791913 11.0873C0.791997 11.0851 0.792081 11.0829 0.792164 11.0808C0.797889 10.9324 0.803684 10.7944 0.809415 10.6667C0.821039 10.4078 0.832431 10.1911 0.842595 10.0156C1.54241 10.5108 2.58938 11.3167 3.63636 12.3636C4.68331 13.4106 5.48911 14.4575 5.98435 15.1573Z" fill="#CCB7F2"/>
<path d="M11.4662 7.63636L8.36364 4.53382L12.4313 1.04723C12.2225 0.892135 12.0258 0.75824 11.8431 0.64283C11.227 0.253631 10.5133 0.295189 9.89774 0.620177L7.50395 0.02173C7.25612 -0.0402291 6.99394 0.0323884 6.8133 0.213029L3.82101 3.20532C3.6462 3.38013 3.57061 3.63715 3.70512 3.84457C3.79797 3.98774 3.93963 4.15292 4.15252 4.29889C4.38844 4.46064 4.69914 4.38422 4.90141 4.18196L7.55065 1.53272L8.56557 1.78644L1.25843 9.06673C1.01491 9.30935 0.865328 9.62955 0.84508 9.9727C0.834299 10.1554 0.821997 10.3863 0.809415 10.6667C0.821039 10.4078 0.832431 10.1911 0.842595 10.0156C1.54241 10.5108 2.58938 11.3167 3.63636 12.3636C4.68331 13.4106 5.48911 14.4575 5.98435 15.1573C5.99893 15.1565 6.01322 15.1557 6.02723 15.1548C6.37039 15.1346 6.69059 14.985 6.93322 14.7415L14.9108 6.73454C15.6152 6.02749 15.8902 5.00068 15.3571 4.15686C15.2417 3.97418 15.1079 3.77746 14.9528 3.56868L11.4662 7.63636Z" fill="#5D3F92"/>
<path fill-rule="evenodd" clip-rule="evenodd" d="M13.1707 0.413509L12.4313 1.04723C12.8396 1.35048 13.2939 1.73478 13.7795 2.22043C14.2652 2.7061 14.6495 3.16044 14.9528 3.56868L15.5865 2.82934C15.9308 2.42769 16.1326 1.89802 15.9002 1.42279C15.7854 1.18797 15.6105 0.921801 15.3444 0.655634C15.0782 0.389468 14.812 0.214638 14.5772 0.0998033C14.102 -0.132597 13.5723 0.0692351 13.1707 0.413509ZM3.63636 12.3636C4.68331 13.4106 5.48911 14.4575 5.98435 15.1573C5.30703 15.1966 4.01722 15.254 2.0503 15.2727C1.97109 15.2735 1.8931 15.2486 1.83043 15.2002C1.66257 15.0704 1.47891 14.9137 1.29526 14.73C1.09875 14.5335 0.933058 14.337 0.798192 14.1598C0.750765 14.0975 0.726517 14.0203 0.727268 13.942C0.734477 13.1902 0.747337 12.5374 0.76266 11.9801C0.771764 11.6491 0.781738 11.3517 0.791913 11.0873L0.792164 11.0808C0.797889 10.9324 0.803684 10.7944 0.809415 10.6667C0.821039 10.4078 0.832431 10.1911 0.842595 10.0156C1.54241 10.5108 2.58938 11.3167 3.63636 12.3636Z" fill="#CCB7F2"/>
<path d="M8.36364 4.53382L11.4662 7.63636L14.9528 3.56868C14.6495 3.16044 14.2652 2.7061 13.7795 2.22043C13.2939 1.73478 12.8396 1.35048 12.4313 1.04723L8.36364 4.53382Z" fill="#5D3F92"/>
</svg>
