<svg width="16" height="16" viewBox="0 0 16 16" fill="none" xmlns="http://www.w3.org/2000/svg">
<path d="M0 8C0 12.4183 3.58172 16 8 16C12.4183 16 16 12.4183 16 8C16 3.58172 12.4183 0 8 0C3.58172 0 0 3.58172 0 8Z" fill="#CCB7F2"/>
<path d="M7.27691 3.28173C7.58087 2.71561 8.41913 2.71561 8.72309 3.28173L9.86772 5.4136L12.2945 5.8752C12.9148 5.9932 13.1655 6.71923 12.7428 7.1734L11.022 9.02215L11.3381 11.4962C11.4177 12.1192 10.7472 12.577 10.1659 12.2967L8 11.2524L5.83411 12.2967C5.25275 12.577 4.58233 12.1192 4.66191 11.4962L4.97796 9.02215L3.25719 7.1734C2.83446 6.71923 3.0852 5.9932 3.70554 5.8752L6.13228 5.4136L7.27691 3.28173Z" fill="#5D3F92"/>
</svg>
