<svg width="15" height="15" viewBox="0 0 15 15" fill="none" xmlns="http://www.w3.org/2000/svg">
<circle cx="7.5" cy="7.5" r="7" fill="white" stroke="#5D3F92"/>
<path fill-rule="evenodd" clip-rule="evenodd" d="M7.50293 9C7.22679 9 7.00293 8.77614 7.00293 8.5L7.00293 2.5C7.00293 2.22386 7.22679 2 7.50293 2C7.77907 2 8.00293 2.22386 8.00293 2.5L8.00293 8.5C8.00293 8.77614 7.77907 9 7.50293 9Z" fill="#5D3F92"/>
<path fill-rule="evenodd" clip-rule="evenodd" d="M6.94194 8.77027C6.96867 8.41265 7.359 8.20496 7.67053 8.38261L11.0747 10.3237C11.3149 10.4607 11.3978 10.7668 11.2596 11.0063C11.1219 11.2448 10.8169 11.3265 10.5784 11.1888L7.18466 9.2294C7.0223 9.13566 6.92797 8.95723 6.94194 8.77027Z" fill="#5D3F92"/>
</svg>
