<svg width="16" height="16" viewBox="0 0 16 16" fill="none" xmlns="http://www.w3.org/2000/svg">
<path d="M11.2 0C12.0837 0 12.8 0.716344 12.8 1.6L1.6 1.6L1.6 10.5412C0.716345 10.5412 0 9.82483 0 8.94118V1.6C0 0.716343 0.716344 0 1.6 0H11.2Z" fill="#7C7C7C"/>
<path d="M9.6 16L7.46667 13.7412H4.8C3.91635 13.7412 3.2 13.0248 3.2 12.1412V4.8C3.2 3.91634 3.91634 3.2 4.8 3.2H14.4C15.2837 3.2 16 3.91634 16 4.8V12.1412C16 13.0248 15.2837 13.7412 14.4 13.7412H11.7333L9.6 16ZM11.0437 12.1412L14.4 12.1412V4.8L4.8 4.8V12.1412H8.15634L9.6 13.6698L11.0437 12.1412Z" fill="#7C7C7C"/>
</svg>
