<svg width="36" height="36" viewBox="0 0 36 36" fill="none" xmlns="http://www.w3.org/2000/svg">
<path d="M30.375 0L5.625 0C2.5184 0 0 2.5184 0 5.625L0 30.375C0 33.4816 2.5184 36 5.625 36H30.375C33.4816 36 36 33.4816 36 30.375V5.625C36 2.5184 33.4816 0 30.375 0Z" fill="#873DC1"/>
<path d="M24.7242 11.6306C23.5226 11.1024 22.2378 10.7186 20.8946 10.5C20.7296 10.7802 20.5369 11.1571 20.4041 11.4569C18.9762 11.2551 17.5614 11.2551 16.1598 11.4569C16.027 11.1571 15.8298 10.7802 15.6634 10.5C14.3188 10.7186 13.0325 11.1038 11.8309 11.6334C9.40733 15.0743 8.75033 18.4297 9.07883 21.7374C10.6863 22.8652 12.2441 23.5503 13.7756 23.9986C14.1538 23.5097 14.4911 22.9899 14.7816 22.4421C14.2283 22.2445 13.6983 22.0008 13.1975 21.7178C13.3303 21.6253 13.4603 21.5287 13.5859 21.4292C16.6402 22.7713 19.9587 22.7713 22.9766 21.4292C23.1036 21.5287 23.2335 21.6253 23.3649 21.7178C22.8627 22.0022 22.3313 22.246 21.7779 22.4435C22.0685 22.9899 22.4043 23.5111 22.7838 24C24.3168 23.5517 25.8761 22.8666 27.4836 21.7374C27.8691 17.9029 26.8251 14.5783 24.7242 11.6306ZM15.1977 19.7032C14.2808 19.7032 13.5289 18.899 13.5289 17.9197C13.5289 16.9404 14.2648 16.1348 15.1977 16.1348C16.1306 16.1348 16.8825 16.939 16.8665 17.9197C16.868 18.899 16.1306 19.7032 15.1977 19.7032ZM21.3648 19.7032C20.4479 19.7032 19.6959 18.899 19.6959 17.9197C19.6959 16.9404 20.4318 16.1348 21.3648 16.1348C22.2977 16.1348 23.0496 16.939 23.0335 17.9197C23.0335 18.899 22.2977 19.7032 21.3648 19.7032Z" fill="white"/>
</svg>
