<svg width="9" height="16" viewBox="0 0 9 16" fill="none" xmlns="http://www.w3.org/2000/svg">
<path fill-rule="evenodd" clip-rule="evenodd" d="M4.5 0C4.99706 0 5.4 0.447715 5.4 1V2.66831C6.13711 2.7411 6.82472 2.90646 7.39363 3.17027C8.13093 3.51216 9 4.19626 9 5.375C9 5.92728 8.59706 6.375 8.1 6.375C7.60796 6.375 7.20814 5.93627 7.20012 5.39168C7.18736 5.35684 7.10771 5.20487 6.70037 5.01598C6.19389 4.78112 5.42148 4.625 4.5 4.625C3.45046 4.625 2.70755 4.63493 2.21352 4.80094C1.99127 4.87562 1.9091 4.9557 1.87792 4.9979C1.85612 5.0274 1.8 5.11493 1.8 5.375C1.8 5.43979 1.8317 5.67637 2.45683 6.05622C3.04379 6.41288 3.85527 6.71248 4.78059 7.04984C4.79756 7.05603 4.81457 7.06223 4.83161 7.06844C5.69353 7.38261 6.65859 7.73437 7.40683 8.18904C8.1317 8.6295 9 9.37729 9 10.625C9 11.2399 8.85512 11.8087 8.51317 12.2713C8.1806 12.7213 7.73627 12.9694 7.30752 13.1134C6.75038 13.3006 6.07478 13.354 5.4 13.3692V15C5.4 15.5523 4.99706 16 4.5 16C4.00294 16 3.6 15.5523 3.6 15V13.3438C2.88506 13.2912 2.20347 13.1665 1.63476 12.9276C0.82046 12.5856 0 11.882 0 10.625C0 10.0727 0.402944 9.625 0.9 9.625C1.39706 9.625 1.8 10.0727 1.8 10.625C1.8 10.6267 1.79999 10.6284 1.79997 10.6303C1.79947 10.6908 1.79808 10.858 2.27124 11.0568C2.76895 11.2658 3.53888 11.375 4.5 11.375C5.54954 11.375 6.29245 11.3651 6.78648 11.1991C7.00873 11.1244 7.0909 11.0443 7.12208 11.0021C7.14388 10.9726 7.2 10.8851 7.2 10.625C7.2 10.5602 7.1683 10.3236 6.54317 9.94378C5.95621 9.58712 5.14473 9.28752 4.21941 8.95016L4.16839 8.93156C3.30648 8.61739 2.34141 8.26563 1.59317 7.81097C0.868296 7.3705 0 6.62271 0 5.375C0 4.76007 0.144884 4.19135 0.486831 3.72866C0.819397 3.27867 1.26373 3.03063 1.69248 2.88656C2.24962 2.69935 2.92522 2.64596 3.6 2.63085V1C3.6 0.447715 4.00294 0 4.5 0ZM7.20226 5.39921C7.20217 5.39924 7.20176 5.39793 7.20132 5.39521C7.20213 5.39782 7.20235 5.39918 7.20226 5.39921Z" fill="#873DC1"/>
</svg>
