<svg width="113" height="269" viewBox="0 0 113 269" fill="none" xmlns="http://www.w3.org/2000/svg">
<path fill-rule="evenodd" clip-rule="evenodd" d="M109.161 250.843V5.58484H110.258V250.861L110.257 250.87C110.163 252.946 109.433 256.138 107.542 259.014C105.643 261.899 102.552 264.494 97.744 265.271L97.6931 265.279H4.9375V264.349H97.589C101.967 263.627 104.804 261.265 106.584 258.56C108.373 255.84 109.07 252.801 109.161 250.843Z" fill="#5D3F92" stroke="#5D3F92"/>
<path d="M6.37778 262.221C6.60591 261.931 6.21135 261.58 5.85871 261.759L0.239508 264.62C0.0675889 264.707 0.0675901 264.918 0.23951 265.006L5.85871 267.866C6.21135 268.046 6.60591 267.695 6.37779 267.405C5.14454 265.835 5.14455 263.79 6.37778 262.221Z" fill="#5D3F92"/>
<rect x="1" y="1" width="3.58483" height="4.58252" rx="1.79242" transform="matrix(-5.15817e-08 1 1 3.70419e-08 106.418 5.15817e-08)" stroke="#5D3F92" stroke-width="2"/>
</svg>
