<svg width="514" height="185" viewBox="0 0 514 185" fill="none" xmlns="http://www.w3.org/2000/svg">
<path d="M18.1127 90.411L18.1127 89.411L18.1127 90.411ZM497.66 90.411L497.66 91.411L497.66 90.411ZM497.66 91.411L18.1127 91.411L18.1127 89.411L497.66 89.411L497.66 91.411ZM5.49708 104.027L5.49706 180.234L3.49706 180.234L3.49708 104.027L5.49708 104.027ZM510.275 76.7954L510.275 4.76544L512.275 4.76544L512.275 76.7954L510.275 76.7954ZM18.1127 91.411C11.1453 91.411 5.49708 97.0592 5.49708 104.027L3.49708 104.027C3.49708 95.9547 10.0407 89.411 18.1127 89.411L18.1127 91.411ZM497.66 89.411C504.627 89.411 510.275 83.7628 510.275 76.7954L512.275 76.7954C512.275 84.8674 505.732 91.411 497.66 91.411L497.66 89.411Z" fill="#5D3F92"/>
<rect x="1" y="1" width="3.44625" height="3.44625" rx="1.72313" transform="matrix(-4.37637e-08 1 1 4.36592e-08 508.553 4.37637e-08)" stroke="#5D3F92" stroke-width="2"/>
<path d="M1.7141 178.653C1.4022 178.445 1.02501 178.805 1.21787 179.126L4.291 184.248C4.38502 184.405 4.61213 184.405 4.70615 184.248L7.77924 179.126C7.9721 178.805 7.59492 178.445 7.28303 178.653C5.5969 179.777 3.40023 179.777 1.7141 178.653Z" fill="#5D3F92"/>
</svg>
