<svg width="16" height="16" viewBox="0 0 16 16" fill="none" xmlns="http://www.w3.org/2000/svg">
<path fill-rule="evenodd" clip-rule="evenodd" d="M8 1.6C4.46538 1.6 1.6 4.46538 1.6 8C1.6 11.5346 4.46538 14.4 8 14.4C11.5346 14.4 14.4 11.5346 14.4 8C14.4 4.46538 11.5346 1.6 8 1.6ZM0 8C0 3.58172 3.58172 0 8 0C12.4183 0 16 3.58172 16 8C16 12.4183 12.4183 16 8 16C3.58172 16 0 12.4183 0 8Z" fill="#7C7C7C"/>
<path fill-rule="evenodd" clip-rule="evenodd" d="M11.7657 4.23431C12.0015 4.47012 12.0663 4.82746 11.9283 5.13104L9.92829 9.53104C9.84825 9.70713 9.70713 9.84825 9.53104 9.92829L5.13104 11.9283C4.82746 12.0663 4.47012 12.0015 4.23431 11.7657C3.99851 11.5299 3.93371 11.1725 4.07171 10.869L6.07171 6.46896C6.15175 6.29287 6.29287 6.15175 6.46896 6.07171L10.869 4.07171C11.1725 3.93371 11.5299 3.99851 11.7657 4.23431ZM7.40415 7.40415L6.41107 9.58893L8.59585 8.59585L9.58893 6.41107L7.40415 7.40415Z" fill="#7C7C7C"/>
</svg>
