<svg width="16" height="16" viewBox="0 0 16 16" fill="none" xmlns="http://www.w3.org/2000/svg">
<path d="M1.47204 0.41193C0.769171 0.537254 0.285571 1.08719 0.20766 1.7996C0.107053 2.71953 0 4.29359 0 6.82688C0 9.36017 0.107053 10.9342 0.20766 11.8542C0.285571 12.5666 0.769173 13.1165 1.47204 13.2418C2.09668 13.3532 3.03526 13.4751 4.4 13.5571V15.1953C4.4 15.8688 5.17595 16.2432 5.69976 15.8225L8.40125 13.6528C11.6249 13.6365 13.5008 13.425 14.528 13.2418C15.2308 13.1165 15.7144 12.5666 15.7923 11.8542C15.8929 10.9342 16 9.36017 16 6.82688C16 4.29359 15.8929 2.71953 15.7923 1.7996C15.7144 1.08719 15.2308 0.537254 14.528 0.41193C13.4589 0.221319 11.4705 0 8 0C4.52953 0 2.54105 0.221319 1.47204 0.41193Z" fill="#CCB7F2"/>
<path d="M6.45084 6.59763C6.33288 6.70934 6.27616 6.8606 6.28066 7.0514H6.28016V7.93802C6.28016 8.28641 6.55429 8.56883 6.89246 8.56883H7.46496C7.80313 8.56883 8.07726 8.28641 8.07726 7.93802V7.74291L8.16304 7.70171C8.54707 7.51469 8.88764 7.32055 9.18475 7.11927C9.48185 6.91799 9.72274 6.69902 9.9074 6.46234C10.0997 6.22481 10.235 5.96167 10.3133 5.67292C10.3983 5.37541 10.4208 5.03691 10.3808 4.65742C10.299 3.88264 9.99599 3.29263 9.4718 2.88739C8.95528 2.48129 8.24425 2.32897 7.33872 2.43042C7.02409 2.46567 6.73198 2.5304 6.46239 2.6246C6.19197 2.71089 5.95942 2.82494 5.76474 2.96674C5.57006 3.10855 5.42051 3.27329 5.31609 3.46098C5.21934 3.64781 5.18306 3.85586 5.20726 4.08513C5.22589 4.26161 5.28368 4.41756 5.37421 4.54923C5.56459 4.8261 5.94485 4.73533 6.21939 4.54789C6.28818 4.50092 6.35845 4.45699 6.43021 4.41608C6.65642 4.27875 6.92684 4.19245 7.24147 4.1572C7.5868 4.11851 7.84155 4.17796 8.00572 4.33556C8.17756 4.4923 8.27432 4.67344 8.29602 4.879C8.32022 5.10827 8.2716 5.3097 8.15016 5.4833C8.02789 5.64899 7.85623 5.78821 7.63519 5.90097L6.97207 6.23925C6.75871 6.35115 6.58496 6.47061 6.45084 6.59763Z" fill="#5D3F92"/>
<path d="M6.04651 10.4787C6.04651 10.1447 6.143 9.87429 6.33598 9.66752C6.53668 9.46076 6.81071 9.35737 7.15808 9.35737C7.50545 9.35737 7.77562 9.46076 7.9686 9.66752C8.1693 9.87429 8.26965 10.1447 8.26965 10.4787C8.26965 10.8127 8.1693 11.0831 7.9686 11.2899C7.77562 11.4966 7.50545 11.6 7.15808 11.6C6.81071 11.6 6.53668 11.4966 6.33598 11.2899C6.143 11.0831 6.04651 10.8127 6.04651 10.4787Z" fill="#5D3F92"/>
</svg>
