<svg width="18" height="18" viewBox="0 0 18 18" fill="none" xmlns="http://www.w3.org/2000/svg">
<path fill-rule="evenodd" clip-rule="evenodd" d="M8.96102 1.57984C6.5288 1.57984 6.26516 1.59169 5.32255 1.63408L5.30805 1.63473C4.73835 1.64227 4.17416 1.74725 3.63998 1.94511C2.85117 2.24652 2.22699 2.86726 1.92193 3.65369C1.72226 4.19291 1.61711 4.76245 1.6111 5.33733C1.55813 6.30439 1.55813 6.55788 1.55813 8.98203C1.55813 11.3772 1.56713 11.6677 1.6111 12.6287C1.62005 13.1978 1.72514 13.7613 1.92193 14.2954C2.22744 15.0813 2.85151 15.7016 3.63998 16.003C4.1738 16.2022 4.73822 16.3072 5.30805 16.3134C6.27551 16.3693 6.53037 16.3693 8.96102 16.3693C11.4084 16.3693 11.6656 16.3573 12.6081 16.3136L12.613 16.3134C13.1831 16.3064 13.7477 16.2014 14.2821 16.003C15.0661 15.699 15.6862 15.0801 15.9911 14.2974C16.1904 13.7577 16.2955 13.1879 16.3019 12.6128H16.3129C16.3559 11.6587 16.3559 11.4042 16.3559 8.96607C16.3559 6.52794 16.3449 6.27146 16.3019 5.31836C16.293 4.74995 16.1879 4.18714 15.9911 3.65369C15.6869 2.86983 15.0667 2.24979 14.2821 1.94511C13.7478 1.74625 13.1831 1.64124 12.613 1.63473C11.6465 1.57984 11.3937 1.57984 8.96102 1.57984ZM4.72424 10.746C5.4404 12.4698 7.12603 13.593 8.995 13.5918C11.5446 13.5869 13.6097 11.523 13.6124 8.97705C13.612 7.11077 12.4857 5.42854 10.7588 4.7149C9.03184 4.00127 7.04444 4.3968 5.72345 5.71703C4.40246 7.03726 4.00808 9.02213 4.72424 10.746ZM12.7189 4.19162C12.7178 4.78502 13.1981 5.26726 13.7923 5.26946C14.079 5.27026 14.3543 5.15702 14.5572 4.95477C14.7601 4.75252 14.874 4.47791 14.8737 4.19162C14.8726 3.59822 14.3906 3.11777 13.7963 3.11777C13.2021 3.11777 12.72 3.59823 12.7189 4.19162Z" fill="#5D3F92"/>
<path d="M8.995 5.98104C7.33907 5.98104 5.99667 7.3215 5.99667 8.97505C5.99667 10.6286 7.33907 11.9691 8.995 11.9691C10.6509 11.9691 11.9933 10.6286 11.9933 8.97505C11.9895 7.3231 10.6493 5.98488 8.995 5.98104Z" fill="#5D3F92"/>
<path fill-rule="evenodd" clip-rule="evenodd" d="M8.995 18C6.54352 18 6.24823 17.9871 5.29542 17.9455L5.28706 17.9451C4.53885 17.9205 3.80032 17.7687 3.10328 17.496C1.89726 17.0273 0.943616 16.0747 0.474736 14.8703C0.212188 14.1717 0.0705786 13.4336 0.0559689 12.6876C0 11.7315 0 11.4182 0 8.98203C0 6.51996 0.0129928 6.23253 0.0559689 5.27944C0.0708982 4.53445 0.212503 3.79741 0.474736 3.0998C0.943107 1.89374 1.8983 0.940292 3.10627 0.473054C3.80453 0.209783 4.54282 0.0680083 5.28906 0.0538922C6.24353 0 6.55736 0 8.995 0C11.4591 0 11.7551 0.0128226 12.6864 0.0531763L12.7029 0.0538922C13.4511 0.0681304 14.1914 0.20989 14.8917 0.473054C16.0994 0.940821 17.0544 1.89409 17.5233 3.0998C17.7902 3.80758 17.9326 4.55614 17.944 5.31237C18 6.26846 18 6.58084 18 9.01597C18 11.4511 17.986 11.7705 17.944 12.7156C17.9292 13.4623 17.7872 14.201 17.5243 14.9002C17.0542 16.1055 16.0991 17.0585 14.8917 17.5269C14.1924 17.7886 13.4536 17.93 12.7069 17.9451C11.7525 18 11.4396 18 8.995 18ZM8.96102 1.57984C6.5288 1.57984 6.26516 1.59169 5.32255 1.63408L5.30805 1.63473C4.73835 1.64227 4.17416 1.74725 3.63998 1.94511C2.85117 2.24652 2.22699 2.86726 1.92193 3.65369C1.72226 4.19291 1.61711 4.76245 1.6111 5.33733C1.55813 6.30439 1.55813 6.55788 1.55813 8.98203C1.55813 11.3772 1.56713 11.6677 1.6111 12.6287C1.62005 13.1978 1.72514 13.7613 1.92193 14.2954C2.22744 15.0813 2.85151 15.7016 3.63998 16.003C4.1738 16.2022 4.73822 16.3072 5.30805 16.3134C6.27551 16.3693 6.53037 16.3693 8.96102 16.3693C11.4084 16.3693 11.6656 16.3573 12.6081 16.3136L12.613 16.3134C13.1831 16.3064 13.7477 16.2014 14.2821 16.003C15.0661 15.699 15.6862 15.0801 15.9911 14.2974C16.1904 13.7577 16.2955 13.1879 16.3019 12.6128H16.3129C16.3559 11.6587 16.3559 11.4042 16.3559 8.96607C16.3559 6.52794 16.3449 6.27146 16.3019 5.31836C16.293 4.74995 16.1879 4.18714 15.9911 3.65369C15.6869 2.86983 15.0667 2.24979 14.2821 1.94511C13.7478 1.74625 13.1831 1.64124 12.613 1.63473C11.6465 1.57984 11.3937 1.57984 8.96102 1.57984Z" fill="#5D3F92"/>
</svg>
