<svg width="15" height="15" viewBox="0 0 15 15" fill="none" xmlns="http://www.w3.org/2000/svg">
<mask id="path-1-inside-1_27_1040" fill="white">
<path d="M13.9056 1.47351C13.1658 0.523293 12.1394 0 11.0156 0C9.43512 0 8.43448 1.06847 7.87339 1.96484C7.72781 2.19743 7.60397 2.43066 7.5 2.65012C7.39603 2.43066 7.27222 2.19743 7.12661 1.96484C6.56552 1.06847 5.56488 0 3.98438 0C2.86061 0 1.83425 0.523326 1.09438 1.47354C0.388682 2.37999 0 3.59397 0 4.89186C0 6.30465 0.487295 7.61869 1.53354 9.02713C2.46861 10.286 3.81384 11.5835 5.37158 13.086C5.95204 13.6459 6.5523 14.2249 7.19136 14.8578L7.21055 14.8769C7.2934 14.959 7.3967 15 7.5 15C7.6033 15 7.7066 14.9589 7.78945 14.8769L7.80864 14.8578C8.4477 14.2249 9.04796 13.646 9.62851 13.086C11.1862 11.5835 12.5314 10.286 13.4665 9.02713C14.5127 7.61865 15 6.30465 15 4.89186C15 3.59397 14.6113 2.37999 13.9056 1.47351ZM9.375 12.375C8.87461 12.8576 8.25 13.5 7.5 13.875C6.95701 13.3407 6.12548 12.8577 5.625 12.375C2.5764 9.43445 0.75 7.44555 0.75 4.89186C0.75 3.83632 1.31083 2.59962 1.875 1.875C2.44564 1.14216 3.11657 0.75 3.98438 0.75C5.18933 0.75 6.30879 1.92011 6.75 2.625C7.14577 3.2572 7.01174 3.80949 7.08217 4.05413C7.14108 4.2589 7.30975 4.39748 7.5 4.39748C7.69025 4.39748 7.85892 4.2589 7.91783 4.05413C7.98826 3.80949 7.85423 3.25723 8.25 2.625C8.69121 1.92015 9.81067 0.75 11.0156 0.75C11.8834 0.75 12.8363 1.23199 13.4069 1.96484C13.9711 2.68945 14.25 3.81946 14.25 4.875C14.25 7.42869 12.4237 9.43438 9.375 12.375Z"/>
</mask>
<path d="M13.9056 1.47351C13.1658 0.523293 12.1394 0 11.0156 0C9.43512 0 8.43448 1.06847 7.87339 1.96484C7.72781 2.19743 7.60397 2.43066 7.5 2.65012C7.39603 2.43066 7.27222 2.19743 7.12661 1.96484C6.56552 1.06847 5.56488 0 3.98438 0C2.86061 0 1.83425 0.523326 1.09438 1.47354C0.388682 2.37999 0 3.59397 0 4.89186C0 6.30465 0.487295 7.61869 1.53354 9.02713C2.46861 10.286 3.81384 11.5835 5.37158 13.086C5.95204 13.6459 6.5523 14.2249 7.19136 14.8578L7.21055 14.8769C7.2934 14.959 7.3967 15 7.5 15C7.6033 15 7.7066 14.9589 7.78945 14.8769L7.80864 14.8578C8.4477 14.2249 9.04796 13.646 9.62851 13.086C11.1862 11.5835 12.5314 10.286 13.4665 9.02713C14.5127 7.61865 15 6.30465 15 4.89186C15 3.59397 14.6113 2.37999 13.9056 1.47351ZM9.375 12.375C8.87461 12.8576 8.25 13.5 7.5 13.875C6.95701 13.3407 6.12548 12.8577 5.625 12.375C2.5764 9.43445 0.75 7.44555 0.75 4.89186C0.75 3.83632 1.31083 2.59962 1.875 1.875C2.44564 1.14216 3.11657 0.75 3.98438 0.75C5.18933 0.75 6.30879 1.92011 6.75 2.625C7.14577 3.2572 7.01174 3.80949 7.08217 4.05413C7.14108 4.2589 7.30975 4.39748 7.5 4.39748C7.69025 4.39748 7.85892 4.2589 7.91783 4.05413C7.98826 3.80949 7.85423 3.25723 8.25 2.625C8.69121 1.92015 9.81067 0.75 11.0156 0.75C11.8834 0.75 12.8363 1.23199 13.4069 1.96484C13.9711 2.68945 14.25 3.81946 14.25 4.875C14.25 7.42869 12.4237 9.43438 9.375 12.375Z" fill="black" stroke="#5D3F92" stroke-width="2" mask="url(#path-1-inside-1_27_1040)"/>
</svg>
