<svg width="15" height="15" viewBox="0 0 14 14" fill="none" xmlns="http://www.w3.org/2000/svg">
<path d="M12.1245 2.17881C11.5326 1.41863 10.7115 1 9.8125 1C8.54809 1 7.74759 1.85478 7.29871 2.57187C7.18225 2.75795 7.08318 2.94453 7 3.1201C6.91682 2.94453 6.81777 2.75795 6.70129 2.57187C6.25241 1.85478 5.45191 1 4.1875 1C3.28848 1 2.4674 1.41866 1.87551 2.17884C1.31095 2.90399 1 3.87518 1 4.91349C1 6.04372 1.38984 7.09495 2.22684 8.22171C2.97489 9.22876 4.05107 10.2668 5.29727 11.4688C5.76163 11.9168 6.24184 12.38 6.75309 12.8863L6.76844 12.9015C6.83472 12.9672 6.91736 13 7 13C7.08264 13 7.16528 12.9672 7.23156 12.9015L7.24691 12.8863C7.75816 12.38 8.23837 11.9168 8.70281 11.4688C9.94893 10.2668 11.0251 9.22879 11.7732 8.22171C12.6102 7.09492 13 6.04372 13 4.91349C13 3.87518 12.6891 2.90399 12.1245 2.17881ZM8.5 10.9C8.09969 11.2861 7.6 11.8 7 12.1C6.56561 11.6726 5.90038 11.2862 5.5 10.9C3.06112 8.54756 1.6 6.95644 1.6 4.91349C1.6 4.06906 2.04866 3.07969 2.5 2.5C2.95652 1.91373 3.49326 1.6 4.1875 1.6C5.15146 1.6 6.04703 2.53609 6.4 3.1C6.71662 3.60576 6.60939 4.04759 6.66573 4.2433C6.71287 4.40712 6.8478 4.51799 7 4.51799C7.1522 4.51799 7.28713 4.40712 7.33427 4.2433C7.39061 4.04759 7.28338 3.60578 7.6 3.1C7.95297 2.53612 8.84854 1.6 9.8125 1.6C10.5067 1.6 11.269 1.98559 11.7255 2.57187C12.1769 3.15156 12.4 4.05557 12.4 4.9C12.4 6.94295 10.939 8.5475 8.5 10.9Z" fill="#7C7C7C" stroke="#7C7C7C"/>
</svg>
