<svg width="81" height="19" viewBox="0 0 81 19" fill="none" xmlns="http://www.w3.org/2000/svg">
<path d="M0.161031 1.2V12.48C0.161031 13.472 0.321031 14.344 0.641031 15.096C0.961031 15.848 1.40903 16.48 1.98503 16.992C2.56103 17.504 3.24103 17.888 4.02503 18.144C4.80903 18.416 5.66503 18.552 6.59303 18.552C7.50503 18.552 8.35303 18.416 9.13703 18.144C9.92103 17.888 10.601 17.504 11.177 16.992C11.769 16.48 12.225 15.848 12.545 15.096C12.865 14.344 13.025 13.472 13.025 12.48V1.2H9.59303V12.264C9.59303 13.224 9.33703 14 8.82503 14.592C8.32903 15.168 7.58503 15.456 6.59303 15.456C5.60103 15.456 4.84903 15.168 4.33703 14.592C3.84103 14 3.59303 13.224 3.59303 12.264V1.2H0.161031ZM28.4752 1.2V11.616L16.5232 0.36V18H19.8352V7.584L31.7872 18.84V1.2H28.4752ZM35.4373 1.2V18H38.9413V1.2H35.4373ZM41.1493 18C42.9093 18 44.4453 17.656 45.7573 16.968C47.0853 16.28 48.1173 15.312 48.8533 14.064C49.5893 12.8 49.9573 11.312 49.9573 9.6C49.9573 7.888 49.5893 6.408 48.8533 5.16C48.1173 3.896 47.0853 2.92 45.7573 2.232C44.4453 1.544 42.9093 1.2 41.1493 1.2H37.6453V4.32H41.0293C41.7653 4.32 42.4613 4.424 43.1173 4.632C43.7733 4.824 44.3493 5.136 44.8453 5.568C45.3413 6 45.7253 6.552 45.9973 7.224C46.2853 7.88 46.4293 8.672 46.4293 9.6C46.4293 10.528 46.2853 11.328 45.9973 12C45.7253 12.656 45.3413 13.2 44.8453 13.632C44.3493 14.064 43.7733 14.384 43.1173 14.592C42.4613 14.784 41.7653 14.88 41.0293 14.88H37.6453V18H41.1493ZM54.2184 14.184H63.0984L62.6904 11.472H54.6264L54.2184 14.184ZM58.6104 6.648L61.1304 12.48L61.0824 13.344L63.2424 18H67.1304L58.6104 0.215999L50.0904 18H53.9544L56.1624 13.2L56.0904 12.432L58.6104 6.648ZM70.4169 12.36L67.9689 14.088C68.3369 14.872 68.8489 15.6 69.5049 16.272C70.1609 16.944 70.9289 17.48 71.8089 17.88C72.7049 18.264 73.6649 18.456 74.6889 18.456C75.4569 18.456 76.1849 18.336 76.8729 18.096C77.5769 17.872 78.2089 17.544 78.7689 17.112C79.3289 16.664 79.7689 16.12 80.0889 15.48C80.4089 14.84 80.5689 14.112 80.5689 13.296C80.5689 12.576 80.4489 11.944 80.2089 11.4C79.9849 10.84 79.6649 10.36 79.2489 9.96C78.8489 9.544 78.3929 9.192 77.8809 8.904C77.3849 8.616 76.8649 8.376 76.3209 8.184C75.4729 7.896 74.7689 7.616 74.2089 7.344C73.6489 7.056 73.2329 6.76 72.9609 6.456C72.6889 6.136 72.5529 5.768 72.5529 5.352C72.5529 4.936 72.7209 4.576 73.0569 4.272C73.3929 3.952 73.8969 3.792 74.5689 3.792C75.0809 3.792 75.5369 3.896 75.9369 4.104C76.3369 4.296 76.6889 4.56 76.9929 4.896C77.3129 5.216 77.5849 5.576 77.8089 5.976L80.4969 4.488C80.2089 3.896 79.8009 3.328 79.2729 2.784C78.7609 2.224 78.1129 1.768 77.3289 1.416C76.5609 1.048 75.6409 0.863999 74.5689 0.863999C73.5289 0.863999 72.5849 1.056 71.7369 1.44C70.9049 1.808 70.2409 2.344 69.7449 3.048C69.2649 3.736 69.0249 4.56 69.0249 5.52C69.0249 6.32 69.1769 7.008 69.4809 7.584C69.7849 8.144 70.1689 8.624 70.6329 9.024C71.0969 9.408 71.5849 9.728 72.0969 9.984C72.6249 10.224 73.0889 10.416 73.4889 10.56C74.2409 10.848 74.8729 11.12 75.3849 11.376C75.9129 11.616 76.3049 11.896 76.5609 12.216C76.8329 12.536 76.9689 12.96 76.9689 13.488C76.9689 14.096 76.7529 14.576 76.3209 14.928C75.8889 15.28 75.3289 15.456 74.6409 15.456C74.0489 15.456 73.4969 15.328 72.9849 15.072C72.4729 14.816 72.0009 14.456 71.5689 13.992C71.1529 13.528 70.7689 12.984 70.4169 12.36Z" fill="#873DC1"/>
</svg>
