<svg width="16" height="10" viewBox="0 0 16 10" fill="none" xmlns="http://www.w3.org/2000/svg">
<path d="M15.8673 7.16827C15.7706 7.81274 15.2742 8.22035 14.6626 8.27935C13.6296 8.37902 11.6218 8.50182 8 8.50182C4.37817 8.50182 2.37042 8.37902 1.33736 8.27935C0.725794 8.22035 0.229353 7.81274 0.132722 7.16827C0.0601913 6.68453 -9.54046e-08 5.99155 0 5.0238C9.54048e-08 4.05606 0.0601914 3.36308 0.132722 2.87934C0.229353 2.23486 0.725794 1.82725 1.33737 1.76825C2.37042 1.66859 4.37817 1.54578 8 1.54579C11.6218 1.54579 13.6296 1.66859 14.6626 1.76825C15.2742 1.82725 15.7706 2.23486 15.8673 2.87934C15.9398 3.36308 16 4.05606 16 5.0238C16 5.99155 15.9398 6.68453 15.8673 7.16827Z" fill="#CCB7F2"/>
<path fill-rule="evenodd" clip-rule="evenodd" d="M12.8729 9.81134C13.7442 9.70042 14.362 9.01934 14.4395 8.09046C14.4976 7.39321 14.5455 6.40118 14.5455 5.0238C14.5455 3.64643 14.4976 2.6544 14.4395 1.95715C14.362 1.02826 13.7442 0.347189 12.8729 0.236267C11.927 0.115838 10.3947 2.22483e-07 8 0C5.60531 -2.22483e-07 4.07304 0.115838 3.12711 0.236266C2.25585 0.347188 1.63804 1.02826 1.56054 1.95715C1.50236 2.6544 1.45455 3.64643 1.45455 5.0238C1.45455 6.40118 1.50236 7.39321 1.56054 8.09046C1.63804 9.01934 2.25585 9.70042 3.12711 9.81134C3.6932 9.88341 4.46929 9.95384 5.51455 9.99877C6.01337 10.0202 6.48425 9.75873 6.76117 9.31729L6.86931 9.1449C7.12135 8.74314 7.54564 8.50182 8 8.50182C8.45436 8.50182 8.87866 8.74314 9.13069 9.1449L9.23884 9.31729C9.51576 9.75873 9.98663 10.0202 10.4855 9.99877C11.5307 9.95384 12.3068 9.88341 12.8729 9.81134Z" fill="#5D3F92"/>
<path fill-rule="evenodd" clip-rule="evenodd" d="M4.00962 8.38882C3.93217 8.53578 4.00683 8.72069 4.16457 8.73715C4.43233 8.76511 4.74721 8.79183 5.11569 8.81481C5.34956 8.8294 5.57781 8.7743 5.77917 8.66247C5.8317 8.63329 5.87337 8.58682 5.90348 8.53256C6.33816 7.74919 6.86961 6.78204 7.51491 5.59422C8.42834 3.91287 9.09554 2.66256 9.57752 1.74635C9.70963 1.49521 9.54527 1.18574 9.27462 1.17827C8.92889 1.16872 8.55202 1.16239 8.14161 1.16019C8.01303 1.15951 7.89395 1.23136 7.82844 1.34895C7.35804 2.19319 6.75943 3.27992 6.00533 4.66799C5.13343 6.2729 4.48588 7.48508 4.00962 8.38882ZM5.72036 1.37759C5.78247 1.2648 5.88322 1.19401 6.00612 1.18957C6.28528 1.17949 6.47565 1.49782 6.33741 1.75576C5.96694 2.44701 5.48624 3.33842 4.86739 4.47754C4.14854 5.80072 3.60886 6.78522 3.20949 7.50861C3.07715 7.74831 2.76069 7.75688 2.68318 7.49145C2.65861 7.40734 2.63921 7.32004 2.62527 7.22989C2.61301 7.15053 2.62989 7.06994 2.6673 7.00003C3.05005 6.28479 3.56132 5.33583 4.23755 4.09109C4.85631 2.95215 5.34232 2.06413 5.72036 1.37759Z" fill="#CCB7F2"/>
</svg>
