<svg width="16" height="16" viewBox="0 0 16 16" fill="none" xmlns="http://www.w3.org/2000/svg">
<path d="M8.34629 15.4617C8.12098 16.1794 7.15185 16.1794 6.92654 15.4617L5.99736 12.5019C5.92322 12.2657 5.74639 12.0805 5.52095 12.0028L2.69568 11.0294C2.01059 10.7933 2.0106 9.77806 2.69569 9.54202L5.52095 8.56859C5.74639 8.49092 5.92322 8.30568 5.99736 8.0695L6.92654 5.10969C7.15185 4.39198 8.12098 4.39198 8.34629 5.1097L9.27547 8.0695C9.34961 8.30568 9.52643 8.49092 9.75188 8.56859L12.5771 9.54202C13.2622 9.77806 13.2622 10.7933 12.5771 11.0294L9.75188 12.0028C9.52643 12.0805 9.34961 12.2657 9.27547 12.5019L8.34629 15.4617Z" fill="#873DC1"/>
<path d="M12.8305 7.26504C12.6823 7.73705 12.0449 7.73705 11.8967 7.26504L11.2735 5.27977C11.2247 5.12444 11.1085 5.00261 10.9602 4.95153L9.06515 4.29861C8.6146 4.14338 8.6146 3.47567 9.06515 3.32044L10.9602 2.66752C11.1085 2.61643 11.2247 2.49461 11.2735 2.33928L11.8967 0.354007C12.0449 -0.118002 12.6823 -0.118002 12.8305 0.354007L13.4537 2.33928C13.5025 2.49461 13.6187 2.61643 13.767 2.66752L15.6621 3.32044C16.1126 3.47567 16.1126 4.14338 15.6621 4.29861L13.767 4.95153C13.6187 5.00261 13.5025 5.12444 13.4537 5.27977L12.8305 7.26504Z" fill="#CCB7F2"/>
<path d="M2.90109 7.34938C2.78821 7.70894 2.3027 7.70894 2.18982 7.34938L1.77064 6.01413C1.7335 5.89581 1.64491 5.803 1.53197 5.76409L0.257415 5.32495C-0.085805 5.2067 -0.0858048 4.69806 0.257415 4.57981L1.53197 4.14067C1.64491 4.10176 1.7335 4.00895 1.77064 3.89063L2.18982 2.55539C2.3027 2.19582 2.78821 2.19582 2.90109 2.55539L3.32027 3.89063C3.35741 4.00895 3.446 4.10176 3.55894 4.14067L4.83349 4.57981C5.17671 4.69806 5.17671 5.2067 4.83349 5.32495L3.55894 5.76409C3.446 5.80301 3.35741 5.89581 3.32027 6.01413L2.90109 7.34938Z" fill="#5D3F92"/>
</svg>
