<svg width="24" height="24" viewBox="0 0 24 24" fill="none" xmlns="http://www.w3.org/2000/svg">
<path d="M12 23.9893C11.226 23.2271 10.3512 22.4341 9.42601 21.5906H9.41401C6.15601 18.6321 2.46362 15.2844 0.832826 11.2731C0.297048 9.99607 0.0131121 8.60664 1.36871e-05 7.19785C-0.00356446 5.26481 0.694551 3.41175 1.93659 2.05748C3.17863 0.703208 4.85976 -0.0379557 6.60001 0.00149828C8.01676 0.00398342 9.40301 0.458708 10.5936 1.3115C11.1168 1.6886 11.5901 2.14475 12 2.66681C12.4122 2.1468 12.8857 1.69092 13.4076 1.3115C14.5977 0.45854 15.9836 0.00378852 17.4 0.00149828C19.1402 -0.0379557 20.8214 0.703208 22.0634 2.05748C23.3055 3.41175 24.0036 5.26481 24 7.19785C23.9877 8.60889 23.7038 10.0007 23.1672 11.2798C21.5364 15.2911 17.8452 18.6374 14.5872 21.5906L14.5752 21.6012C13.6488 22.4395 12.7752 23.2324 12.0012 24L12 23.9893ZM6.60001 2.66681C5.48223 2.65128 4.4041 3.12637 3.60002 3.98881C2.82528 4.83394 2.39229 5.99186 2.39992 7.19785C2.41361 8.22467 2.62301 9.23662 3.01442 10.167C3.78423 11.8977 4.82295 13.4641 6.08281 14.794C7.27201 16.1267 8.64001 17.4167 9.8232 18.5015C10.1508 18.8013 10.4844 19.1038 10.818 19.4063L11.028 19.5969C11.3484 19.8874 11.6796 20.1886 12 20.4845L12.0156 20.4685L12.0228 20.4618H12.03L12.0408 20.4525H12.0468H12.0528L12.0744 20.4325L12.1236 20.3885L12.132 20.3805L12.1452 20.3698H12.1524L12.1632 20.3592L12.96 19.6329L13.1688 19.4423C13.506 19.1371 13.8396 18.8346 14.1672 18.5348C15.3504 17.45 16.7196 16.1613 17.9088 14.822C19.1688 13.4927 20.2076 11.9268 20.9772 10.1963C21.3757 9.25788 21.5881 8.23533 21.6 7.19785C21.605 5.99558 21.1722 4.8421 20.4 3.99947C19.5974 3.13314 18.5191 2.65413 17.4 2.66681C16.0343 2.65393 14.7287 3.28966 13.812 4.41393L12 6.73275L10.188 4.41393C9.27128 3.28966 7.9657 2.65393 6.60001 2.66681Z" fill="white"/>
</svg>
