<svg width="24" height="25" viewBox="0 0 21 20" fill="none" xmlns="http://www.w3.org/2000/svg">
<path fill-rule="evenodd" clip-rule="evenodd" d="M9.44061 0.328398C10.4339 0.681465 11.253 1.27396 11.9502 1.82143C12.7365 2.43887 14.031 3.80356 15.0497 4.91341C15.5776 5.48862 16.062 6.02935 16.4141 6.42593C16.5903 6.62439 16.7337 6.78716 16.8333 6.90058L16.9486 7.0321L16.9766 7.06418C18.8746 9.13011 19.0971 11.4093 18.9713 12.4505C18.7243 17.775 14.741 19.6828 12.6517 19.9371L12.5997 19.9435L12.5475 19.946L12.4799 18.519C12.5475 19.946 12.5476 19.946 12.5475 19.946L12.5376 19.9464L12.5134 19.9475L12.4228 19.9513C12.344 19.9544 12.2288 19.9587 12.0795 19.9634C11.7811 19.9729 11.3464 19.9842 10.795 19.9917C9.69243 20.0067 8.1214 20.0066 6.23761 19.9468C3.76829 19.8685 2.19977 18.453 1.30701 16.9605C0.459919 15.5443 0.147183 13.9618 0.126143 13.0353L0.125242 13.0218C0.123134 12.9897 0.120129 12.9431 0.116435 12.8834C0.109048 12.7641 0.0988953 12.5923 0.0876432 12.3797C0.0651637 11.9551 0.0381703 11.3655 0.020152 10.7052C-0.0151194 9.41264 -0.0194672 7.75057 0.137033 6.53799C0.492105 3.78686 2.70783 0.994696 5.94431 0.201588C7.26221 -0.121366 8.40503 -0.0397059 9.44061 0.328398ZM2.9719 12.8753L2.97465 12.915L2.97518 12.9548C2.98159 13.4308 3.1794 14.535 3.75131 15.4912C4.29048 16.3925 5.07877 17.0515 6.32777 17.0911C8.1623 17.1493 9.68987 17.1493 10.7563 17.1348C11.2894 17.1275 11.7069 17.1167 11.9894 17.1077C12.1306 17.1032 12.2381 17.0992 12.3094 17.0964L12.3569 17.0944C13.5113 16.9313 15.9841 15.8071 16.1264 12.2677L16.1296 12.1904L16.141 12.1138C16.1796 11.8548 16.1728 10.3998 14.8707 8.9894L14.8566 8.97416L14.843 8.95854L14.8053 8.91537L14.6942 8.78864C14.5976 8.67856 14.4575 8.51965 14.2851 8.32547C13.94 7.93677 13.4667 7.40834 12.9524 6.84802C11.8865 5.68681 10.7585 4.51501 10.1927 4.07065C9.53772 3.55633 9.02164 3.21091 8.48816 3.02128C7.99698 2.84668 7.42148 2.78087 6.62107 2.97702C4.56176 3.48165 3.17184 5.2906 2.96353 6.90461C2.83834 7.87459 2.834 9.33892 2.86915 10.6271C2.88634 11.2572 2.91216 11.8215 2.9337 12.2283C2.94445 12.4314 2.95411 12.5947 2.96103 12.7065C2.96448 12.7623 2.96726 12.8053 2.96914 12.8339L2.97126 12.8659L2.9719 12.8753Z" fill="#893AC2"/>
</svg>
