<svg width="16" height="14" viewBox="0 0 16 14" fill="none" xmlns="http://www.w3.org/2000/svg">
<path d="M11.6 8.16667C11.6 10.0997 9.98822 11.6667 8 11.6667C6.01178 11.6667 4.4 10.0997 4.4 8.16667C4.4 6.23367 6.01178 4.66667 8 4.66667C9.98822 4.66667 11.6 6.23367 11.6 8.16667Z" fill="#CCB7F2"/>
<path fill-rule="evenodd" clip-rule="evenodd" d="M9.13131 0H6.86869C5.84601 0 4.9111 0.561755 4.45374 1.45106L3.94439 2.44146C3.56454 2.46465 3.22178 2.49045 2.91309 2.51769C1.29401 2.66061 0.165618 3.81497 0.0723598 5.39294C0.0296285 6.11598 0 7.0279 0 8.16667C0 9.30543 0.0296285 10.2174 0.0723598 10.9404C0.165618 12.5184 1.29401 13.6727 2.91309 13.8156C4.07367 13.9181 5.71584 14 8 14C10.2842 14 11.9263 13.9181 13.0869 13.8156C14.706 13.6727 15.8344 12.5184 15.9276 10.9404C15.9704 10.2174 16 9.30543 16 8.16667C16 7.0279 15.9704 6.11598 15.9276 5.39294C15.8344 3.81496 14.706 2.66061 13.0869 2.51769C12.7782 2.49045 12.4355 2.46465 12.0556 2.44146L11.5463 1.45106C11.0889 0.561756 10.154 0 9.13131 0ZM8 11.6667C9.98822 11.6667 11.6 10.0997 11.6 8.16667C11.6 6.23367 9.98822 4.66667 8 4.66667C6.01178 4.66667 4.4 6.23367 4.4 8.16667C4.4 10.0997 6.01178 11.6667 8 11.6667Z" fill="#5D3F92"/>
</svg>
