<svg width="18" height="18" viewBox="0 0 18 18" fill="none" xmlns="http://www.w3.org/2000/svg">
<mask id="path-1-inside-1_0_3" fill="white">
<path d="M15.364 11.4338C14.3837 10.4706 13.217 9.7576 11.9439 9.32595C13.3074 8.40321 14.2031 6.85892 14.2031 5.11272C14.2031 2.29357 11.869 0 9 0C6.131 0 3.79687 2.29357 3.79687 5.11272C3.79687 6.85892 4.93654 8.40321 6.3 9.32595C5.02699 9.7576 3.61631 10.4706 2.63605 11.4338C0.936176 13.1042 0 15.325 0 17.6873H0.9C0.9 13.5728 4.81278 9.72799 9 9.72799C13.1872 9.72799 17.1 13.5728 17.1 17.6873H18C18 15.325 17.0638 13.1042 15.364 11.4338ZM9 9.28581C6.90641 9.28581 4.70676 7.16997 4.70676 5.11272C4.70676 3.05547 6.90641 0.884363 9 0.884363C11.0936 0.884363 13.2289 3.05547 13.2289 5.11272C13.2289 7.16997 11.0936 9.28581 9 9.28581Z"/>
</mask>
<path d="M15.364 11.4338C14.3837 10.4706 13.217 9.7576 11.9439 9.32595C13.3074 8.40321 14.2031 6.85892 14.2031 5.11272C14.2031 2.29357 11.869 0 9 0C6.131 0 3.79687 2.29357 3.79687 5.11272C3.79687 6.85892 4.93654 8.40321 6.3 9.32595C5.02699 9.7576 3.61631 10.4706 2.63605 11.4338C0.936176 13.1042 0 15.325 0 17.6873H0.9C0.9 13.5728 4.81278 9.72799 9 9.72799C13.1872 9.72799 17.1 13.5728 17.1 17.6873H18C18 15.325 17.0638 13.1042 15.364 11.4338ZM9 9.28581C6.90641 9.28581 4.70676 7.16997 4.70676 5.11272C4.70676 3.05547 6.90641 0.884363 9 0.884363C11.0936 0.884363 13.2289 3.05547 13.2289 5.11272C13.2289 7.16997 11.0936 9.28581 9 9.28581Z" fill="#8C8C8C" stroke="#7C7C7C" stroke-width="2" mask="url(#path-1-inside-1_0_3)"/>
</svg>
