<svg width="24" height="24" viewBox="0 0 24 24" fill="none" xmlns="http://www.w3.org/2000/svg">
<g clip-path="url(#clip0_2319_25822)">
<path d="M24 11.779C24 10.32 22.808 9.134 21.343 9.134C20.628 9.134 19.98 9.42 19.503 9.88C17.693 8.689 15.244 7.931 12.532 7.834L14.015 3.165L18.031 4.106L18.025 4.164C18.025 5.357 19 6.327 20.199 6.327C21.397 6.327 22.371 5.357 22.371 4.164C22.371 2.971 21.396 2 20.199 2C19.279 2 18.495 2.574 18.178 3.379L13.849 2.364C13.66 2.318 13.468 2.427 13.409 2.613L11.755 7.82C8.917 7.854 6.346 8.618 4.455 9.845C3.981 9.407 3.352 9.133 2.656 9.133C1.191 9.133 0 10.32 0 11.779C0 12.749 0.533 13.59 1.317 14.05C1.265 14.332 1.231 14.617 1.231 14.907C1.231 18.818 6.039 22 11.95 22C17.861 22 22.67 18.818 22.67 14.907C22.67 14.633 22.641 14.363 22.595 14.097C23.427 13.65 24 12.785 24 11.779V11.779ZM6.776 13.595C6.776 12.727 7.486 12.02 8.358 12.02C9.23 12.02 9.939 12.727 9.939 13.595C9.939 14.463 9.23 15.169 8.358 15.169C7.486 15.169 6.776 14.463 6.776 13.595V13.595ZM15.837 18.264C15.04 19.057 13.789 19.443 12.013 19.443L12 19.44L11.987 19.443C10.21 19.443 8.959 19.057 8.163 18.264C8.018 18.12 8.018 17.885 8.163 17.741C8.308 17.596 8.544 17.596 8.689 17.741C9.339 18.388 10.418 18.702 11.987 18.702L12 18.705L12.013 18.702C13.582 18.702 14.661 18.387 15.311 17.74C15.456 17.595 15.692 17.596 15.837 17.74C15.982 17.885 15.982 18.119 15.837 18.264ZM15.648 15.169C14.776 15.169 14.067 14.463 14.067 13.595C14.067 12.727 14.776 12.02 15.648 12.02C16.52 12.02 17.229 12.727 17.229 13.595C17.229 14.463 16.52 15.169 15.648 15.169Z" fill="#5D3F92"/>
</g>
<defs>
<clipPath id="clip0_2319_25822">
<rect width="24" height="24" fill="white"/>
</clipPath>
</defs>
</svg>
