<svg width="36" height="36" viewBox="0 0 36 36" fill="none" xmlns="http://www.w3.org/2000/svg">
<path d="M30.375 0L5.625 0C2.5184 0 0 2.5184 0 5.625L0 30.375C0 33.4816 2.5184 36 5.625 36H30.375C33.4816 36 36 33.4816 36 30.375V5.625C36 2.5184 33.4816 0 30.375 0Z" fill="#873DC1"/>
<g clip-path="url(#clip0_2319_25821)">
<path d="M30 17.779C30 16.32 28.808 15.134 27.343 15.134C26.628 15.134 25.98 15.42 25.503 15.88C23.693 14.689 21.244 13.931 18.532 13.834L20.015 9.165L24.031 10.106L24.025 10.164C24.025 11.357 25 12.327 26.199 12.327C27.397 12.327 28.371 11.357 28.371 10.164C28.371 8.971 27.396 8 26.199 8C25.279 8 24.495 8.574 24.178 9.379L19.849 8.364C19.66 8.318 19.468 8.427 19.409 8.613L17.755 13.82C14.917 13.854 12.346 14.618 10.455 15.845C9.981 15.407 9.352 15.133 8.656 15.133C7.191 15.133 6 16.32 6 17.779C6 18.749 6.533 19.59 7.317 20.05C7.265 20.332 7.231 20.617 7.231 20.907C7.231 24.818 12.039 28 17.95 28C23.861 28 28.67 24.818 28.67 20.907C28.67 20.633 28.641 20.363 28.595 20.097C29.427 19.65 30 18.785 30 17.779V17.779ZM12.776 19.595C12.776 18.727 13.486 18.02 14.358 18.02C15.23 18.02 15.939 18.727 15.939 19.595C15.939 20.463 15.23 21.169 14.358 21.169C13.486 21.169 12.776 20.463 12.776 19.595V19.595ZM21.837 24.264C21.04 25.057 19.789 25.443 18.013 25.443L18 25.44L17.987 25.443C16.21 25.443 14.959 25.057 14.163 24.264C14.018 24.12 14.018 23.885 14.163 23.741C14.308 23.596 14.544 23.596 14.689 23.741C15.339 24.388 16.418 24.702 17.987 24.702L18 24.705L18.013 24.702C19.582 24.702 20.661 24.387 21.311 23.74C21.456 23.595 21.692 23.596 21.837 23.74C21.982 23.885 21.982 24.119 21.837 24.264ZM21.648 21.169C20.776 21.169 20.067 20.463 20.067 19.595C20.067 18.727 20.776 18.02 21.648 18.02C22.52 18.02 23.229 18.727 23.229 19.595C23.229 20.463 22.52 21.169 21.648 21.169Z" fill="white"/>
</g>
<defs>
<clipPath id="clip0_2319_25821">
<rect width="24" height="24" fill="white" transform="translate(6 6)"/>
</clipPath>
</defs>
</svg>
