<svg width="17" height="14" viewBox="0 0 17 14" fill="none" xmlns="http://www.w3.org/2000/svg">
<path fill-rule="evenodd" clip-rule="evenodd" d="M8.5 0C8.99706 0 9.4 0.391751 9.4 0.875V2.33477C10.1371 2.39847 10.8247 2.54315 11.3936 2.77398C12.1309 3.07314 13 3.67172 13 4.70312C13 5.18637 12.5971 5.57812 12.1 5.57812C11.608 5.57812 11.2081 5.19424 11.2001 4.71772C11.1874 4.68723 11.1077 4.55426 10.7004 4.38898C10.1939 4.18348 9.42148 4.04688 8.5 4.04688C7.45046 4.04688 6.70755 4.05557 6.21352 4.20082C5.99127 4.26617 5.9091 4.33624 5.87792 4.37316C5.85612 4.39897 5.8 4.47557 5.8 4.70312C5.8 4.75982 5.8317 4.96682 6.45683 5.29919C7.04379 5.61127 7.85527 5.87342 8.78059 6.16861C8.79756 6.17402 8.81457 6.17945 8.83161 6.18489C9.69353 6.45978 10.6586 6.76758 11.4068 7.16541C12.1317 7.55081 13 8.20513 13 9.29688C13 9.83494 12.8551 10.3326 12.5132 10.7374C12.1806 11.1312 11.7363 11.3482 11.3075 11.4743C10.7504 11.6381 10.0748 11.6848 9.4 11.698V13.125C9.4 13.6082 8.99706 14 8.5 14C8.00294 14 7.6 13.6082 7.6 13.125V11.6758C6.88506 11.6298 6.20347 11.5207 5.63476 11.3116C4.82046 11.0124 4 10.3967 4 9.29688C4 8.81363 4.40294 8.42188 4.9 8.42188C5.39706 8.42188 5.8 8.81363 5.8 9.29688L5.79997 9.30149C5.79947 9.35444 5.79808 9.50079 6.27124 9.67469C6.76895 9.85761 7.53888 9.95312 8.5 9.95312C9.54954 9.95312 10.2924 9.94443 10.7865 9.79918C11.0087 9.73383 11.0909 9.66376 11.1221 9.62684C11.1439 9.60103 11.2 9.52443 11.2 9.29688C11.2 9.24018 11.1683 9.03317 10.5432 8.7008C9.95621 8.38873 9.14473 8.12658 8.21941 7.83139L8.16839 7.81512C7.30648 7.54022 6.34141 7.23242 5.59317 6.83459C4.8683 6.44919 4 5.79487 4 4.70312C4 4.16506 4.14488 3.66743 4.48683 3.26258C4.8194 2.86884 5.26373 2.6518 5.69248 2.52574C6.24962 2.36193 6.92522 2.31521 7.6 2.30199V0.875C7.6 0.391751 8.00294 0 8.5 0Z" fill="#5D3F92"/>
</svg>
