<svg width="16" height="16" viewBox="0 0 16 16" fill="none" xmlns="http://www.w3.org/2000/svg">
<path d="M15.6522 8C15.6522 3.77382 12.2262 0.347826 8 0.347826C3.77382 0.347826 0.347826 3.77382 0.347826 8C0.347826 12.2262 3.77382 15.6522 8 15.6522C12.2262 15.6522 15.6522 12.2262 15.6522 8ZM0.985281 8C0.985281 4.12588 4.12588 0.985281 8 0.985281C11.8741 0.985281 15.0147 4.12588 15.0147 8C15.0147 11.8741 11.8741 15.0147 8 15.0147C4.12588 15.0147 0.985281 11.8741 0.985281 8Z" fill="#CCB7F2"/>
<path d="M1.3913 8C1.3913 7.6158 1.07985 7.30435 0.695652 7.30435C0.311454 7.30435 0 7.6158 0 8C0 8.3842 0.311454 8.69565 0.695652 8.69565C1.07985 8.69565 1.3913 8.3842 1.3913 8Z" fill="#5D3F92"/>
<path d="M16 8C16 7.6158 15.6885 7.30435 15.3043 7.30435C14.9201 7.30435 14.6087 7.6158 14.6087 8C14.6087 8.3842 14.9201 8.69565 15.3043 8.69565C15.6885 8.69565 16 8.3842 16 8Z" fill="#5D3F92"/>
<path d="M8.69565 0.695652C8.69565 0.311454 8.3842 0 8 0C7.6158 0 7.30435 0.311454 7.30435 0.695652C7.30435 1.07985 7.6158 1.3913 8 1.3913C8.3842 1.3913 8.69565 1.07985 8.69565 0.695652Z" fill="#5D3F92"/>
<path d="M8.69565 15.3043C8.69565 14.9201 8.3842 14.6087 8 14.6087C7.6158 14.6087 7.30435 14.9201 7.30435 15.3043C7.30435 15.6885 7.6158 16 8 16C8.3842 16 8.69565 15.6885 8.69565 15.3043Z" fill="#5D3F92"/>
<path fill-rule="evenodd" clip-rule="evenodd" d="M13.5652 8C13.5652 4.92642 11.0736 2.43478 8 2.43478C4.92642 2.43478 2.43478 4.92642 2.43478 8C2.43478 11.0736 4.92642 13.5652 8 13.5652C11.0736 13.5652 13.5652 11.0736 13.5652 8ZM8.00045 3.82609C8.94168 3.82684 9.18622 6.20039 9.23922 7.45016C8.85545 7.44592 8.44238 7.44348 8 7.44348C7.55762 7.44348 7.14455 7.44592 6.76078 7.45016C6.81379 6.20019 7.05885 3.82609 8.00045 3.82609ZM5.36883 7.47549C5.42911 6.19548 5.70688 5.0414 6.1138 4.16153C4.77731 4.70224 3.97011 5.87589 3.8436 7.53112C4.2244 7.51247 4.73281 7.49197 5.36883 7.47549ZM3.8436 8.46888C4.2244 8.48753 4.73281 8.50803 5.36883 8.52452C5.42911 9.80452 5.70688 10.9586 6.1138 11.8385C4.77731 11.2978 3.97011 10.1241 3.8436 8.46888ZM6.76078 8.54984C7.14455 8.55408 7.55762 8.55652 8 8.55652C8.44238 8.55652 8.85545 8.55408 9.23922 8.54984C9.18621 9.79981 8.9416 12.1739 8 12.1739C7.0584 12.1739 6.81379 9.79981 6.76078 8.54984ZM10.6312 8.52452C10.5709 9.80452 10.2931 10.9586 9.8862 11.8385C11.2227 11.2978 12.0299 10.1241 12.1564 8.46888C11.7756 8.48753 11.2672 8.50803 10.6312 8.52452ZM12.1564 7.53112C12.0299 5.87589 11.2227 4.70224 9.8862 4.16153C10.2931 5.0414 10.5709 6.19548 10.6312 7.47549C11.2672 7.49197 11.7756 7.51247 12.1564 7.53112Z" fill="#5D3F92"/>
<path d="M5.36883 7.47549C5.42911 6.19548 5.70688 5.0414 6.1138 4.16153C4.77731 4.70224 3.97011 5.87589 3.8436 7.53112C4.2244 7.51247 4.73281 7.49197 5.36883 7.47549Z" fill="#CCB7F2"/>
<path d="M5.36883 8.52452C4.73281 8.50803 4.2244 8.48753 3.8436 8.46888C3.97011 10.1241 4.77731 11.2978 6.1138 11.8385C5.70688 10.9586 5.42911 9.80452 5.36883 8.52452Z" fill="#CCB7F2"/>
<path d="M8 8.55652C7.55762 8.55652 7.14455 8.55408 6.76078 8.54984C6.81379 9.79981 7.0584 12.1739 8 12.1739C8.9416 12.1739 9.18621 9.79981 9.23922 8.54984C8.85545 8.55408 8.44238 8.55652 8 8.55652Z" fill="#CCB7F2"/>
<path d="M9.23922 7.45016C9.18622 6.20039 8.94168 3.82684 8.00045 3.82609C7.05885 3.82609 6.81379 6.20019 6.76078 7.45016C7.14455 7.44592 7.55762 7.44348 8 7.44348C8.44238 7.44348 8.85545 7.44592 9.23922 7.45016Z" fill="#CCB7F2"/>
<path d="M9.8862 4.16153C11.2227 4.70224 12.0299 5.87589 12.1564 7.53112C11.7756 7.51247 11.2672 7.49197 10.6312 7.47549C10.5709 6.19548 10.2931 5.0414 9.8862 4.16153Z" fill="#CCB7F2"/>
<path d="M9.8862 11.8385C10.2931 10.9586 10.5709 9.80452 10.6312 8.52452C11.2672 8.50803 11.7756 8.48753 12.1564 8.46888C12.0299 10.1241 11.2227 11.2978 9.8862 11.8385Z" fill="#CCB7F2"/>
<path d="M8.69565 5.91304C8.69565 5.52885 8.3842 5.21739 8 5.21739C7.6158 5.21739 7.30435 5.52885 7.30435 5.91304C7.30435 6.29724 7.6158 6.6087 8 6.6087C8.3842 6.6087 8.69565 6.29724 8.69565 5.91304Z" fill="white"/>
<path d="M10.7826 9.3913C10.7826 9.00711 10.4712 8.69565 10.087 8.69565C9.70276 8.69565 9.3913 9.00711 9.3913 9.3913C9.3913 9.7755 9.70276 10.087 10.087 10.087C10.4712 10.087 10.7826 9.7755 10.7826 9.3913Z" fill="white"/>
<path d="M6.6087 8.69565C6.6087 8.31145 6.29724 8 5.91304 8C5.52885 8 5.21739 8.31145 5.21739 8.69565C5.21739 9.07985 5.52885 9.3913 5.91304 9.3913C6.29724 9.3913 6.6087 9.07985 6.6087 8.69565Z" fill="white"/>
</svg>
