<svg width="12" height="12" viewBox="0 0 12 12" fill="none" xmlns="http://www.w3.org/2000/svg">
<path d="M11.7486 11.0769L8.34766 7.69231C9.02887 6.85488 9.27518 5.77435 9.27518 4.61538C9.27518 1.92923 7.33664 0 4.63759 0C1.93854 0 0 1.92923 0 4.61538C0 7.30154 1.93854 9.23077 4.63759 9.23077C5.80212 9.23077 6.88787 8.98565 7.72932 8.30769L11.1302 11.6923C11.2307 11.7923 11.4104 12 11.5423 12C11.6743 12 11.8062 11.9497 11.9066 11.8497C12.1081 11.6492 11.9501 11.2774 11.7486 11.0769ZM4.63759 8.61539C2.50638 8.61539 0.618345 6.73642 0.618345 4.61538C0.618345 2.49435 2.50638 0.615385 4.63759 0.615385C6.76881 0.615385 8.65684 2.44308 8.65684 4.56411C8.65684 6.68514 6.76878 8.61539 4.63759 8.61539Z" fill="#7C7C7C"/>
</svg>
