<svg width="12" height="11" viewBox="0 0 12 11" fill="none" xmlns="http://www.w3.org/2000/svg">
<path d="M11.7486 10.1538L8.34766 7.05128C9.02887 6.28364 9.27518 5.29316 9.27518 4.23077C9.27518 1.76846 7.33664 0 4.63759 0C1.93854 0 0 1.76846 0 4.23077C0 6.69308 1.93854 8.46154 4.63759 8.46154C5.80212 8.46154 6.88787 8.23685 7.72932 7.61539L11.1302 10.7179C11.2307 10.8096 11.4104 11 11.5423 11C11.6743 11 11.8062 10.9539 11.9066 10.8623C12.1081 10.6785 11.9501 10.3376 11.7486 10.1538ZM4.63759 7.89744C2.50638 7.89744 0.618345 6.17505 0.618345 4.23077C0.618345 2.28649 2.50638 0.564103 4.63759 0.564103C6.76881 0.564103 8.65684 2.23949 8.65684 4.18377C8.65684 6.12805 6.76878 7.89744 4.63759 7.89744Z" fill="#838284"/>
</svg>
