<svg width="15" height="16" viewBox="0 0 15 16" fill="none" xmlns="http://www.w3.org/2000/svg">
<path fill-rule="evenodd" clip-rule="evenodd" d="M0 1.60393C0 0.718102 0.746193 0 1.66667 0H13.3333C14.2538 0 15 0.718103 15 1.60393V6.54792C15 13.0192 9.2741 15.4524 8.03771 15.9043L7.74183 15.1546L8.0377 15.9043C7.68857 16.0319 7.31143 16.0319 6.9623 15.9043L7.25817 15.1546L6.96229 15.9043C5.7259 15.4524 0 13.0192 0 6.54792V1.60393ZM13.3333 1.60393L1.66667 1.60393V6.54792C1.66667 11.8361 6.25773 13.9199 7.5 14.3849C8.74227 13.9199 13.3333 11.8361 13.3333 6.54792V1.60393ZM10.5893 5.04667C10.9147 5.35986 10.9147 5.86764 10.5893 6.18082L7.25592 9.38868C6.93049 9.70187 6.40285 9.70187 6.07741 9.38868L4.41074 7.78475C4.08531 7.47156 4.08531 6.96379 4.41074 6.6506C4.73618 6.33742 5.26382 6.33742 5.58926 6.6506L6.66667 7.68746L9.41074 5.04667C9.73618 4.73349 10.2638 4.73349 10.5893 5.04667Z" fill="#7C7C7C"/>
</svg>
