<svg width="10" height="16" viewBox="0 0 10 16" fill="none" xmlns="http://www.w3.org/2000/svg">
<path d="M6.66667 7.2H3.33333C2.89131 7.2 2.46738 7.03143 2.15482 6.73137C1.84226 6.43131 1.66667 6.02435 1.66667 5.6C1.66667 5.17565 1.84226 4.76869 2.15482 4.46863C2.46738 4.16857 2.89131 4 3.33333 4H7.5C7.72101 4 7.93297 4.08429 8.08926 4.23431C8.24554 4.38434 8.33333 4.58783 8.33333 4.8C8.33333 5.01217 8.42113 5.21566 8.57741 5.36569C8.73369 5.51571 8.94565 5.6 9.16667 5.6C9.38768 5.6 9.59964 5.51571 9.75592 5.36569C9.9122 5.21566 10 5.01217 10 4.8C10 4.16348 9.73661 3.55303 9.26777 3.10294C8.79893 2.65286 8.16304 2.4 7.5 2.4H5.83333V0.8C5.83333 0.587827 5.74554 0.384344 5.58926 0.234315C5.43297 0.0842854 5.22101 0 5 0C4.77899 0 4.56702 0.0842854 4.41074 0.234315C4.25446 0.384344 4.16667 0.587827 4.16667 0.8V2.4H3.33333C2.44928 2.4 1.60143 2.73714 0.976311 3.33726C0.351189 3.93737 0 4.75131 0 5.6C0 6.44869 0.351189 7.26263 0.976311 7.86274C1.60143 8.46286 2.44928 8.8 3.33333 8.8H6.66667C7.10869 8.8 7.53262 8.96857 7.84518 9.26863C8.15774 9.56869 8.33333 9.97565 8.33333 10.4C8.33333 10.8243 8.15774 11.2313 7.84518 11.5314C7.53262 11.8314 7.10869 12 6.66667 12H2.5C2.27899 12 2.06702 11.9157 1.91074 11.7657C1.75446 11.6157 1.66667 11.4122 1.66667 11.2C1.66667 10.9878 1.57887 10.7843 1.42259 10.6343C1.26631 10.4843 1.05435 10.4 0.833333 10.4C0.61232 10.4 0.400358 10.4843 0.244078 10.6343C0.0877975 10.7843 0 10.9878 0 11.2C0 11.8365 0.263392 12.447 0.732233 12.8971C1.20107 13.3471 1.83696 13.6 2.5 13.6H4.16667V15.2C4.16667 15.4122 4.25446 15.6157 4.41074 15.7657C4.56702 15.9157 4.77899 16 5 16C5.22101 16 5.43297 15.9157 5.58926 15.7657C5.74554 15.6157 5.83333 15.4122 5.83333 15.2V13.6H6.66667C7.55072 13.6 8.39857 13.2629 9.02369 12.6627C9.64881 12.0626 10 11.2487 10 10.4C10 9.55131 9.64881 8.73737 9.02369 8.13726C8.39857 7.53714 7.55072 7.2 6.66667 7.2Z" fill="#7C7C7C"/>
</svg>
