<svg width="16" height="16" viewBox="0 0 16 16" fill="none" xmlns="http://www.w3.org/2000/svg">
<path d="M8.32331 16C7.87391 16.0013 7.44267 15.8227 7.12581 15.5041L0.495963 8.87336C0.146097 8.52449 -0.0332992 8.03981 0.00511386 7.54723L0.42826 1.99048C0.488599 1.15467 1.15454 0.490527 1.99051 0.432455L7.54726 0.0093092C7.59042 0 7.63443 0 7.67759 0C8.126 0.00115116 8.55579 0.179396 8.8734 0.495927L15.5041 7.12577C15.8217 7.44321 16.0001 7.87383 16.0001 8.32285C16.0001 8.77187 15.8217 9.20249 15.5041 9.51993L9.51997 15.5041C9.20331 15.8225 8.77242 16.0011 8.32331 16ZM7.67674 1.69258L2.11576 2.11573L1.69262 7.67671L8.32331 14.3074L14.3066 8.32412L7.67674 1.69258ZM4.7325 6.42505C3.925 6.42522 3.22983 5.85495 3.07214 5.063C2.91445 4.27105 3.33815 3.47799 4.08413 3.16884C4.8301 2.85968 5.69058 3.12054 6.13931 3.79188C6.58804 4.46321 6.50005 5.35804 5.92915 5.92912C5.6125 6.24759 5.1816 6.42617 4.7325 6.42505Z" fill="#7C7C7C"/>
</svg>
