<svg width="16" height="16" viewBox="0 0 16 16" fill="none" xmlns="http://www.w3.org/2000/svg">
<path d="M0 8C0 12.4183 3.58172 16 8 16C12.4183 16 16 12.4183 16 8C16 3.58172 12.4183 0 8 0C3.58172 0 0 3.58172 0 8Z" fill="#CCB7F2"/>
<path d="M14.199 2.94209C13.4358 3.80075 11.8696 5.51656 9.41074 8C9.87709 8.47101 10.3113 8.91441 10.7141 9.32959C12.2545 8.12418 14.1349 7.56252 15.9922 7.6446C16.0177 8.22261 15.9809 8.80286 15.8817 9.37441C14.5621 9.41075 13.2375 9.8913 12.0976 10.7738C13.0695 11.8021 13.7644 12.569 14.199 13.0579C14.0301 13.2643 13.8494 13.4643 13.6569 13.6569C13.4643 13.8494 13.2643 14.0301 13.0579 14.199C12.569 13.7644 11.8021 13.0695 10.7738 12.0976C9.8913 13.2375 9.41075 14.5621 9.37441 15.8817C8.80286 15.9809 8.22261 16.0177 7.6446 15.9922C7.56252 14.1349 8.12418 12.2545 9.32959 10.7141C8.91441 10.3113 8.47101 9.87709 8 9.41074C5.51656 11.8696 3.80075 13.4358 2.94209 14.199C2.73568 14.0301 2.53572 13.8494 2.34315 13.6569C2.15057 13.4643 1.96986 13.2643 1.80103 13.0579C2.56417 12.1992 4.13041 10.4834 6.58926 8C6.12291 7.52899 5.68867 7.08559 5.28593 6.67041C3.7455 7.87581 1.8651 8.43748 0.00784984 8.3554C-0.0176945 7.77739 0.0191112 7.19714 0.118268 6.62559C1.43789 6.58925 2.76248 6.1087 3.90241 5.22616C2.93053 4.1979 2.23558 3.43104 1.80103 2.94209C1.96986 2.73568 2.15057 2.53572 2.34315 2.34315C2.53572 2.15057 2.73568 1.96986 2.94209 1.80103C3.43103 2.23558 4.1979 2.93053 5.22616 3.90241C6.1087 2.76248 6.58925 1.43789 6.62559 0.118267C7.19714 0.0191103 7.77739 -0.0176953 8.3554 0.00784938C8.43748 1.8651 7.87581 3.7455 6.67041 5.28593C7.08559 5.68867 7.52899 6.12291 8 6.58926C10.4834 4.13042 12.1992 2.56417 13.0579 1.80103C13.2643 1.96986 13.4643 2.15057 13.6569 2.34315C13.8494 2.53572 14.0301 2.73567 14.199 2.94209Z" fill="#5D3F92"/>
</svg>
