<svg width="16" height="16" viewBox="0 0 16 16" fill="none" xmlns="http://www.w3.org/2000/svg">
<path d="M0.224793 1.87401C0.295729 1.18711 0.746085 0.643391 1.4215 0.499605C2.4876 0.272647 4.49727 0 8 0C11.5027 0 13.5124 0.272648 14.5785 0.499605C15.2539 0.643392 15.7043 1.18711 15.7752 1.87401C15.8804 2.89248 16 4.76244 16 8C16 11.2376 15.8804 13.1075 15.7752 14.126C15.7043 14.8129 15.2539 15.3566 14.5785 15.5004C13.5124 15.7274 11.5027 16 8 16C4.49727 16 2.4876 15.7274 1.4215 15.5004C0.746084 15.3566 0.295729 14.8129 0.224793 14.126C0.119615 13.1075 0 11.2376 0 8C0 4.76244 0.119615 2.89248 0.224793 1.87401Z" fill="#CCB7F2"/>
<path d="M6.44587 12.0439C6.45861 12.2794 6.55866 12.4981 6.77413 12.5939C7.00358 12.6959 7.38775 12.8 8 12.8C8.61225 12.8 8.99642 12.6959 9.22587 12.5939C9.44134 12.4981 9.54139 12.2794 9.55414 12.0439C9.57538 11.6513 9.6 10.8421 9.6 9.2C9.6 7.55791 9.57538 6.74869 9.55414 6.35606C9.54139 6.1206 9.44134 5.90191 9.22586 5.80612C8.99642 5.70413 8.61225 5.6 8 5.6C7.38775 5.6 7.00358 5.70413 6.77414 5.80612C6.55866 5.90191 6.45861 6.1206 6.44587 6.35606C6.42462 6.74869 6.4 7.55791 6.4 9.2C6.4 10.8421 6.42462 11.6513 6.44587 12.0439Z" fill="#5D3F92"/>
<path d="M10.4557 11.8793C10.4671 12.218 10.6055 12.5446 10.9266 12.653C11.1621 12.7325 11.5071 12.8 12 12.8C12.4929 12.8 12.8379 12.7325 13.0734 12.653C13.3945 12.5446 13.5329 12.218 13.5443 11.8793C13.5669 11.2107 13.6 9.90488 13.6 8C13.6 6.09512 13.5669 4.78928 13.5443 4.12069C13.5329 3.782 13.3945 3.45541 13.0734 3.347C12.8379 3.26748 12.4929 3.2 12 3.2C11.5071 3.2 11.1621 3.26748 10.9266 3.347C10.6055 3.45541 10.4671 3.782 10.4557 4.12069C10.4331 4.78928 10.4 6.09512 10.4 8C10.4 9.90488 10.4331 11.2107 10.4557 11.8793Z" fill="#5D3F92"/>
<path d="M2.43884 12.0445C2.45464 12.2797 2.55866 12.4981 2.77413 12.5939C3.00358 12.6959 3.38775 12.8 4 12.8C4.61225 12.8 4.99642 12.6959 5.22587 12.5939C5.44134 12.4981 5.54536 12.2797 5.56116 12.0445C5.58046 11.7574 5.6 11.2554 5.6 10.4C5.6 9.54461 5.58046 9.04265 5.56116 8.75554C5.54536 8.52026 5.44134 8.30191 5.22586 8.20612C4.99642 8.10413 4.61225 8 4 8C3.38775 8 3.00358 8.10413 2.77414 8.20612C2.55866 8.30191 2.45464 8.52026 2.43884 8.75554C2.41954 9.04265 2.4 9.54461 2.4 10.4C2.4 11.2554 2.41954 11.7574 2.43884 12.0445Z" fill="#5D3F92"/>
</svg>
