<svg width="16" height="16" viewBox="0 0 16 16" fill="none" xmlns="http://www.w3.org/2000/svg">
<path fill-rule="evenodd" clip-rule="evenodd" d="M12.0514 0.0682202C12.1478 0.0739245 12.9653 0.164037 14.4 1.58729C15.8473 3.0231 15.9257 3.80371 15.9299 3.88407C15.93 3.88589 15.9301 3.88771 15.9301 3.88954C15.9301 3.8905 15.9301 3.89098 15.9301 3.89098C15.9717 4.92442 16 6.24804 16 7.9365C16 11.6228 15.8652 13.9715 15.7521 15.2931C15.6998 15.904 15.0029 16.173 14.5281 15.7805L13.2 14.6825L12.1063 15.7675C11.8181 16.0535 11.3592 16.0787 11.0409 15.8261L9.6 14.6825L8.56569 15.7086C8.25327 16.0186 7.74673 16.0186 7.43431 15.7086L6.4 14.6825L4.95913 15.8261C4.64082 16.0787 4.18193 16.0535 3.89369 15.7675L2.8 14.6825L1.47188 15.7805C0.99714 16.173 0.300214 15.904 0.247938 15.2931C0.134836 13.9715 0 11.6228 0 7.9365C0 4.54394 0.114203 2.62423 0.220565 1.572C0.295941 0.826319 0.83293 0.293592 1.58458 0.218815C2.64523 0.113297 4.58029 0 8 0C9.68755 0 11.0136 0.0275901 12.0514 0.0682202Z" fill="#CCB7F2"/>
<path d="M10 6.74603C10 6.30771 10.3582 5.95238 10.8 5.95238H11.6C12.0418 5.95238 12.4 6.30771 12.4 6.74603C12.4 7.18435 12.0418 7.53968 11.6 7.53968H10.8C10.3582 7.53968 10 7.18435 10 6.74603Z" fill="#5D3F92"/>
<path d="M3.6 6.74603C3.6 6.30771 3.95817 5.95238 4.4 5.95238H7.6C8.04183 5.95238 8.4 6.30771 8.4 6.74603C8.4 7.18435 8.04183 7.53968 7.6 7.53968H4.4C3.95817 7.53968 3.6 7.18435 3.6 6.74603Z" fill="#5D3F92"/>
<path d="M3.6 10.3175C3.6 9.87914 3.95817 9.52381 4.4 9.52381H6.4C6.84183 9.52381 7.2 9.87914 7.2 10.3175C7.2 10.7558 6.84183 11.1111 6.4 11.1111H4.4C3.95817 11.1111 3.6 10.7558 3.6 10.3175Z" fill="#5D3F92"/>
<path d="M10 10.3175C10 9.87914 10.3582 9.52381 10.8 9.52381H11.6C12.0418 9.52381 12.4 9.87914 12.4 10.3175C12.4 10.7558 12.0418 11.1111 11.6 11.1111H10.8C10.3582 11.1111 10 10.7558 10 10.3175Z" fill="#5D3F92"/>
<path d="M15.9301 3.89098C15.5801 3.93373 15.0853 3.96825 14.4 3.96825C13.8964 3.96825 13.4957 3.94962 13.1797 3.92277C12.4917 3.86432 12.0447 3.34245 12.0183 2.65788C12.0073 2.3746 12 2.02246 12 1.5873C12 0.88375 12.0191 0.397195 12.0417 0.0678442C12.0417 0.0678442 12.8698 0.0692545 14.4 1.58729C15.9301 3.10533 15.9301 3.89098 15.9301 3.89098Z" fill="#5D3F92"/>
</svg>
