<svg width="50" height="50" viewBox="0 0 50 50" fill="none" xmlns="http://www.w3.org/2000/svg">
<path d="M42.1875 0L7.8125 0C3.49778 0 0 3.49778 0 7.8125L0 42.1875C0 46.5022 3.49778 50 7.8125 50H42.1875C46.5022 50 50 46.5022 50 42.1875V7.8125C50 3.49778 46.5022 0 42.1875 0Z" fill="#1DA1F2"/>
<path d="M37.5 17.1875C36.5625 17.6563 35.625 17.8125 34.5313 17.9688C35.625 17.3438 36.4063 16.4063 36.7188 15.1563C35.7813 15.7813 34.6875 16.0938 33.4375 16.4063C32.5 15.4688 31.0938 14.8438 29.6875 14.8438C26.4063 14.8438 23.9063 17.9688 24.6875 21.0938C20.4688 20.9375 16.7188 18.9063 14.0625 15.7813C12.6563 18.125 13.4375 21.0938 15.625 22.6563C14.8438 22.6563 14.0625 22.3438 13.2813 22.0313C13.2813 24.375 15 26.5625 17.3438 27.1875C16.5625 27.3438 15.7813 27.5 15 27.3438C15.625 29.375 17.5 30.9375 19.8438 30.9375C17.9688 32.3438 15.1563 33.125 12.5 32.8125C14.8438 34.2188 17.5 35.1563 20.3125 35.1563C29.8438 35.1563 35.1563 27.1875 34.8438 19.8438C35.9375 19.2188 36.875 18.2813 37.5 17.1875Z" fill="white"/>
</svg>
