<svg width="16" height="16" viewBox="0 0 16 16" fill="none" xmlns="http://www.w3.org/2000/svg">
<path d="M8 16C12.4334 16 16 12.4334 16 8C16 3.56664 12.4334 0 8 0C3.56664 0 0 3.56664 0 8C0 12.4334 3.56664 16 8 16Z" fill="#2775CA"/>
<path d="M10.2 9.26664C10.2 8.1 9.5 7.7 8.1 7.53336C7.1 7.4 6.9 7.13336 6.9 6.66664C6.9 6.19992 7.23336 5.9 7.9 5.9C8.5 5.9 8.83336 6.1 9 6.6C9.03336 6.7 9.13336 6.76664 9.23336 6.76664H9.76664C9.9 6.76664 10 6.66664 10 6.53336V6.5C9.86664 5.76664 9.26664 5.2 8.5 5.13336V4.33336C8.5 4.2 8.4 4.1 8.23336 4.06664H7.73336C7.6 4.06664 7.5 4.16664 7.46664 4.33336V5.1C6.46664 5.23336 5.83336 5.9 5.83336 6.73336C5.83336 7.83336 6.5 8.26664 7.9 8.43336C8.83336 8.6 9.13336 8.8 9.13336 9.33336C9.13336 9.86672 8.66664 10.2334 8.03336 10.2334C7.16664 10.2334 6.86664 9.86664 6.76664 9.36664C6.73336 9.23336 6.63336 9.16664 6.53336 9.16664H5.96664C5.83336 9.16664 5.73336 9.26664 5.73336 9.4V9.43336C5.86664 10.2666 6.4 10.8666 7.5 11.0334V11.8334C7.5 11.9666 7.6 12.0666 7.76664 12.1H8.26664C8.4 12.1 8.5 12 8.53336 11.8334V11.0334C9.53336 10.8666 10.2 10.1666 10.2 9.26664Z" fill="white"/>
<path d="M6.3 12.7666C3.7 11.8334 2.36664 8.93336 3.33336 6.36664C3.83336 4.96664 4.93336 3.9 6.3 3.4C6.43336 3.33336 6.5 3.23336 6.5 3.06664V2.6C6.5 2.46664 6.43336 2.36664 6.3 2.33336C6.26664 2.33336 6.2 2.33336 6.16664 2.36664C3 3.36664 1.26664 6.73336 2.26664 9.9C2.86664 11.7666 4.3 13.2 6.16664 13.8C6.3 13.8666 6.43336 13.8 6.46664 13.6666C6.5 13.6334 6.5 13.6 6.5 13.5334V13.0666C6.5 12.9666 6.4 12.8334 6.3 12.7666ZM9.83336 2.36664C9.7 2.3 9.56664 2.36664 9.53336 2.5C9.5 2.53336 9.5 2.56664 9.5 2.63336V3.1C9.5 3.23336 9.6 3.36664 9.7 3.43336C12.3 4.36664 13.6334 7.26664 12.6666 9.83336C12.1666 11.2334 11.0666 12.3 9.7 12.8C9.56664 12.8666 9.5 12.9666 9.5 13.1334V13.6C9.5 13.7334 9.56664 13.8334 9.7 13.8666C9.73336 13.8666 9.8 13.8666 9.83336 13.8334C13 12.8334 14.7334 9.46664 13.7334 6.3C13.1334 4.4 11.6666 2.96664 9.83336 2.36664Z" fill="white"/>
</svg>
