<svg width="18" height="13" viewBox="0 0 15 10" fill="none" xmlns="http://www.w3.org/2000/svg">
<path d="M14.965 4.72049C14.96 4.70746 14.9544 4.69464 14.9484 4.68202C14.2832 3.30052 13.248 2.13194 11.9548 1.30256C10.626 0.450382 9.08558 0 7.50009 0C5.9146 0 4.3741 0.450452 3.04534 1.3027C1.75685 2.12902 0.724531 3.2922 0.0590767 4.66705C-0.0155018 4.8099 -0.0210467 4.98263 0.0514525 5.13324C0.71656 6.51495 1.75179 7.68374 3.04513 8.51326C4.37396 9.36557 5.91447 9.81602 7.50009 9.81602C9.08565 9.81602 10.6262 9.36557 11.9549 8.51333C13.2483 7.68388 14.2834 6.51516 14.9486 5.13358C15.0108 5.00418 15.0167 4.8544 14.965 4.72049ZM7.50009 8.77629C4.82587 8.77629 2.34197 7.26607 1.10186 4.90791C2.34197 2.54974 4.82587 1.0396 7.50009 1.0396C10.1742 1.0396 12.6582 2.54988 13.8983 4.90798C12.6581 7.26594 10.1742 8.77629 7.50009 8.77629Z" fill="#7C7C7C"/>
<path d="M7.49977 2.62646C6.24178 2.62646 5.21826 3.64998 5.21826 4.90797C5.21826 6.16596 6.24178 7.18948 7.49977 7.18948C8.75776 7.18948 9.78127 6.16596 9.78127 4.90797C9.78127 3.64998 8.75776 2.62646 7.49977 2.62646ZM7.49977 6.14982C6.81505 6.14982 6.25792 5.59269 6.25792 4.90797C6.25792 4.22325 6.81505 3.66613 7.49977 3.66613C8.18449 3.66613 8.74161 4.22325 8.74161 4.90797C8.74161 5.59269 8.18449 6.14982 7.49977 6.14982Z" fill="#7C7C7C"/>
</svg>
