<svg width="42" height="26" viewBox="0 0 42 26" fill="none" xmlns="http://www.w3.org/2000/svg">
<path d="M8.60135 5.09546C15.4489 -1.63477 26.551 -1.63477 33.3986 5.09546L34.2227 5.90546C34.5651 6.24197 34.5651 6.78756 34.2227 7.12407L31.4036 9.8949C31.2324 10.0632 30.9548 10.0632 30.7836 9.8949L29.6496 8.78025C24.8725 4.08508 17.1274 4.08508 12.3504 8.78025L11.1359 9.97395C10.9647 10.1422 10.6871 10.1422 10.5159 9.97395L7.69681 7.20312C7.35443 6.86661 7.35443 6.32101 7.69681 5.9845L8.60135 5.09546ZM39.2288 10.8258L41.7379 13.2919C42.0803 13.6284 42.0803 14.174 41.7379 14.5105L30.4245 25.6302C30.0821 25.9667 29.527 25.9667 29.1846 25.6302C29.1846 25.6302 29.1846 25.6302 29.1846 25.6302L21.155 17.7382C21.0694 17.6541 20.9306 17.6541 20.8451 17.7382C20.8451 17.7382 20.845 17.7382 20.845 17.7382L12.8156 25.6302C12.4733 25.9667 11.9182 25.9667 11.5758 25.6302C11.5758 25.6302 11.5758 25.6302 11.5758 25.6302L0.262033 14.5103C-0.0803456 14.1738 -0.0803456 13.6282 0.262033 13.2917L2.77108 10.8257C3.11345 10.4892 3.66856 10.4892 4.01094 10.8257L12.0406 18.7178C12.1262 18.8019 12.265 18.8019 12.3506 18.7178C12.3506 18.7178 12.3506 18.7178 12.3506 18.7178L20.3799 10.8257C20.7223 10.4892 21.2774 10.4892 21.6198 10.8257C21.6198 10.8257 21.6198 10.8257 21.6198 10.8257L29.6495 18.7178C29.7351 18.8019 29.8738 18.8019 29.9594 18.7178L37.989 10.8258C38.3314 10.4893 38.8865 10.4893 39.2288 10.8258Z" fill="#3B99FC"/>
</svg>
