<svg width="16" height="16" viewBox="0 0 16 16" fill="none" xmlns="http://www.w3.org/2000/svg">
<path fill-rule="evenodd" clip-rule="evenodd" d="M2.07692 2C2.03444 2 2 2.03444 2 2.07692V3.23077H14V2.07692C14 2.03444 13.9656 2 13.9231 2H2.07692ZM16 2.07692C16 0.92987 15.0701 0 13.9231 0H2.07692C0.92987 0 0 0.92987 0 2.07692V13.9231C0 15.0701 0.92987 16 2.07692 16H13.9231C15.0701 16 16 15.0701 16 13.9231V2.07692ZM14 5.23077H6.30769V14H13.9231C13.9656 14 14 13.9656 14 13.9231V5.23077ZM4.30769 14V5.23077H2V13.9231C2 13.9656 2.03444 14 2.07692 14H4.30769Z" fill="#5D3F92"/>
</svg>
