<svg width="24" height="24" viewBox="0 0 24 24" fill="none" xmlns="http://www.w3.org/2000/svg">
<path d="M20.25 0L3.75 0C1.67893 0 0 1.67893 0 3.75L0 20.25C0 22.3211 1.67893 24 3.75 24H20.25C22.3211 24 24 22.3211 24 20.25V3.75C24 1.67893 22.3211 0 20.25 0Z" fill="#893AC2"/>
<path d="M17.7 9.07505C17.55 8.55005 17.175 8.17505 16.65 8.02505C15.75 7.80005 11.925 7.80005 11.925 7.80005C11.925 7.80005 8.175 7.80005 7.2 8.02505C6.675 8.17505 6.3 8.55005 6.15 9.07505C6 10.0501 6 12.0001 6 12.0001C6 12.0001 6 13.9501 6.225 14.9251C6.375 15.4501 6.75 15.8251 7.275 15.9751C8.175 16.2001 12 16.2001 12 16.2001C12 16.2001 15.75 16.2001 16.725 15.9751C17.25 15.8251 17.625 15.4501 17.775 14.9251C18 13.9501 18 12.0001 18 12.0001C18 12.0001 18 10.0501 17.7 9.07505ZM10.8 13.8001V10.2001L13.95 12.0001L10.8 13.8001Z" fill="white"/>
</svg>
