<svg width="40" height="34" viewBox="0 0 40 34" fill="none" xmlns="http://www.w3.org/2000/svg">
<path d="M0.387529 4.19194C0.568208 2.40944 1.79277 1.05252 3.56249 0.773167C5.923 0.400562 10.0718 0 17 0C23.9282 0 28.077 0.400562 30.4375 0.773167C32.2072 1.05251 33.4318 2.40944 33.6125 4.19193C33.8089 6.13028 34 9.23912 34 14C34 18.7609 33.8089 21.8697 33.6125 23.8081C33.4318 25.5906 32.2072 26.9475 30.4375 27.2268C28.077 27.5994 23.9282 28 17 28C10.0718 28 5.92301 27.5994 3.56249 27.2268C1.79278 26.9475 0.568208 25.5906 0.387529 23.8081C0.191052 21.8697 0 18.7609 0 14C0 9.23912 0.191052 6.13028 0.387529 4.19194Z" fill="#5D3F92"/>
<path d="M4.43093 8.28981C4.61668 6.51034 5.83361 5.14759 7.5989 4.85649C10.0665 4.44959 14.4918 4 22 4C29.5082 4 33.9335 4.44959 36.4011 4.85649C38.1664 5.14759 39.3833 6.51034 39.5691 8.28981C39.7841 10.3502 40 13.7307 40 19C40 24.2693 39.7841 27.6498 39.5691 29.7102C39.3833 31.4897 38.1664 32.8524 36.4011 33.1435C33.9335 33.5504 29.5082 34 22 34C14.4918 34 10.0665 33.5504 7.59891 33.1435C5.83361 32.8524 4.61668 31.4897 4.43093 29.7102C4.21586 27.6498 4 24.2693 4 19C4 13.7307 4.21586 10.3502 4.43093 8.28981Z" fill="#CCB7F2"/>
<path d="M39.7169 27.9762C39.6682 28.631 39.6166 29.2018 39.5652 29.6964C39.3806 31.473 38.1703 32.8365 36.4085 33.1312C33.9423 33.5437 29.5152 34 22 34C14.4848 34 10.0587 33.5437 7.59247 33.1312C5.83068 32.8365 4.62041 31.473 4.43576 29.6964C4.37428 29.1048 4.31262 28.4043 4.25584 27.5814C8.26098 23.7878 11.0414 21.6738 12.7926 20.5169C14.2372 19.5625 16.0038 19.7237 17.3446 20.8151C18.8067 22.0053 21.101 24.0032 24.509 27.2802C26.8949 25.2004 28.6796 23.8789 29.9352 23.0494C31.3798 22.095 33.1464 22.2562 34.4872 23.3476C35.6533 24.2969 37.349 25.76 39.7169 27.9762Z" fill="#5D3F92"/>
<path d="M34.4613 12.6364C34.4613 14.3936 33.0148 15.8182 31.2305 15.8182C29.4462 15.8182 27.9998 14.3936 27.9998 12.6364C27.9998 10.8791 29.4462 9.45454 31.2305 9.45454C33.0148 9.45454 34.4613 10.8791 34.4613 12.6364Z" fill="#5D3F92"/>
</svg>
