<svg width="36" height="36" viewBox="0 0 36 36" fill="none" xmlns="http://www.w3.org/2000/svg">
<path d="M18.3524 17.1025C17.9363 17.4677 17.4596 17.5856 16.9221 17.4566C16.3917 17.3292 16.0229 17.0082 15.8156 16.4933C15.6153 15.9802 15.6223 15.288 15.8366 14.4169C16.0507 13.5457 16.3659 12.9276 16.782 12.5624C17.2052 12.199 17.682 12.081 18.2122 12.2083C18.7498 12.3374 19.1186 12.6585 19.3188 13.1716C19.5262 13.6864 19.5227 14.3795 19.3086 15.2506C19.0944 16.1218 18.7758 16.7391 18.3524 17.1025Z" fill="#5D3F92"/>
<path d="M23.4503 15.7614C23.7441 15.832 23.9978 15.7729 24.2111 15.5841C24.4316 15.397 24.5925 15.0981 24.6935 14.6872C24.7944 14.2765 24.7904 13.938 24.6813 13.6717C24.5793 13.4072 24.3815 13.2397 24.0876 13.1691C23.8081 13.102 23.5537 13.1647 23.3243 13.3571C23.1037 13.5442 22.9438 13.8396 22.8445 14.2433C22.7453 14.647 22.7493 14.9855 22.8568 15.2588C22.973 15.5268 23.1709 15.6943 23.4503 15.7614Z" fill="#5D3F92"/>
<path d="M27.5225 20.4521C27.809 20.521 28.0627 20.4619 28.2832 20.2748C28.5055 20.0806 28.6662 19.7817 28.7656 19.378C28.8648 18.9743 28.8598 18.6393 28.7507 18.3731C28.6434 18.0998 28.4464 17.9287 28.1597 17.8599C27.8731 17.791 27.6195 17.8501 27.3989 18.0372C27.1784 18.2243 27.0177 18.5232 26.9167 18.934C26.8157 19.3448 26.8197 19.6833 26.9288 19.9496C27.0379 20.2158 27.2358 20.3833 27.5225 20.4521Z" fill="#5D3F92"/>
<path d="M14.3082 24.7948C13.9287 24.8974 13.53 24.8986 13.112 24.7982C12.6939 24.6978 12.3402 24.516 12.0508 24.2527C11.7628 23.9835 11.5639 23.6607 11.454 23.2843C11.3455 22.902 11.3422 22.5042 11.4438 22.0911C11.5453 21.6779 11.7322 21.329 12.0046 21.0444C12.2784 20.7539 12.605 20.5573 12.9845 20.4546C13.3653 20.346 13.7648 20.342 14.1828 20.4423C14.6009 20.5427 14.9538 20.7275 15.2418 20.9967C15.5313 21.26 15.7302 21.5828 15.8385 21.9651C15.9484 22.3415 15.9525 22.7363 15.851 23.1494C15.7494 23.5626 15.5617 23.9144 15.2879 24.205C15.0155 24.4896 14.689 24.6862 14.3082 24.7948Z" fill="#5D3F92"/>
<path fill-rule="evenodd" clip-rule="evenodd" d="M20.2516 2.49939L18 0L15.7484 2.49939L12.8767 0.729108L11.4277 3.75518L8.16837 2.85743L7.63949 6.16498L4.25664 6.21249L4.69051 9.53355L1.45828 10.5225L2.81984 13.5881L0 15.4383L2.17896 18L0 20.5617L2.81984 22.4119L1.45828 25.4775L4.69051 26.4664L4.25664 29.7875L7.63949 29.835L8.16837 33.1426L11.4277 32.2448L12.8767 35.2709L15.7484 33.5006L18 36L20.2516 33.5006L23.1234 35.2709L24.5724 32.2448L27.8317 33.1426L28.3606 29.835L31.7434 29.7875L31.3095 26.4664L34.5418 25.4775L33.1802 22.4119L36 20.5617L33.8211 18L36 15.4383L33.1802 13.5881L34.5418 10.5225L31.3095 9.53355L31.7434 6.21249L28.3606 6.16498L27.8317 2.85743L24.5724 3.75518L23.1234 0.729108L20.2516 2.49939ZM12.914 13.4788C12.5062 12.9458 11.772 12.552 10.7113 12.2973L9.9911 12.1243L10.5755 10.442L13.811 11.2189L14.0957 10.0609L9.67765 9L8.29568 12.9549L10.1123 13.3911C10.8504 13.5683 11.3457 13.7922 11.5978 14.0628C11.859 14.328 11.9426 14.6519 11.8485 15.0344C11.7614 15.3885 11.5493 15.6339 11.2122 15.7704C10.8839 15.9016 10.4726 15.9079 9.97811 15.7891C9.56244 15.6893 9.1733 15.5284 8.81047 15.3062C8.45662 15.0787 8.1677 14.8181 7.94394 14.5243L7.08896 15.4553C7.36678 15.8071 7.73738 16.1211 8.20067 16.3974C8.66573 16.6666 9.16709 16.8657 9.70451 16.9948C10.3566 17.1514 10.931 17.1768 11.4276 17.071C11.924 16.9653 12.3278 16.7584 12.6387 16.4505C12.9497 16.1427 13.1601 15.7656 13.2697 15.3194C13.4421 14.6182 13.3236 14.0047 12.914 13.4788ZM15.1242 17.8237C15.5241 18.2348 16.025 18.5126 16.6269 18.6571C17.229 18.8017 17.803 18.782 18.3491 18.5981C18.9041 18.4089 19.3882 18.06 19.8017 17.5518C20.2167 17.0364 20.5218 16.382 20.7168 15.5888C20.9118 14.7955 20.9437 14.0794 20.8124 13.4402C20.6828 12.7941 20.4146 12.2646 20.0076 11.8518C19.6094 11.4337 19.1094 11.1523 18.5074 11.0078C17.9055 10.8632 17.3305 10.8865 16.7827 11.0775C16.2366 11.2613 15.756 11.611 15.341 12.1264C14.9275 12.6347 14.6234 13.2854 14.4284 14.0787C14.2334 14.872 14.2006 15.5917 14.3302 16.2378C14.4615 16.877 14.7262 17.4056 15.1242 17.8237ZM23.2675 16.5051C22.73 16.376 22.3426 16.0842 22.1052 15.6296C21.8679 15.1751 21.8241 14.6433 21.9738 14.0342C22.1235 13.4251 22.4095 12.9724 22.8313 12.6762C23.2532 12.3799 23.7329 12.2964 24.2705 12.4254C24.8079 12.5545 25.1954 12.8463 25.4327 13.3009C25.679 13.75 25.7264 14.2827 25.5749 14.8989C25.4234 15.5151 25.1331 15.9704 24.704 16.265C24.2838 16.5541 23.805 16.6341 23.2675 16.5051ZM28.7669 13.5839L29.8203 13.837L22.8539 20.0399L21.8004 19.7869L28.7669 13.5839ZM27.3397 21.1958C26.8021 21.0668 26.4147 20.775 26.1773 20.3204C25.94 19.8659 25.8962 19.3341 26.0459 18.7249C26.1956 18.1159 26.4815 17.6632 26.9035 17.3669C27.3253 17.0707 27.805 16.9871 28.3426 17.1162C28.88 17.2452 29.2674 17.5371 29.5048 17.9916C29.7493 18.4479 29.7967 18.9806 29.647 19.5897C29.4972 20.1988 29.2078 20.6506 28.7787 20.9451C28.3568 21.2413 27.8771 21.3249 27.3397 21.1958ZM11.2351 24.9851C11.682 25.3799 12.2248 25.654 12.8638 25.8075C13.5028 25.9609 14.1125 25.9635 14.6929 25.8154C15.2746 25.6613 15.7713 25.3774 16.1828 24.9637C16.5945 24.55 16.875 24.0391 17.0245 23.4312C17.1739 22.8233 17.1618 22.2422 16.9882 21.6879C16.8145 21.1337 16.5043 20.6591 16.0574 20.2643C15.6121 19.8636 15.0699 19.5865 14.4309 19.4331C13.7919 19.2796 13.1815 19.2799 12.5998 19.434C12.0194 19.5822 11.5227 19.8661 11.1097 20.2857C10.698 20.6994 10.4183 21.2073 10.2702 21.8093C10.1223 22.4113 10.1344 22.9924 10.3065 23.5526C10.4802 24.1068 10.7897 24.5843 11.2351 24.9851ZM20.7438 21.5303C20.2721 21.417 19.9737 21.6142 19.849 22.1217L19.7792 22.4051L21.0961 22.7213L20.8784 23.6066L19.5974 23.299L18.6615 27.106L17.5418 26.8371L18.4777 23.0301L17.6895 22.8408L17.9071 21.9555L18.6954 22.1448L18.7694 21.8438C18.8942 21.3362 19.1414 20.9736 19.5111 20.7561C19.8822 20.5327 20.3395 20.4863 20.883 20.6167C21.313 20.72 21.6294 20.8866 21.8321 21.1165L21.3139 21.8735C21.1548 21.6978 20.9648 21.5834 20.7438 21.5303ZM23.1557 22.9158C23.2804 22.4082 23.5788 22.2111 24.0505 22.3243C24.2715 22.3774 24.4615 22.4918 24.6207 22.6675L25.1388 21.9106C24.9361 21.6806 24.6197 21.514 24.1897 21.4108C23.6462 21.2803 23.189 21.3268 22.8178 21.5502C22.4481 21.7677 22.2009 22.1302 22.0761 22.6378L22.0021 22.9388L21.2138 22.7496L20.9962 23.6349L21.7844 23.8242L20.8486 27.6311L21.9683 27.9L22.9041 24.0931L24.1851 24.4006L24.4028 23.5153L23.086 23.1991L23.1557 22.9158Z" fill="#5D3F92"/>
</svg>
