<svg width="27" height="36" viewBox="0 0 27 36" fill="none" xmlns="http://www.w3.org/2000/svg">
<path d="M26.7089 16.8232L21.8191 9.59066C21.5862 9.25314 21.2603 9.06027 20.8877 9.01205C20.5151 8.96384 20.1426 9.06027 19.8632 9.30136L17.9072 10.9407C17.6278 11.1818 17.4415 11.5193 17.3949 11.9051C17.3949 12.0497 17.3949 12.1462 17.3949 12.2908C17.2087 12.2908 17.0224 12.339 16.8361 12.339C16.6964 12.339 16.6033 12.3872 16.4635 12.3872C15.7184 12.4355 14.9267 12.6765 14.0885 13.0141C13.9022 13.1105 13.7159 13.2069 13.5296 13.3034C12.6914 12.8694 11.8997 12.5801 11.108 12.4355C10.5492 12.339 10.0369 12.2908 9.57119 12.3872C9.66433 11.8569 9.47805 11.2783 9.05892 10.9407L7.10298 9.30136C6.82356 9.06027 6.451 8.96384 6.07844 9.01205C5.70588 9.06027 5.37989 9.25314 5.14704 9.59066L0.257193 16.8232C-0.161936 17.45 -0.0687965 18.3661 0.536613 18.8965L2.49255 20.5359C2.7254 20.7288 3.00482 20.8252 3.33081 20.8252C3.37738 20.8252 3.47052 20.8252 3.51709 20.8252C3.74994 20.777 3.93622 20.6806 4.1225 20.5359C4.26221 20.9699 4.49506 21.4038 4.82105 21.8378C4.72791 22.3199 4.82105 22.8503 5.0539 23.2361C5.37989 23.8147 5.93873 24.1522 6.59071 24.1522C6.77699 24.1522 6.9167 24.104 7.05641 24.104C7.10298 24.3933 7.19612 24.6344 7.33583 24.8754C7.66182 25.454 8.22066 25.7916 8.87264 25.7916C9.19863 25.7916 9.52462 25.6951 9.85061 25.5023C9.89718 25.6951 9.99032 25.888 10.0835 26.0809C10.3629 26.5148 10.7354 26.8523 11.2011 26.9488C11.434 26.997 11.6668 26.997 11.8531 26.9488C11.8997 27.1899 11.9928 27.4792 12.1325 27.7202C12.4585 28.2988 13.0174 28.6364 13.6693 28.6364C14.0419 28.6364 14.3679 28.5399 14.6473 28.2988L15.9513 27.3827C16.417 27.0452 16.6964 26.5148 16.743 25.9362C17.069 25.888 17.3484 25.6951 17.5812 25.5023C17.8141 25.3094 17.9538 25.0201 18.0469 24.779C18.1866 24.8272 18.3263 24.8754 18.5126 24.8754C18.8386 24.9237 19.1646 24.8272 19.444 24.6826L19.8166 24.4415L20.0029 24.2968L20.1891 24.0558C20.1891 24.0075 20.2357 24.0075 20.2357 23.9593C20.8877 24.6344 21.9588 24.6344 22.6574 24.0075C23.2628 23.4289 23.449 22.4646 23.1231 21.6931C23.1696 21.4038 23.2162 21.1145 23.2162 20.8252C23.6353 21.0181 24.1476 20.9216 24.5201 20.5841L26.4761 18.9448C26.7555 18.7037 26.9418 18.3661 26.9884 17.9804C27.0349 17.4982 26.9418 17.1125 26.7089 16.8232ZM19.6303 13.6409C19.5837 13.5927 19.4906 13.448 19.444 13.3516C19.3509 13.2069 19.3043 13.1105 19.2577 13.0623L18.6989 12.1944C18.6523 12.0979 18.6523 11.9533 18.7455 11.9051L20.7014 10.2657C20.748 10.2175 20.8411 10.2175 20.8877 10.3139L25.7775 17.5465C25.8241 17.5947 25.8241 17.6429 25.8241 17.6911C25.8241 17.7393 25.7775 17.7875 25.7775 17.8358L23.7285 19.5234C23.6819 19.5234 23.6819 19.5716 23.6353 19.5716C23.6353 19.5716 23.5887 19.5716 23.5422 19.5234L20.8411 15.5213L19.6303 13.6409ZM18.3729 19.3787C18.3263 19.2823 18.3263 19.1858 18.3263 19.0894C18.3263 18.8965 18.4195 18.7519 18.5126 18.6072C18.7455 18.3661 19.118 18.4144 19.3043 18.7037L21.8191 22.0306C22.0519 22.3199 22.0054 22.7539 21.7725 22.995C21.6794 23.0914 21.4931 23.1396 21.3534 23.1396C21.2137 23.1396 21.074 23.0432 20.9808 22.8985L18.3729 19.3787ZM8.3138 12.1944L7.33583 13.6409C7.33583 13.6409 7.28926 13.6891 7.28926 13.7373L3.42395 19.4751C3.37738 19.5234 3.37738 19.5234 3.33081 19.5234C3.28424 19.5234 3.28424 19.5234 3.23767 19.5234L1.28173 17.884C1.18859 17.8358 1.18859 17.6911 1.23516 17.5947L6.12501 10.3621C6.17158 10.3139 6.17158 10.3139 6.21815 10.3139C6.21815 10.3139 6.26472 10.3139 6.26472 10.3621L8.22066 12.0015C8.36037 12.0015 8.36037 12.0979 8.3138 12.1944ZM5.24018 18.993L8.63979 13.9784C9.75747 13.3998 11.0614 13.6409 12.1791 14.1231C11.8997 14.3159 11.6668 14.4606 11.6203 14.5088C10.8286 15.0874 10.2232 15.7624 9.94375 16.4375C9.61776 17.1125 9.57119 17.7875 9.85061 18.3179C10.13 18.8001 10.6423 19.0894 11.2477 19.1376C11.8065 19.1858 12.4585 18.993 13.1571 18.6072L15.439 17.1125C15.6253 17.0161 15.9513 16.9196 16.0444 16.9679C16.091 16.9679 16.1376 17.1125 16.1376 17.1125C16.1841 17.2572 16.2307 17.5947 16.5567 17.9322C16.6964 18.0768 16.9292 18.3179 17.2552 18.4626C17.2552 18.5108 17.2087 18.559 17.2087 18.6072C16.6964 18.5108 16.1376 18.6555 15.7184 19.0412C15.4856 19.2341 15.3459 19.5234 15.2527 19.7644C14.6473 19.5234 13.9953 19.668 13.4831 20.102C13.2502 19.8127 12.9242 19.6198 12.5517 19.5234C12.086 19.4269 11.6203 19.5234 11.2011 19.8127L10.7354 20.1502C10.6889 19.9091 10.5957 19.668 10.5026 19.4751C10.2232 19.0412 9.85061 18.7037 9.38491 18.6072C8.91921 18.5108 8.40694 18.6072 7.98781 18.8965L5.65931 20.5841C5.61274 20.5841 5.61274 20.6323 5.56617 20.6323C5.19361 20.0055 5.10047 19.4751 5.24018 18.993ZM20.2823 17.884C19.9097 17.45 19.3975 17.1607 18.8852 17.1607C18.6523 17.1607 18.4195 17.2089 18.1866 17.3054C17.4415 17.2089 17.3484 16.8232 17.3484 16.8232V16.775C17.2087 16.1482 16.8361 15.8589 16.5567 15.7142C15.8116 15.3767 14.9267 15.8589 14.8336 15.9071L12.5982 17.4018C12.1325 17.6911 11.6668 17.8358 11.3408 17.7875C11.1546 17.7875 11.0149 17.7393 10.9683 17.6429C10.9217 17.5465 10.9217 17.3054 11.0614 16.9679C11.2943 16.4857 11.76 16.0035 12.3654 15.5213L12.412 15.4731C12.6448 15.2803 13.4831 14.6534 14.6007 14.1713C15.6719 13.6891 17.1621 13.3034 18.3729 13.9302L21.7725 18.9448C21.8657 19.2823 21.9588 19.6198 21.9588 19.9573L20.2823 17.884ZM6.12501 22.561C6.03187 22.4164 5.9853 22.2235 6.03187 22.0306C6.07844 21.8378 6.17158 21.6931 6.31129 21.5967L8.63979 19.9091C8.73293 19.8609 8.82607 19.8127 8.91921 19.8127C9.10549 19.8127 9.29177 19.9091 9.38491 20.102C9.57119 20.4395 9.47805 20.8734 9.19863 21.0663L6.87013 22.7539C6.73042 22.8503 6.59071 22.8503 6.451 22.8503C6.31129 22.8021 6.21815 22.7057 6.12501 22.561ZM8.40694 24.2004C8.22066 23.8629 8.3138 23.4289 8.59322 23.2361L11.8997 20.8734C11.9928 20.8252 12.086 20.777 12.1791 20.777C12.2257 20.777 12.2722 20.777 12.2722 20.777C12.412 20.8252 12.5517 20.9216 12.6448 21.0663C12.8311 21.4038 12.7379 21.8378 12.4585 22.0306L10.5957 23.3325C10.5492 23.3807 10.5026 23.4289 10.4094 23.4771L9.15206 24.3933C9.01235 24.4897 8.87264 24.4897 8.73293 24.4897C8.59322 24.4415 8.45351 24.3451 8.40694 24.2004ZM11.0149 24.8272C11.0614 24.6826 11.108 24.5861 11.2011 24.4897L12.6914 23.4289C12.7845 23.3807 12.8777 23.3807 13.0174 23.4289C13.1571 23.4771 13.2968 23.5736 13.3899 23.7182C13.4831 23.8629 13.5296 24.0558 13.4831 24.2486C13.4365 24.3933 13.3899 24.4897 13.3434 24.5861L11.9463 25.5987C11.8065 25.6951 11.6668 25.6951 11.5271 25.6951C11.3874 25.6469 11.2477 25.5505 11.1546 25.4058C11.0149 25.213 10.9683 25.0201 11.0149 24.8272ZM13.1571 26.997C13.0174 26.7077 13.0174 26.3702 13.2502 26.1291L14.6473 25.1165C14.787 25.0201 14.9267 25.0201 15.0664 25.0201C15.2062 25.0683 15.3459 25.1647 15.439 25.3094C15.6253 25.6469 15.5321 26.0809 15.2527 26.2737L13.9488 27.2381C13.8091 27.3345 13.6693 27.3345 13.5296 27.3345C13.3899 27.2863 13.2502 27.1899 13.1571 26.997ZM15.5321 23.8629L14.135 22.0789C14.0419 21.9342 13.9953 21.7896 13.9953 21.6449C13.9953 21.452 14.0885 21.2592 14.2282 21.1145C14.3213 21.0181 14.461 20.9699 14.6473 20.9699C14.787 20.9699 14.9267 21.0663 15.0199 21.211L16.8361 23.5736C16.9292 23.7182 16.9758 23.9111 16.9758 24.104C16.9758 24.2968 16.8827 24.4415 16.743 24.5861C16.6498 24.6826 16.5567 24.7308 16.417 24.7308C16.2307 24.2486 15.9047 24.0075 15.5321 23.8629ZM16.5101 19.9573C16.6033 19.8609 16.743 19.8127 16.8827 19.8127C17.069 19.8127 17.2087 19.9091 17.3018 20.0537L19.2112 22.6575C19.2577 22.7539 19.2577 22.8503 19.2577 22.9468C19.2577 23.1396 19.1646 23.2843 19.0249 23.4289C18.9318 23.5254 18.792 23.5736 18.6058 23.5736C18.4661 23.5736 18.3263 23.4771 18.2332 23.3325L16.417 20.9699C16.3238 20.8252 16.2773 20.6323 16.2773 20.4395C16.3238 20.2466 16.417 20.102 16.5101 19.9573Z" fill="#5D3F92"/>
<path d="M3.98279 17.2572C3.93622 17.0643 3.84308 16.775 3.70337 16.5821C3.51709 16.3893 3.28424 16.1964 3.00482 16.1964C2.44598 16.1964 1.84057 16.8232 1.84057 17.3536V17.4018C1.84057 17.6911 2.02685 17.9322 2.21313 18.1251C2.39941 18.3179 2.67883 18.4144 2.95825 18.4144C3.23767 18.4144 3.51709 18.3179 3.70337 18.1251C3.84308 17.9804 3.98279 17.7875 3.98279 17.5465V17.2572ZM2.7254 17.4018C2.7254 17.3054 2.77197 17.2572 2.81854 17.2089C2.86511 17.1607 2.95825 17.1125 3.00482 17.1125C3.14453 17.1125 3.28424 17.2572 3.28424 17.4018C3.28424 17.5465 3.14453 17.6911 3.00482 17.6911C2.81854 17.6911 2.7254 17.5465 2.7254 17.4018Z" fill="#5D3F92"/>
<path d="M23.8682 18.7037C24.1476 18.7037 24.3804 18.6072 24.5667 18.4144C24.7064 18.2697 24.7996 18.0768 24.8461 17.8358V17.5465C24.7996 17.3536 24.7064 17.1607 24.5667 17.0161C24.3804 16.8232 24.1476 16.7268 23.8682 16.7268C23.3093 16.7268 22.7971 17.1125 22.7971 17.6911V17.7393C22.7971 18.0286 22.9368 18.2697 23.123 18.4626C23.3093 18.6072 23.5887 18.7037 23.8682 18.7037ZM23.8216 17.9322C23.6819 17.9322 23.5422 17.7875 23.5422 17.6429C23.5422 17.5465 23.5887 17.4982 23.6353 17.45C23.6819 17.4018 23.775 17.3536 23.8216 17.3536C23.9613 17.3536 24.101 17.4982 24.101 17.6429C24.101 17.8358 24.0079 17.9322 23.8216 17.9322Z" fill="#5D3F92"/>
<path fill-rule="evenodd" clip-rule="evenodd" d="M22.4679 0.23964C22.778 -0.07988 23.2808 -0.07988 23.5909 0.23964L26.7674 3.51237C27.0775 3.83189 27.0775 4.34993 26.7674 4.66945L23.5909 7.94218C23.2808 8.2617 22.778 8.2617 22.4679 7.94218C22.1578 7.62266 22.1578 7.10461 22.4679 6.78509L24.2887 4.90909H0.794118C0.355539 4.90909 0 4.54278 0 4.09091C0 3.63904 0.355539 3.27273 0.794118 3.27273H24.2887L22.4679 1.39672C22.1578 1.0772 22.1578 0.55916 22.4679 0.23964Z" fill="#5D3F92"/>
<path fill-rule="evenodd" clip-rule="evenodd" d="M4.53212 28.0578C4.22199 27.7383 3.71919 27.7383 3.40906 28.0578L0.232592 31.3305C-0.0775286 31.6501 -0.0775286 32.1681 0.232592 32.4876L3.40906 35.7604C3.71919 36.0799 4.22199 36.0799 4.53212 35.7604C4.84224 35.4408 4.84224 34.9228 4.53212 34.6033L2.71129 32.7273H26.2059C26.6445 32.7273 27 32.361 27 31.9091C27 31.4572 26.6445 31.0909 26.2059 31.0909H2.71129L4.53212 29.2149C4.84224 28.8954 4.84224 28.3773 4.53212 28.0578Z" fill="#5D3F92"/>
</svg>
