<svg width="36" height="36" viewBox="0 0 36 36" fill="none" xmlns="http://www.w3.org/2000/svg">
<path d="M2.02478 20.5142V18.4949C1.61887 18.5488 1.21438 18.6142 0.811803 18.6912C0.411994 18.7676 0.113692 19.0726 0.0262035 19.4451V19.9007C0.147118 20.4208 0.658127 20.7568 1.1869 20.6557C1.46525 20.6024 1.74461 20.5553 2.02478 20.5142Z" fill="#5D3F92"/>
<path d="M26.685 6.21545C27.8961 7.43545 29.7319 9.45109 31.1001 11.6933C31.5903 12.4966 31.5903 13.5018 31.1001 14.3051C29.7319 16.5473 27.8961 18.563 26.685 19.783C25.9759 20.4972 24.8497 20.4972 24.1407 19.7829C22.9297 18.5629 21.0941 16.5474 19.7257 14.3054C19.2354 13.5019 19.2354 12.4965 19.7257 11.693C21.0941 9.45097 22.9297 7.43547 24.1407 6.2155C24.8497 5.50119 25.9759 5.50116 26.685 6.21545Z" fill="#5D3F92"/>
<path fill-rule="evenodd" clip-rule="evenodd" d="M20.5678 13.404C20.6183 13.1312 20.9084 12.9748 21.1647 13.0808C22.2653 13.5362 24.8497 14.58 25.4131 14.58C25.9764 14.58 28.5605 13.5362 29.6609 13.0809C29.9173 12.9748 30.2074 13.1312 30.2579 13.404C30.2907 13.5812 30.212 13.7593 30.0574 13.8518C29.1394 14.4011 26.0257 16.2365 25.4128 16.2365C24.7999 16.2365 21.6863 14.4011 20.7683 13.8519C20.6136 13.7593 20.5349 13.5812 20.5678 13.404Z" fill="white"/>
<path d="M35.9212 25.9302C36.0978 25.4069 35.8171 24.8395 35.2942 24.6628C34.867 24.5184 34.4358 24.3878 34.0013 24.2709V26.3496C34.2202 26.4151 34.438 26.4844 34.6548 26.5576C35.1776 26.7343 35.7447 26.4534 35.9212 25.9302Z" fill="#5D3F92"/>
<path d="M28.4386 25.5379L28.4414 25.5379C30.3255 25.5369 32.1984 25.8106 34.0013 26.3496V24.2709C32.1901 23.7839 30.3209 23.537 28.4416 23.5379C25.7005 23.5321 22.9853 24.048 20.44 25.0561C20.9083 25.5803 21.3481 26.1276 21.758 26.6957C23.8981 25.9258 26.1585 25.533 28.4386 25.5379Z" fill="#5D3F92"/>
<path d="M34.0013 32.3839C34.0013 33.276 33.2786 33.9992 32.3871 33.9992H25.0709C25.1332 34.2694 25.19 34.5413 25.2414 34.8147C25.3432 35.3575 24.986 35.8801 24.4436 35.9821C24.3877 35.9926 24.332 35.9982 24.277 35.9992H32.3871C34.3824 35.9992 35.9999 34.3806 35.9999 32.3839V3.61533C35.9999 1.61864 34.3824 0 32.3871 0L3.63896 0C1.64369 0 0.0262035 1.61864 0.0262035 3.61533V19.4451C0.113692 19.0726 0.411994 18.7676 0.811803 18.6912C1.21438 18.6142 1.61887 18.5488 2.02478 18.4949V3.61533C2.02478 2.72321 2.74748 2 3.63896 2H32.3871C33.2786 2 34.0013 2.72321 34.0013 3.61533V24.2709C34.4358 24.3878 34.867 24.5184 35.2942 24.6628C35.8171 24.8395 36.0978 25.4069 35.9212 25.9302C35.7447 26.4534 35.1776 26.7343 34.6548 26.5576C34.438 26.4844 34.2202 26.4151 34.0013 26.3496V32.3839Z" fill="#5D3F92"/>
<path d="M3.63896 33.9992C2.74748 33.9992 2.02478 33.276 2.02478 32.3839V20.5142C1.74461 20.5553 1.46525 20.6024 1.1869 20.6557C0.658127 20.7568 0.147118 20.4208 0.0262035 19.9007V32.3839C0.0262035 34.3806 1.64369 35.9992 3.63896 35.9992H24.2392C23.7756 35.9904 23.366 35.6578 23.2771 35.1838C23.2023 34.785 23.1144 34.39 23.0139 33.9992H3.63896Z" fill="#5D3F92"/>
<path d="M18.0981 22.8228C14.375 19.8019 9.7013 18.2018 4.9096 18.3072C3.94443 18.3052 2.98067 18.368 2.02478 18.4949V20.5142C2.982 20.3739 3.94868 20.3047 4.91688 20.3073L4.9337 20.3072L4.94215 20.307C9.26454 20.2092 13.4811 21.6514 16.8394 24.3763C19.8828 26.8457 22.0419 30.2229 23.0139 33.9992H25.0709C24.461 31.3535 23.3292 28.8728 21.758 26.6957C21.3865 26.8293 21.0186 26.9743 20.6549 27.1306C20.1478 27.3485 19.5602 27.1138 19.3424 26.6063C19.1247 26.0988 19.3593 25.5107 19.8664 25.2929C20.0566 25.2111 20.2478 25.1322 20.44 25.0561C19.7241 24.2547 18.9417 23.5073 18.0981 22.8228Z" fill="#5D3F92"/>
<path d="M24.4436 35.9821C24.986 35.8801 25.3432 35.3575 25.2414 34.8147C25.19 34.5413 25.1332 34.2694 25.0709 33.9992H23.0139C23.1144 34.39 23.2023 34.785 23.2771 35.1838C23.366 35.6578 23.7756 35.9904 24.2392 35.9992H24.277C24.332 35.9982 24.3877 35.9926 24.4436 35.9821Z" fill="#5D3F92"/>
<path fill-rule="evenodd" clip-rule="evenodd" d="M24.2392 35.9992H24.277C24.2644 35.9995 24.2518 35.9995 24.2392 35.9992ZM0.0262035 19.4451V19.9007C0.0231594 19.8876 0.0203625 19.8744 0.0178187 19.8611C-0.00936697 19.7187 -0.00493009 19.5776 0.0262035 19.4451Z" fill="white"/>
<path d="M19.3424 26.6063C19.5602 27.1138 20.1478 27.3485 20.6549 27.1306C21.0186 26.9743 21.3865 26.8293 21.758 26.6957C21.3481 26.1276 20.9083 25.5803 20.44 25.0561C20.2478 25.1322 20.0566 25.2111 19.8664 25.2929C19.3593 25.5107 19.1247 26.0988 19.3424 26.6063Z" fill="#5D3F92"/>
</svg>
