<svg width="30" height="36" viewBox="0 0 30 36" fill="none" xmlns="http://www.w3.org/2000/svg">
<path fill-rule="evenodd" clip-rule="evenodd" d="M1.10599 4.35247C0.813586 4.35247 0.532585 4.46854 0.324954 4.67606C0.117226 4.88367 0 5.16587 0 5.46074V19.1399C0 19.4348 0.117225 19.717 0.324954 19.9246C0.532586 20.1321 0.813588 20.2482 1.10599 20.2482H4.56221V31.5756C4.56221 31.8704 4.67944 32.1526 4.88717 32.3602C5.0948 32.5678 5.3758 32.6838 5.6682 32.6838H8.29493V34.8917C8.29493 35.1866 8.41216 35.4688 8.61988 35.6764C8.82751 35.8839 9.10852 36 9.40092 36H24.3318C24.6242 36 24.9052 35.8839 25.1128 35.6764C25.3206 35.4688 25.4378 35.1866 25.4378 34.8917V20.2482H28.894C29.1864 20.2482 29.4674 20.1321 29.675 19.9246C29.8828 19.717 30 19.4348 30 19.1399V5.46074C30 5.16587 29.8828 4.88367 29.675 4.67606C29.4674 4.46854 29.1864 4.35247 28.894 4.35247H1.10599ZM2 6V18.0317H4.56221V6H2ZM6.5 6V31H19.4931V6H6.5ZM21.7051 6V7.66864H24.3318C24.6242 7.66864 24.9052 7.78471 25.1128 7.99222C25.3206 8.19984 25.4378 8.48204 25.4378 8.77691V18.0317H28V6H21.7051ZM21.7051 9.88518V31.5756C21.7051 31.8704 21.5878 32.1526 21.3801 32.3602C21.1725 32.5678 20.8915 32.6838 20.5991 32.6838H10.5069L10.5 34H23.5803V9.88518H21.7051Z" fill="#5D3F92"/>
<path d="M10.2304 0C9.50777 0 8.91705 0.586265 8.91705 1.31553C8.91705 2.04479 9.50777 2.63106 10.2304 2.63106C10.9531 2.63106 11.5438 2.04479 11.5438 1.31553C11.5438 0.586264 10.9531 0 10.2304 0Z" fill="#5D3F92"/>
<path d="M6.08295 0C5.36031 0 4.76959 0.586265 4.76959 1.31553C4.76959 2.04479 5.36031 2.63106 6.08295 2.63106C6.80559 2.63106 7.39631 2.04479 7.39631 1.31553C7.39631 0.586264 6.80559 0 6.08295 0Z" fill="#5D3F92"/>
<path fill-rule="evenodd" clip-rule="evenodd" d="M10.8525 20.7027C10.8525 20.5378 10.787 20.3796 10.6703 20.263C10.5537 20.1464 10.3954 20.0809 10.2304 20.0809C10.0654 20.0809 9.90718 20.1464 9.79051 20.263C9.67384 20.3796 9.60829 20.5378 9.60829 20.7027C9.60829 22.1825 10.8525 23.4136 12.5115 23.6665V24.5287C12.5115 24.6936 12.5771 24.8518 12.6937 24.9684C12.8104 25.085 12.9686 25.1505 13.1336 25.1505C13.2986 25.1505 13.4569 25.085 13.5735 24.9684C13.6902 24.8518 13.7558 24.6936 13.7558 24.5287V23.6665C15.4147 23.4136 16.659 22.1825 16.659 20.7027C16.659 19.2228 15.4147 17.9917 13.7558 17.7388V14.2196C14.7097 14.431 15.4147 15.1108 15.4147 15.9233C15.4147 16.0882 15.4803 16.2463 15.597 16.3629C15.7136 16.4795 15.8719 16.545 16.0369 16.545C16.2019 16.545 16.3601 16.4795 16.4768 16.3629C16.5934 16.2463 16.659 16.0882 16.659 15.9233C16.659 14.4434 15.4147 13.2123 13.7558 12.9594V12.0931C13.7558 11.9282 13.6902 11.77 13.5735 11.6534C13.4569 11.5368 13.2986 11.4713 13.1336 11.4713C12.9686 11.4713 12.8104 11.5368 12.6937 11.6534C12.5771 11.77 12.5115 11.9282 12.5115 12.0931V12.9553C10.8525 13.2081 9.60829 14.4393 9.60829 15.9191C9.60829 17.3989 10.8525 18.6301 12.5115 18.8788V22.4022C11.5576 22.1908 10.8525 21.511 10.8525 20.7027ZM13.7558 22.4064C14.7138 22.195 15.4147 21.5317 15.4147 20.7027C15.4147 19.8944 14.7138 19.2104 13.7558 18.999V22.4064ZM12.5115 17.5C11.5535 17.2886 10.8525 16.6254 10.8525 15.7963C10.8525 14.988 11.5535 14.304 12.5115 14.0926V17.5Z" fill="#5D3F92"/>
</svg>
