<svg width="42" height="43" viewBox="0 0 42 43" fill="none" xmlns="http://www.w3.org/2000/svg">
<path d="M33.441 9.5201C33.289 7.84327 32.2497 6.47111 30.6071 6.10157C28.2968 5.58185 24.1134 5 16.9619 5C9.81031 5 5.62692 5.58185 3.31668 6.10157C1.67403 6.47111 0.634781 7.84327 0.482773 9.5201C0.25832 11.9961 4.57764e-05 16.4792 4.57764e-05 24C4.57764e-05 31.5208 0.25832 36.0039 0.482773 38.4799C0.634781 40.1567 1.67403 41.5289 3.31669 41.8984C5.62693 42.4182 9.81031 43 16.9619 43C24.1134 43 28.2968 42.4182 30.6071 41.8984C32.2497 41.5289 33.289 40.1567 33.441 38.4799C33.6654 36.0039 33.9237 31.5208 33.9237 24C33.9237 16.4792 33.6654 11.9961 33.441 9.5201Z" fill="#CCB7F2"/>
<path fill-rule="evenodd" clip-rule="evenodd" d="M33.5083 37.6854C31.2009 35.4344 29.5523 33.9512 28.4175 32.9888C27.1011 31.8724 25.3542 31.7153 23.9433 32.7091C22.8837 33.4555 21.4384 34.5871 19.5587 36.2879C16.3535 33.0847 14.1886 31.1209 12.7967 29.9405C11.4803 28.8241 9.73345 28.667 8.32259 29.6607C6.69213 30.8092 4.14865 32.8698 0.514061 36.5126C0.456407 36.5703 0.399148 36.6278 0.342285 36.6851C0.388845 37.3746 0.436523 37.9699 0.482765 38.48C0.634773 40.1569 1.67402 41.529 3.31668 41.8985C5.62692 42.4183 9.8103 43.0001 16.9619 43.0001C24.1134 43.0001 28.2968 42.4183 30.6071 41.8985C32.2497 41.529 33.289 40.1569 33.441 38.48C33.4632 38.2351 33.4857 37.9706 33.5083 37.6854Z" fill="#5D3F92"/>
<ellipse rx="2.99326" ry="3" transform="matrix(-1 0 0 1 8.97976 14)" fill="#5D3F92"/>
<path d="M31.2678 1.20215C33.5313 3.38578 38.2694 8.28282 41.3037 13.7114C41.7619 14.5312 41.7619 15.5273 41.3037 16.3471C38.2694 21.7757 33.5312 26.6727 31.2678 28.8564C30.5423 29.5564 29.4174 29.5563 28.6918 28.8563C26.4286 26.6727 21.691 21.7758 18.6562 16.3474C18.1978 15.5274 18.1978 14.5311 18.6562 13.7111C21.691 8.28272 26.4286 3.38585 28.6918 1.20222C29.4174 0.502194 30.5423 0.50216 31.2678 1.20215Z" fill="#5D3F92"/>
<path fill-rule="evenodd" clip-rule="evenodd" d="M28.6918 1.20234C29.4174 0.502316 30.5423 0.502282 31.2678 1.20227C33.5313 3.3859 38.2694 8.28294 41.3037 13.7115C41.7619 14.5313 41.7619 15.5274 41.3037 16.3472C38.2694 21.7758 33.5312 26.6729 31.2678 28.8565C30.5423 29.5565 29.4174 29.5564 28.6918 28.8564C26.4286 26.6728 21.691 21.7759 18.6562 16.3475C18.1978 15.5275 18.1978 14.5312 18.6562 13.7113C21.691 8.28285 26.4286 3.38597 28.6918 1.20234ZM22.5523 15.0294C25.3885 20.2829 29.9798 23.6409 29.9798 23.6409C29.9798 23.6409 34.573 20.2829 37.4082 15.0294C34.573 9.77589 29.9798 6.41788 29.9798 6.41788C29.9798 6.41788 25.3885 9.77588 22.5523 15.0294Z" fill="#5D3F92"/>
<path fill-rule="evenodd" clip-rule="evenodd" d="M20.898 15.7907C20.9927 15.278 21.5383 14.9841 22.0199 15.1838C24.0844 16.0399 28.9249 17.9992 29.9804 17.9992C31.0359 17.9992 35.8757 16.0399 37.94 15.1839C38.4216 14.9842 38.9671 15.278 39.0619 15.7908C39.1233 16.1232 38.9759 16.4572 38.686 16.6311C36.9653 17.6628 31.1288 21.1111 29.9799 21.1111C28.831 21.1111 22.9945 17.6629 21.2739 16.6311C20.984 16.4572 20.8365 16.1232 20.898 15.7907Z" fill="#CCB7F2"/>
</svg>
