<svg width="39" height="40" viewBox="0 0 39 40" fill="none" xmlns="http://www.w3.org/2000/svg">
<path d="M20.2644 0.316124C22.9371 0.119294 28.8817 -0.206073 35.2973 0.180284C37.1977 0.294727 38.7052 1.80231 38.8197 3.70267C39.206 10.1183 38.8807 16.0629 38.6839 18.7356C38.6118 19.7145 38.2792 20.6435 37.7013 21.4369C35.5423 24.4013 29.4548 32.2069 21.0512 38.4055C19.6346 39.4504 17.8148 39.6566 16.3541 38.6744C14.5677 37.4732 11.7735 35.2295 7.90108 31.0989C4.46239 27.431 2.299 24.8258 0.967505 23.0863C-0.341219 21.3765 -0.279722 19.0994 1.01807 17.3814C7.14419 9.27136 14.6659 3.40878 17.5631 1.29863C18.3565 0.720759 19.2855 0.388214 20.2644 0.316124Z" fill="#CCB7F2"/>
<path d="M27.5554 9.99998C27.5554 11.6568 28.8985 13 30.5554 13C32.2122 13 33.5554 11.6568 33.5554 9.99998C33.5554 8.34313 32.2122 6.99998 30.5554 6.99998C28.8985 6.99998 27.5554 8.34313 27.5554 9.99998Z" fill="#5D3F92"/>
</svg>
