<svg width="40" height="36" viewBox="0 0 40 36" fill="none" xmlns="http://www.w3.org/2000/svg">
<path d="M4.16135 9.44245C3.85074 7.59876 4.86183 6.01341 6.63308 5.40054C8.51377 4.7498 11.589 3.79033 16.523 2.47203C21.4569 1.15373 24.6013 0.451414 26.5563 0.0772944C28.3975 -0.275054 30.0681 0.593796 30.7236 2.34534C31.2282 3.69393 31.8742 5.66252 32.6341 8.49068C33.3941 11.3188 33.8218 13.3457 34.061 14.7653C34.3716 16.6089 33.3605 18.1943 31.5892 18.8072C29.7085 19.4579 26.6333 20.4174 21.6993 21.7357C16.7654 23.054 13.6211 23.7563 11.666 24.1304C9.82478 24.4828 8.15421 23.6139 7.49873 21.8624C6.99406 20.5138 6.34815 18.5452 5.58819 15.717C4.82823 12.8889 4.4005 10.862 4.16135 9.44245Z" fill="#5D3F92"/>
<path d="M0.505106 8.03391C0.715534 6.16246 2.08089 4.82321 3.95952 4.63047C6.51504 4.36829 11.0883 4.09089 19 4.09089C26.9117 4.09089 31.485 4.36829 34.0405 4.63047C35.9191 4.82321 37.2845 6.16246 37.4949 8.03391C37.7466 10.2723 38 14.0218 38 20.0454C38 26.0691 37.7466 29.8186 37.4949 32.057C37.2845 33.9284 35.9191 35.2677 34.0405 35.4604C31.485 35.7226 26.9117 36 19 36C11.0883 36 6.51504 35.7226 3.95951 35.4604C2.08089 35.2677 0.715534 33.9284 0.505106 32.057C0.253415 29.8186 0 26.0691 0 20.0454C0 14.0218 0.253415 10.2723 0.505106 8.03391Z" fill="#CCB7F2"/>
<path d="M26.0517 17.4045C26.1343 15.5233 27.4612 14.2181 29.3476 14.133C30.2715 14.0913 31.4652 14.0625 33 14.0625C34.5348 14.0625 35.7285 14.0913 36.6524 14.133C38.5388 14.2181 39.8657 15.5233 39.9483 17.4045C39.9795 18.1175 40 18.988 40 20.0454C40 21.1028 39.9795 21.9734 39.9483 22.6864C39.8657 24.5676 38.5388 25.8728 36.6524 25.9579C35.7285 25.9996 34.5348 26.0284 33 26.0284C31.4652 26.0284 30.2715 25.9996 29.3476 25.9579C27.4612 25.8728 26.1343 24.5676 26.0517 22.6864C26.0205 21.9734 26 21.1028 26 20.0454C26 18.988 26.0205 18.1175 26.0517 17.4045Z" fill="#5D3F92"/>
<path d="M34 20.0454C34 21.1469 33.1046 22.0398 32 22.0398C30.8954 22.0398 30 21.1469 30 20.0454C30 18.944 30.8954 18.0511 32 18.0511C33.1046 18.0511 34 18.944 34 20.0454Z" fill="#CCB7F2"/>
</svg>
