<svg width="50" height="18" viewBox="0 0 50 18" fill="none" xmlns="http://www.w3.org/2000/svg">
<path d="M0 0.818181V11.8052C0 12.7714 0.160655 13.6208 0.481964 14.3532C0.803273 15.0857 1.25311 15.7013 1.83146 16.2C2.40982 16.6987 3.0926 17.0727 3.87981 17.3221C4.66702 17.587 5.52652 17.7195 6.45832 17.7195C7.37405 17.7195 8.22552 17.587 9.01273 17.3221C9.79993 17.0727 10.4827 16.6987 11.0611 16.2C11.6555 15.7013 12.1134 15.0857 12.4347 14.3532C12.756 13.6208 12.9166 12.7714 12.9166 11.8052V0.818181H9.47059V11.5948C9.47059 12.5299 9.21354 13.2857 8.69945 13.8623C8.20142 14.4234 7.45438 14.7039 6.45832 14.7039C5.46226 14.7039 4.70718 14.4234 4.19309 13.8623C3.69506 13.2857 3.44604 12.5299 3.44604 11.5948V0.818181H0Z" fill="#873DC1"/>
<path d="M28.43 0.818181V10.9636L16.4291 0V17.1818H19.7547V7.03636L31.7556 18V0.818181H28.43Z" fill="#873DC1"/>
<path d="M35.4206 0.818181V17.1818H38.9389V0.818181H35.4206ZM41.156 17.1818C42.9232 17.1818 44.4654 16.8468 45.7828 16.1766C47.1162 15.5065 48.1525 14.5636 48.8915 13.3481C49.6305 12.1169 50 10.6675 50 9C50 7.33247 49.6305 5.89091 48.8915 4.67532C48.1525 3.44416 47.1162 2.49351 45.7828 1.82338C44.4654 1.15325 42.9232 0.818181 41.156 0.818181H37.6376V3.85714H41.0355C41.7745 3.85714 42.4733 3.95844 43.132 4.16104C43.7907 4.34805 44.3691 4.65195 44.8671 5.07273C45.3651 5.49351 45.7507 6.03117 46.0238 6.68571C46.313 7.32468 46.4576 8.0961 46.4576 9C46.4576 9.9039 46.313 10.6831 46.0238 11.3377C45.7507 11.9766 45.3651 12.5065 44.8671 12.9273C44.3691 13.3481 43.7907 13.6597 43.132 13.8623C42.4733 14.0494 41.7745 14.1429 41.0355 14.1429H37.6376V17.1818H41.156Z" fill="#873DC1"/>
</svg>
