<svg width="130" height="130" viewBox="0 0 130 130" fill="none" xmlns="http://www.w3.org/2000/svg">
<g filter="url(#filter0_d_590_29582)">
<path d="M89.3049 12.3809V38.5714C89.3049 38.5714 87.8788 37.1742 77.3791 36.5205C73.9562 42.6662 69.8197 49.5718 65 56.727C60.1803 49.5719 56.0442 42.6663 52.6218 36.5206C42.1246 37.1745 40.6987 38.5714 40.6987 38.5714V12.3809C40.6987 12.3809 23.8149 20.6505 15.614 37.1896C14.4828 39.4709 14.9657 42.1571 16.6433 44.0889C20.853 48.9364 29.7917 58.9359 41.8103 70.7729C46.4241 62.9122 55.082 57.619 65.0018 57.619C74.9207 57.619 83.5779 62.9112 88.1919 70.7707C100.209 58.9347 109.147 48.9361 113.357 44.0889C115.034 42.1571 115.517 39.4709 114.386 37.1896C106.185 20.6505 89.3049 12.3809 89.3049 12.3809Z" fill="#CCB7F2"/>
<path d="M40.6987 12.3809V38.5714C40.6987 38.5714 42.1246 37.1745 52.6218 36.5206C44.7932 22.4629 40.6987 12.3809 40.6987 12.3809Z" fill="#CCB7F2"/>
<path d="M89.3049 38.5714V12.3809C89.3049 12.3809 85.2087 22.4629 77.3791 36.5205C87.8788 37.1742 89.3049 38.5714 89.3049 38.5714Z" fill="#CCB7F2"/>
<path d="M65.0018 10C47.9896 10 40.6987 12.3809 40.6987 12.3809C40.6987 12.3809 44.7932 22.4629 52.6218 36.5206C55.829 36.3209 59.8829 36.1905 65.0018 36.1905C70.1192 36.1905 74.1723 36.3208 77.3791 36.5205C85.2087 22.4629 89.3049 12.3809 89.3049 12.3809C89.3049 12.3809 82.014 10 65.0018 10Z" fill="#E2D1FF"/>
<path d="M65.0018 110C79.7662 110 91.7352 98.2741 91.7352 83.8095C91.7352 79.0623 90.446 74.6102 88.1919 70.7707C83.5779 62.9112 74.9207 57.619 65.0018 57.619C55.082 57.619 46.4241 62.9122 41.8103 70.7729C39.557 74.6119 38.2683 79.0633 38.2683 83.8095C38.2683 98.2741 50.2373 110 65.0018 110Z" fill="#873DC1"/>
</g>
<path d="M77.3581 101.615C77.879 101.572 78.237 101.191 78.2724 100.669C78.3048 100.19 78.333 99.452 78.333 98.334C78.333 97.2159 78.3048 96.4779 78.2724 95.9988C78.237 95.4773 77.879 95.0957 77.3581 95.0527C77.0036 95.0235 76.51 95.0007 75.833 95.0007C75.156 95.0007 74.6624 95.0235 74.3079 95.0527C73.787 95.0957 73.429 95.4773 73.3937 95.9988C73.3612 96.4779 73.333 97.2159 73.333 98.334C73.333 99.452 73.3612 100.19 73.3937 100.669C73.429 101.191 73.787 101.572 74.3079 101.615C74.6624 101.644 75.156 101.667 75.833 101.667C76.51 101.667 77.0036 101.644 77.3581 101.615Z" fill="#CD7F32"/>
<path d="M55.6914 101.615C56.2124 101.572 56.5704 101.191 56.6057 100.669C56.6381 100.19 56.6663 99.452 56.6663 98.334C56.6663 97.2159 56.6381 96.4779 56.6057 95.9988C56.5704 95.4773 56.2124 95.0957 55.6914 95.0527C55.337 95.0235 54.8433 95.0007 54.1663 95.0007C53.4894 95.0007 52.9957 95.0235 52.6413 95.0527C52.1203 95.0957 51.7623 95.4773 51.727 95.9988C51.6945 96.4779 51.6663 97.2159 51.6663 98.334C51.6663 99.452 51.6945 100.19 51.727 100.669C51.7623 101.191 52.1203 101.572 52.6413 101.615C52.9957 101.644 53.4894 101.667 54.1663 101.667C54.8433 101.667 55.337 101.644 55.6914 101.615Z" fill="#CD7F32"/>
<path d="M48.7876 96.1637C48.9399 97.6065 49.9009 98.7317 51.3232 99.0176C53.5516 99.4657 57.7337 100.001 64.9997 100.001C72.2657 100.001 76.4478 99.4657 78.6761 99.0176C80.0984 98.7317 81.0594 97.6065 81.2117 96.1637C81.4274 94.1208 81.6663 90.4417 81.6663 84.1673C81.6663 77.8929 81.4274 74.2138 81.2117 72.1709C81.0594 70.7282 80.0984 69.6029 78.6761 69.317C76.4478 68.869 72.2657 68.334 64.9997 68.334C57.7337 68.334 53.5516 68.869 51.3232 69.317C49.9009 69.6029 48.9399 70.7282 48.7876 72.1709C48.5719 74.2138 48.333 77.8929 48.333 84.1673C48.333 90.4417 48.5719 94.1208 48.7876 96.1637Z" fill="white"/>
<path d="M51.9815 75.1814C52.117 73.7341 53.0845 72.6115 54.5157 72.3576C56.391 72.0249 59.6509 71.6673 64.9997 71.6673C70.3485 71.6673 73.6083 72.0249 75.4836 72.3576C76.9148 72.6115 77.8823 73.7341 78.0178 75.1814C78.1758 76.8681 78.333 79.6752 78.333 84.1673C78.333 88.6594 78.1758 91.4665 78.0178 93.1533C77.8823 94.6005 76.9148 95.7231 75.4836 95.977C73.6083 96.3097 70.3485 96.6673 64.9997 96.6673C59.6509 96.6673 56.391 96.3097 54.5157 95.977C53.0845 95.7231 52.117 94.6005 51.9815 93.1533C51.8235 91.4665 51.6663 88.6594 51.6663 84.1673C51.6663 79.6752 51.8235 76.8681 51.9815 75.1814Z" fill="#CD7F32"/>
<path d="M71.6663 84.1673C71.6663 87.8492 68.6816 90.834 64.9997 90.834C61.3178 90.834 58.333 87.8492 58.333 84.1673C58.333 80.4854 61.3178 77.5007 64.9997 77.5007C68.6816 77.5007 71.6663 80.4854 71.6663 84.1673Z" fill="white"/>
<path d="M68.333 84.1673C68.333 86.0083 66.8406 87.5007 64.9997 87.5007C63.1587 87.5007 61.6663 86.0083 61.6663 84.1673C61.6663 82.3264 63.1587 80.834 64.9997 80.834C66.8406 80.834 68.333 82.3264 68.333 84.1673Z" fill="#CD7F32"/>
<path d="M79.9702 77.6229C79.9384 77.0993 79.5653 76.7345 79.0416 76.7039C78.6869 76.6832 78.1898 76.6673 77.4997 76.6673C76.8095 76.6673 76.3124 76.6832 75.9578 76.7039C75.4341 76.7345 75.061 77.0993 75.0291 77.6229C75.012 77.904 74.9997 78.2724 74.9997 78.7507C74.9997 79.2289 75.012 79.5973 75.0291 79.8784C75.061 80.402 75.4341 80.7668 75.9578 80.7974C76.3124 80.8181 76.8095 80.834 77.4997 80.834C78.1898 80.834 78.6869 80.8181 79.0416 80.7974C79.5653 80.7668 79.9384 80.402 79.9702 79.8784C79.9873 79.5973 79.9997 79.2289 79.9997 78.7507C79.9997 78.2724 79.9873 77.904 79.9702 77.6229Z" fill="#CD7F32"/>
<path d="M79.9702 90.7117C79.9384 91.2353 79.5653 91.6001 79.0416 91.6307C78.6869 91.6514 78.1898 91.6673 77.4997 91.6673C76.8095 91.6673 76.3124 91.6514 75.9578 91.6307C75.4341 91.6001 75.061 91.2353 75.0291 90.7117C75.012 90.4306 74.9997 90.0622 74.9997 89.584C74.9997 89.1058 75.012 88.7373 75.0291 88.4563C75.061 87.9326 75.4341 87.5679 75.9578 87.5373C76.3124 87.5166 76.8095 87.5007 77.4997 87.5007C78.1898 87.5007 78.6869 87.5166 79.0416 87.5373C79.5653 87.5679 79.9384 87.9326 79.9702 88.4563C79.9873 88.7373 79.9997 89.1058 79.9997 89.584C79.9997 90.0622 79.9873 90.4306 79.9702 90.7117Z" fill="#CD7F32"/>
<defs>
<filter id="filter0_d_590_29582" x="0" y="0" width="130" height="130" filterUnits="userSpaceOnUse" color-interpolation-filters="sRGB">
<feFlood flood-opacity="0" result="BackgroundImageFix"/>
<feColorMatrix in="SourceAlpha" type="matrix" values="0 0 0 0 0 0 0 0 0 0 0 0 0 0 0 0 0 0 127 0" result="hardAlpha"/>
<feOffset dy="5"/>
<feGaussianBlur stdDeviation="7.5"/>
<feComposite in2="hardAlpha" operator="out"/>
<feColorMatrix type="matrix" values="0 0 0 0 0.803922 0 0 0 0 0.498039 0 0 0 0 0.196078 0 0 0 1 0"/>
<feBlend mode="normal" in2="BackgroundImageFix" result="effect1_dropShadow_590_29582"/>
<feBlend mode="normal" in="SourceGraphic" in2="effect1_dropShadow_590_29582" result="shape"/>
</filter>
</defs>
</svg>
