<svg width="130" height="130" viewBox="0 0 130 130" fill="none" xmlns="http://www.w3.org/2000/svg">
<g filter="url(#filter0_d_590_29612)">
<path d="M40.6987 12.3809C40.6987 12.3809 47.9896 10 65.0018 10C82.014 10 89.3049 12.3809 89.3049 12.3809V38.5714C89.3049 38.5714 86.8746 36.1905 65.0018 36.1905C43.129 36.1905 40.6987 38.5714 40.6987 38.5714V12.3809Z" fill="#E2D1FF"/>
<path fill-rule="evenodd" clip-rule="evenodd" d="M16.6433 44.0889C14.9657 42.1571 14.4828 39.4709 15.614 37.1896C23.8149 20.6505 40.6987 12.3809 40.6987 12.3809C40.6987 12.3809 49.1558 33.2051 65 56.727C80.8441 33.2051 89.3049 12.3809 89.3049 12.3809C89.3049 12.3809 106.185 20.6505 114.386 37.1896C115.517 39.4709 115.034 42.1571 113.357 44.0889C109.147 48.9361 100.209 58.9347 88.1919 70.7707C83.5779 62.9112 74.9207 57.619 65.0018 57.619C55.082 57.619 46.4241 62.9122 41.8103 70.7729C29.7918 58.9359 20.853 48.9364 16.6433 44.0889Z" fill="#CCB7F2"/>
<path d="M65.0018 110C79.7662 110 91.7352 98.2741 91.7352 83.8095C91.7352 79.0623 90.446 74.6102 88.1919 70.7707C83.5779 62.9112 74.9207 57.619 65.0018 57.619C55.082 57.619 46.4241 62.9122 41.8103 70.7729C39.557 74.6119 38.2683 79.0633 38.2683 83.8095C38.2683 98.2741 50.2373 110 65.0018 110Z" fill="#873DC1"/>
</g>
<path fill-rule="evenodd" clip-rule="evenodd" d="M51.2775 69.7155C53.0901 68.8956 55.6485 68.334 58.6553 68.334C61.6594 68.334 64.2158 68.8945 66.028 69.7132C66.9335 70.1223 67.6602 70.599 68.1639 71.1091C68.6653 71.617 68.9641 72.1775 68.9663 72.7518C68.9663 72.7564 68.9661 72.7611 68.9658 72.7657V72.7707L68.9658 72.7725C68.9608 73.3459 68.6604 73.9053 68.158 74.4122C67.6533 74.9213 66.9263 75.3971 66.0211 75.8054C64.2093 76.6225 61.6556 77.1817 58.6553 77.1817C55.6485 77.1817 53.0901 76.6201 51.2775 75.8001C50.3718 75.3904 49.6453 74.9131 49.1423 74.4023C48.6415 73.8939 48.344 73.3326 48.344 72.7578C48.344 72.183 48.6415 71.6218 49.1423 71.1133C49.6453 70.6026 50.3718 70.1252 51.2775 69.7155ZM48.4392 74.895C48.4977 74.8654 48.5663 74.8769 48.6145 74.9244C49.5102 75.8076 50.8846 76.5495 52.6096 77.0702C54.3324 77.5902 56.3944 77.8863 58.6553 77.8863C60.9157 77.8863 62.977 77.5904 64.6994 77.0707C66.424 76.5503 67.7984 75.8088 68.6946 74.9258C68.7428 74.8783 68.8113 74.8668 68.8698 74.8965C68.9283 74.9261 68.9658 74.9914 68.9658 75.0633V77.1349C68.9658 77.2069 68.9282 77.2723 68.8696 77.3019L65.7773 78.8661L65.7764 78.8665L65.595 78.9568L65.5946 78.9571C64.4326 79.5457 63.8031 81.1944 63.7822 83.5752C63.7814 83.6604 63.7283 83.7338 63.654 83.7522C62.1272 84.1303 60.4176 84.3384 58.6562 84.3384C55.6489 84.3384 53.0901 83.7772 51.2772 82.9577C50.3714 82.5482 49.6447 82.0711 49.1416 81.5605C48.6408 81.0523 48.3431 80.4912 48.3431 79.9165C48.3431 79.894 48.3404 79.869 48.3353 79.8353C48.3323 79.8152 48.3322 79.7946 48.3352 79.7745C48.3404 79.7398 48.3431 79.7153 48.3431 79.6929V75.0619C48.3431 74.9899 48.3807 74.9247 48.4392 74.895ZM71.9903 77.1611C72.1768 77.0672 72.3801 77.0222 72.5964 77.0222C73.0226 77.0222 73.4986 77.1959 73.9999 77.5125C74.5026 77.8299 75.0405 78.2971 75.5935 78.8996C77.1368 80.5816 78.6147 83.112 79.7609 86.0212C80.9076 88.9275 81.5837 91.8624 81.6593 94.2864C81.6933 95.3722 81.6036 96.2981 81.3975 97.011C81.1922 97.7212 80.8631 98.2459 80.4013 98.481C80.3972 98.4831 80.3929 98.485 80.3886 98.4867L80.3872 98.4873C79.9251 98.7156 79.3616 98.6418 78.7595 98.3418C78.1527 98.0395 77.484 97.4971 76.7933 96.7442C75.25 95.0622 73.7716 92.5327 72.6258 89.6254C71.4792 86.7167 70.8026 83.7815 70.727 81.3573C70.6933 80.2701 70.7834 79.3433 70.9903 78.6301C71.1964 77.9196 71.5269 77.395 71.9903 77.1611ZM70.0572 78.2544C70.1053 78.3016 70.1244 78.376 70.1061 78.4447C69.8905 79.2508 69.7922 80.2394 69.8285 81.3933C69.9073 83.9326 70.6075 87.0054 71.8051 90.0436C73.0023 93.0803 74.5546 95.7204 76.171 97.4819C76.9069 98.2833 77.6222 98.8557 78.2969 99.212C78.3546 99.2425 78.3912 99.3078 78.3907 99.3792C78.3902 99.4507 78.3526 99.5153 78.2945 99.5447L74.5443 101.441L74.5427 101.441L74.3709 101.531L74.369 101.532C73.9032 101.766 73.328 101.686 72.7138 101.375C72.0968 101.062 71.4159 100.505 70.7167 99.7361C69.3173 98.1961 67.8223 95.7805 66.5963 92.6727C65.3716 89.5639 64.7819 86.6897 64.7038 84.4818C64.6648 83.3786 64.7531 82.4333 64.9592 81.7055C65.1642 80.9814 65.4945 80.4442 65.9584 80.2094L69.8823 78.2252C69.9407 78.1957 70.009 78.2071 70.0572 78.2544ZM48.4392 82.6886C48.4976 82.659 48.5662 82.6704 48.6144 82.7179C49.5106 83.6007 50.8853 84.3423 52.6104 84.8627C54.3332 85.3824 56.3952 85.6785 58.6562 85.6785C60.4002 85.6785 62.1064 85.4889 63.6389 85.1296C63.6846 85.1189 63.7321 85.1305 63.7696 85.1617C63.8071 85.1928 63.8309 85.2404 63.8351 85.2924C63.9749 87.0372 64.3883 89.0372 65.0792 91.155C65.0944 91.2016 65.0921 91.2532 65.0727 91.2979C65.0534 91.3426 65.0187 91.3765 64.9766 91.392C63.0981 92.0806 60.9767 92.4321 58.6562 92.4321C55.6489 92.4321 53.0901 91.8708 51.2772 91.0515C50.3714 90.642 49.6447 90.165 49.1416 89.6546C48.6408 89.1465 48.3431 88.5856 48.3431 88.0111C48.3431 87.9875 48.3404 87.9624 48.3352 87.9281C48.3323 87.9081 48.3323 87.8877 48.3352 87.8677C48.3404 87.8333 48.3431 87.8081 48.3431 87.7851V82.8555C48.3431 82.7835 48.3807 82.7183 48.4392 82.6886ZM48.4392 90.4648C48.4976 90.4351 48.5662 90.4466 48.6144 90.4941C49.5106 91.3768 50.8852 92.1183 52.6103 92.6386C54.3332 93.1583 56.3952 93.4542 58.6562 93.4542C61.1059 93.4542 63.3436 93.0747 65.3248 92.3369C65.4061 92.3067 65.4944 92.3518 65.5272 92.4405C65.6074 92.6568 65.69 92.8738 65.7759 93.0911C66.4279 94.7436 67.1604 96.2273 67.9299 97.5142C67.9777 97.5942 67.9621 97.7021 67.8941 97.761C67.0045 98.5326 65.6549 99.1614 64.0555 99.5979C62.4531 100.035 60.5875 100.283 58.6562 100.283C55.6489 100.283 53.0901 99.7213 51.2772 98.9016C50.3713 98.492 49.6447 98.0147 49.1416 97.5041C48.6408 96.9957 48.3431 96.4346 48.3431 95.8599C48.3431 95.8374 48.3404 95.8124 48.3353 95.7787C48.3323 95.7586 48.3322 95.738 48.3352 95.7179C48.3404 95.6831 48.3431 95.6587 48.3431 95.6363V90.6317C48.3431 90.5597 48.3807 90.4945 48.4392 90.4648Z" fill="#FFD700"/>
<defs>
<filter id="filter0_d_590_29612" x="0" y="0" width="130" height="130" filterUnits="userSpaceOnUse" color-interpolation-filters="sRGB">
<feFlood flood-opacity="0" result="BackgroundImageFix"/>
<feColorMatrix in="SourceAlpha" type="matrix" values="0 0 0 0 0 0 0 0 0 0 0 0 0 0 0 0 0 0 127 0" result="hardAlpha"/>
<feOffset dy="5"/>
<feGaussianBlur stdDeviation="7.5"/>
<feComposite in2="hardAlpha" operator="out"/>
<feColorMatrix type="matrix" values="0 0 0 0 1 0 0 0 0 0.843137 0 0 0 0 0 0 0 0 1 0"/>
<feBlend mode="normal" in2="BackgroundImageFix" result="effect1_dropShadow_590_29612"/>
<feBlend mode="normal" in="SourceGraphic" in2="effect1_dropShadow_590_29612" result="shape"/>
</filter>
</defs>
</svg>
