<svg width="130" height="130" viewBox="0 0 130 130" fill="none" xmlns="http://www.w3.org/2000/svg">
<g filter="url(#filter0_d_590_29603)">
<path d="M89.3049 12.3809V38.5714C89.3049 38.5714 87.8788 37.1742 77.3791 36.5205C73.9562 42.6662 69.8197 49.5718 65 56.727C60.1803 49.5719 56.0442 42.6663 52.6218 36.5206C42.1246 37.1745 40.6987 38.5714 40.6987 38.5714V12.3809C40.6987 12.3809 23.8149 20.6505 15.614 37.1896C14.4828 39.4709 14.9657 42.1571 16.6433 44.0889C20.853 48.9364 29.7918 58.9359 41.8103 70.7729C46.4241 62.9122 55.082 57.619 65.0018 57.619C74.9207 57.619 83.5779 62.9112 88.1919 70.7707C100.209 58.9347 109.147 48.9361 113.357 44.0889C115.034 42.1571 115.517 39.4709 114.386 37.1896C106.185 20.6505 89.3049 12.3809 89.3049 12.3809Z" fill="#CCB7F2"/>
<path d="M40.6987 12.3809V38.5714C40.6987 38.5714 42.1246 37.1745 52.6218 36.5206C44.7932 22.4629 40.6987 12.3809 40.6987 12.3809Z" fill="#CCB7F2"/>
<path d="M89.3049 38.5714V12.3809C89.3049 12.3809 85.2087 22.4629 77.3791 36.5205C87.8788 37.1742 89.3049 38.5714 89.3049 38.5714Z" fill="#CCB7F2"/>
<path d="M65.0018 10C47.9896 10 40.6987 12.3809 40.6987 12.3809C40.6987 12.3809 44.7932 22.4629 52.6218 36.5206C55.829 36.3209 59.8829 36.1905 65.0018 36.1905C70.1192 36.1905 74.1723 36.3208 77.3791 36.5205C85.2087 22.4629 89.3049 12.3809 89.3049 12.3809C89.3049 12.3809 82.014 10 65.0018 10Z" fill="#E2D1FF"/>
<path fill-rule="evenodd" clip-rule="evenodd" d="M65.0018 110C79.7662 110 91.7352 98.2741 91.7352 83.8095C91.7352 79.0623 90.446 74.6102 88.1919 70.7707C83.5779 62.9112 74.9207 57.619 65.0018 57.619C55.082 57.619 46.4241 62.9122 41.8103 70.7729C39.557 74.6119 38.2683 79.0633 38.2683 83.8095C38.2683 98.2741 50.2373 110 65.0018 110Z" fill="#873DC1"/>
</g>
<path d="M69.4743 84.2679C71.7945 82.7337 73.3333 80.0412 73.3333 76.976C73.3333 72.2031 69.6024 68.334 65 68.334C60.3976 68.334 56.6667 72.2031 56.6667 76.976C56.6667 80.0412 58.2055 82.7337 60.5257 84.2679C56.6585 85.7228 53.6733 89.0091 52.6024 93.0836C52.0987 94.9999 53.5163 96.7282 55.4634 96.971C57.6008 97.2375 60.7797 97.5006 65 97.5006C69.2203 97.5006 72.3992 97.2375 74.5365 96.971C76.4837 96.7282 77.9013 94.9999 77.3976 93.0836C76.3267 89.0091 73.3415 85.7228 69.4743 84.2679Z" fill="#FFD700"/>
<defs>
<filter id="filter0_d_590_29603" x="0" y="0" width="130" height="130" filterUnits="userSpaceOnUse" color-interpolation-filters="sRGB">
<feFlood flood-opacity="0" result="BackgroundImageFix"/>
<feColorMatrix in="SourceAlpha" type="matrix" values="0 0 0 0 0 0 0 0 0 0 0 0 0 0 0 0 0 0 127 0" result="hardAlpha"/>
<feOffset dy="5"/>
<feGaussianBlur stdDeviation="7.5"/>
<feComposite in2="hardAlpha" operator="out"/>
<feColorMatrix type="matrix" values="0 0 0 0 1 0 0 0 0 0.843137 0 0 0 0 0 0 0 0 1 0"/>
<feBlend mode="normal" in2="BackgroundImageFix" result="effect1_dropShadow_590_29603"/>
<feBlend mode="normal" in="SourceGraphic" in2="effect1_dropShadow_590_29603" result="shape"/>
</filter>
</defs>
</svg>
