<svg width="130" height="130" viewBox="0 0 130 130" fill="none" xmlns="http://www.w3.org/2000/svg">
<g filter="url(#filter0_d_590_29540)">
<path d="M40.6987 12.3809C40.6987 12.3809 47.9896 10 65.0018 10C82.014 10 89.3049 12.3809 89.3049 12.3809V38.5714C89.3049 38.5714 86.8746 36.1905 65.0018 36.1905C43.129 36.1905 40.6987 38.5714 40.6987 38.5714V12.3809Z" fill="#E2D1FF"/>
<path fill-rule="evenodd" clip-rule="evenodd" d="M16.6433 44.0889C14.9657 42.1571 14.4828 39.4709 15.614 37.1896C23.8149 20.6505 40.6987 12.3809 40.6987 12.3809C40.6987 12.3809 49.1558 33.2051 65 56.727C80.8441 33.2051 89.3049 12.3809 89.3049 12.3809C89.3049 12.3809 106.185 20.6505 114.386 37.1896C115.517 39.4709 115.034 42.1571 113.357 44.0889C109.147 48.9361 100.209 58.9347 88.1919 70.7707C83.5779 62.9112 74.9207 57.619 65.0018 57.619C55.082 57.619 46.4241 62.9122 41.8103 70.7729C29.7918 58.9359 20.853 48.9364 16.6433 44.0889Z" fill="#CCB7F2"/>
<path d="M65.0018 110C79.7662 110 91.7352 98.2741 91.7352 83.8095C91.7352 79.0623 90.446 74.6102 88.1919 70.7707C83.5779 62.9112 74.9207 57.619 65.0018 57.619C55.082 57.619 46.4241 62.9122 41.8103 70.7729C39.557 74.6119 38.2683 79.0633 38.2683 83.8095C38.2683 98.2741 50.2373 110 65.0018 110Z" fill="#873DC1"/>
</g>
<path fill-rule="evenodd" clip-rule="evenodd" d="M51.277 69.7165C53.0896 68.8965 55.648 68.335 58.6548 68.335C61.6589 68.335 64.2153 68.8955 66.0275 69.7142C66.933 70.1233 67.6597 70.6 68.1634 71.1101C68.6649 71.6179 68.9636 72.1785 68.9658 72.7528C68.9658 72.7574 68.9656 72.762 68.9653 72.7667V72.7717L68.9653 72.7735C68.9603 73.3469 68.6599 73.9063 68.1575 74.4132C67.6528 74.9223 66.9258 75.3981 66.0206 75.8064C64.2088 76.6234 61.6551 77.1826 58.6548 77.1826C55.648 77.1826 53.0896 76.621 51.277 75.8011C50.3713 75.3914 49.6448 74.914 49.1418 74.4033C48.641 73.8948 48.3435 73.3336 48.3435 72.7588C48.3435 72.184 48.641 71.6228 49.1418 71.1143C49.6448 70.6036 50.3713 70.1262 51.277 69.7165ZM48.4387 74.896C48.4972 74.8663 48.5658 74.8778 48.614 74.9254C49.5097 75.8085 50.8842 76.5505 52.6091 77.0712C54.3319 77.5911 56.3939 77.8873 58.6548 77.8873C60.9152 77.8873 62.9765 77.5914 64.6989 77.0717C66.4235 76.5513 67.7979 75.8097 68.6941 74.9267C68.7423 74.8792 68.8108 74.8678 68.8693 74.8974C68.9278 74.9271 68.9653 74.9924 68.9653 75.0643V77.1359C68.9653 77.2079 68.9277 77.2732 68.8692 77.3028L65.7768 78.8671L65.7759 78.8675L65.5946 78.9578L65.5941 78.9581C64.4321 79.5466 63.8026 81.1954 63.7817 83.5761C63.7809 83.6614 63.7278 83.7348 63.6535 83.7532C62.1267 84.1313 60.4172 84.3394 58.6557 84.3394C55.6485 84.3394 53.0896 83.7782 51.2767 82.9587C50.3709 82.5492 49.6442 82.0721 49.1411 81.5615C48.6403 81.0533 48.3426 80.4922 48.3426 79.9175C48.3426 79.895 48.3399 79.8699 48.3348 79.8363C48.3318 79.8162 48.3318 79.7956 48.3348 79.7755C48.3399 79.7407 48.3426 79.7163 48.3426 79.6939V75.0629C48.3426 74.9909 48.3802 74.9256 48.4387 74.896ZM71.9898 77.1621C72.1763 77.0682 72.3796 77.0232 72.5959 77.0232C73.0221 77.0232 73.4981 77.1969 73.9994 77.5134C74.5021 77.8309 75.04 78.298 75.593 78.9006C77.1363 80.5826 78.6142 83.113 79.7604 86.0221C80.9071 88.9285 81.5832 91.8633 81.6588 94.2874C81.6928 95.3732 81.6031 96.2991 81.397 97.012C81.1917 97.7221 80.8626 98.2469 80.4008 98.4819C80.3967 98.484 80.3924 98.486 80.3881 98.4877L80.3867 98.4882C79.9246 98.7165 79.3611 98.6427 78.759 98.3428C78.1522 98.0405 77.4835 97.498 76.7928 96.7451C75.2495 95.0632 73.7711 92.5337 72.6254 89.6264C71.4787 86.7177 70.8021 83.7824 70.7265 81.3583C70.6928 80.2711 70.7829 79.3443 70.9898 78.631C71.1959 77.9206 71.5264 77.396 71.9898 77.1621ZM70.0567 78.2553C70.1048 78.3026 70.1239 78.377 70.1056 78.4457C69.89 79.2517 69.7917 80.2404 69.828 81.3942C69.9068 83.9336 70.607 87.0064 71.8046 90.0445C73.0018 93.0812 74.5541 95.7214 76.1705 97.4829C76.9064 98.2843 77.6217 98.8567 78.2964 99.213C78.3541 99.2435 78.3907 99.3087 78.3902 99.3802C78.3897 99.4517 78.3521 99.5163 78.294 99.5456L74.5438 101.442L74.5422 101.442L74.3705 101.532L74.3685 101.533C73.9028 101.767 73.3275 101.687 72.7134 101.376C72.0963 101.063 71.4154 100.506 70.7162 99.737C69.3168 98.1971 67.8218 95.7814 66.5958 92.6737C65.3711 89.5649 64.7814 86.6907 64.7033 84.4828C64.6643 83.3796 64.7526 82.4343 64.9587 81.7065C65.1637 80.9824 65.494 80.4452 65.9579 80.2104L69.8819 78.2262C69.9402 78.1967 70.0085 78.2081 70.0567 78.2553ZM48.4387 82.6896C48.4972 82.6599 48.5657 82.6714 48.6139 82.7189C49.5101 83.6016 50.8848 84.3432 52.6099 84.8637C54.3327 85.3834 56.3947 85.6794 58.6557 85.6794C60.3997 85.6794 62.1059 85.4899 63.6384 85.1305C63.6841 85.1198 63.7316 85.1315 63.7691 85.1626C63.8066 85.1937 63.8304 85.2413 63.8346 85.2934C63.9744 87.0382 64.3878 89.0382 65.0787 91.156C65.094 91.2026 65.0916 91.2542 65.0723 91.2989C65.0529 91.3435 65.0182 91.3775 64.9761 91.3929C63.0976 92.0816 60.9762 92.433 58.6557 92.433C55.6485 92.433 53.0896 91.8718 51.2767 91.0524C50.3709 90.643 49.6442 90.166 49.1411 89.6556C48.6403 89.1475 48.3426 88.5866 48.3426 88.0121C48.3426 87.9885 48.3399 87.9633 48.3348 87.929C48.3318 87.909 48.3318 87.8886 48.3348 87.8687C48.3399 87.8342 48.3426 87.8091 48.3426 87.7861V82.8565C48.3426 82.7845 48.3802 82.7192 48.4387 82.6896ZM48.4387 90.4658C48.4972 90.4361 48.5657 90.4476 48.6139 90.4951C49.5101 91.3778 50.8848 92.1193 52.6099 92.6396C54.3327 93.1592 56.3947 93.4551 58.6557 93.4551C61.1055 93.4551 63.3431 93.0757 65.3243 92.3379C65.4056 92.3076 65.4939 92.3528 65.5267 92.4414C65.6069 92.6578 65.6895 92.8748 65.7754 93.0921C66.4274 94.7445 67.1599 96.2283 67.9294 97.5152C67.9772 97.5952 67.9616 97.7031 67.8936 97.762C67.004 98.5336 65.6544 99.1624 64.055 99.5989C62.4526 100.036 60.5871 100.284 58.6557 100.284C55.6484 100.284 53.0896 99.7223 51.2767 98.9025C50.3708 98.4929 49.6442 98.0157 49.1411 97.505C48.6403 96.9967 48.3426 96.4356 48.3426 95.8609C48.3426 95.8384 48.3399 95.8133 48.3348 95.7796C48.3318 95.7595 48.3318 95.739 48.3348 95.7189C48.3399 95.6841 48.3426 95.6597 48.3426 95.6373V90.6326C48.3426 90.5607 48.3802 90.4954 48.4387 90.4658Z" fill="#CCB7F2"/>
<defs>
<filter id="filter0_d_590_29540" x="0" y="0" width="130" height="130" filterUnits="userSpaceOnUse" color-interpolation-filters="sRGB">
<feFlood flood-opacity="0" result="BackgroundImageFix"/>
<feColorMatrix in="SourceAlpha" type="matrix" values="0 0 0 0 0 0 0 0 0 0 0 0 0 0 0 0 0 0 127 0" result="hardAlpha"/>
<feOffset dy="5"/>
<feGaussianBlur stdDeviation="7.5"/>
<feComposite in2="hardAlpha" operator="out"/>
<feColorMatrix type="matrix" values="0 0 0 0 0.8 0 0 0 0 0.717647 0 0 0 0 0.94902 0 0 0 1 0"/>
<feBlend mode="normal" in2="BackgroundImageFix" result="effect1_dropShadow_590_29540"/>
<feBlend mode="normal" in="SourceGraphic" in2="effect1_dropShadow_590_29540" result="shape"/>
</filter>
</defs>
</svg>
