<svg width="16" height="16" viewBox="0 0 16 16" fill="none" xmlns="http://www.w3.org/2000/svg">
<path fill-rule="evenodd" clip-rule="evenodd" d="M14.2857 1.14286C14.4373 1.14286 14.5826 1.20306 14.6898 1.31022C14.7969 1.41739 14.8571 1.56273 14.8571 1.71429V12C14.8571 12.3156 15.113 12.5714 15.4286 12.5714C15.7442 12.5714 16 12.3156 16 12V1.71429C16 1.25963 15.8194 0.823594 15.4979 0.502103C15.1764 0.180612 14.7404 0 14.2857 0H4C3.68441 0 3.42857 0.255837 3.42857 0.571429C3.42857 0.88702 3.68441 1.14286 4 1.14286H14.2857ZM11.4286 4C11.7442 4 12 4.25584 12 4.57143V14.2857C12 14.6013 11.7442 14.8571 11.4286 14.8571H1.71429C1.39869 14.8571 1.14286 14.6013 1.14286 14.2857V4.57143C1.14286 4.25584 1.39869 4 1.71429 4H11.4286ZM13.1429 4.57143C13.1429 3.62465 12.3753 2.85714 11.4286 2.85714H1.71429C0.767511 2.85714 -7.15256e-07 3.62465 -7.15256e-07 4.57143V14.2857C-7.15256e-07 15.2325 0.767511 16 1.71429 16H11.4286C12.3753 16 13.1429 15.2325 13.1429 14.2857V4.57143Z" fill="#7C7C7C"/>
</svg>
