<svg width="22" height="18" viewBox="0 0 22 18" fill="none" xmlns="http://www.w3.org/2000/svg">
<path d="M1.51239 7.74896C7.41795 5.20876 11.3559 3.5341 13.3263 2.72499C18.9521 0.414822 20.1211 0.013521 20.883 0.000128467C21.0506 -0.0026447 21.4253 0.0383575 21.668 0.232795C21.873 0.396974 21.9294 0.618756 21.9563 0.774416C21.9833 0.930075 22.0169 1.28467 21.9902 1.56174C21.6854 4.72419 20.3662 12.3986 19.6951 15.9406C19.4111 17.4394 18.852 17.9419 18.3107 17.9911C17.1343 18.098 16.2409 17.2235 15.1015 16.4861C13.3186 15.3323 12.3113 14.614 10.5807 13.488C8.58058 12.1868 9.87715 11.4716 11.017 10.3028C11.3153 9.99691 16.4986 5.34235 16.5989 4.92011C16.6115 4.8673 16.6231 4.67045 16.5046 4.56651C16.3862 4.46257 16.2114 4.49812 16.0852 4.52638C15.9064 4.56645 13.0581 6.42509 7.54035 10.1023C6.73187 10.6504 5.99958 10.9174 5.34347 10.9035C4.62016 10.888 3.2288 10.4997 2.19447 10.1678C0.925826 9.76062 -0.0824702 9.54536 0.0053297 8.85392C0.0510613 8.49377 0.553413 8.12545 1.51239 7.74896Z" fill="#5D3F92"/>
</svg>
