<svg width="14" height="14" viewBox="0 0 14 14" fill="none" xmlns="http://www.w3.org/2000/svg">
<path fill-rule="evenodd" clip-rule="evenodd" d="M5 1H1V5H5V1ZM1 0C0.447715 0 0 0.447715 0 1V6H6V0H1Z" fill="#5D3F92"/>
<path fill-rule="evenodd" clip-rule="evenodd" d="M13 1H9V5H13V1ZM8 0V6H14V1C14 0.447715 13.5523 0 13 0H8Z" fill="#5D3F92"/>
<path fill-rule="evenodd" clip-rule="evenodd" d="M13 9H9V13H13V9ZM8 8V14H13C13.5523 14 14 13.5523 14 13V8H8Z" fill="#5D3F92"/>
<path fill-rule="evenodd" clip-rule="evenodd" d="M5 9H1L1 13H5V9ZM0 8V13C0 13.5523 0.447715 14 1 14H6V8H0Z" fill="#5D3F92"/>
</svg>
