<svg width="121" height="30" viewBox="0 0 121 30" fill="none" xmlns="http://www.w3.org/2000/svg">
<path d="M21.2014 29.9999H1.30463C1.13019 30.0002 0.957446 29.9653 0.796795 29.8974C0.641784 29.8319 0.500973 29.7369 0.382124 29.6178C0.262969 29.4989 0.168011 29.3581 0.102542 29.2031C0.0345399 29.0424 -0.000335865 28.8697 2.4378e-06 28.6953V8.79874C-0.000335865 8.62429 0.0345399 8.45158 0.102542 8.29094C0.168007 8.13591 0.262965 7.99507 0.382124 7.87624C0.50097 7.7571 0.641781 7.66215 0.796795 7.59665C0.957446 7.52867 1.13019 7.4938 1.30463 7.49414H21.2014C21.3759 7.49379 21.5486 7.52866 21.7092 7.59665C21.8642 7.66215 22.0051 7.7571 22.1239 7.87624C22.243 7.99509 22.338 8.13593 22.4035 8.29094C22.4714 8.45159 22.5063 8.6243 22.506 8.79874V28.6953C22.5063 28.8697 22.4714 29.0424 22.4035 29.2031C22.338 29.3581 22.243 29.4989 22.1239 29.6178C22.0051 29.7369 21.8642 29.8319 21.7092 29.8974C21.5486 29.9654 21.3759 30.0002 21.2014 29.9999ZM7.50196 14.996V22.4978H15.0039V14.996H7.50196Z" fill="#232428"/>
<path d="M24.9383 7.49414H12.5708V14.996H24.9383V7.49414Z" fill="#091031"/>
<path d="M22.498 7.49414H28.9099C29.199 7.49414 29.4763 7.60899 29.6807 7.81341C29.8852 8.01784 30 8.29511 30 8.58421V13.9059C30 14.0491 29.9718 14.1908 29.917 14.3231C29.8622 14.4553 29.782 14.5755 29.6807 14.6767C29.5795 14.778 29.4593 14.8582 29.3271 14.913C29.1948 14.9678 29.0531 14.996 28.9099 14.996H22.498V7.49414Z" fill="#232428"/>
<path d="M14.9961 7.4939H7.49414V14.9958H14.9961V7.4939Z" fill="#232428"/>
<path d="M16.094 0H21.4158C21.7049 0 21.9821 0.114846 22.1866 0.319274C22.391 0.523702 22.5058 0.800967 22.5058 1.09007V7.50189H15.0039V1.09007C15.0039 0.946922 15.0321 0.805172 15.0869 0.672918C15.1416 0.540665 15.2219 0.420497 15.3232 0.319274C15.4244 0.218051 15.5445 0.137758 15.6768 0.0829764C15.8091 0.0281951 15.9508 0 16.094 0Z" fill="#232428"/>
<path d="M22.5054 14.9956H15.0034V22.4975H22.5054V14.9956Z" fill="#232428"/>
<path d="M24.9382 7.4939H12.5707V14.9958H24.9382V7.4939Z" fill="#232428"/>
<path d="M15.0034 5.0624V17.4297H22.5054V5.0624H15.0034Z" fill="#232428"/>
<path d="M51.1349 8.79335C51.0252 7.6437 50.5545 6.75059 49.7229 6.11401C48.8912 5.47743 47.7626 5.15914 46.3369 5.15914C45.3682 5.15914 44.5502 5.30166 43.8831 5.5867C43.2159 5.86223 42.7042 6.24703 42.3477 6.74109C42.0005 7.23516 41.8268 7.79572 41.8268 8.4228C41.8085 8.94537 41.9136 9.40143 42.1421 9.79097C42.3797 10.1805 42.7042 10.5178 43.1154 10.8028C43.5267 11.0784 44.0019 11.3207 44.5411 11.5297C45.0803 11.7292 45.656 11.9002 46.2684 12.0428L48.7907 12.6698C50.0153 12.9549 51.1394 13.3349 52.163 13.81C53.1866 14.285 54.073 14.8694 54.8224 15.5629C55.5718 16.2565 56.1521 17.0736 56.5634 18.0143C56.9838 18.9549 57.1986 20.0333 57.2077 21.2494C57.1986 23.0356 56.7599 24.5843 55.8917 25.8955C55.0326 27.1971 53.7897 28.209 52.163 28.9311C50.5454 29.6437 48.5942 30 46.3095 30C44.043 30 42.069 29.639 40.3874 28.9169C38.715 28.1948 37.4081 27.1259 36.4668 25.7102C35.5346 24.285 35.0457 22.5226 35 20.4228H40.7438C40.8078 21.4014 41.0774 22.2185 41.5526 22.8741C42.037 23.5202 42.6813 24.0095 43.4855 24.342C44.2989 24.6651 45.2174 24.8266 46.2409 24.8266C47.2462 24.8266 48.119 24.6746 48.8593 24.3705C49.6086 24.0665 50.189 23.6437 50.6002 23.1021C51.0115 22.5606 51.2171 21.9382 51.2171 21.2352C51.2171 20.5796 51.0298 20.0285 50.6551 19.5819C50.2895 19.1354 49.7503 18.7553 49.0375 18.4418C48.3338 18.1283 47.4701 17.8432 46.4466 17.5867L43.3896 16.7886C41.0226 16.19 39.1537 15.2542 37.7828 13.981C36.412 12.7078 35.7311 10.9929 35.7403 8.8361C35.7311 7.06888 36.1835 5.52494 37.0974 4.20428C38.0204 2.88361 39.2862 1.85273 40.8946 1.11164C42.5031 0.370546 44.3309 0 46.378 0C48.4617 0 50.2804 0.370546 51.834 1.11164C53.3968 1.85273 54.6122 2.88361 55.4804 4.20428C56.3486 5.52494 56.7964 7.05463 56.8239 8.79335H51.1349Z" fill="#232428"/>
<path d="M79.8164 9.83373C79.6245 9.14014 79.3549 8.52732 79.0076 7.99525C78.6603 7.45368 78.2353 6.99762 77.7327 6.62708C77.2392 6.24703 76.6726 5.95724 76.0328 5.75772C75.4022 5.5582 74.7031 5.45843 73.9354 5.45843C72.5006 5.45843 71.2394 5.82898 70.1519 6.57007C69.0735 7.31116 68.2327 8.38955 67.6296 9.80523C67.0264 11.2114 66.7248 12.9311 66.7248 14.9644C66.7248 16.9976 67.0218 18.7268 67.6158 20.152C68.2099 21.5772 69.0507 22.6651 70.1382 23.4157C71.2257 24.1568 72.5098 24.5273 73.9903 24.5273C75.3337 24.5273 76.4806 24.2803 77.4311 23.7862C78.3907 23.2827 79.1218 22.5748 79.6245 21.6627C80.1362 20.7506 80.3921 19.6722 80.3921 18.4276L81.5985 18.6128H74.3604V13.9667H86.1086V17.6437C86.1086 20.209 85.5876 22.4133 84.5458 24.2565C83.5039 26.0903 82.0691 27.5059 80.2413 28.5036C78.4135 29.4917 76.3207 29.9857 73.9629 29.9857C71.3308 29.9857 69.0187 29.3824 67.0264 28.1758C65.0341 26.9596 63.4805 25.2352 62.3655 23.0024C61.2597 20.7601 60.7068 18.0998 60.7068 15.0214C60.7068 12.6556 61.0358 10.5463 61.6938 8.69359C62.3609 6.83135 63.2931 5.25416 64.4903 3.962C65.6875 2.66983 67.0812 1.68646 68.6714 1.01188C70.2616 0.337292 71.9843 0 73.8395 0C75.4297 0 76.9102 0.24228 78.281 0.726841C79.6519 1.2019 80.8674 1.87649 81.9275 2.75059C82.9967 3.6247 83.8695 4.66508 84.5458 5.87173C85.2221 7.06888 85.6562 8.38955 85.8481 9.83373H79.8164Z" fill="#232428"/>
<path d="M90.5672 0.39905H97.8875L105.619 20.0095H105.948L113.68 0.39905H121V29.5867H115.242V10.5891H115.009L107.744 29.4442H103.823L96.5578 10.5178H96.3248V29.5867H90.5672V0.39905Z" fill="#232428"/>
</svg>
