<svg width="16" height="16" viewBox="0 0 16 16" fill="none" xmlns="http://www.w3.org/2000/svg">
<path fill-rule="evenodd" clip-rule="evenodd" d="M12.0155 1.08346C10.7955 0.381247 9.41319 0.00786135 8.00461 1.15713e-05L7.99533 0C6.8098 0.0036522 5.63982 0.269434 4.56961 0.778213C3.49939 1.28699 2.55557 2.02612 1.80607 2.94238C1.05658 3.85865 0.520045 4.92927 0.2351 6.07717C-0.0498457 7.22508 -0.0761183 8.42173 0.158173 9.58098C0.392465 10.7402 0.881493 11.8332 1.59006 12.7814C2.29862 13.7295 3.2091 14.5091 4.25596 15.0641C5.30281 15.6192 6.46 15.9358 7.64424 15.9912C8.82848 16.0466 10.0103 15.8395 11.1047 15.3847C11.6498 15.1581 11.9076 14.5336 11.6805 13.9898C11.4533 13.446 10.8273 13.1888 10.2821 13.4154C9.47959 13.7489 8.61292 13.9009 7.74447 13.8602C6.87603 13.8196 6.02742 13.5874 5.25973 13.1804C4.49203 12.7733 3.82435 12.2016 3.30474 11.5063C2.78512 10.811 2.4265 10.0095 2.25469 9.15938C2.08287 8.30926 2.10214 7.43172 2.3111 6.58992C2.52006 5.74812 2.91352 4.963 3.46315 4.29108C4.01278 3.61915 4.70492 3.07712 5.48974 2.70402C6.27317 2.33158 7.1295 2.1367 7.9973 2.13334C9.03311 2.13992 10.0495 2.41487 10.9467 2.93127C11.8453 3.44844 12.5934 4.18999 13.1177 5.08299L13.1257 5.09648C14.4115 7.2148 13.7647 8.80643 13.0565 9.49181C12.8734 9.66907 12.6972 9.77639 12.5594 9.83018C12.4864 9.85868 12.435 9.8684 12.4036 9.87143C12.3764 9.81201 12.3295 9.66725 12.3295 9.38668L12.3295 8.00016C12.3296 7.43382 12.2166 6.87313 11.9972 6.35078C11.7778 5.82843 11.4563 5.35488 11.0516 4.95774C10.6468 4.5606 10.1668 4.24782 9.6396 4.03763C9.11239 3.82744 8.5485 3.72405 7.98081 3.73349C7.138 3.7475 6.31813 4.0096 5.62416 4.48686C4.93019 4.96413 4.39306 5.63528 4.08021 6.41605C3.76737 7.19681 3.69277 8.05237 3.86578 8.87529C4.03879 9.6982 4.45169 10.4518 5.05263 11.0414C5.65358 11.631 6.41577 12.0304 7.2435 12.1893C8.07123 12.3483 8.92758 12.2597 9.70503 11.9348C10.0984 11.7704 10.4628 11.5491 10.7872 11.28C11.0759 11.6215 11.4552 11.8515 11.8851 11.9507C12.8848 12.1815 13.875 11.6722 14.5458 11.0229C15.994 9.62134 16.7372 6.9333 14.9592 3.99822C14.2477 2.78875 13.2333 1.78435 12.0155 1.08346ZM10.1908 7.99987L10.1908 9.38668C10.1908 9.98078 10.3062 10.5443 10.5939 11.0124C10.6526 11.1079 10.7173 11.1972 10.7872 11.28C11.1039 11.0172 11.3826 10.7088 11.6133 10.363C12.0802 9.66302 12.3294 8.84098 12.3295 8.00016C12.3295 7.41106 11.8507 6.93334 11.2601 6.93334C10.6696 6.93334 10.1908 7.41076 10.1908 7.99987ZM10.1908 7.99987C10.1907 8.42027 10.0662 8.83129 9.83269 9.18131C9.59923 9.53132 9.26729 9.80472 8.87857 9.96718C8.48984 10.1296 8.06166 10.1739 7.6478 10.0944C7.23394 10.015 6.85284 9.81529 6.55237 9.52048C6.2519 9.22568 6.04544 8.84889 5.95894 8.43743C5.87244 8.02597 5.90974 7.59819 6.06616 7.20781C6.22258 6.81743 6.49115 6.48185 6.83813 6.24322C7.18512 6.00458 7.59505 5.87353 8.01646 5.86653C8.3003 5.86181 8.58224 5.9135 8.84585 6.0186C9.10946 6.12369 9.34945 6.28009 9.55184 6.47866C9.75423 6.67723 9.91496 6.914 10.0247 7.17518C10.1344 7.43635 10.1908 7.7167 10.1908 7.99987Z" fill="#873DC1"/>
<path d="M11.6133 10.363C12.0802 9.66302 12.3294 8.84098 12.3295 8.00016C12.3295 7.41106 11.8507 6.93334 11.2601 6.93334C10.6696 6.93334 10.1908 7.41076 10.1908 7.99987L10.1908 9.38668C10.1908 9.98078 10.3062 10.5443 10.5939 11.0124C10.6526 11.1079 10.7173 11.1972 10.7872 11.28C11.1039 11.0172 11.3826 10.7088 11.6133 10.363Z" fill="#873DC1"/>
</svg>
