<svg width="16" height="16" viewBox="0 0 16 16" fill="none" xmlns="http://www.w3.org/2000/svg">
<path d="M1.58333 16C1.42862 16 1.28025 15.9398 1.17085 15.8326C1.06146 15.7255 1 15.5801 1 15.4286C1 15.277 1.06146 15.1317 1.17085 15.0245C1.28025 14.9173 1.42862 14.8571 1.58333 14.8571H2.75V13.7143C2.74976 12.744 3.02975 11.7934 3.55762 10.9723C4.0855 10.1513 4.83972 9.49325 5.73317 9.07429C6.0715 8.91543 6.25 8.64343 6.25 8.4V7.6C6.25 7.35657 6.07033 7.08457 5.73317 6.92571C4.83972 6.50675 4.0855 5.84874 3.55762 5.02768C3.02975 4.20663 2.74976 3.25604 2.75 2.28571V1.14286H1.58333C1.42862 1.14286 1.28025 1.08265 1.17085 0.97549C1.06146 0.868326 1 0.722981 1 0.571429C1 0.419876 1.06146 0.274531 1.17085 0.167368C1.28025 0.0602039 1.42862 0 1.58333 0H14.4167C14.5714 0 14.7197 0.0602039 14.8291 0.167368C14.9385 0.274531 15 0.419876 15 0.571429C15 0.722981 14.9385 0.868326 14.8291 0.97549C14.7197 1.08265 14.5714 1.14286 14.4167 1.14286H13.25V2.28571C13.2502 3.25604 12.9703 4.20663 12.4424 5.02768C11.9145 5.84874 11.1603 6.50675 10.2668 6.92571C9.9285 7.08457 9.75 7.35657 9.75 7.6V8.4C9.75 8.64343 9.92967 8.91543 10.2668 9.07429C11.1603 9.49325 11.9145 10.1513 12.4424 10.9723C12.9703 11.7934 13.2502 12.744 13.25 13.7143V14.8571H14.4167C14.5714 14.8571 14.7197 14.9173 14.8291 15.0245C14.9385 15.1317 15 15.277 15 15.4286C15 15.5801 14.9385 15.7255 14.8291 15.8326C14.7197 15.9398 14.5714 16 14.4167 16H1.58333ZM3.91667 1.14286V2.28571C3.91667 2.89943 4.05667 3.48 4.30983 4H11.6902C11.9422 3.48 12.0833 2.89943 12.0833 2.28571V1.14286H3.91667ZM7.41667 8.4C7.41667 9.20114 6.859 9.81257 6.23717 10.1051C5.54218 10.431 4.95548 10.9428 4.54486 11.5814C4.13424 12.2201 3.91645 12.9595 3.91667 13.7143C3.91667 13.7143 4.927 12.2297 7.41667 12.0229V8.4ZM8.58333 8.4V12.0229C11.073 12.2297 12.0833 13.7143 12.0833 13.7143C12.0835 12.9595 11.8658 12.2201 11.4551 11.5814C11.0445 10.9428 10.4578 10.431 9.76283 10.1051C9.141 9.81257 8.58333 9.20229 8.58333 8.40114V8.4Z" fill="#7C7C7C"/>
</svg>
