<svg width="24" height="24" viewBox="0 0 24 24" fill="none" xmlns="http://www.w3.org/2000/svg">
<path d="M16.9428 10.2761C17.4635 9.75544 17.4635 8.91122 16.9428 8.39052C16.4221 7.86982 15.5779 7.86982 15.0572 8.39052L10.6667 12.781L8.94281 11.0572C8.42211 10.5365 7.57789 10.5365 7.05719 11.0572C6.53649 11.5779 6.53649 12.4221 7.05719 12.9428L9.72386 15.6095C10.2446 16.1302 11.0888 16.1302 11.6095 15.6095L16.9428 10.2761Z" fill="white"/>
<path fill-rule="evenodd" clip-rule="evenodd" d="M13.6609 0.611724L15.2889 1.99905C15.699 2.34857 16.209 2.5598 16.7461 2.60266L18.8783 2.77281C20.1318 2.87284 21.1272 3.86823 21.2272 5.12174L21.3973 7.25386C21.4402 7.79102 21.6514 8.30097 22.0009 8.7111L23.3883 10.3391C24.2039 11.2962 24.2039 12.7038 23.3883 13.6609L22.0009 15.2889C21.6514 15.699 21.4402 16.209 21.3973 16.7461L21.2272 18.8783C21.1272 20.1318 20.1318 21.1272 18.8783 21.2272L16.7461 21.3973C16.209 21.4402 15.699 21.6514 15.2889 22.0009L13.6609 23.3883C12.7038 24.2039 11.2962 24.2039 10.3391 23.3883L8.7111 22.0009C8.30097 21.6514 7.79102 21.4402 7.25386 21.3973L5.12174 21.2272C3.86823 21.1272 2.87284 20.1318 2.77281 18.8783L2.60266 16.7461C2.5598 16.209 2.34857 15.699 1.99905 15.2889L0.611724 13.6609C-0.203908 12.7038 -0.203908 11.2962 0.611724 10.3391L1.99905 8.7111C2.34857 8.30097 2.5598 7.79102 2.60266 7.25386L2.77281 5.12174C2.87284 3.86823 3.86823 2.87284 5.12174 2.77281L7.25386 2.60266C7.79102 2.5598 8.30097 2.34857 8.7111 1.99905L10.3391 0.611724C11.2962 -0.203908 12.7038 -0.203908 13.6609 0.611724ZM16.9428 8.39052C17.4635 8.91122 17.4635 9.75544 16.9428 10.2761L11.6095 15.6095C11.0888 16.1302 10.2446 16.1302 9.72386 15.6095L7.05719 12.9428C6.53649 12.4221 6.53649 11.5779 7.05719 11.0572C7.57789 10.5365 8.42211 10.5365 8.94281 11.0572L10.6667 12.781L15.0572 8.39052C15.5779 7.86982 16.4221 7.86982 16.9428 8.39052Z" fill="#3B99FC"/>
</svg>
