<svg width="16" height="16" viewBox="0 0 16 16" fill="none" xmlns="http://www.w3.org/2000/svg">
<path fill-rule="evenodd" clip-rule="evenodd" d="M9.71429 0.615385C9.71429 0.275517 9.97012 0 10.2857 0H15.4286C15.7442 0 16 0.275517 16 0.615385C16 0.955252 15.7442 1.23077 15.4286 1.23077H10.2857C9.97012 1.23077 9.71429 0.955252 9.71429 0.615385Z" fill="#5D3F92"/>
<path fill-rule="evenodd" clip-rule="evenodd" d="M9.71429 4.30769C9.71429 3.96782 9.97012 3.69231 10.2857 3.69231H15.4286C15.7442 3.69231 16 3.96782 16 4.30769C16 4.64756 15.7442 4.92308 15.4286 4.92308H10.2857C9.97012 4.92308 9.71429 4.64756 9.71429 4.30769Z" fill="#5D3F92"/>
<path fill-rule="evenodd" clip-rule="evenodd" d="M9.71429 8C9.71429 7.66013 9.97012 7.38462 10.2857 7.38462H15.4286C15.7442 7.38462 16 7.66013 16 8C16 8.33987 15.7442 8.61539 15.4286 8.61539H10.2857C9.97012 8.61539 9.71429 8.33987 9.71429 8Z" fill="#5D3F92"/>
<path fill-rule="evenodd" clip-rule="evenodd" d="M0 15.3846C0 15.0447 0.255837 14.7692 0.571429 14.7692H15.4286C15.7442 14.7692 16 15.0447 16 15.3846C16 15.7245 15.7442 16 15.4286 16H0.571429C0.255837 16 0 15.7245 0 15.3846Z" fill="#5D3F92"/>
<path fill-rule="evenodd" clip-rule="evenodd" d="M0 11.6923C0 11.3524 0.255837 11.0769 0.571429 11.0769H15.4286C15.7442 11.0769 16 11.3524 16 11.6923C16 12.0322 15.7442 12.3077 15.4286 12.3077H0.571429C0.255837 12.3077 0 12.0322 0 11.6923Z" fill="#5D3F92"/>
<path fill-rule="evenodd" clip-rule="evenodd" d="M0 1.23077C0 0.551034 0.511675 0 1.14286 0H6.85714C7.48833 0 8 0.551034 8 1.23077V7.38462C8 8.06435 7.48833 8.61539 6.85714 8.61539H1.14286C0.511675 8.61539 0 8.06435 0 7.38462V1.23077ZM6.85714 1.23077H1.14286V7.38462H6.85714V1.23077Z" fill="#5D3F92"/>
</svg>
