<svg width="16" height="16" viewBox="0 0 16 16" fill="none" xmlns="http://www.w3.org/2000/svg">
<path fill-rule="evenodd" clip-rule="evenodd" d="M12.0172 0.514244C12.0464 0.22227 12.2913 0 12.5837 0H15.4306C15.7451 0 16 0.255837 16 0.571429C16 0.88702 15.7451 1.14286 15.4306 1.14286H13.0987L12.7545 4.57741C12.7541 4.61264 12.7506 4.64709 12.7442 4.68052L12.1595 10.5143C12.1585 10.5239 12.1574 10.5334 12.1559 10.5428C12.0942 10.9516 11.8873 11.3242 11.5734 11.592C11.2604 11.859 10.862 12.0038 10.4513 12H3.29333C2.92641 12.0157 2.56405 11.9123 2.26012 11.7049C1.95168 11.4944 1.72037 11.1883 1.60152 10.8335L1.60092 10.8317L0.0863627 6.2603L0.0859181 6.25895C0.00121362 6.00114 -0.0212764 5.72684 0.0202991 5.45861C0.0617337 5.19129 0.16562 4.93761 0.323448 4.71832C0.488637 4.48567 0.709151 4.29812 0.964959 4.17274C1.21739 4.04902 1.49627 3.98972 1.77686 4H11.6678L12.0172 0.514244ZM11.5533 5.14286H1.76543C1.75695 5.14286 1.74846 5.14267 1.73999 5.14229C1.64489 5.13802 1.55023 5.15775 1.46469 5.19968C1.37915 5.24161 1.30544 5.30439 1.25032 5.38229L1.24714 5.38678C1.19423 5.46005 1.15939 5.54486 1.14553 5.63427C1.1317 5.72349 1.13914 5.81472 1.16722 5.9005L2.68092 10.4693C2.72062 10.5873 2.79787 10.6898 2.90046 10.7598C3.00327 10.83 3.12614 10.8644 3.25031 10.8579C3.26019 10.8574 3.27009 10.8571 3.27999 10.8571H10.4606C10.598 10.8587 10.7312 10.8104 10.8358 10.7212C10.9375 10.6345 11.0054 10.5149 11.0281 10.3832L11.5533 5.14286Z" fill="#5D3F92"/>
<path fill-rule="evenodd" clip-rule="evenodd" d="M2.33481 14.8571C2.33481 14.226 2.84465 13.7143 3.47358 13.7143C4.1025 13.7143 4.61234 14.226 4.61234 14.8571C4.61234 15.4883 4.1025 16 3.47358 16C2.84465 16 2.33481 15.4883 2.33481 14.8571Z" fill="#5D3F92"/>
<path fill-rule="evenodd" clip-rule="evenodd" d="M9.73679 14.8571C9.73679 14.226 10.2466 13.7143 10.8756 13.7143C11.5045 13.7143 12.0143 14.226 12.0143 14.8571C12.0143 15.4883 11.5045 16 10.8756 16C10.2466 16 9.73679 15.4883 9.73679 14.8571Z" fill="#5D3F92"/>
</svg>
