<svg width="16" height="16" viewBox="0 0 16 16" fill="none" xmlns="http://www.w3.org/2000/svg">
<path fill-rule="evenodd" clip-rule="evenodd" d="M5.71429 9.23077C5.71429 8.8909 5.97012 8.61539 6.28571 8.61539H9.71429C10.0299 8.61539 10.2857 8.8909 10.2857 9.23077C10.2857 9.57064 10.0299 9.84615 9.71429 9.84615H6.28571C5.97012 9.84615 5.71429 9.57064 5.71429 9.23077Z" fill="#5D3F92"/>
<path fill-rule="evenodd" clip-rule="evenodd" d="M14.2857 1.23077C14.6013 1.23077 14.8571 1.50629 14.8571 1.84615V4.30769C14.8571 4.64756 14.6013 4.92308 14.2857 4.92308C14.6013 4.92308 14.8571 5.19859 14.8571 5.53846V6.0488C14.6784 6.11683 14.4861 6.15385 14.2857 6.15385H13.7143V14.1538C13.7143 14.3171 13.6541 14.4736 13.5469 14.589C13.4398 14.7044 13.2944 14.7692 13.1429 14.7692H2.85714C2.70559 14.7692 2.56025 14.7044 2.45308 14.589C2.34592 14.4736 2.28571 14.3171 2.28571 14.1538V6.15385H1.71429C1.51392 6.15385 1.32159 6.11683 1.14286 6.0488V5.53846C1.14286 5.19859 1.39869 4.92308 1.71429 4.92308C1.39869 4.92308 1.14286 4.64756 1.14286 4.30769V1.84615C1.14286 1.50629 1.39869 1.23077 1.71429 1.23077H14.2857ZM1.14286 6.0488C0.477033 5.79536 0 5.11152 0 4.30769V1.84615C0 0.826551 0.767512 0 1.71429 0H14.2857C15.2325 0 16 0.826551 16 1.84615V4.30769C16 5.11152 15.523 5.79536 14.8571 6.0488V14.1538C14.8571 14.6435 14.6765 15.1131 14.355 15.4593C14.0336 15.8055 13.5975 16 13.1429 16H2.85714C2.40249 16 1.96645 15.8055 1.64496 15.4593C1.32347 15.1131 1.14286 14.6435 1.14286 14.1538V6.0488Z" fill="#5D3F92"/>
<path d="M1.71429 4.92308C1.39869 4.92308 1.14286 5.19859 1.14286 5.53846V6.0488C1.32159 6.11683 1.51392 6.15385 1.71429 6.15385H2.28571H13.7143H14.2857C14.4861 6.15385 14.6784 6.11683 14.8571 6.0488V5.53846C14.8571 5.19859 14.6013 4.92308 14.2857 4.92308H1.71429Z" fill="#5D3F92"/>
</svg>
