<svg width="16" height="16" viewBox="0 0 16 16" fill="none" xmlns="http://www.w3.org/2000/svg">
<path d="M14.8326 1.57174C14.0435 0.558179 12.9487 0 11.75 0C10.0641 0 8.99678 1.1397 8.39828 2.09582C8.243 2.34393 8.11091 2.5927 8 2.8268C7.88909 2.5927 7.75703 2.34393 7.60172 2.09582C7.00322 1.1397 5.93587 0 4.25 0C3.05131 0 1.95653 0.558215 1.16734 1.57178C0.414594 2.53865 0 3.83357 0 5.21798C0 6.72496 0.519781 8.1266 1.63578 9.62894C2.63319 10.9717 4.06809 12.3557 5.72969 13.9584C6.34884 14.5557 6.98913 15.1733 7.67078 15.8484L7.69125 15.8687C7.77962 15.9562 7.88981 16 8 16C8.11019 16 8.22038 15.9562 8.30875 15.8687L8.32922 15.8484C9.01088 15.1733 9.65116 14.5557 10.2704 13.9584C11.9319 12.3558 13.3668 10.9717 14.3642 9.62894C15.4802 8.12656 16 6.72496 16 5.21798C16 3.83357 15.5854 2.53865 14.8326 1.57174ZM10 13.2C9.46625 13.7148 8.8 14.4 8 14.8C7.42081 14.2301 6.53384 13.7149 6 13.2C2.74816 10.0634 0.8 7.94192 0.8 5.21798C0.8 4.09207 1.39822 2.77293 2 2C2.60869 1.2183 3.32434 0.8 4.25 0.8C5.53528 0.8 6.72938 2.04812 7.2 2.8C7.62216 3.47434 7.47919 4.06346 7.55431 4.3244C7.61716 4.54283 7.79706 4.69065 8 4.69065C8.20294 4.69065 8.38284 4.54283 8.44569 4.3244C8.52081 4.06346 8.37784 3.47438 8.8 2.8C9.27063 2.04816 10.4647 0.8 11.75 0.8C12.6757 0.8 13.6921 1.31413 14.3007 2.09582C14.9025 2.86875 15.2 4.07409 15.2 5.2C15.2 7.92394 13.2519 10.0633 10 13.2Z" fill="#873DC1"/>
<path d="M10 13.2C9.46625 13.7148 8.8 14.4 8 14.8C7.42081 14.2301 6.53384 13.7149 6 13.2C2.74816 10.0634 0.8 7.94192 0.8 5.21798C0.8 4.09207 1.39822 2.77293 2 2C2.60869 1.2183 3.32434 0.8 4.25 0.8C5.53528 0.8 6.72938 2.04812 7.2 2.8C7.62216 3.47434 7.47919 4.06346 7.55431 4.3244C7.61716 4.54283 7.79706 4.69065 8 4.69065C8.20294 4.69065 8.38284 4.54283 8.44569 4.3244C8.52081 4.06346 8.37784 3.47438 8.8 2.8C9.27063 2.04816 10.4647 0.8 11.75 0.8C12.6757 0.8 13.6921 1.31413 14.3007 2.09582C14.9025 2.86875 15.2 4.07409 15.2 5.2C15.2 7.92394 13.2519 10.0633 10 13.2Z" fill="#873DC1"/>
</svg>
