<svg width="14" height="16" viewBox="0 0 14 16" fill="none" xmlns="http://www.w3.org/2000/svg">
<path fill-rule="evenodd" clip-rule="evenodd" d="M10.2079 2.17183C11.1673 2.27771 12.1626 2.07417 13.2569 1.19854C13.3954 1.0877 13.5836 1.0674 13.7417 1.14626C13.8997 1.22511 14 1.38931 14 1.56926V11.0843C14 11.2291 13.9349 11.3658 13.8234 11.455C12.5395 12.4824 11.3052 12.7546 10.1093 12.6226C8.95927 12.4957 7.86273 11.9943 6.84594 11.5293L6.81241 11.514C5.75765 11.0317 4.7847 10.5913 3.7921 10.4817C2.8846 10.3816 1.9449 10.5583 0.919708 11.3189V15.5294C0.919708 15.7893 0.713824 16 0.459854 16C0.205884 16 0 15.7893 0 15.5294V1.56926C0 1.42447 0.0651348 1.28773 0.176596 1.19854C1.46055 0.171157 2.6948 -0.101051 3.89072 0.0309419C5.04073 0.157868 6.13727 0.659302 7.15406 1.12427L7.18759 1.13961C8.24235 1.62189 9.2153 2.06227 10.2079 2.17183ZM0.919708 10.1975C1.93889 9.59565 2.92724 9.43964 3.89072 9.54598C5.04073 9.67291 6.13727 10.1743 7.15406 10.6393L7.18759 10.6546C8.24235 11.1369 9.2153 11.5773 10.2079 11.6869C11.1154 11.787 12.0551 11.6103 13.0803 10.8497V2.45603C12.0611 3.05791 11.0728 3.21392 10.1093 3.10758C8.95927 2.98065 7.86274 2.47922 6.84595 2.01425L6.81241 1.99891C5.75765 1.51663 4.7847 1.07625 3.7921 0.966694C2.8846 0.866534 1.9449 1.04325 0.919708 1.80381V10.1975Z" fill="#7C7C7C"/>
</svg>
