<svg width="16" height="16" viewBox="0 0 16 16" fill="none" xmlns="http://www.w3.org/2000/svg">
<path d="M15.2374 11.4322L12.3835 14.3937V0.470588C12.3835 0.34578 12.3358 0.226084 12.2507 0.137832C12.1657 0.0495793 12.0503 0 11.9301 0C11.8098 0 11.6945 0.0495793 11.6094 0.137832C11.5244 0.226084 11.4766 0.34578 11.4766 0.470588V14.3937L8.62277 11.4322C8.58125 11.3859 8.53119 11.3488 8.47556 11.3231C8.41994 11.2974 8.35989 11.2836 8.299 11.2825C8.23811 11.2813 8.17764 11.293 8.12117 11.3166C8.0647 11.3403 8.01341 11.3755 7.97035 11.4202C7.92729 11.4649 7.89334 11.5181 7.87054 11.5767C7.84773 11.6353 7.83653 11.6981 7.8376 11.7613C7.83868 11.8245 7.852 11.8868 7.87679 11.9445C7.90157 12.0022 7.93731 12.0542 7.98186 12.0973L11.6096 15.862C11.6947 15.9501 11.8099 15.9996 11.9301 15.9996C12.0502 15.9996 12.1655 15.9501 12.2505 15.862L15.8783 12.0973C15.9584 12.008 16.002 11.8901 15.9999 11.7681C15.9979 11.6462 15.9503 11.5299 15.8672 11.4437C15.7841 11.3575 15.672 11.3081 15.5545 11.3059C15.4371 11.3038 15.3234 11.349 15.2374 11.4322Z" fill="#5D3F92"/>
<path d="M8.01814 3.90274L4.39038 0.138039C4.30535 0.049913 4.19009 0.000414082 4.06992 0.000414082C3.94975 0.000414082 3.8345 0.049913 3.74947 0.138039L0.121707 3.90274C0.0416059 3.99195 -0.00200214 4.10994 7.06482e-05 4.23186C0.00214344 4.35377 0.0497353 4.47009 0.132819 4.55631C0.215903 4.64253 0.327992 4.69192 0.445471 4.69407C0.562951 4.69622 0.676649 4.65097 0.762612 4.56784L3.61645 1.60627V15.5294C3.61645 15.6542 3.66423 15.7739 3.74927 15.8622C3.83431 15.9504 3.94966 16 4.06992 16C4.19019 16 4.30553 15.9504 4.39058 15.8622C4.47562 15.7739 4.52339 15.6542 4.52339 15.5294V1.60627L7.37723 4.56784C7.4632 4.65097 7.5769 4.69622 7.69438 4.69407C7.81185 4.69192 7.92394 4.64253 8.00703 4.55631C8.09011 4.47009 8.1377 4.35377 8.13978 4.23186C8.14185 4.10994 8.09824 3.99195 8.01814 3.90274Z" fill="#5D3F92"/>
</svg>
