<svg width="16" height="16" viewBox="0 0 16 16" fill="none" xmlns="http://www.w3.org/2000/svg">
<path fill-rule="evenodd" clip-rule="evenodd" d="M8 0C8.32974 0 8.62199 0.222167 8.72388 0.550305L10.2618 5.50305H15.2388C15.5686 5.50305 15.8608 5.72522 15.9627 6.05336C16.0646 6.3815 15.953 6.74097 15.6862 6.94377L11.6597 10.0047L13.1977 14.9575C13.2996 15.2856 13.188 15.6451 12.9212 15.8479C12.6544 16.0507 12.2932 16.0507 12.0264 15.8479L8 12.7869L3.97355 15.8479C3.70678 16.0507 3.34555 16.0507 3.07878 15.8479C2.81202 15.6451 2.70039 15.2856 2.80229 14.9575L4.34025 10.0047L0.313803 6.94377C0.0470347 6.74097 -0.0645918 6.3815 0.0373045 6.05336C0.139201 5.72522 0.431443 5.50305 0.761186 5.50305H5.73815L7.27612 0.550305C7.37801 0.222167 7.67026 0 8 0ZM8 3.37364L7.01503 6.54557C6.91313 6.87371 6.62089 7.09587 6.29115 7.09587H3.10372L5.6824 9.05623C5.94917 9.25903 6.0608 9.6185 5.9589 9.94664L4.97393 13.1186L7.55262 11.1582C7.81938 10.9554 8.18062 10.9554 8.44738 11.1582L11.0261 13.1186L10.0411 9.94664C9.9392 9.6185 10.0508 9.25903 10.3176 9.05623L12.8963 7.09587H9.70885C9.37911 7.09587 9.08687 6.87371 8.98497 6.54557L8 3.37364Z" fill="#5D3F92"/>
</svg>
