<svg width="16" height="16" viewBox="0 0 16 16" fill="none" xmlns="http://www.w3.org/2000/svg">
<path d="M10.4851 5.87367L5.18108 10.0567C5.0757 10.1438 5.04058 10.3181 5.14595 10.4227C5.19864 10.4924 5.2689 10.5273 5.35671 10.5273C5.4094 10.5273 5.47965 10.5098 5.51478 10.475L10.8188 6.29197C10.9242 6.20483 10.9593 6.03054 10.854 5.92596C10.7662 5.80396 10.6081 5.78653 10.4851 5.87367Z" fill="#5D3F92"/>
<path d="M6.60376 7.73853C6.67402 7.73853 6.74427 7.73853 6.81452 7.7211C7.53461 7.61652 8.04394 6.93678 7.921 6.20476C7.86831 5.85617 7.67511 5.54245 7.3941 5.3333C7.11309 5.12415 6.76183 5.037 6.41057 5.08929C6.05931 5.14158 5.74317 5.3333 5.53241 5.61216C5.32166 5.89103 5.23384 6.23962 5.28653 6.5882C5.39191 7.26794 5.97149 7.73853 6.60376 7.73853ZM6.48082 5.62959C6.51595 5.62959 6.56864 5.61216 6.60376 5.61216C6.99015 5.61216 7.34141 5.89103 7.3941 6.2919C7.46436 6.72763 7.16578 7.1285 6.72671 7.19822C6.28763 7.26794 5.88368 6.97164 5.81342 6.53591C5.74317 6.10018 6.05931 5.69931 6.48082 5.62959Z" fill="#5D3F92"/>
<path d="M9.41383 8.61001C8.67618 8.61001 8.07903 9.2026 8.07903 9.93462C8.07903 10.6667 8.67618 11.2592 9.41383 11.2592C10.1515 11.2592 10.7486 10.6667 10.7486 9.93462C10.7311 9.2026 10.1339 8.61001 9.41383 8.61001ZM9.41383 10.7189C8.97475 10.7189 8.60593 10.3529 8.60593 9.9172C8.60593 9.48147 8.97475 9.11545 9.41383 9.11545C9.85291 9.11545 10.2217 9.48147 10.2217 9.9172C10.2042 10.3704 9.85291 10.7189 9.41383 10.7189Z" fill="#5D3F92"/>
<path d="M15.9824 8C15.9824 7.98257 16 7.94771 16 7.93028C16 7.18083 15.2097 6.79739 14.5247 6.46623C14.0329 6.22222 13.506 5.96078 13.3655 5.64706C13.225 5.3159 13.4182 4.7756 13.6114 4.27015C13.8749 3.55556 14.1383 2.82353 13.6465 2.33551C13.1548 1.84749 12.4523 2.02179 11.7497 2.17865C11.258 2.28322 10.7486 2.40523 10.4149 2.2658C10.0812 2.12636 9.80022 1.69063 9.53677 1.27233C9.15038 0.679739 8.72887 0 7.99122 0C7.25357 0 6.83205 0.679739 6.46323 1.28976C6.19978 1.72549 5.93633 2.16122 5.60263 2.30065C5.26894 2.44009 4.74204 2.31808 4.25027 2.19608C3.54775 2.02179 2.82766 1.84749 2.35346 2.31808C1.86169 2.8061 2.10757 3.53813 2.33589 4.25272C2.51153 4.7756 2.66959 5.29847 2.52909 5.64706C2.38858 5.97821 1.89682 6.22222 1.42261 6.46623C0.755214 6.81481 0 7.19826 0 7.93028C0 7.94771 -1.65172e-08 7.98257 0.0175631 8C0.0175631 8.01743 0 8.05229 0 8.06972C0 8.80174 0.755214 9.20261 1.42261 9.53377C1.89682 9.77778 2.38858 10.0218 2.52909 10.3529C2.66959 10.6841 2.49396 11.2244 2.33589 11.7473C2.10757 12.4619 1.86169 13.1939 2.35346 13.6819C2.84523 14.1699 3.56531 13.9782 4.25027 13.8039C4.74204 13.6819 5.26894 13.5599 5.60263 13.6993C5.93633 13.8388 6.19978 14.2745 6.46323 14.7102C6.83205 15.3203 7.25357 16 7.99122 16C8.72887 16 9.16795 15.3203 9.53677 14.7277C9.80022 14.3094 10.0812 13.8736 10.4149 13.7342C10.7662 13.5948 11.258 13.6993 11.7497 13.8214C12.4347 13.9782 13.1548 14.1525 13.6465 13.6645C14.1383 13.1765 13.8749 12.4444 13.6114 11.7298C13.4182 11.207 13.225 10.6841 13.3655 10.3529C13.506 10.0218 14.0154 9.77778 14.5247 9.53377C15.2097 9.18518 16 8.80174 16 8.06972C16 8.03486 15.9824 8.01743 15.9824 8ZM14.2788 9.06318C13.6992 9.35948 13.0845 9.65577 12.8738 10.1612C12.6454 10.6841 12.8913 11.3115 13.1021 11.9216C13.3128 12.4967 13.5236 13.0545 13.2602 13.2985C12.9791 13.5773 12.4347 13.4553 11.8551 13.3159C11.2755 13.1765 10.6959 13.0545 10.1866 13.2636C9.69484 13.4728 9.3787 13.9608 9.08013 14.4488C8.74643 14.9717 8.4303 15.4771 7.97366 15.4771C7.53458 15.4771 7.21844 14.9717 6.88474 14.4314C6.58617 13.9259 6.27003 13.4205 5.77827 13.2113C5.26893 13.0022 4.67179 13.1416 4.09221 13.2985C3.51262 13.4379 2.96817 13.5773 2.68716 13.3159C2.42371 13.0545 2.59934 12.4967 2.79254 11.9216C2.98573 11.3115 3.19649 10.6841 2.96817 10.1786C2.75741 9.6732 2.17783 9.37691 1.61581 9.09804C1.03622 8.80174 0.491767 8.52288 0.491767 8.08715C0.491767 8.06972 0.491767 8.03486 0.474204 8.01743C0.474204 8 0.491767 7.96514 0.491767 7.94771C0.491767 7.52941 1.03622 7.25055 1.61581 6.93682C2.17783 6.65795 2.75741 6.36166 2.96817 5.85621C3.17892 5.33333 2.98573 4.70588 2.79254 4.11329C2.59934 3.5207 2.42371 2.96296 2.68716 2.71895C2.96817 2.44009 3.51262 2.57952 4.09221 2.73638C4.67179 2.87582 5.26893 3.03268 5.77827 2.82353C6.27003 2.61438 6.58617 2.10893 6.88474 1.60349C7.21844 1.06318 7.51701 0.557734 7.97366 0.557734C8.4303 0.557734 8.74643 1.06318 9.08013 1.58606C9.39627 2.07407 9.7124 2.56209 10.1866 2.77124C10.6959 2.98039 11.2755 2.84096 11.8551 2.71895C12.4347 2.57952 12.9791 2.45752 13.2602 2.73638C13.5236 2.98039 13.3128 3.53813 13.1021 4.11329C12.8738 4.72331 12.6454 5.35076 12.8738 5.87364C13.0845 6.37909 13.6992 6.67538 14.2788 6.97168C14.8935 7.26797 15.4555 7.56427 15.4555 7.98257C15.4555 8 15.4555 8.03486 15.4731 8.05229C15.4731 8.06972 15.4555 8.10458 15.4555 8.122C15.4731 8.47059 14.8935 8.76688 14.2788 9.06318Z" fill="#5D3F92"/>
</svg>
