<svg width="16" height="16" viewBox="0 0 16 16" fill="none" xmlns="http://www.w3.org/2000/svg">
<path fill-rule="evenodd" clip-rule="evenodd" d="M1.65385 1C1.48044 1 1.31413 1.06889 1.19151 1.19151C1.06889 1.31413 1 1.48044 1 1.65385V14.3462C1 14.5196 1.06889 14.6859 1.19151 14.8085C1.31413 14.9311 1.48044 15 1.65385 15H14.3462C14.5196 15 14.6859 14.9311 14.8085 14.8085C14.9311 14.6859 15 14.5196 15 14.3462V9.15385C15 8.8777 15.2239 8.65385 15.5 8.65385C15.7761 8.65385 16 8.8777 16 9.15385V14.3462C16 14.7848 15.8258 15.2054 15.5156 15.5156C15.2054 15.8258 14.7848 16 14.3462 16H1.65385C1.21522 16 0.794556 15.8258 0.4844 15.5156C0.174244 15.2054 0 14.7848 0 14.3462V1.65385C0 1.21522 0.174244 0.794557 0.4844 0.4844C0.794557 0.174244 1.21522 0 1.65385 0H6.84615C7.1223 0 7.34615 0.223858 7.34615 0.5C7.34615 0.776142 7.1223 1 6.84615 1H1.65385ZM10.9615 0.5C10.9615 0.223858 11.1854 0 11.4615 0H15.5C15.7761 0 16 0.223858 16 0.5V4.53846C16 4.8146 15.7761 5.03846 15.5 5.03846C15.2239 5.03846 15 4.8146 15 4.53846V1.70711L8.35355 8.35355C8.15829 8.54882 7.84171 8.54882 7.64645 8.35355C7.45118 8.15829 7.45118 7.84171 7.64645 7.64645L14.2929 1H11.4615C11.1854 1 10.9615 0.776142 10.9615 0.5Z" fill="#7C7C7C"/>
</svg>
