<svg width="14" height="16" viewBox="0 0 14 16" fill="none" xmlns="http://www.w3.org/2000/svg">
<path fill-rule="evenodd" clip-rule="evenodd" d="M0.437503 0C0.679129 0 0.875006 0.198985 0.875006 0.444444V3.57567C1.7628 2.50541 2.92881 1.70334 4.24561 1.26482C5.75709 0.761472 7.3876 0.76364 8.89778 1.27101C10.408 1.77837 11.7182 2.76421 12.6363 4.08379C13.5543 5.40337 14.0317 6.98717 13.9984 8.60267C13.9651 10.2182 13.4228 11.7803 12.4512 13.0597C11.4796 14.339 10.1298 15.2683 8.60004 15.7109C7.07027 16.1536 5.44109 16.0864 3.95169 15.5192C2.46228 14.952 1.19111 13.9147 0.324795 12.5595C0.193196 12.3536 0.25079 12.0784 0.453435 11.9447C0.65608 11.811 0.927038 11.8695 1.05864 12.0754C1.82303 13.2711 2.94465 14.1864 4.25883 14.6869C5.57302 15.1874 7.01053 15.2467 8.36032 14.8561C9.71011 14.4655 10.9011 13.6455 11.7584 12.5167C12.6157 11.3878 13.0942 10.0095 13.1236 8.58406C13.1529 7.15861 12.7317 5.76114 11.9217 4.59681C11.1117 3.43248 9.95555 2.56262 8.62304 2.11494C7.29053 1.66726 5.85184 1.66535 4.51818 2.10948C3.2379 2.53584 2.11916 3.35168 1.31241 4.44444H4.81253C5.05416 4.44444 5.25004 4.64343 5.25004 4.88889C5.25004 5.13435 5.05416 5.33333 4.81253 5.33333H0.437503C0.195877 5.33333 0 5.13435 0 4.88889V0.444444C0 0.198985 0.195877 0 0.437503 0Z" fill="#7C7C7C"/>
</svg>
