<svg width="23" height="16" viewBox="0 0 23 16" fill="none" xmlns="http://www.w3.org/2000/svg">
<path d="M22.9639 8.19576C22.8771 8.01656 22.6624 7.94233 22.4847 8.02905L19.9475 9.26734L18.2186 10.0197C17.9517 9.9505 17.27 9.77106 16.6577 9.58874L16.3573 9.47633C16.3133 9.45999 16.2682 9.45326 16.2239 9.45447C16.0116 9.38552 15.827 9.32019 15.7027 9.26518C15.1063 9.00143 14.0409 8.38144 13.6114 8.00719C13.1263 7.58586 11.8624 6.02208 11.8497 6.00622C11.7423 5.87315 11.5565 5.83447 11.4054 5.9135C11.0578 6.09534 9.93014 6.57505 9.33309 6.40065C9.01794 6.30649 8.43476 5.98509 8.26978 5.78499C8.15979 5.65191 8.06606 5.17221 8.11555 5.01895C8.24443 4.95338 8.73317 5.03649 8.97251 5.07708C9.3821 5.14675 9.76946 5.21256 10.0686 5.11528C10.651 4.92623 11.8255 3.91806 12.1086 3.67016C12.3896 3.56711 13.7757 3.09774 14.7424 3.484C15.2524 3.68794 15.7483 3.75832 16.1907 3.75832C17.1474 3.75832 17.853 3.42803 17.9053 3.40281L21.4288 1.51114C21.6034 1.41722 21.6693 1.1991 21.5761 1.02351C21.4826 0.848154 21.2655 0.781616 21.0907 0.875538L17.583 2.75904C17.5708 2.7648 16.3231 3.33987 15.0076 2.81429C13.8618 2.35596 12.3752 2.81165 11.9245 2.97067C11.4246 2.78018 10.0191 2.27501 9.39454 2.37014C8.81159 2.45998 7.11393 2.54045 6.42626 2.41289C6.13598 2.3305 3.93094 1.13184 2.00397 0.0460867C1.83086 -0.0511992 1.61255 0.0105355 1.51571 0.184209C1.41888 0.357642 1.48033 0.577435 1.65296 0.674721C2.9133 1.38503 5.88779 3.04465 6.28375 3.11888C7.12493 3.2755 8.93258 3.17028 9.50238 3.08261C9.78404 3.03961 10.5492 3.25123 11.2189 3.48136C10.7182 3.89284 10.1205 4.34083 9.84789 4.42923C9.71542 4.47223 9.36991 4.41338 9.09207 4.36606C8.52371 4.26949 7.93622 4.16956 7.59191 4.52051C7.20766 4.91614 7.43792 5.90678 7.7172 6.24451C8.00533 6.59402 8.73341 6.97332 9.13056 7.09174C9.90336 7.3173 10.9719 6.90702 11.4719 6.68002C11.8502 7.14098 12.7224 8.18735 13.1413 8.55127C13.664 9.00695 14.8359 9.66873 15.4131 9.92408C15.6379 10.0235 16.0178 10.148 16.4238 10.2697L18.1059 10.8993C18.1939 10.945 18.2606 11.03 18.3044 11.1525C18.3804 11.3656 18.3651 11.65 18.2669 11.8595C18.1468 12.1131 17.8776 12.2452 17.6225 12.2083C17.572 12.1789 17.5153 12.1626 17.4568 12.1602L15.1762 10.9716C15.0004 10.8799 14.7838 10.9491 14.6927 11.1256C14.6016 11.3022 14.67 11.5198 14.8459 11.6113L17.1428 12.8081C17.1497 12.8114 17.1569 12.8133 17.1639 12.8167C17.1813 12.908 17.165 12.9714 17.1392 13.055C17.1218 13.1112 17.1014 13.177 17.0912 13.2532C16.9405 13.5328 16.5996 13.6565 16.3071 13.5301L14.3821 12.6896C14.3735 12.6858 14.3646 12.6844 14.3558 12.6812C14.3443 12.6771 14.3328 12.6728 14.3213 12.6702C14.3096 12.6673 14.2977 12.6659 14.286 12.6644C14.2745 12.663 14.2632 12.6611 14.252 12.6606C14.2398 12.6601 14.2279 12.6611 14.2159 12.662C14.2049 12.6627 14.1939 12.663 14.1831 12.6649C14.1712 12.6668 14.1597 12.6699 14.1482 12.6731C14.1377 12.6759 14.1269 12.6783 14.1167 12.6822C14.1057 12.6863 14.0954 12.6916 14.0849 12.6966C14.0746 12.7016 14.0643 12.7062 14.0545 12.7122C14.0447 12.718 14.0358 12.7252 14.0268 12.7319C14.0172 12.7389 14.0079 12.7458 13.999 12.7538C13.9907 12.7615 13.9832 12.7701 13.9756 12.7785C13.9675 12.7876 13.9591 12.7963 13.9519 12.8061C13.945 12.8155 13.9395 12.8258 13.9333 12.8359C13.9283 12.8443 13.9225 12.8515 13.9182 12.8604C13.9168 12.8633 13.9163 12.8664 13.9149 12.8693C13.9137 12.872 13.9118 12.8741 13.9108 12.8768C13.9072 12.8849 13.9058 12.8931 13.9029 12.9015C13.8986 12.9138 13.8941 12.926 13.8912 12.9383C13.8886 12.9493 13.8874 12.9606 13.8859 12.9719C13.8843 12.9839 13.8823 12.9959 13.8821 13.0079C13.8816 13.0195 13.8826 13.031 13.8833 13.0425C13.884 13.054 13.8845 13.0656 13.8862 13.0771C13.8881 13.0886 13.8912 13.0999 13.8941 13.1112C13.8969 13.1223 13.8996 13.1331 13.9034 13.1439C13.9074 13.1547 13.9125 13.1653 13.9175 13.1756C13.9223 13.1859 13.9271 13.1962 13.9328 13.2059C13.9388 13.2159 13.9459 13.2253 13.9529 13.2347C13.9596 13.244 13.9663 13.2532 13.9739 13.2618C13.9818 13.2707 13.9909 13.2784 14 13.2866C14.0086 13.2943 14.0167 13.3022 14.026 13.3091C14.0358 13.3164 14.0466 13.3226 14.0574 13.3288C14.065 13.3336 14.072 13.3392 14.0801 13.3433L14.5932 13.5986C14.8976 13.7439 15.0281 14.111 14.884 14.4172C14.8132 14.5676 14.6886 14.6812 14.5332 14.737C14.3799 14.792 14.2152 14.7836 14.0684 14.7134L12.6254 14.0286L13.0366 13.3276C13.4326 12.6553 13.2097 11.7833 12.5402 11.3841C12.54 11.3841 12.5398 11.3838 12.5398 11.3838C12.2409 11.2066 11.903 11.1525 11.585 11.2056C11.6503 10.5635 11.3588 9.91543 10.7818 9.57073C10.7814 9.57025 10.7806 9.57001 10.7799 9.56953C10.2068 9.23131 9.51194 9.27935 8.98614 9.63102C8.88165 9.31874 8.671 9.04058 8.36709 8.85922C7.69257 8.46143 6.82222 8.68555 6.42698 9.35838L5.46529 10.9935L3.11152 9.30193C3.10315 9.29593 3.09382 9.29184 3.08498 9.2868C3.07637 9.28175 3.06872 9.27551 3.05963 9.27118L0.515289 8.02977C0.337394 7.94305 0.122436 8.01728 0.0361184 8.19648C-0.0504384 8.37543 0.023924 8.59114 0.202059 8.6781L2.71914 9.90654L5.13317 11.6416C4.94834 12.2544 5.19534 12.9395 5.76943 13.2796C5.99491 13.4129 6.24239 13.4763 6.48675 13.4763C6.56542 13.4763 6.64337 13.4674 6.7206 13.4545C6.65269 14.1021 6.9468 14.7559 7.5295 15.1023C7.78702 15.2546 8.07419 15.3324 8.36685 15.3324C8.51582 15.3324 8.66622 15.3123 8.8147 15.2714C8.99738 15.2212 9.16739 15.1408 9.32113 15.0367C9.42682 15.3471 9.63819 15.6231 9.94114 15.8035C10.1661 15.9366 10.4134 16 10.6575 16C11.1415 16 11.6139 15.7511 11.8781 15.3039L12.26 14.6526L13.7614 15.3654C13.9414 15.4514 14.1344 15.4948 14.328 15.4948C14.4782 15.4948 14.6288 15.4689 14.7747 15.4165C15.1109 15.2962 15.3803 15.0509 15.5329 14.7259C15.6386 14.5013 15.6747 14.2621 15.6532 14.0312L16.0228 14.1926C16.1928 14.2664 16.3705 14.301 16.5453 14.301C17.0608 14.301 17.5536 13.9986 17.7724 13.4941C17.7922 13.4487 17.8023 13.4014 17.8023 13.3519C17.8032 13.3387 17.8157 13.2993 17.8245 13.2705C17.8508 13.1852 17.8862 13.0711 17.8907 12.9234C18.3211 12.8631 18.7152 12.5931 18.9156 12.1691C19.0958 11.7857 19.1205 11.3034 18.9801 10.9101C18.9323 10.7766 18.8651 10.661 18.7857 10.559L20.2397 9.92624C20.2424 9.92504 20.2445 9.92336 20.2471 9.92192C20.2493 9.92096 20.2517 9.92072 20.2538 9.91951L22.7982 8.67786C22.9761 8.59018 23.0504 8.37471 22.9639 8.19576ZM6.13359 12.6579C5.80123 12.4612 5.68933 12.0305 5.88397 11.6985L7.04459 9.7247C7.17419 9.50443 7.40732 9.38216 7.64666 9.38216C7.76789 9.38216 7.89079 9.41363 8.00246 9.47945C8.33266 9.67666 8.44313 10.1066 8.2485 10.4379L7.08835 12.412C6.89324 12.7439 6.46452 12.8539 6.13359 12.6579ZM8.62533 14.5755C8.37307 14.6447 8.1134 14.6109 7.89366 14.4809C7.43386 14.2075 7.288 13.5945 7.568 13.1148L9.07055 10.5623C9.25896 10.2402 9.59443 10.0596 9.93516 10.0596C10.0997 10.0596 10.2651 10.1016 10.4158 10.1902C10.8727 10.4638 11.0159 11.0747 10.735 11.552L9.23338 14.1042C9.09661 14.338 8.8807 14.5054 8.62533 14.5755ZM11.2605 14.9363C11.0649 15.2676 10.636 15.3776 10.3058 15.1821C9.97294 14.9841 9.86104 14.5534 10.0566 14.2217L11.2163 12.2479C11.3461 12.0279 11.5788 11.9058 11.8179 11.9058C11.9396 11.9058 12.0627 11.9375 12.1751 12.0041C12.5046 12.201 12.6146 12.6301 12.4195 12.9613L11.9329 13.791C11.832 13.816 11.7423 13.8833 11.6945 13.9851C11.6567 14.0656 11.6527 14.1525 11.6742 14.2323L11.2605 14.9363Z" fill="#5D3F92"/>
</svg>
