<svg width="16" height="16" viewBox="0 0 16 16" fill="none" xmlns="http://www.w3.org/2000/svg">
<path d="M15.9966 12.1375C15.9606 10.9875 15.6415 9.60214 15.0984 8.23664C14.5553 6.86985 13.8498 5.67779 13.1118 4.88009C12.3181 4.02208 11.5589 3.70792 10.9712 3.99235C10.9665 3.99449 10.9615 3.99535 10.9568 3.9977L10.2674 4.34351V2.52741C10.2674 2.52484 10.2678 2.52228 10.2678 2.51971C10.2678 1.08321 8.06086 0 5.13411 0C2.21344 0 0.00990179 1.07893 0.000761625 2.51094C0.000761625 2.51393 0 2.51671 0 2.51992V5.76633C0 5.78344 0.00209465 5.80012 0.00457011 5.81637C0.00209465 5.83284 0 5.84931 0 5.86642C0 5.89572 0.0022851 5.92437 0.0041893 5.95325C0.00209468 5.96864 0 5.98383 0 5.99987V9.24627C0 9.2636 0.00209465 9.28028 0.00457011 9.29675C0.00209465 9.31321 0 9.32989 0 9.34722C0 9.38379 0.00247536 9.41993 0.00514124 9.45586C0.0019041 9.47468 0 9.49414 0 9.51403V12.7604C0 12.7775 0.00209465 12.7942 0.00457011 12.8105C0.00209465 12.8269 0 12.8434 0 12.8605C0 14.2968 2.20735 15.3798 5.13449 15.3798C6.99394 15.3798 8.68849 14.9033 9.58041 14.1501C10.3787 15.3139 11.2374 16 11.9567 16C12.1206 16 12.2777 15.9645 12.4247 15.8907L15.1353 14.5308C15.138 14.5295 15.1409 14.5286 15.1435 14.5274C15.7329 14.232 16.0358 13.3832 15.9966 12.1375ZM8.3185 5.32129L8.23624 5.36192C7.67012 5.64614 7.38411 6.42973 7.37459 7.50309C6.69098 7.67098 5.92473 7.76358 5.13468 7.76358C2.4349 7.76358 0.553551 6.76378 0.553551 5.8662C0.553551 5.84909 0.551456 5.83241 0.548981 5.81616C0.551456 5.79969 0.553551 5.78323 0.553551 5.76612V3.69316C1.38531 4.50648 3.08233 5.03942 5.1343 5.03942C7.18569 5.03942 8.88214 4.5069 9.71428 3.6938V4.62111L8.3185 5.32129ZM0.548981 9.29675C0.551456 9.28028 0.553551 9.2636 0.553551 9.24627V7.03966C1.38569 7.85254 3.08271 8.38527 5.13468 8.38527C5.92644 8.38527 6.70164 8.29994 7.39877 8.13783C7.46256 8.92719 7.65089 9.82947 7.96451 10.7829C7.12514 11.088 6.17551 11.2444 5.13468 11.2444C2.4349 11.2444 0.553551 10.2446 0.553551 9.34743C0.553551 9.32989 0.551456 9.31321 0.548981 9.29675ZM5.1343 0.62148C7.83121 0.62148 9.71104 1.62 9.71447 2.51736C9.71447 2.51821 9.71428 2.51885 9.71428 2.51971V2.52548C9.70628 3.42177 7.82779 4.41794 5.1343 4.41794C2.4349 4.41794 0.553932 3.4175 0.553932 2.51971C0.553932 1.62192 2.4349 0.62148 5.1343 0.62148ZM5.13468 14.7585C2.4349 14.7585 0.553551 13.7583 0.553551 12.8607C0.553551 12.8436 0.551456 12.8269 0.548981 12.8107C0.551456 12.7942 0.553551 12.7778 0.553551 12.7607V10.5205C1.38569 11.3333 3.08271 11.8659 5.13468 11.8659C6.24711 11.8659 7.2651 11.695 8.16788 11.3616C8.20425 11.4589 8.24176 11.5566 8.2808 11.6546C8.57671 12.3984 8.90937 13.0667 9.25917 13.6469C8.47921 14.3178 6.8675 14.7585 5.13468 14.7585ZM12.2749 15.2844L12.1966 15.3248C11.4656 15.6893 9.8868 14.1683 8.78598 11.4009C7.6863 8.63271 7.73277 6.29542 8.46093 5.92993L10.232 5.04177C10.1319 5.41325 10.0871 5.86513 10.1037 6.38802C10.1397 7.53774 10.4588 8.92356 11.0021 10.2903C11.5452 11.6565 12.2507 12.8479 12.9887 13.6456C13.3252 14.009 13.6546 14.2711 13.9683 14.4354L12.2749 15.2844ZM14.919 13.9593C14.9186 13.9596 14.9181 13.9596 14.9177 13.9598L14.9158 13.9606C14.5513 14.1415 13.9884 13.8637 13.3724 13.1978C12.6844 12.4542 12.022 11.3316 11.5075 10.0369C10.9926 8.74156 10.6904 7.43808 10.6567 6.36621C10.6266 5.40426 10.8185 4.74814 11.1834 4.5655C11.2571 4.52872 11.3384 4.51054 11.4267 4.51054C11.7771 4.51054 12.2352 4.79519 12.7281 5.3277C13.416 6.0713 14.0783 7.19428 14.593 8.48985C15.1079 9.78414 15.4099 11.0874 15.4436 12.1593C15.4739 13.1199 15.2825 13.7758 14.919 13.9593Z" fill="#5D3F92"/>
</svg>
