<svg width="16" height="16" viewBox="0 0 16 16" fill="none" xmlns="http://www.w3.org/2000/svg">
<path fill-rule="evenodd" clip-rule="evenodd" d="M12.9038 1C11.7462 1 10.8077 1.93848 10.8077 3.09615C10.8077 3.40681 10.8753 3.70168 10.9965 3.96687C11.0092 3.98539 11.0208 4.00498 11.0312 4.0256C11.042 4.0472 11.0511 4.06922 11.0586 4.0915C11.413 4.747 12.1064 5.19231 12.9038 5.19231C14.0615 5.19231 15 4.25383 15 3.09615C15 1.93848 14.0615 1 12.9038 1ZM10.3917 4.90628C10.954 5.68529 11.8697 6.19231 12.9038 6.19231C14.6138 6.19231 16 4.80611 16 3.09615C16 1.3862 14.6138 0 12.9038 0C11.1939 0 9.80769 1.3862 9.80769 3.09615C9.80769 3.41479 9.85583 3.72219 9.94522 4.01147L5.60818 6.18967C5.04587 5.41077 4.13021 4.90385 3.09615 4.90385C1.3862 4.90385 0 6.29004 0 8C0 9.70996 1.3862 11.0962 3.09615 11.0962C4.13021 11.0962 5.04587 10.5892 5.60818 9.81033L9.94522 11.9885C9.85583 12.2778 9.80769 12.5852 9.80769 12.9038C9.80769 14.6138 11.1939 16 12.9038 16C14.6138 16 16 14.6138 16 12.9038C16 11.1939 14.6138 9.80769 12.9038 9.80769C11.8697 9.80769 10.954 10.3147 10.3917 11.0937L6.05471 8.91555C6.14415 8.6262 6.19231 8.31873 6.19231 8C6.19231 7.68127 6.14415 7.3738 6.05471 7.08445L10.3917 4.90628ZM4.93997 7.00206C4.9476 7.02522 4.95703 7.04811 4.9683 7.07056C4.97909 7.09204 4.99122 7.11241 5.00453 7.13161C5.12512 7.3962 5.19231 7.69025 5.19231 8C5.19231 8.30975 5.12512 8.6038 5.00453 8.86839C4.99122 8.88759 4.97909 8.90796 4.9683 8.92944C4.95703 8.95189 4.9476 8.97478 4.93997 8.99794C4.58521 9.65203 3.89255 10.0962 3.09615 10.0962C1.93848 10.0962 1 9.15767 1 8C1 6.84233 1.93848 5.90385 3.09615 5.90385C3.89255 5.90385 4.58521 6.34797 4.93997 7.00206ZM10.9965 12.0331C11.0092 12.0146 11.0208 11.995 11.0312 11.9744C11.042 11.9528 11.0511 11.9308 11.0586 11.9085C11.413 11.253 12.1064 10.8077 12.9038 10.8077C14.0615 10.8077 15 11.7462 15 12.9038C15 14.0615 14.0615 15 12.9038 15C11.7462 15 10.8077 14.0615 10.8077 12.9038C10.8077 12.5932 10.8753 12.2983 10.9965 12.0331Z" fill="#7C7C7C"/>
</svg>
