<svg width="16" height="14" viewBox="0 0 16 14" fill="none" xmlns="http://www.w3.org/2000/svg">
<path fill-rule="evenodd" clip-rule="evenodd" d="M6.78083 0.692514C7.32268 -0.230837 8.67732 -0.230839 9.21917 0.692513L15.8093 11.9225C16.3511 12.8458 15.6738 14 14.5901 14H1.40988C0.326169 14 -0.351147 12.8458 0.190707 11.9225L6.78083 0.692514ZM8.09885 1.32888C8.05492 1.25401 7.94508 1.25401 7.90115 1.32888L1.31103 12.5588C1.26709 12.6337 1.32201 12.7273 1.40988 12.7273H14.5901C14.678 12.7273 14.7329 12.6337 14.689 12.5588L8.09885 1.32888ZM7.99991 4.49198C8.35713 4.49198 8.64672 4.77689 8.64672 5.12834V8.123C8.64672 8.47445 8.35713 8.75936 7.99991 8.75936C7.64268 8.75936 7.35309 8.47445 7.35309 8.123V5.12834C7.35309 4.77689 7.64268 4.49198 7.99991 4.49198ZM7.31519 10.369C7.31519 10.0175 7.60478 9.73262 7.96201 9.73262H8.0381C8.39533 9.73262 8.68492 10.0175 8.68492 10.369V10.4439C8.68492 10.7953 8.39533 11.0802 8.0381 11.0802H7.96201C7.60478 11.0802 7.31519 10.7953 7.31519 10.4439V10.369Z" fill="#7C7C7C"/>
</svg>
