<svg width="16" height="16" viewBox="0 0 16 16" fill="none" xmlns="http://www.w3.org/2000/svg">
<path fill-rule="evenodd" clip-rule="evenodd" d="M0 1.14286C0 0.511675 0.511675 0 1.14286 0H6C6.63118 0 7.14286 0.511675 7.14286 1.14286V6C7.14286 6.63118 6.63118 7.14286 6 7.14286H1.14286C0.511675 7.14286 0 6.63118 0 6V1.14286ZM1.14286 4.57143V6H6V4.57143H1.14286ZM6 3.42857H1.14286V1.14286H6V3.42857ZM8.85714 1.14286C8.85714 0.511675 9.36882 0 10 0H14.8571C15.4883 0 16 0.511675 16 1.14286V6C16 6.63118 15.4883 7.14286 14.8571 7.14286H10C9.36882 7.14286 8.85714 6.63118 8.85714 6V1.14286ZM10 4.57143V6H14.8571V4.57143H10ZM14.8571 3.42857H10V1.14286H14.8571V3.42857ZM0 10C0 9.36882 0.511675 8.85714 1.14286 8.85714H6C6.63118 8.85714 7.14286 9.36882 7.14286 10V14.8571C7.14286 15.4883 6.63118 16 6 16H1.14286C0.511675 16 0 15.4883 0 14.8571V10ZM1.14286 13.4286V14.8571H6V13.4286H1.14286ZM6 12.2857H1.14286V10H6V12.2857ZM8.85714 10C8.85714 9.36882 9.36882 8.85714 10 8.85714H14.8571C15.4883 8.85714 16 9.36882 16 10V14.8571C16 15.4883 15.4883 16 14.8571 16H10C9.36882 16 8.85714 15.4883 8.85714 14.8571V10ZM10 13.4286V14.8571H14.8571V13.4286H10ZM14.8571 12.2857H10V10H14.8571V12.2857Z" fill="#7C7C7C"/>
</svg>
