<svg width="12" height="12" viewBox="0 0 12 12" fill="none" xmlns="http://www.w3.org/2000/svg">
<path d="M11.3333 0H0.666667C0.298 0 0 0.282316 0 0.631579V2.26737C0 2.59768 0.142 2.92232 0.388667 3.156L4 6.57726V11.3684C4 11.5876 4.12 11.7903 4.31667 11.9059C4.42333 11.9684 4.54467 12 4.66667 12C4.76867 12 4.87067 11.9779 4.96467 11.9337L7.63133 10.6705C7.85733 10.5632 8 10.3446 8 10.1053V6.57726L11.6113 3.156C11.858 2.92232 12 2.59768 12 2.26737V0.631579C12 0.282316 11.702 0 11.3333 0ZM6.862 5.86926C6.73667 5.98737 6.66667 6.14779 6.66667 6.31579V9.71495L5.33333 10.3465V6.31579C5.33333 6.14779 5.26333 5.98737 5.138 5.86926L1.33333 2.26737V1.26316H10.6673L10.6687 2.26295L6.862 5.86926Z" fill="white"/>
</svg>
