<svg width="16" height="12" viewBox="0 0 16 12" fill="none" xmlns="http://www.w3.org/2000/svg">
<path d="M9.29575 9H8.07201C8.025 9.19177 8 9.39282 8 9.6C8 9.80718 8.025 10.0082 8.07201 10.2H9.29575C9.19851 10.0235 9.14286 9.81857 9.14286 9.6C9.14286 9.38143 9.19851 9.1765 9.29575 9Z" fill="#7C7C7C"/>
<path d="M11.2757 10.2H12.4994C12.5464 10.0082 12.5714 9.80718 12.5714 9.6C12.5714 9.39282 12.5464 9.19177 12.4994 9H11.2757C11.3729 9.1765 11.4286 9.38143 11.4286 9.6C11.4286 9.81857 11.3729 10.0235 11.2757 10.2Z" fill="#7C7C7C"/>
<path fill-rule="evenodd" clip-rule="evenodd" d="M1.14286 9.6C1.14286 8.93726 1.65453 8.4 2.28571 8.4C2.9169 8.4 3.42857 8.93726 3.42857 9.6C3.42857 10.2627 2.9169 10.8 2.28571 10.8C1.65453 10.8 1.14286 10.2627 1.14286 9.6ZM4.49942 9C4.24568 7.96486 3.35077 7.2 2.28571 7.2C1.02335 7.2 0 8.27452 0 9.6C0 10.9255 1.02335 12 2.28571 12C3.35077 12 4.24568 11.2351 4.49942 10.2H8.07201C8.32575 11.2351 9.22066 12 10.2857 12C11.3508 12 12.2457 11.2351 12.4994 10.2H15.4286C15.7442 10.2 16 9.93137 16 9.6C16 9.26863 15.7442 9 15.4286 9H12.4994C12.2457 7.96486 11.3508 7.2 10.2857 7.2C9.22066 7.2 8.32575 7.96486 8.07201 9H4.49942ZM4.49942 9C4.54643 9.19177 4.57143 9.39282 4.57143 9.6C4.57143 9.80718 4.54643 10.0082 4.49942 10.2H4C3.68441 10.2 3.42857 9.93137 3.42857 9.6C3.42857 9.26863 3.68441 9 4 9H4.49942ZM8.07201 9H9.29575C9.49336 8.64132 9.8627 8.4 10.2857 8.4C10.7087 8.4 11.0781 8.64132 11.2757 9H12.4994C12.5464 9.19177 12.5714 9.39282 12.5714 9.6C12.5714 9.80718 12.5464 10.0082 12.4994 10.2H11.2757C11.0781 10.5587 10.7087 10.8 10.2857 10.8C9.8627 10.8 9.49336 10.5587 9.29575 10.2H8.07201C8.025 10.0082 8 9.80718 8 9.6C8 9.39282 8.025 9.19177 8.07201 9Z" fill="#7C7C7C"/>
<path d="M4 9C3.68441 9 3.42857 9.26863 3.42857 9.6C3.42857 9.93137 3.68441 10.2 4 10.2H4.49942C4.54643 10.0082 4.57143 9.80718 4.57143 9.6C4.57143 9.39282 4.54643 9.19177 4.49942 9H4Z" fill="#7C7C7C"/>
<path d="M2.28571 8.4C1.65453 8.4 1.14286 8.93726 1.14286 9.6C1.14286 10.2627 1.65453 10.8 2.28571 10.8C2.9169 10.8 3.42857 10.2627 3.42857 9.6C3.42857 8.93726 2.9169 8.4 2.28571 8.4Z" fill="#7C7C7C"/>
<path fill-rule="evenodd" clip-rule="evenodd" d="M2.85714 0C3.17273 0 3.42857 0.268629 3.42857 0.6V5.568C3.42857 5.89937 3.17273 6.168 2.85714 6.168C2.54155 6.168 2.28571 5.89937 2.28571 5.568V0.6C2.28571 0.268629 2.54155 0 2.85714 0ZM7.42857 0C7.74416 0 8 0.268629 8 0.6V5.568C8 5.89937 7.74416 6.168 7.42857 6.168C7.11298 6.168 6.85714 5.89937 6.85714 5.568V0.6C6.85714 0.268629 7.11298 0 7.42857 0ZM12 0C12.3156 0 12.5714 0.268629 12.5714 0.6V5.568C12.5714 5.89937 12.3156 6.168 12 6.168C11.6844 6.168 11.4286 5.89937 11.4286 5.568V0.6C11.4286 0.268629 11.6844 0 12 0ZM5.14286 2.39998C5.45845 2.39998 5.71429 2.66861 5.71429 2.99998V5.83198C5.71429 6.16335 5.45845 6.43198 5.14286 6.43198C4.82727 6.43198 4.57143 6.16335 4.57143 5.83198V2.99998C4.57143 2.66861 4.82727 2.39998 5.14286 2.39998ZM9.71429 2.4C10.0299 2.4 10.2857 2.66863 10.2857 3V5.832C10.2857 6.16337 10.0299 6.432 9.71429 6.432C9.39869 6.432 9.14286 6.16337 9.14286 5.832V3C9.14286 2.66863 9.39869 2.4 9.71429 2.4ZM14.2857 2.4C14.6013 2.4 14.8571 2.66863 14.8571 3V5.832C14.8571 6.16337 14.6013 6.432 14.2857 6.432C13.9701 6.432 13.7143 6.16337 13.7143 5.832V3C13.7143 2.66863 13.9701 2.4 14.2857 2.4Z" fill="#7C7C7C"/>
</svg>
