<svg width="16" height="16" viewBox="0 0 16 16" fill="none" xmlns="http://www.w3.org/2000/svg">
<path fill-rule="evenodd" clip-rule="evenodd" d="M0 1.14286C0 0.511675 0.511675 0 1.14286 0H5.71429C6.34547 0 6.85714 0.511675 6.85714 1.14286V5.71429C6.85714 6.34547 6.34547 6.85714 5.71429 6.85714H1.14286C0.511675 6.85714 0 6.34547 0 5.71429V1.14286ZM5.71429 1.14286H1.14286V5.71429H5.71429V1.14286ZM9.14286 1.14286C9.14286 0.511675 9.65453 0 10.2857 0H14.8571C15.4883 0 16 0.511675 16 1.14286V5.71429C16 6.34547 15.4883 6.85714 14.8571 6.85714H10.2857C9.65453 6.85714 9.14286 6.34547 9.14286 5.71429V1.14286ZM14.8571 1.14286H10.2857V5.71429H14.8571V1.14286ZM0 10.2857C0 9.65453 0.511675 9.14286 1.14286 9.14286H5.71429C6.34547 9.14286 6.85714 9.65453 6.85714 10.2857V14.8571C6.85714 15.4883 6.34547 16 5.71429 16H1.14286C0.511675 16 0 15.4883 0 14.8571V10.2857ZM5.71429 10.2857H1.14286V14.8571H5.71429V10.2857ZM9.14286 10.2857C9.14286 9.65453 9.65453 9.14286 10.2857 9.14286H14.8571C15.4883 9.14286 16 9.65453 16 10.2857V14.8571C16 15.4883 15.4883 16 14.8571 16H10.2857C9.65453 16 9.14286 15.4883 9.14286 14.8571V10.2857ZM14.8571 10.2857H10.2857V14.8571H14.8571V10.2857Z" fill="#7C7C7C"/>
</svg>
