<svg width="16" height="16" viewBox="0 0 16 16" fill="none" xmlns="http://www.w3.org/2000/svg">
<path fill-rule="evenodd" clip-rule="evenodd" d="M7.42857 1.14286C3.95707 1.14286 1.14286 3.95707 1.14286 7.42857C1.14286 10.9001 3.95707 13.7143 7.42857 13.7143C9.14015 13.7143 10.6919 13.0302 11.8255 11.9205C11.8392 11.9031 11.8541 11.8863 11.8702 11.8702C11.8863 11.8541 11.9031 11.8392 11.9205 11.8255C13.0302 10.6919 13.7143 9.14015 13.7143 7.42857C13.7143 3.95707 10.9001 1.14286 7.42857 1.14286ZM13.07 12.2618C14.1841 10.9627 14.8571 9.27423 14.8571 7.42857C14.8571 3.32588 11.5313 0 7.42857 0C3.32588 0 0 3.32588 0 7.42857C0 11.5313 3.32588 14.8571 7.42857 14.8571C9.27423 14.8571 10.9627 14.1841 12.2618 13.07L15.0245 15.8326C15.2477 16.0558 15.6095 16.0558 15.8326 15.8326C16.0558 15.6095 16.0558 15.2477 15.8326 15.0245L13.07 12.2618ZM7.42857 2.28571C7.74416 2.28571 8 2.54155 8 2.85714V4.04675C8.34621 4.10522 8.67218 4.2195 8.94807 4.39496C9.38411 4.67226 9.71429 5.12257 9.71429 5.71429C9.71429 6.02988 9.45845 6.28571 9.14286 6.28571C8.82727 6.28571 8.57143 6.02988 8.57143 5.71429C8.57143 5.59743 8.51875 5.47632 8.33479 5.35933C8.13904 5.23484 7.82455 5.14286 7.42857 5.14286C7.18528 5.14286 6.98579 5.14327 6.81008 5.15856C6.63384 5.1739 6.52386 5.20147 6.45487 5.23326C6.39918 5.25892 6.37309 5.28512 6.35179 5.32465C6.32433 5.37561 6.28571 5.48773 6.28571 5.71429C6.28571 5.91707 6.37426 6.09186 6.61582 6.29316C6.8762 6.51014 7.23937 6.69509 7.68412 6.91747C7.69442 6.92262 7.70476 6.92779 7.71516 6.93298C8.1211 7.13587 8.60003 7.37524 8.97296 7.68602C9.37426 8.02043 9.71429 8.4885 9.71429 9.14286C9.71429 9.48773 9.65719 9.80418 9.51143 10.0747C9.35952 10.3565 9.1349 10.5446 8.88059 10.6618C8.63957 10.7729 8.38027 10.8168 8.14615 10.8371C8.09805 10.8413 8.04922 10.8446 8 10.8472V12C8 12.3156 7.74416 12.5714 7.42857 12.5714C7.11298 12.5714 6.85714 12.3156 6.85714 12V10.8221C6.52841 10.7788 6.20747 10.6904 5.93049 10.5309C5.44907 10.2536 5.14286 9.78222 5.14286 9.14286C5.14286 8.82727 5.39869 8.57143 5.71429 8.57143C6.02988 8.57143 6.28571 8.82727 6.28571 9.14286C6.28571 9.36063 6.36236 9.46074 6.50094 9.54056C6.68369 9.64583 6.99407 9.71429 7.42857 9.71429C7.67186 9.71429 7.87136 9.71387 8.04706 9.69858C8.2233 9.68324 8.33329 9.65567 8.40227 9.62388C8.45796 9.59822 8.48405 9.57202 8.50536 9.53249C8.53281 9.48154 8.57143 9.36942 8.57143 9.14286C8.57143 8.94007 8.48288 8.76528 8.24132 8.56398C7.98095 8.347 7.61778 8.16205 7.17302 7.93967C7.16273 7.93453 7.15238 7.92935 7.14199 7.92416C6.73604 7.72127 6.25711 7.4819 5.88418 7.17113C5.48288 6.83671 5.14286 6.36864 5.14286 5.71429C5.14286 5.36941 5.19996 5.05297 5.34571 4.78249C5.49762 4.50059 5.72225 4.3125 5.97656 4.19531C6.21757 4.08425 6.47687 4.04039 6.71099 4.02001C6.75909 4.01582 6.80792 4.01251 6.85714 4.00989V2.85714C6.85714 2.54155 7.11298 2.28571 7.42857 2.28571Z" fill="#7C7C7C"/>
</svg>
