<svg width="16" height="16" viewBox="0 0 16 16" fill="none" xmlns="http://www.w3.org/2000/svg">
<path d="M15.1111 0H0.888889C0.397333 0 0 0.376421 0 0.842105V3.02316C0 3.46358 0.189333 3.89642 0.518222 4.208L5.33333 8.76968V15.1579C5.33333 15.4501 5.49333 15.7204 5.75556 15.8745C5.89778 15.9579 6.05956 16 6.22222 16C6.35822 16 6.49422 15.9705 6.61955 15.9116L10.1751 14.2274C10.4764 14.0842 10.6667 13.7928 10.6667 13.4737V8.76968L15.4818 4.208C15.8107 3.89642 16 3.46358 16 3.02316V0.842105C16 0.376421 15.6027 0 15.1111 0ZM9.14933 7.82568C8.98222 7.98316 8.88889 8.19705 8.88889 8.42105V12.9533L7.11111 13.7954V8.42105C7.11111 8.19705 7.01778 7.98316 6.85067 7.82568L1.77778 3.02316V1.68421H14.2231L14.2249 3.01726L9.14933 7.82568Z" fill="#7C7C7C"/>
</svg>
