<svg width="16" height="16" viewBox="0 0 16 16" fill="none" xmlns="http://www.w3.org/2000/svg">
<path fill-rule="evenodd" clip-rule="evenodd" d="M10.1113 1.35067C9.88811 1.12063 9.52631 1.12063 9.30315 1.35067L5.20597 5.57433C4.98281 5.80438 4.98281 6.17736 5.20597 6.4074L7.01616 8.27348C7.23932 8.50352 7.60113 8.50352 7.82429 8.27348L11.9215 4.04982C12.1446 3.81977 12.1446 3.44679 11.9215 3.21675L10.1113 1.35067ZM8.49503 0.517603C9.1645 -0.172534 10.2499 -0.172534 10.9194 0.517603L12.7296 2.38368C13.3991 3.07382 13.3991 4.19275 12.7296 4.88289L11.091 6.57201L15.8326 11.46C16.0558 11.69 16.0558 12.063 15.8326 12.2931C15.6095 12.5231 15.2477 12.5231 15.0245 12.2931L10.2829 7.40508L8.63241 9.10655C7.96294 9.79668 6.87751 9.79668 6.20804 9.10655L4.39785 7.24047C3.72838 6.55033 3.72838 5.4314 4.39785 4.74126L8.49503 0.517603ZM1.14286 12.4656C1.14286 12.1403 1.39869 11.8765 1.71429 11.8765H8C8.31559 11.8765 8.57143 12.1403 8.57143 12.4656V14.8219H9.14286C9.45845 14.8219 9.71429 15.0856 9.71429 15.4109C9.71429 15.7363 9.45845 16 9.14286 16H0.571429C0.255837 16 0 15.7363 0 15.4109C0 15.0856 0.255837 14.8219 0.571429 14.8219H1.14286V12.4656ZM2.28571 14.8219H7.42857V13.0547H2.28571V14.8219Z" fill="#7C7C7C"/>
</svg>
