<svg width="8" height="14" viewBox="0 0 8 14" fill="none" xmlns="http://www.w3.org/2000/svg">
<path fill-rule="evenodd" clip-rule="evenodd" d="M4 0C4.44183 0 4.8 0.391751 4.8 0.875V2.33477C5.45521 2.39847 6.06641 2.54315 6.57211 2.77398C7.2275 3.07314 8 3.67172 8 4.70312C8 5.18637 7.64183 5.57812 7.2 5.57812C6.76263 5.57812 6.40723 5.19424 6.40011 4.71772C6.38877 4.68723 6.31796 4.55426 5.95588 4.38898C5.50568 4.18348 4.81909 4.04688 4 4.04688C3.06707 4.04688 2.40671 4.05557 1.96758 4.20082C1.77002 4.26617 1.69698 4.33624 1.66926 4.37316C1.64988 4.39897 1.6 4.47557 1.6 4.70312C1.6 4.75982 1.62818 4.96682 2.18385 5.29919C2.70559 5.61127 3.4269 5.87342 4.24942 6.16861C4.2645 6.17402 4.27961 6.17945 4.29477 6.18489C5.06091 6.45978 5.91875 6.76758 6.58385 7.16541C7.22818 7.55081 8 8.20513 8 9.29688C8 9.83494 7.87121 10.3326 7.56726 10.7374C7.27165 11.1312 6.87669 11.3482 6.49558 11.4743C6.00034 11.6381 5.39981 11.6848 4.8 11.698V13.125C4.8 13.6082 4.44183 14 4 14C3.55817 14 3.2 13.6082 3.2 13.125V11.6758C2.5645 11.6298 1.95864 11.5206 1.45312 11.3116C0.729298 11.0124 0 10.3967 0 9.29688C0 8.81363 0.358172 8.42188 0.8 8.42188C1.24183 8.42188 1.6 8.81363 1.6 9.29688C1.6 9.29832 1.59999 9.29986 1.59997 9.30149C1.59953 9.35444 1.59829 9.50079 2.01888 9.67469C2.46129 9.85761 3.14567 9.95312 4 9.95312C4.93293 9.95312 5.59329 9.94443 6.03242 9.79918C6.22998 9.73383 6.30302 9.66376 6.33074 9.62684C6.35012 9.60102 6.4 9.52443 6.4 9.29688C6.4 9.24018 6.37182 9.03317 5.81615 8.7008C5.29441 8.38873 4.5731 8.12658 3.75058 7.83139L3.70524 7.81512C2.93909 7.54022 2.08125 7.23242 1.41615 6.83459C0.771818 6.44919 0 5.79487 0 4.70312C0 4.16506 0.128786 3.66743 0.432739 3.26258C0.728353 2.86884 1.12331 2.6518 1.50442 2.52574C1.99966 2.36193 2.60019 2.31521 3.2 2.30199V0.875C3.2 0.391751 3.55817 0 4 0ZM6.40201 4.72431C6.40193 4.72433 6.40157 4.72319 6.40118 4.72081C6.4019 4.72309 6.40209 4.72428 6.40201 4.72431Z" fill="#232428"/>
</svg>
