<svg width="16" height="16" viewBox="0 0 16 16" fill="none" xmlns="http://www.w3.org/2000/svg">
<path d="M4.89266 6.72336L7.99985 3.61624L11.1086 6.72496L12.9166 4.91696L7.99985 0L3.08474 4.91536L4.89266 6.72336ZM0 7.99975L1.80805 6.1917L3.61598 7.99964L1.80795 9.80768L0 7.99975ZM4.89266 9.27664L7.99985 12.3838L11.1086 9.27512L12.9175 11.0822L12.9166 11.0831L7.99985 16L3.08202 11.0822L4.89266 9.27664ZM12.384 8.00074L14.1921 6.1927L16 8.00063L14.192 9.80869L12.384 8.00074Z" fill="#F3BA2F"/>
<path d="M9.83367 7.99904L7.99984 6.1644L6.16689 7.99744L6.16433 7.99992L6.16689 8.00256L7.99984 9.8356L9.83447 8.00096L9.83535 7.99992L9.83367 7.99904Z" fill="#F3BA2F"/>
</svg>
