<svg width="16" height="14" viewBox="0 0 16 14" fill="none" xmlns="http://www.w3.org/2000/svg">
<path fill-rule="evenodd" clip-rule="evenodd" d="M6.38384 0C6.7855 0 7.11111 0.316922 7.11111 0.707865V3.85393C7.11111 4.24488 6.7855 4.5618 6.38384 4.5618C5.98218 4.5618 5.65657 4.24488 5.65657 3.85393V2.98876H0.727273C0.325611 2.98876 0 2.67184 0 2.2809C0 1.88996 0.325611 1.57303 0.727273 1.57303H5.65657V0.707865C5.65657 0.316922 5.98218 0 6.38384 0ZM8.88889 2.2809C8.88889 1.88996 9.2145 1.57303 9.61616 1.57303H15.2727C15.6744 1.57303 16 1.88996 16 2.2809C16 2.67184 15.6744 2.98876 15.2727 2.98876H9.61616C9.2145 2.98876 8.88889 2.67184 8.88889 2.2809ZM11.2323 4.7191C11.634 4.7191 11.9596 5.03602 11.9596 5.42697V8.57303C11.9596 8.96398 11.634 9.2809 11.2323 9.2809C10.8307 9.2809 10.5051 8.96398 10.5051 8.57303V7.70786H0.727273C0.325611 7.70786 0 7.39094 0 7C0 6.60906 0.325611 6.29213 0.727273 6.29213H10.5051V5.42697C10.5051 5.03602 10.8307 4.7191 11.2323 4.7191ZM13.7374 7C13.7374 6.60906 14.063 6.29213 14.4646 6.29213H15.2727C15.6744 6.29213 16 6.60906 16 7C16 7.39094 15.6744 7.70786 15.2727 7.70786H14.4646C14.063 7.70786 13.7374 7.39094 13.7374 7ZM3.15152 9.4382C3.55318 9.4382 3.87879 9.75512 3.87879 10.1461V11.7184V13.2921C3.87879 13.6831 3.55318 14 3.15152 14C2.74985 14 2.42424 13.6831 2.42424 13.2921V12.427H0.727273C0.325611 12.427 0 12.11 0 11.7191C0 11.3282 0.325611 11.0112 0.727273 11.0112H2.42424V10.1461C2.42424 9.75512 2.74985 9.4382 3.15152 9.4382ZM5.65657 11.7191C5.65657 11.3282 5.98218 11.0112 6.38384 11.0112H15.2727C15.6744 11.0112 16 11.3282 16 11.7191C16 12.11 15.6744 12.427 15.2727 12.427H6.38384C5.98218 12.427 5.65657 12.11 5.65657 11.7191Z" fill="#7C7C7C"/>
</svg>
