<svg width="20" height="18" viewBox="0 0 20 18" fill="none" xmlns="http://www.w3.org/2000/svg">
<path d="M6.2896 18C13.8368 18 17.9648 11.0743 17.9648 5.0683C17.9648 4.87158 17.9648 4.67576 17.9528 4.48082C18.7559 3.83743 19.4491 3.0408 20 2.12823C19.2512 2.49596 18.4567 2.73701 17.6432 2.84331C18.4998 2.27537 19.141 1.38197 19.4472 0.329451C18.6417 0.858902 17.7605 1.232 16.8416 1.43264C16.2229 0.703991 15.4047 0.221496 14.5135 0.0598233C13.6223 -0.10185 12.7078 0.0663123 11.9116 0.538287C11.1154 1.01026 10.4819 1.75974 10.109 2.67073C9.73605 3.58173 9.64462 4.60345 9.8488 5.5778C8.21741 5.48716 6.62146 5.01756 5.16455 4.19948C3.70763 3.38141 2.4223 2.23314 1.392 0.82921C0.867274 1.82976 0.70656 3.0142 0.942583 4.14139C1.17861 5.26857 1.79362 6.25374 2.6624 6.89632C2.00936 6.87512 1.37054 6.67999 0.8 6.32744V6.38504C0.800259 7.43437 1.12821 8.4513 1.72823 9.26335C2.32824 10.0754 3.16338 10.6326 4.092 10.8403C3.4879 11.0228 2.85406 11.0495 2.2392 10.9183C2.50151 11.8213 3.01202 12.611 3.69937 13.1769C4.38671 13.7428 5.21652 14.0566 6.0728 14.0746C5.22203 14.8153 4.24776 15.3629 3.20573 15.6862C2.16369 16.0094 1.07435 16.1019 0 15.9584C1.87653 17.2922 4.05994 17.9997 6.2896 17.9965" fill="#5D3F92"/>
</svg>
