<svg width="14" height="16" viewBox="0 0 14 16" fill="none" xmlns="http://www.w3.org/2000/svg">
<path fill-rule="evenodd" clip-rule="evenodd" d="M5.72727 10.8572C5.72727 10.226 6.29709 9.7143 7 9.7143C7.70291 9.7143 8.27273 10.226 8.27273 10.8572C8.27273 11.4883 7.70291 12 7 12C6.29709 12 5.72727 11.4883 5.72727 10.8572Z" fill="#E2D1FF"/>
<path fill-rule="evenodd" clip-rule="evenodd" d="M8.94945 0.346871C8.33146 0.115467 7.66814 -0.00246102 6.99859 3.893e-05C5.64891 0.000373396 4.35458 0.481967 3.40018 1.33898C2.44545 2.19628 1.90909 3.35904 1.90909 4.57146V5.71431C0.854729 5.71431 0 6.48182 0 7.42859V14.2857C0 15.2325 0.854729 16 1.90909 16H12.0909C13.1453 16 14 15.2325 14 14.2857V7.42859C14 6.48182 13.1453 5.71431 12.0909 5.71431H3.18182V4.57146C3.18182 3.66214 3.58409 2.79008 4.30014 2.1471C5.01619 1.50412 5.98736 1.14289 7 1.14289L7.00283 1.14289C7.50279 1.14089 7.99814 1.22889 8.4596 1.40169C8.92106 1.57448 9.33927 1.82857 9.68954 2.14893C9.93576 2.37413 10.3387 2.37746 10.5895 2.15637C10.8402 1.93527 10.844 1.57348 10.5977 1.34828C10.1283 0.918946 9.56786 0.578438 8.94945 0.346871ZM2.54545 6.85716C2.89691 6.85716 3.18182 6.60133 3.18182 6.28574V5.71431H1.90909V6.28574C1.90909 6.60133 2.194 6.85716 2.54545 6.85716ZM2.54545 6.85716H12.0909C12.4424 6.85716 12.7273 7.113 12.7273 7.42859V14.2857C12.7273 14.6013 12.4424 14.8571 12.0909 14.8571H1.90909C1.55764 14.8571 1.27273 14.6013 1.27273 14.2857V7.42859C1.27273 7.113 1.55764 6.85716 1.90909 6.85716H2.54545Z" fill="#E2D1FF"/>
<path d="M2.54545 6.85716C2.89691 6.85716 3.18182 6.60133 3.18182 6.28574V5.71431H1.90909V6.28574C1.90909 6.60133 2.194 6.85716 2.54545 6.85716Z" fill="#E2D1FF"/>
</svg>
