<svg width="16" height="16" viewBox="0 0 16 16" fill="none" xmlns="http://www.w3.org/2000/svg">
<path d="M11.2952 6.85076C11.6423 6.50363 11.6423 5.94081 11.2952 5.59368C10.9481 5.24655 10.3853 5.24655 10.0381 5.59368L7.11111 8.5207L5.96187 7.37146C5.61474 7.02433 5.05193 7.02433 4.70479 7.37146C4.35766 7.71859 4.35766 8.28141 4.70479 8.62854L6.48257 10.4063C6.8297 10.7534 7.39252 10.7534 7.73965 10.4063L11.2952 6.85076Z" fill="white"/>
<path fill-rule="evenodd" clip-rule="evenodd" d="M9.10729 0.407816L10.1926 1.3327C10.466 1.56571 10.806 1.70653 11.1641 1.73511L12.5855 1.84854C13.4212 1.91523 14.0848 2.57882 14.1515 3.41449L14.2649 4.83591C14.2935 5.19401 14.4343 5.53398 14.6673 5.8074L15.5922 6.8927C16.1359 7.53077 16.1359 8.46923 15.5922 9.10729L14.6673 10.1926C14.4343 10.466 14.2935 10.806 14.2649 11.1641L14.1515 12.5855C14.0848 13.4212 13.4212 14.0848 12.5855 14.1515L11.1641 14.2649C10.806 14.2935 10.466 14.4343 10.1926 14.6673L9.10729 15.5922C8.46923 16.1359 7.53077 16.1359 6.8927 15.5922L5.8074 14.6673C5.53398 14.4343 5.19401 14.2935 4.83591 14.2649L3.41449 14.1515C2.57882 14.0848 1.91523 13.4212 1.84854 12.5855L1.73511 11.1641C1.70653 10.806 1.56571 10.466 1.3327 10.1926L0.407816 9.10729C-0.135939 8.46923 -0.135939 7.53077 0.407816 6.8927L1.3327 5.8074C1.56571 5.53398 1.70653 5.19401 1.73511 4.83591L1.84854 3.41449C1.91523 2.57882 2.57882 1.91523 3.41449 1.84854L4.83591 1.73511C5.19401 1.70653 5.53398 1.56571 5.8074 1.3327L6.8927 0.407816C7.53077 -0.135939 8.46923 -0.135939 9.10729 0.407816ZM11.2952 5.59368C11.6423 5.94081 11.6423 6.50363 11.2952 6.85076L7.73965 10.4063C7.39252 10.7534 6.8297 10.7534 6.48257 10.4063L4.70479 8.62854C4.35766 8.28141 4.35766 7.71859 4.70479 7.37146C5.05193 7.02433 5.61474 7.02433 5.96187 7.37146L7.11111 8.5207L10.0381 5.59368C10.3853 5.24655 10.9481 5.24655 11.2952 5.59368Z" fill="#3B99FC"/>
</svg>
