<svg width="33" height="24" viewBox="0 0 33 24" fill="none" xmlns="http://www.w3.org/2000/svg">
<path d="M32.6443 9.56169L26.6678 0.721915C26.3832 0.309392 25.9848 0.0736649 25.5294 0.014733C25.074 -0.0441989 24.6187 0.0736646 24.2772 0.368324L21.8866 2.37201C21.5451 2.66667 21.3174 3.07919 21.2605 3.55064C21.2605 3.72744 21.2605 3.8453 21.2605 4.0221C21.0328 4.0221 20.8051 4.08103 20.5775 4.08103C20.4067 4.08103 20.2929 4.13996 20.1221 4.13996C19.2114 4.1989 18.2438 4.49355 17.2192 4.90608C16.9916 5.02394 16.7639 5.1418 16.5362 5.25967C15.5117 4.72928 14.5441 4.37569 13.5764 4.19889C12.8934 4.08103 12.2673 4.0221 11.6981 4.13996C11.812 3.49171 11.5843 2.78453 11.072 2.37201L8.68142 0.368324C8.33991 0.0736646 7.88455 -0.0441989 7.4292 0.014733C6.97385 0.0736649 6.57542 0.309392 6.29083 0.721915L0.314347 9.56169C-0.197922 10.3278 -0.0840846 11.4475 0.65586 12.0958L3.04645 14.0994C3.33105 14.3352 3.67256 14.453 4.07099 14.453C4.12791 14.453 4.24175 14.453 4.29867 14.453C4.58326 14.3941 4.81094 14.2762 5.03861 14.0994C5.20937 14.6298 5.49396 15.1602 5.89239 15.6906C5.77856 16.2799 5.8924 16.9282 6.17699 17.3996C6.57542 18.1068 7.25845 18.5193 8.05531 18.5193C8.28299 18.5193 8.45374 18.4604 8.6245 18.4604C8.68142 18.814 8.79525 19.1087 8.96601 19.4033C9.36444 20.1105 10.0475 20.523 10.8443 20.523C11.2428 20.523 11.6412 20.4052 12.0396 20.1694C12.0965 20.4052 12.2104 20.6409 12.3242 20.8766C12.6657 21.407 13.1211 21.8195 13.6903 21.9374C13.9749 21.9963 14.2595 21.9963 14.4871 21.9374C14.5441 22.232 14.6579 22.5856 14.8287 22.8803C15.2271 23.5875 15.9101 24 16.707 24C17.1623 24 17.5608 23.8821 17.9023 23.5875L19.496 22.4678C20.0652 22.0553 20.4067 21.407 20.4636 20.6998C20.8621 20.6409 21.2036 20.4052 21.4882 20.1694C21.7728 19.9337 21.9435 19.5801 22.0574 19.2854C22.2281 19.3444 22.3989 19.4033 22.6265 19.4033C23.025 19.4622 23.4234 19.3444 23.7649 19.1676L24.2203 18.8729L24.4479 18.6961L24.6756 18.4015C24.6756 18.3425 24.7325 18.3425 24.7325 18.2836C25.5294 19.1087 26.8385 19.1087 27.6923 18.3425C28.4323 17.6354 28.6599 16.4567 28.2615 15.5138C28.3184 15.1602 28.3753 14.8066 28.3753 14.453C28.8876 14.6888 29.5137 14.5709 29.9691 14.1584L32.3597 12.1547C32.7012 11.86 32.9288 11.4475 32.9858 10.9761C33.0427 10.3867 32.9289 9.91528 32.6443 9.56169ZM23.9926 5.67219C23.9357 5.61326 23.8218 5.43647 23.7649 5.3186C23.6511 5.14181 23.5942 5.02394 23.5372 4.96501L22.8542 3.90424C22.7973 3.78637 22.7973 3.60958 22.9111 3.55064L25.3017 1.54696C25.3586 1.48803 25.4725 1.48803 25.5294 1.60589L31.5059 10.4457C31.5628 10.5046 31.5628 10.5635 31.5628 10.6225C31.5628 10.6814 31.5059 10.7403 31.5059 10.7993L29.0015 12.8619C28.9445 12.8619 28.9445 12.9208 28.8876 12.9208C28.8876 12.9208 28.8307 12.9208 28.7738 12.8619L25.4725 7.97053L23.9926 5.67219ZM22.4558 12.6851C22.3989 12.5672 22.3989 12.4494 22.3989 12.3315C22.3989 12.0958 22.5127 11.919 22.6265 11.7422C22.9111 11.4475 23.3665 11.5064 23.5942 11.86L26.6678 15.9263C26.9524 16.2799 26.8955 16.8103 26.6109 17.105C26.497 17.2228 26.2693 17.2818 26.0986 17.2818C25.9278 17.2818 25.7571 17.1639 25.6432 16.9871L22.4558 12.6851ZM10.1613 3.90424L8.96601 5.67219C8.96601 5.67219 8.90909 5.73112 8.90909 5.79005L4.18483 12.8029C4.12791 12.8619 4.12791 12.8619 4.07099 12.8619C4.01407 12.8619 4.01407 12.8619 3.95715 12.8619L1.56656 10.8582C1.45272 10.7993 1.45272 10.6225 1.50964 10.5046L7.48612 1.66482C7.54304 1.60589 7.54304 1.60589 7.59996 1.60589C7.59996 1.60589 7.65688 1.60589 7.65688 1.66482L10.0475 3.66851C10.2182 3.66851 10.2182 3.78637 10.1613 3.90424ZM6.40466 12.2136L10.5597 6.08471C11.9258 5.37753 13.5195 5.67219 14.8856 6.26151C14.5441 6.49724 14.2595 6.67403 14.2025 6.73297C13.2349 7.44015 12.495 8.26519 12.1535 9.09024C11.755 9.91529 11.6981 10.7403 12.0396 11.3886C12.3811 11.9779 13.0073 12.3315 13.7472 12.3904C14.4302 12.4494 15.2271 12.2136 16.0809 11.7422L18.8699 9.91528C19.0976 9.79742 19.496 9.67956 19.6098 9.73849C19.6668 9.73849 19.7237 9.91528 19.7237 9.91528C19.7806 10.0921 19.8375 10.5046 20.2359 10.9171C20.4067 11.0939 20.6913 11.3886 21.0897 11.5654C21.0897 11.6243 21.0328 11.6832 21.0328 11.7422C20.4067 11.6243 19.7237 11.8011 19.2114 12.2726C18.9268 12.5083 18.7561 12.8619 18.6422 13.1565C17.9023 12.8619 17.1054 13.0387 16.4793 13.5691C16.1947 13.2155 15.7963 12.9797 15.3409 12.8619C14.7717 12.744 14.2025 12.8619 13.6903 13.2155L13.1211 13.628C13.0642 13.3333 12.9503 13.0387 12.8365 12.8029C12.495 12.2726 12.0396 11.86 11.4704 11.7422C10.9013 11.6243 10.2751 11.7422 9.76288 12.0958L6.91693 14.1584C6.86002 14.1584 6.86001 14.2173 6.8031 14.2173C6.34775 13.4512 6.23391 12.8029 6.40466 12.2136ZM24.7895 10.8582C24.3341 10.3278 23.708 9.97422 23.0819 9.97422C22.7973 9.97422 22.5127 10.0331 22.2281 10.151C21.3174 10.0331 21.2036 9.56169 21.2036 9.56169V9.50276C21.0328 8.73665 20.5775 8.38306 20.2359 8.20626C19.3252 7.79374 18.2438 8.38306 18.1299 8.44199L15.3978 10.2689C14.8287 10.6225 14.2595 10.7993 13.861 10.7403C13.6334 10.7403 13.4626 10.6814 13.4057 10.5635C13.3488 10.4457 13.3488 10.151 13.5195 9.73849C13.8041 9.14917 14.3733 8.55985 15.1132 7.97053L15.1702 7.9116C15.4548 7.67588 16.4793 6.90976 17.8454 6.32044C19.1545 5.73112 20.9759 5.25967 22.4558 6.02578L26.6109 12.1547C26.7247 12.5672 26.8385 12.9797 26.8385 13.3923L24.7895 10.8582ZM7.48612 16.5746C7.37229 16.3978 7.31537 16.1621 7.37228 15.9263C7.4292 15.6906 7.54304 15.5138 7.7138 15.396L10.5597 13.3333C10.6736 13.2744 10.7874 13.2155 10.9013 13.2155C11.1289 13.2155 11.3566 13.3333 11.4704 13.5691C11.6981 13.9816 11.5843 14.512 11.2428 14.7477L8.39682 16.8103C8.22607 16.9282 8.05531 16.9282 7.88455 16.9282C7.7138 16.8692 7.59996 16.7514 7.48612 16.5746ZM10.2751 18.5783C10.0475 18.1657 10.1613 17.6354 10.5028 17.3996L14.5441 14.512C14.6579 14.453 14.7717 14.3941 14.8856 14.3941C14.9425 14.3941 14.9994 14.3941 14.9994 14.3941C15.1702 14.453 15.3409 14.5709 15.4548 14.7477C15.6824 15.1602 15.5686 15.6906 15.2271 15.9263L12.9503 17.5175C12.8934 17.5764 12.8365 17.6354 12.7227 17.6943L11.1858 18.814C11.0151 18.9319 10.8443 18.9319 10.6736 18.9319C10.5028 18.8729 10.3321 18.7551 10.2751 18.5783ZM13.4626 19.3444C13.5195 19.1676 13.5764 19.0497 13.6903 18.9319L15.5117 17.6354C15.6255 17.5764 15.7394 17.5764 15.9101 17.6354C16.0809 17.6943 16.2516 17.8122 16.3655 17.989C16.4793 18.1657 16.5362 18.4015 16.4793 18.6372C16.4224 18.814 16.3655 18.9319 16.3085 19.0497L14.601 20.2873C14.4302 20.4052 14.2595 20.4052 14.0887 20.4052C13.918 20.3462 13.7472 20.2284 13.6334 20.0516C13.4626 19.8158 13.4057 19.5801 13.4626 19.3444ZM16.0809 21.9963C15.9101 21.6427 15.9101 21.2302 16.1947 20.9355L17.9023 19.698C18.073 19.5801 18.2438 19.5801 18.4145 19.5801C18.5853 19.639 18.7561 19.7569 18.8699 19.9337C19.0976 20.3462 18.9837 20.8766 18.6422 21.1123L17.0485 22.291C16.8777 22.4088 16.707 22.4088 16.5362 22.4088C16.3655 22.3499 16.1947 22.232 16.0809 21.9963ZM18.9837 18.1657L17.2762 15.9853C17.1623 15.8085 17.1054 15.6317 17.1054 15.4549C17.1054 15.2192 17.2192 14.9834 17.39 14.8066C17.5038 14.6888 17.6746 14.6298 17.9023 14.6298C18.073 14.6298 18.2438 14.7477 18.3576 14.9245L20.5775 17.8122C20.6913 17.989 20.7482 18.2247 20.7482 18.4604C20.7482 18.6961 20.6344 18.8729 20.4636 19.0497C20.3498 19.1676 20.2359 19.2265 20.0652 19.2265C19.8375 18.6372 19.4391 18.3425 18.9837 18.1657ZM20.179 13.3923C20.2929 13.2744 20.4636 13.2155 20.6344 13.2155C20.8621 13.2155 21.0328 13.3333 21.1466 13.5101L23.4803 16.6924C23.5372 16.8103 23.5372 16.9282 23.5372 17.046C23.5372 17.2818 23.4234 17.4586 23.2526 17.6354C23.1388 17.7532 22.9681 17.8122 22.7404 17.8122C22.5696 17.8122 22.3989 17.6943 22.285 17.5175L20.0652 14.6298C19.9514 14.453 19.8944 14.2173 19.8944 13.9816C19.9514 13.7459 20.0652 13.5691 20.179 13.3923Z" fill="#873DC1"/>
<path d="M4.86785 10.0921C4.81094 9.85635 4.6971 9.50276 4.52634 9.26703C4.29867 9.03131 4.01407 8.79558 3.67256 8.79558C2.98953 8.79558 2.24959 9.56169 2.24959 10.2099V10.2689C2.24959 10.6225 2.47726 10.9171 2.70494 11.1529C2.93261 11.3886 3.27413 11.5064 3.61564 11.5064C3.95715 11.5064 4.29867 11.3886 4.52634 11.1529C4.6971 10.9761 4.86785 10.7403 4.86785 10.4457V10.0921ZM3.33104 10.2689C3.33104 10.151 3.38796 10.0921 3.44488 10.0331C3.5018 9.97422 3.61564 9.91528 3.67256 9.91528C3.84331 9.91528 4.01407 10.0921 4.01407 10.2689C4.01407 10.4457 3.84331 10.6225 3.67256 10.6225C3.44488 10.6225 3.33104 10.4457 3.33104 10.2689Z" fill="#873DC1"/>
<path d="M29.1722 11.86C29.5137 11.86 29.7983 11.7422 30.026 11.5064C30.1967 11.3296 30.3106 11.0939 30.3675 10.7993V10.4457C30.3106 10.2099 30.1967 9.97422 30.026 9.79742C29.7983 9.5617 29.5137 9.44383 29.1722 9.44383C28.4892 9.44383 27.8631 9.91529 27.8631 10.6225V10.6814C27.8631 11.035 28.0338 11.3296 28.2615 11.5654C28.4892 11.7422 28.8307 11.86 29.1722 11.86ZM29.1153 10.9171C28.9445 10.9171 28.7738 10.7403 28.7738 10.5635C28.7738 10.4457 28.8307 10.3867 28.8876 10.3278C28.9445 10.2689 29.0584 10.2099 29.1153 10.2099C29.286 10.2099 29.4568 10.3867 29.4568 10.5635C29.4568 10.7993 29.343 10.9171 29.1153 10.9171Z" fill="#873DC1"/>
</svg>
