<svg width="24" height="24" viewBox="0 0 24 24" fill="none" xmlns="http://www.w3.org/2000/svg">
<path fill-rule="evenodd" clip-rule="evenodd" d="M0 0.923077C0 0.413276 0.413276 0 0.923077 0H1.88162C2.91879 0 3.82396 0.73108 4.01675 1.76048L4.37855 3.69231H21.8278C23.2085 3.69231 24.2632 4.96642 23.9432 6.33331L21.6381 16.1795C21.4077 17.1636 20.5244 17.8462 19.5228 17.8462H5.91736C5.47308 17.8462 5.09184 17.5297 5.01005 17.093L2.20214 2.10033C2.1763 1.96234 2.04874 1.84615 1.88162 1.84615H0.923077C0.413276 1.84615 0 1.43288 0 0.923077ZM4.72431 5.53846L6.6836 16H19.5228C19.6839 16 19.8095 15.8914 19.8406 15.7586L22.1456 5.9125C22.1867 5.73695 22.053 5.53846 21.8278 5.53846H4.72431ZM4.99428 21.8462C4.99428 20.6442 5.9791 19.6923 7.16593 19.6923C8.35275 19.6923 9.33757 20.6442 9.33757 21.8462C9.33757 23.0481 8.35275 24 7.16593 24C5.9791 24 4.99428 23.0481 4.99428 21.8462ZM7.16593 21.5385C6.97362 21.5385 6.84043 21.6887 6.84043 21.8462C6.84043 22.0036 6.97362 22.1538 7.16593 22.1538C7.35823 22.1538 7.49142 22.0036 7.49142 21.8462C7.49142 21.6887 7.35823 21.5385 7.16593 21.5385ZM17.48 21.8462C17.48 20.6442 18.4648 19.6923 19.6516 19.6923C20.8384 19.6923 21.8233 20.6442 21.8233 21.8462C21.8233 23.0481 20.8384 24 19.6516 24C18.4648 24 17.48 23.0481 17.48 21.8462ZM19.6516 21.5385C19.4593 21.5385 19.3261 21.6887 19.3261 21.8462C19.3261 22.0036 19.4593 22.1538 19.6516 22.1538C19.8439 22.1538 19.9771 22.0036 19.9771 21.8462C19.9771 21.6887 19.8439 21.5385 19.6516 21.5385Z" fill="#873DC1"/>
</svg>
