<svg width="24" height="24" viewBox="0 0 24 24" fill="none" xmlns="http://www.w3.org/2000/svg">
<path fill-rule="evenodd" clip-rule="evenodd" d="M15.1669 2.02601C14.8322 1.68094 14.2895 1.68094 13.9547 2.02601L7.80896 8.3615C7.47422 8.70657 7.47422 9.26604 7.80896 9.6111L10.5242 12.4102C10.859 12.7553 11.4017 12.7553 11.7364 12.4102L17.8822 6.07472C18.2169 5.72966 18.2169 5.17019 17.8822 4.82512L15.1669 2.02601ZM12.7425 0.776404C13.7467 -0.258801 15.3749 -0.258801 16.3791 0.776404L19.0944 3.57552C20.0986 4.61072 20.0986 6.28912 19.0944 7.32433L16.6366 9.85802L23.7489 17.19C24.0837 17.535 24.0837 18.0945 23.7489 18.4396C23.4142 18.7846 22.8715 18.7846 22.5368 18.4396L15.4244 11.1076L12.9486 13.6598C11.9444 14.695 10.3163 14.695 9.31206 13.6598L6.59677 10.8607C5.59257 9.8255 5.59257 8.1471 6.59677 7.1119L12.7425 0.776404ZM1.71429 18.6984C1.71429 18.2104 2.09804 17.8148 2.57143 17.8148H12C12.4734 17.8148 12.8571 18.2104 12.8571 18.6984V22.2328H13.7143C14.1877 22.2328 14.5714 22.6284 14.5714 23.1164C14.5714 23.6044 14.1877 24 13.7143 24H0.857143C0.383756 24 0 23.6044 0 23.1164C0 22.6284 0.383756 22.2328 0.857143 22.2328H1.71429V18.6984ZM3.42857 22.2328H11.1429V19.582H3.42857V22.2328Z" fill="#873DC1"/>
</svg>
