<svg width="16" height="16" viewBox="0 0 16 16" fill="none" xmlns="http://www.w3.org/2000/svg">
<path fill-rule="evenodd" clip-rule="evenodd" d="M8 1.6C4.46538 1.6 1.6 4.46538 1.6 8C1.6 11.5346 4.46538 14.4 8 14.4C11.5346 14.4 14.4 11.5346 14.4 8C14.4 4.46538 11.5346 1.6 8 1.6ZM0 8C0 3.58172 3.58172 0 8 0C12.4183 0 16 3.58172 16 8C16 12.4183 12.4183 16 8 16C3.58172 16 0 12.4183 0 8ZM8 2.4C8.44183 2.4 8.8 2.75817 8.8 3.2V8H12.8C13.2418 8 13.6 8.35817 13.6 8.8C13.6 9.24183 13.2418 9.6 12.8 9.6H8C7.55817 9.6 7.2 9.24183 7.2 8.8V3.2C7.2 2.75817 7.55817 2.4 8 2.4Z" fill="#7C7C7C"/>
</svg>
