<svg width="16" height="16" viewBox="0 0 16 16" fill="none" xmlns="http://www.w3.org/2000/svg">
<path fill-rule="evenodd" clip-rule="evenodd" d="M4.21053 1.26316C4.21053 0.565535 4.77606 0 5.47368 0H10.5263C11.2239 0 11.7895 0.565535 11.7895 1.26316V2.52632H15.5789C15.8115 2.52632 16 2.71483 16 2.94737C16 3.17991 15.8115 3.36842 15.5789 3.36842H15.102L13.4733 14.7697C13.4558 15.4521 12.8972 16 12.2105 16H3.78947C3.10284 16 2.54416 15.4521 2.52673 14.7697L0.897981 3.36842H0.421053C0.188512 3.36842 0 3.17991 0 2.94737C0 2.71483 0.188512 2.52632 0.421053 2.52632H4.21053V1.26316ZM5.05263 2.52632H10.9474V1.26316C10.9474 1.03062 10.7589 0.842105 10.5263 0.842105H5.47368C5.24114 0.842105 5.05263 1.03062 5.05263 1.26316V2.52632ZM1.74864 3.36842L3.36419 14.6773C3.36701 14.697 3.36842 14.7169 3.36842 14.7368C3.36842 14.9694 3.55693 15.1579 3.78947 15.1579H12.2105C12.4431 15.1579 12.6316 14.9694 12.6316 14.7368C12.6316 14.7169 12.633 14.697 12.6358 14.6773L14.2514 3.36842H1.74864ZM4.57203 5.89897C4.80224 5.86608 5.01551 6.02604 5.0484 6.25624L5.8905 12.151C5.92339 12.3812 5.76343 12.5945 5.53323 12.6273C5.30303 12.6602 5.08975 12.5003 5.05686 12.2701L4.21476 6.37534C4.18187 6.14513 4.34183 5.93186 4.57203 5.89897ZM11.428 5.89897C11.6582 5.93186 11.8181 6.14513 11.7852 6.37534L10.9431 12.2701C10.9103 12.5003 10.697 12.6602 10.4668 12.6273C10.2366 12.5945 10.0766 12.3812 10.1095 12.151L10.9516 6.25624C10.9845 6.02604 11.1978 5.86608 11.428 5.89897ZM8 5.89474C8.23254 5.89474 8.42105 6.08325 8.42105 6.31579V12.2105C8.42105 12.4431 8.23254 12.6316 8 12.6316C7.76746 12.6316 7.57895 12.4431 7.57895 12.2105V6.31579C7.57895 6.08325 7.76746 5.89474 8 5.89474Z" fill="#7C7C7C"/>
</svg>
