<svg width="16" height="16" viewBox="0 0 16 16" fill="none" xmlns="http://www.w3.org/2000/svg">
<path fill-rule="evenodd" clip-rule="evenodd" d="M8 1.6C4.46538 1.6 1.6 4.46538 1.6 8C1.6 11.5346 4.46538 14.4 8 14.4C11.5346 14.4 14.4 11.5346 14.4 8C14.4 4.46538 11.5346 1.6 8 1.6ZM0 8C0 3.58172 3.58172 0 8 0C12.4183 0 16 3.58172 16 8C16 12.4183 12.4183 16 8 16C3.58172 16 0 12.4183 0 8Z" fill="#232428"/>
<path fill-rule="evenodd" clip-rule="evenodd" d="M8 6.4C8.44183 6.4 8.8 6.75817 8.8 7.2V11.2C8.8 11.6418 8.44183 12 8 12C7.55817 12 7.2 11.6418 7.2 11.2V7.2C7.2 6.75817 7.55817 6.4 8 6.4Z" fill="#232428"/>
<path fill-rule="evenodd" clip-rule="evenodd" d="M7.16016 4.8C7.16016 4.35817 7.51833 4 7.96016 4H8.04016C8.48198 4 8.84016 4.35817 8.84016 4.8V4.88C8.84016 5.32183 8.48198 5.68 8.04016 5.68H7.96016C7.51833 5.68 7.16016 5.32183 7.16016 4.88V4.8Z" fill="#232428"/>
</svg>
