<svg width="24" height="24" viewBox="0 0 24 24" fill="none" xmlns="http://www.w3.org/2000/svg">
<path d="M17.8332 0.571413V6.85713C17.8332 6.85713 17.4909 6.52181 14.971 6.36491C14.1495 7.83989 13.1567 9.49724 12 11.2145C10.8433 9.49725 9.85061 7.83992 9.02922 6.36495C6.50989 6.52187 6.16768 6.85713 6.16768 6.85713V0.571413C6.16768 0.571413 2.11558 2.55612 0.147359 6.52549C-0.124135 7.07302 -0.00823492 7.7177 0.394385 8.18133C1.40472 9.34474 3.55002 11.7446 6.43447 14.5855C7.54178 12.6989 9.61967 11.4286 12.0004 11.4286C14.381 11.4286 16.4587 12.6987 17.5661 14.585C20.4502 11.7443 22.5953 9.34467 23.6056 8.18133C24.0082 7.7177 24.1241 7.07302 23.8526 6.52549C21.8844 2.55612 17.8332 0.571413 17.8332 0.571413Z" fill="#CCB7F2"/>
<path d="M6.16768 0.571413V6.85713C6.16768 6.85713 6.50989 6.52187 9.02922 6.36495C7.15037 2.9911 6.16768 0.571413 6.16768 0.571413Z" fill="#CCB7F2"/>
<path d="M17.8332 6.85713V0.571413C17.8332 0.571413 16.8501 2.99108 14.971 6.36491C17.4909 6.52181 17.8332 6.85713 17.8332 6.85713Z" fill="#CCB7F2"/>
<path d="M12.0004 0C7.9175 0 6.16768 0.571413 6.16768 0.571413C6.16768 0.571413 7.15037 2.9911 9.02922 6.36495C9.79895 6.31701 10.7719 6.28571 12.0004 6.28571C13.2286 6.28571 14.2014 6.31699 14.971 6.36491C16.8501 2.99108 17.8332 0.571413 17.8332 0.571413C17.8332 0.571413 16.0834 0 12.0004 0Z" fill="#E2D1FF"/>
<path d="M12.0004 24C15.5439 24 18.4165 21.1858 18.4165 17.7143C18.4165 16.575 18.107 15.5064 17.5661 14.585C16.4587 12.6987 14.381 11.4286 12.0004 11.4286C9.61967 11.4286 7.54178 12.6989 6.43447 14.5855C5.89369 15.5069 5.5844 16.5752 5.5844 17.7143C5.5844 21.1858 8.45695 24 12.0004 24Z" fill="#873DC1"/>
<path d="M14.966 21.9875C15.091 21.9772 15.177 21.8856 15.1854 21.7604C15.1932 21.6455 15.2 21.4683 15.2 21.2C15.2 20.9317 15.1932 20.7545 15.1854 20.6396C15.177 20.5144 15.091 20.4228 14.966 20.4125C14.8809 20.4055 14.7625 20.4 14.6 20.4C14.4375 20.4 14.3191 20.4055 14.234 20.4125C14.109 20.4228 14.023 20.5144 14.0146 20.6396C14.0068 20.7545 14 20.9317 14 21.2C14 21.4683 14.0068 21.6455 14.0146 21.7604C14.023 21.8856 14.109 21.9772 14.234 21.9875C14.3191 21.9945 14.4375 22 14.6 22C14.7625 22 14.8809 21.9945 14.966 21.9875Z" fill="#FFD700"/>
<path d="M9.76602 21.9875C9.89105 21.9772 9.97697 21.8856 9.98545 21.7604C9.99323 21.6455 10 21.4683 10 21.2C10 20.9317 9.99323 20.7545 9.98545 20.6396C9.97697 20.5144 9.89105 20.4228 9.76602 20.4125C9.68095 20.4055 9.56247 20.4 9.4 20.4C9.23753 20.4 9.11905 20.4055 9.03398 20.4125C8.90895 20.4228 8.82303 20.5144 8.81455 20.6396C8.80677 20.7545 8.8 20.9317 8.8 21.2C8.8 21.4683 8.80677 21.6455 8.81455 21.7604C8.82303 21.8856 8.90895 21.9772 9.03398 21.9875C9.11905 21.9945 9.23753 22 9.4 22C9.56247 22 9.68095 21.9945 9.76602 21.9875Z" fill="#FFD700"/>
<path d="M8.10911 20.6791C8.14566 21.0254 8.3763 21.2954 8.71765 21.3641C9.25246 21.4716 10.2562 21.6 12 21.6C13.7438 21.6 14.7475 21.4716 15.2823 21.3641C15.6237 21.2954 15.8543 21.0254 15.8909 20.6791C15.9427 20.1888 16 19.3059 16 17.8C16 16.2941 15.9427 15.4112 15.8909 14.9209C15.8543 14.5746 15.6237 14.3046 15.2823 14.2359C14.7475 14.1284 13.7438 14 12 14C10.2562 14 9.25246 14.1284 8.71765 14.2359C8.3763 14.3046 8.14566 14.5746 8.10911 14.9209C8.05735 15.4112 8 16.2941 8 17.8C8 19.3059 8.05735 20.1888 8.10911 20.6791Z" fill="white"/>
<path d="M8.87564 15.6434C8.90817 15.296 9.14036 15.0266 9.48385 14.9657C9.93392 14.8858 10.7163 14.8 12 14.8C13.2837 14.8 14.0661 14.8858 14.5161 14.9657C14.8596 15.0266 15.0918 15.296 15.1244 15.6434C15.1623 16.0482 15.2 16.7219 15.2 17.8C15.2 18.8781 15.1623 19.5518 15.1244 19.9566C15.0918 20.304 14.8596 20.5734 14.5161 20.6343C14.0661 20.7142 13.2837 20.8 12 20.8C10.7163 20.8 9.93392 20.7142 9.48385 20.6343C9.14036 20.5734 8.90817 20.304 8.87564 19.9566C8.83773 19.5518 8.8 18.8781 8.8 17.8C8.8 16.7219 8.83773 16.0482 8.87564 15.6434Z" fill="#FFD700"/>
<path d="M13.6 17.8C13.6 18.6837 12.8837 19.4 12 19.4C11.1163 19.4 10.4 18.6837 10.4 17.8C10.4 16.9163 11.1163 16.2 12 16.2C12.8837 16.2 13.6 16.9163 13.6 17.8Z" fill="white"/>
<path d="M12.8 17.8C12.8 18.2418 12.4418 18.6 12 18.6C11.5582 18.6 11.2 18.2418 11.2 17.8C11.2 17.3582 11.5582 17 12 17C12.4418 17 12.8 17.3582 12.8 17.8Z" fill="#FFD700"/>
<path d="M15.5929 16.2293C15.5853 16.1037 15.4957 16.0161 15.3701 16.0088C15.2849 16.0038 15.1656 16 15 16C14.8344 16 14.7151 16.0038 14.6299 16.0088C14.5043 16.0161 14.4147 16.1037 14.4071 16.2293C14.403 16.2968 14.4 16.3852 14.4 16.5C14.4 16.6148 14.403 16.7032 14.4071 16.7707C14.4147 16.8963 14.5043 16.9839 14.6299 16.9912C14.7151 16.9962 14.8344 17 15 17C15.1656 17 15.2849 16.9962 15.3701 16.9912C15.4957 16.9839 15.5853 16.8963 15.5929 16.7707C15.597 16.7032 15.6 16.6148 15.6 16.5C15.6 16.3852 15.597 16.2968 15.5929 16.2293Z" fill="#FFD700"/>
<path d="M15.5929 19.3707C15.5853 19.4963 15.4957 19.5839 15.3701 19.5912C15.2849 19.5962 15.1656 19.6 15 19.6C14.8344 19.6 14.7151 19.5962 14.6299 19.5912C14.5043 19.5839 14.4147 19.4963 14.4071 19.3707C14.403 19.3032 14.4 19.2148 14.4 19.1C14.4 18.9852 14.403 18.8968 14.4071 18.8293C14.4147 18.7037 14.5043 18.6161 14.6299 18.6088C14.7151 18.6038 14.8344 18.6 15 18.6C15.1656 18.6 15.2849 18.6038 15.3701 18.6088C15.4957 18.6161 15.5853 18.7037 15.5929 18.8293C15.597 18.8968 15.6 18.9852 15.6 19.1C15.6 19.2148 15.597 19.3032 15.5929 19.3707Z" fill="#FFD700"/>
</svg>
