<svg width="24" height="24" viewBox="0 0 24 24" fill="none" xmlns="http://www.w3.org/2000/svg">
<path d="M17.8332 0.571413V6.85713C17.8332 6.85713 17.4909 6.52181 14.971 6.36491C14.1495 7.83989 13.1567 9.49724 12 11.2145C10.8433 9.49725 9.85061 7.83992 9.02922 6.36495C6.50989 6.52187 6.16768 6.85713 6.16768 6.85713V0.571413C6.16768 0.571413 2.11558 2.55612 0.147359 6.52549C-0.124135 7.07302 -0.00823492 7.7177 0.394385 8.18133C1.40472 9.34474 3.55002 11.7446 6.43447 14.5855C7.54178 12.6989 9.61967 11.4286 12.0004 11.4286C14.381 11.4286 16.4587 12.6987 17.5661 14.585C20.4502 11.7443 22.5953 9.34467 23.6056 8.18133C24.0082 7.7177 24.1241 7.07302 23.8526 6.52549C21.8844 2.55612 17.8332 0.571413 17.8332 0.571413Z" fill="#CCB7F2"/>
<path d="M6.16768 0.571413V6.85713C6.16768 6.85713 6.50989 6.52187 9.02922 6.36495C7.15037 2.9911 6.16768 0.571413 6.16768 0.571413Z" fill="#CCB7F2"/>
<path d="M17.8332 6.85713V0.571413C17.8332 0.571413 16.8501 2.99108 14.971 6.36491C17.4909 6.52181 17.8332 6.85713 17.8332 6.85713Z" fill="#CCB7F2"/>
<path d="M12.0004 0C7.9175 0 6.16768 0.571413 6.16768 0.571413C6.16768 0.571413 7.15037 2.9911 9.02922 6.36495C9.79895 6.31701 10.7719 6.28571 12.0004 6.28571C13.2286 6.28571 14.2014 6.31699 14.971 6.36491C16.8501 2.99108 17.8332 0.571413 17.8332 0.571413C17.8332 0.571413 16.0834 0 12.0004 0Z" fill="#E2D1FF"/>
<path fill-rule="evenodd" clip-rule="evenodd" d="M12.0004 24C15.5439 24 18.4165 21.1858 18.4165 17.7143C18.4165 16.575 18.107 15.5064 17.5661 14.585C16.4587 12.6987 14.381 11.4286 12.0004 11.4286C9.61967 11.4286 7.54178 12.6989 6.43447 14.5855C5.89369 15.5069 5.5844 16.5752 5.5844 17.7143C5.5844 21.1858 8.45695 24 12.0004 24Z" fill="#873DC1"/>
<path d="M13.0738 17.8241C13.6307 17.4559 14 16.8097 14 16.0741C14 14.9286 13.1046 14 12 14C10.8954 14 10 14.9286 10 16.0741C10 16.8097 10.3693 17.4559 10.9262 17.8241C9.99805 18.1733 9.2816 18.962 9.02458 19.9399C8.9037 20.3998 9.24392 20.8146 9.71123 20.8729C10.2242 20.9368 10.9871 21 12 21C13.0129 21 13.7758 20.9368 14.2888 20.8729C14.7561 20.8146 15.0963 20.3998 14.9754 19.9399C14.7184 18.962 14.002 18.1733 13.0738 17.8241Z" fill="#CCB7F2"/>
</svg>
