<svg width="18" height="18" viewBox="0 0 18 18" fill="none" xmlns="http://www.w3.org/2000/svg">
<path d="M2.48592 0.5C2.48592 0.367392 2.53875 0.240215 2.63278 0.146447C2.72681 0.0526784 2.85435 0 2.98734 0L13.0157 0C13.1487 0 13.2762 0.0526784 13.3702 0.146447C13.4643 0.240215 13.5171 0.367392 13.5171 0.5C13.5171 1.038 13.5051 1.55 13.483 2.036C13.8792 2.10143 14.2583 2.24532 14.5979 2.45918C14.9375 2.67304 15.2307 2.95255 15.4603 3.28121C15.6898 3.60987 15.851 3.98104 15.9344 4.37283C16.0178 4.76461 16.0217 5.16908 15.9458 5.56239C15.87 5.95569 15.7159 6.32986 15.4927 6.66284C15.2695 6.99581 14.9817 7.28085 14.6462 7.50114C14.3108 7.72144 13.9345 7.87252 13.5396 7.94549C13.1447 8.01846 12.7391 8.01183 12.3468 7.926C11.5545 9.791 10.4635 10.703 9.50575 10.937V13.11L10.9348 13.466C11.1293 13.514 11.3129 13.601 11.4733 13.721L13.3165 15.1C13.4007 15.163 13.4629 15.2507 13.4943 15.3509C13.5257 15.4511 13.5246 15.5586 13.4914 15.6581C13.4581 15.7577 13.3942 15.8443 13.3089 15.9056C13.2235 15.967 13.1209 16 13.0157 16H2.98734C2.8821 16 2.77953 15.967 2.69415 15.9056C2.60878 15.8443 2.54493 15.7577 2.51165 15.6581C2.47837 15.5586 2.47735 15.4511 2.50873 15.3509C2.54011 15.2507 2.60229 15.163 2.68649 15.1L4.52969 13.721C4.69015 13.601 4.87366 13.514 5.06821 13.466L6.49725 13.11V10.937C5.53955 10.703 4.44846 9.791 3.65623 7.925C3.2637 8.01129 2.85782 8.01828 2.46254 7.94554C2.06727 7.87281 1.69062 7.72183 1.35484 7.50151C1.01905 7.2812 0.730948 6.99602 0.507535 6.66283C0.284122 6.32963 0.129931 5.95517 0.0540692 5.56156C-0.021793 5.16795 -0.0177885 4.76318 0.0658463 4.37114C0.149481 3.97909 0.31105 3.60774 0.541012 3.279C0.770974 2.95027 1.06466 2.67082 1.40474 2.45715C1.74482 2.24349 2.12438 2.09995 2.52102 2.035C2.49741 1.52367 2.48571 1.01187 2.48592 0.5ZM2.5852 3.04C2.06191 3.13548 1.59808 3.43433 1.29577 3.87083C0.993446 4.30732 0.877396 4.84569 0.973145 5.3675C1.06889 5.88931 1.3686 6.35183 1.80632 6.65329C2.24405 6.95476 2.78395 7.07048 3.30724 6.975C2.9733 5.925 2.71757 4.629 2.5852 3.04ZM12.6968 6.975C13.2201 7.07048 13.76 6.95476 14.1977 6.65329C14.6354 6.35183 14.9351 5.88931 15.0309 5.3675C15.1266 4.84569 15.0106 4.30732 14.7082 3.87083C14.4059 3.43433 13.9421 3.13548 13.4188 3.04C13.2854 4.63 13.0297 5.925 12.6968 6.975ZM3.49276 1C3.49978 1.517 3.51884 2.006 3.54892 2.469C3.67929 4.497 4.00722 6.015 4.42139 7.136C5.28784 9.48 6.48121 10 6.99867 10C7.13165 10 7.25919 10.0527 7.35322 10.1464C7.44726 10.2402 7.50009 10.3674 7.50009 10.5V13.11C7.50008 13.3329 7.42537 13.5495 7.28783 13.7252C7.15029 13.901 6.9578 14.0258 6.74094 14.08L5.3109 14.436C5.24598 14.4521 5.18494 14.481 5.13139 14.521L4.49159 15H11.5114L10.8716 14.521C10.8177 14.4809 10.7564 14.452 10.6911 14.436L9.26206 14.08C9.0452 14.0258 8.85272 13.901 8.71517 13.7252C8.57763 13.5495 8.50292 13.3329 8.50292 13.11V10.5C8.50292 10.3674 8.55575 10.2402 8.64978 10.1464C8.74381 10.0527 8.87135 10 9.00434 10C9.5218 10 10.7152 9.48 11.5816 7.136C11.9958 6.016 12.3237 4.496 12.4541 2.469C12.4842 2.006 12.5032 1.517 12.5102 1H3.49276Z" fill="#232428"/>
</svg>
