<svg width="24" height="24" viewBox="0 0 24 24" fill="none" xmlns="http://www.w3.org/2000/svg">
<path d="M6.16768 0.571413C6.16768 0.571413 7.9175 0 12.0004 0C16.0834 0 17.8332 0.571413 17.8332 0.571413V6.85713C17.8332 6.85713 17.2499 6.28571 12.0004 6.28571C6.75095 6.28571 6.16768 6.85713 6.16768 6.85713V0.571413Z" fill="#E2D1FF"/>
<path fill-rule="evenodd" clip-rule="evenodd" d="M0.394385 8.18133C-0.00823492 7.7177 -0.124135 7.07302 0.147359 6.52549C2.11558 2.55612 6.16768 0.571413 6.16768 0.571413C6.16768 0.571413 8.1974 5.56923 12 11.2145C15.8026 5.56923 17.8332 0.571413 17.8332 0.571413C17.8332 0.571413 21.8844 2.55612 23.8526 6.52549C24.1241 7.07302 24.0082 7.7177 23.6056 8.18133C22.5953 9.34467 20.4502 11.7443 17.5661 14.585C16.4587 12.6987 14.381 11.4286 12.0004 11.4286C9.61967 11.4286 7.54178 12.6989 6.43447 14.5855C3.55002 11.7446 1.40472 9.34474 0.394385 8.18133Z" fill="#CCB7F2"/>
<path d="M12.0004 24C15.5439 24 18.4165 21.1858 18.4165 17.7143C18.4165 16.575 18.107 15.5064 17.5661 14.585C16.4587 12.6987 14.381 11.4286 12.0004 11.4286C9.61967 11.4286 7.54178 12.6989 6.43447 14.5855C5.89369 15.5069 5.5844 16.5752 5.5844 17.7143C5.5844 21.1858 8.45695 24 12.0004 24Z" fill="#873DC1"/>
<path fill-rule="evenodd" clip-rule="evenodd" d="M8.70667 14.3316C9.14169 14.1348 9.75572 14 10.4774 14C11.1983 14 11.8119 14.1345 12.2468 14.331C12.4641 14.4292 12.6385 14.5436 12.7594 14.666C12.8798 14.7879 12.9515 14.9224 12.952 15.0603C12.952 15.0614 12.952 15.0625 12.9519 15.0636V15.0648L12.9519 15.0653C12.9507 15.2029 12.8786 15.3371 12.758 15.4588C12.6369 15.581 12.4624 15.6952 12.2451 15.7931C11.8103 15.9892 11.1974 16.1234 10.4774 16.1234C9.75572 16.1234 9.14169 15.9887 8.70667 15.7919C8.48931 15.6935 8.31495 15.579 8.19422 15.4564C8.07404 15.3344 8.00263 15.1997 8.00263 15.0617C8.00263 14.9238 8.07404 14.7891 8.19422 14.667C8.31495 14.5445 8.48931 14.4299 8.70667 14.3316ZM8.02549 15.5746C8.03953 15.5675 8.05598 15.5703 8.06755 15.5817C8.28253 15.7937 8.61239 15.9717 9.02639 16.0967C9.43985 16.2215 9.93472 16.2926 10.4774 16.2926C11.0198 16.2926 11.5146 16.2215 11.9279 16.0968C12.3418 15.9719 12.6717 15.7939 12.8868 15.582C12.8983 15.5706 12.9148 15.5679 12.9288 15.575C12.9429 15.5821 12.9519 15.5978 12.9519 15.615V16.1122C12.9519 16.1295 12.9428 16.1452 12.9288 16.1523L12.1866 16.5277L12.1864 16.5278L12.1429 16.5495L12.1428 16.5495C11.8639 16.6908 11.7128 17.0865 11.7078 17.6579C11.7076 17.6783 11.6949 17.696 11.677 17.7004C11.3106 17.7911 10.9003 17.8411 10.4776 17.8411C9.75583 17.8411 9.1417 17.7064 8.7066 17.5097C8.4892 17.4114 8.31481 17.2969 8.19406 17.1744C8.07386 17.0524 8.00243 16.9177 8.00243 16.7798C8.00243 16.7744 8.00177 16.7684 8.00055 16.7603C7.99982 16.7555 7.99982 16.7506 8.00054 16.7457C8.00178 16.7374 8.00243 16.7315 8.00243 16.7261V15.6147C8.00243 15.5974 8.01145 15.5818 8.02549 15.5746ZM13.6778 16.1185C13.7225 16.096 13.7713 16.0852 13.8232 16.0852C13.9255 16.0852 14.0397 16.1269 14.16 16.2028C14.2807 16.279 14.4098 16.3911 14.5425 16.5358C14.9129 16.9394 15.2676 17.5467 15.5427 18.2449C15.8179 18.9425 15.9802 19.6468 15.9983 20.2286C16.0065 20.4892 15.9849 20.7114 15.9355 20.8825C15.8862 21.0529 15.8072 21.1789 15.6964 21.2353C15.6954 21.2358 15.6944 21.2362 15.6933 21.2367L15.693 21.2368C15.5821 21.2916 15.4469 21.2739 15.3024 21.2019C15.1567 21.1293 14.9962 20.9991 14.8305 20.8184C14.4601 20.4148 14.1053 19.8077 13.8303 19.11C13.5551 18.4119 13.3927 17.7074 13.3746 17.1256C13.3665 16.8647 13.3881 16.6422 13.4377 16.4711C13.4872 16.3005 13.5665 16.1746 13.6778 16.1185ZM13.2138 16.3809C13.2254 16.3922 13.2299 16.4101 13.2255 16.4266C13.1738 16.62 13.1502 16.8573 13.1589 17.1342C13.1778 17.7437 13.3459 18.4811 13.6333 19.2103C13.9206 19.9391 14.2932 20.5727 14.6811 20.9955C14.8577 21.1878 15.0294 21.3252 15.1913 21.4107C15.2052 21.418 15.214 21.4337 15.2138 21.4509C15.2137 21.468 15.2047 21.4835 15.1908 21.4906L14.2907 21.9456L14.2903 21.9458L14.2491 21.9672L14.2486 21.9675C14.1369 22.0237 13.9988 22.0044 13.8514 21.9298C13.7033 21.8548 13.5399 21.7212 13.3721 21.5365C13.0362 21.1669 12.6774 20.5872 12.3832 19.8413C12.0893 19.0952 11.9477 18.4054 11.929 17.8755C11.9196 17.6107 11.9408 17.3838 11.9903 17.2092C12.0395 17.0354 12.1188 16.9065 12.2301 16.8501L13.1718 16.3739C13.1858 16.3668 13.2022 16.3695 13.2138 16.3809ZM8.02548 17.4451C8.03951 17.438 8.05596 17.4407 8.06753 17.4521C8.28262 17.664 8.61254 17.842 9.02656 17.9669C9.44005 18.0916 9.93493 18.1627 10.4776 18.1627C10.8961 18.1627 11.3056 18.1172 11.6734 18.0309C11.6844 18.0284 11.6958 18.0312 11.7048 18.0386C11.7138 18.0461 11.7195 18.0575 11.7205 18.07C11.7541 18.4888 11.8533 18.9688 12.0191 19.477C12.0227 19.4882 12.0222 19.5006 12.0175 19.5113C12.0129 19.5221 12.0046 19.5302 11.9945 19.5339C11.5436 19.6992 11.0345 19.7835 10.4776 19.7835C9.75583 19.7835 9.1417 19.6488 8.70661 19.4522C8.48921 19.3539 8.31481 19.2394 8.19407 19.1169C8.07387 18.995 8.00243 18.8604 8.00243 18.7225C8.00243 18.7169 8.00176 18.7108 8.00054 18.7026C7.99982 18.6978 7.99982 18.6929 8.00054 18.6881C8.00177 18.6798 8.00243 18.6738 8.00243 18.6683V17.4852C8.00243 17.4679 8.01145 17.4522 8.02548 17.4451ZM8.02548 19.3114C8.03951 19.3043 8.05596 19.307 8.06753 19.3184C8.28261 19.5303 8.61254 19.7082 9.02656 19.8331C9.44004 19.9578 9.93492 20.0288 10.4776 20.0288C11.0655 20.0288 11.6025 19.9378 12.078 19.7607C12.0975 19.7534 12.1187 19.7643 12.1266 19.7856C12.1459 19.8375 12.1657 19.8896 12.1863 19.9417C12.3428 20.3383 12.5186 20.6944 12.7032 21.0033C12.7147 21.0225 12.711 21.0483 12.6947 21.0625C12.4812 21.2477 12.1573 21.3986 11.7734 21.5033C11.3888 21.6083 10.9411 21.6677 10.4776 21.6677C9.75582 21.6677 9.14169 21.533 8.7066 21.3362C8.4892 21.2379 8.31481 21.1234 8.19406 21.0008C8.07386 20.8788 8.00243 20.7441 8.00243 20.6062C8.00243 20.6008 8.00177 20.5948 8.00055 20.5867C7.99982 20.5819 7.99982 20.577 8.00054 20.5721C8.00178 20.5638 8.00243 20.5579 8.00243 20.5526V19.3514C8.00243 19.3342 8.01145 19.3185 8.02548 19.3114Z" fill="#CD7F32"/>
</svg>
