<svg width="24" height="24" viewBox="0 0 24 24" fill="none" xmlns="http://www.w3.org/2000/svg">
<path d="M17.8332 0.571413V6.85713C17.8332 6.85713 17.4909 6.52181 14.971 6.36491C14.1495 7.83989 13.1567 9.49724 12 11.2145C10.8433 9.49725 9.85061 7.83992 9.02922 6.36495C6.50989 6.52187 6.16768 6.85713 6.16768 6.85713V0.571413C6.16768 0.571413 2.11558 2.55612 0.147359 6.52549C-0.124135 7.07302 -0.00823492 7.7177 0.394385 8.18133C1.40472 9.34474 3.55002 11.7446 6.43447 14.5855C7.54178 12.6989 9.61967 11.4286 12.0004 11.4286C14.381 11.4286 16.4587 12.6987 17.5661 14.585C20.4502 11.7443 22.5953 9.34467 23.6056 8.18133C24.0082 7.7177 24.1241 7.07302 23.8526 6.52549C21.8844 2.55612 17.8332 0.571413 17.8332 0.571413Z" fill="#CCB7F2"/>
<path d="M6.16768 0.571413V6.85713C6.16768 6.85713 6.50989 6.52187 9.02922 6.36495C7.15037 2.9911 6.16768 0.571413 6.16768 0.571413Z" fill="#CCB7F2"/>
<path d="M17.8332 6.85713V0.571413C17.8332 0.571413 16.8501 2.99108 14.971 6.36491C17.4909 6.52181 17.8332 6.85713 17.8332 6.85713Z" fill="#CCB7F2"/>
<path d="M12.0004 0C7.9175 0 6.16768 0.571413 6.16768 0.571413C6.16768 0.571413 7.15037 2.9911 9.02922 6.36495C9.79895 6.31701 10.7719 6.28571 12.0004 6.28571C13.2286 6.28571 14.2014 6.31699 14.971 6.36491C16.8501 2.99108 17.8332 0.571413 17.8332 0.571413C17.8332 0.571413 16.0834 0 12.0004 0Z" fill="#E2D1FF"/>
<path d="M12.0004 24C15.5439 24 18.4165 21.1858 18.4165 17.7143C18.4165 16.575 18.107 15.5064 17.5661 14.585C16.4587 12.6987 14.381 11.4286 12.0004 11.4286C9.61967 11.4286 7.54178 12.6989 6.43447 14.5855C5.89369 15.5069 5.5844 16.5752 5.5844 17.7143C5.5844 21.1858 8.45695 24 12.0004 24Z" fill="#873DC1"/>
<path d="M11.7084 19.7641C12.1749 19.7641 12.5119 19.6888 12.7192 19.5383C12.9352 19.3877 13.0432 19.2033 13.0432 18.9849C13.0432 18.7892 12.9611 18.6311 12.797 18.5107C12.6328 18.3902 12.3866 18.2848 12.0583 18.1945L11.3456 17.9912C10.9914 17.8934 10.6717 17.788 10.3866 17.675C10.1015 17.5621 9.85961 17.4266 9.66091 17.2685C9.4622 17.1104 9.3067 16.9222 9.19438 16.7039C9.08207 16.4856 9.02592 16.2258 9.02592 15.9247C9.02592 15.4128 9.20734 14.9875 9.57019 14.6487C9.93305 14.3099 10.4514 14.0841 11.1253 13.9711V13.5612C11.1253 13.2778 11.3468 13.0232 11.6713 13.0051C11.7316 13.0017 11.7917 13 11.851 13C12.1706 13 12.3996 13.0489 12.5378 13.1468C12.6847 13.2447 12.7581 13.4216 12.7581 13.6775V13.926C13.311 13.9787 13.7603 14.0954 14.1058 14.276C14.4514 14.4492 14.6242 14.6788 14.6242 14.9649C14.6242 15.095 14.5874 15.2153 14.5239 15.3241C14.367 15.5929 13.9534 15.5782 13.6284 15.4744C13.539 15.4459 13.4433 15.4191 13.3413 15.394C13.013 15.3036 12.6544 15.2585 12.2657 15.2585C11.8337 15.2585 11.5097 15.3225 11.2937 15.4504C11.0864 15.5709 10.9827 15.729 10.9827 15.9247C10.9827 16.0828 11.0518 16.2108 11.1901 16.3087C11.3369 16.4065 11.5572 16.4969 11.851 16.5797L12.5767 16.7716C13.3542 16.9824 13.9503 17.261 14.365 17.6073C14.7883 17.9536 15 18.4203 15 19.0075C15 19.527 14.8099 19.9674 14.4298 20.3287C14.0497 20.6826 13.4924 20.9197 12.7581 21.0402V21.4388C12.7581 21.7222 12.5366 21.9769 12.2121 21.9949C12.1518 21.9983 12.0917 22 12.0324 22C11.7127 22 11.4795 21.9511 11.3326 21.8532C11.1944 21.7553 11.1253 21.5784 11.1253 21.3225V21.0966C10.4946 21.0364 9.98056 20.9046 9.58315 20.7014C9.19438 20.4906 9 20.2271 9 19.9109C9 19.7258 9.07465 19.565 9.19436 19.4299C9.40023 19.1976 9.78976 19.2513 10.083 19.3958C10.2076 19.4572 10.3434 19.5159 10.4903 19.5721C10.8445 19.7001 11.2505 19.7641 11.7084 19.7641Z" fill="#FFD700"/>
</svg>
