<svg width="24" height="24" viewBox="0 0 24 24" fill="none" xmlns="http://www.w3.org/2000/svg">
<path d="M17.8332 0.571413V6.85713C17.8332 6.85713 17.4909 6.52181 14.971 6.36491C14.1495 7.83989 13.1567 9.49724 12 11.2145C10.8433 9.49725 9.85061 7.83992 9.02922 6.36495C6.50989 6.52187 6.16768 6.85713 6.16768 6.85713V0.571413C6.16768 0.571413 2.11558 2.55612 0.147359 6.52549C-0.124135 7.07302 -0.00823492 7.7177 0.394385 8.18133C1.40472 9.34474 3.55002 11.7446 6.43447 14.5855C7.54178 12.6989 9.61967 11.4286 12.0004 11.4286C14.381 11.4286 16.4587 12.6987 17.5661 14.585C20.4502 11.7443 22.5953 9.34467 23.6056 8.18133C24.0082 7.7177 24.1241 7.07302 23.8526 6.52549C21.8844 2.55612 17.8332 0.571413 17.8332 0.571413Z" fill="#CCB7F2"/>
<path d="M6.16768 0.571413V6.85713C6.16768 6.85713 6.50989 6.52187 9.02922 6.36495C7.15037 2.9911 6.16768 0.571413 6.16768 0.571413Z" fill="#CCB7F2"/>
<path d="M17.8332 6.85713V0.571413C17.8332 0.571413 16.8501 2.99108 14.971 6.36491C17.4909 6.52181 17.8332 6.85713 17.8332 6.85713Z" fill="#CCB7F2"/>
<path d="M12.0004 0C7.9175 0 6.16768 0.571413 6.16768 0.571413C6.16768 0.571413 7.15037 2.9911 9.02922 6.36495C9.79895 6.31701 10.7719 6.28571 12.0004 6.28571C13.2286 6.28571 14.2014 6.31699 14.971 6.36491C16.8501 2.99108 17.8332 0.571413 17.8332 0.571413C17.8332 0.571413 16.0834 0 12.0004 0Z" fill="#E2D1FF"/>
<path fill-rule="evenodd" clip-rule="evenodd" d="M12.0004 24C15.5439 24 18.4165 21.1858 18.4165 17.7143C18.4165 16.575 18.107 15.5064 17.5661 14.585C16.4587 12.6987 14.381 11.4286 12.0004 11.4286C9.61967 11.4286 7.54178 12.6989 6.43447 14.5855C5.89369 15.5069 5.5844 16.5752 5.5844 17.7143C5.5844 21.1858 8.45695 24 12.0004 24Z" fill="#873DC1"/>
<path d="M16.899 16.5255L15.6724 14.4231C15.5396 14.1955 15.2959 14.0555 15.0323 14.0555H8.96769C8.70415 14.0555 8.46044 14.1955 8.32765 14.4231L7.10095 16.5255C6.93135 16.8162 6.97903 17.1847 7.21704 17.4226L11.6507 21.8553C11.8436 22.0482 12.1564 22.0482 12.3493 21.8553L16.783 17.4226C17.021 17.1847 17.0687 16.8162 16.899 16.5255Z" fill="white"/>
<path d="M14.9811 18.589C15.0634 18.3806 15.3585 18.3806 15.4407 18.589L15.7304 19.3236C15.7555 19.3872 15.8059 19.4376 15.8696 19.4627L16.6043 19.7524C16.8128 19.8346 16.8128 20.1296 16.6043 20.2118L15.8696 20.5015C15.8059 20.5266 15.7555 20.577 15.7304 20.6406L15.4407 21.3752C15.3585 21.5836 15.0634 21.5836 14.9811 21.3752L14.6914 20.6406C14.6663 20.577 14.6159 20.5266 14.5522 20.5015L13.8176 20.2118C13.6091 20.1296 13.6091 19.8346 13.8176 19.7524L14.5522 19.4627C14.6159 19.4376 14.6663 19.3872 14.6914 19.3236L14.9811 18.589Z" fill="#CCB7F2"/>
<path d="M10.7823 13.1563C10.8645 12.9479 11.1596 12.9479 11.2418 13.1563L11.7411 14.4222C11.7662 14.4858 11.8166 14.5362 11.8803 14.5613L13.1464 15.0605C13.3549 15.1427 13.3549 15.4377 13.1464 15.5199L11.8803 16.0192C11.8166 16.0443 11.7662 16.0947 11.7411 16.1583L11.2418 17.4241C11.1596 17.6326 10.8645 17.6326 10.7823 17.4241L10.2829 16.1583C10.2578 16.0947 10.2074 16.0443 10.1438 16.0192L8.87768 15.5199C8.66919 15.4377 8.66919 15.1427 8.87768 15.0605L10.1438 14.5613C10.2074 14.5362 10.2578 14.4858 10.2829 14.4222L10.7823 13.1563Z" fill="#CCB7F2"/>
</svg>
