<svg width="24" height="24" viewBox="0 0 24 24" fill="none" xmlns="http://www.w3.org/2000/svg">
<path d="M17.8332 0.571413V6.85713C17.8332 6.85713 17.4909 6.52181 14.971 6.36491C14.1495 7.83989 13.1567 9.49724 12 11.2145C10.8433 9.49725 9.85061 7.83992 9.02922 6.36495C6.50989 6.52187 6.16768 6.85713 6.16768 6.85713V0.571413C6.16768 0.571413 2.11558 2.55612 0.147359 6.52549C-0.124135 7.07302 -0.00823492 7.7177 0.394385 8.18133C1.40472 9.34474 3.55002 11.7446 6.43447 14.5855C7.54178 12.6989 9.61967 11.4286 12.0004 11.4286C14.381 11.4286 16.4587 12.6987 17.5661 14.585C20.4502 11.7443 22.5953 9.34467 23.6056 8.18133C24.0082 7.7177 24.1241 7.07302 23.8526 6.52549C21.8844 2.55612 17.8332 0.571413 17.8332 0.571413Z" fill="#CCB7F2"/>
<path d="M6.16768 0.571413V6.85713C6.16768 6.85713 6.50989 6.52187 9.02922 6.36495C7.15037 2.9911 6.16768 0.571413 6.16768 0.571413Z" fill="#CCB7F2"/>
<path fill-rule="evenodd" clip-rule="evenodd" d="M17.8332 0.571413C17.8332 0.571413 16.8501 2.99108 14.971 6.36491C17.4909 6.52181 17.8332 6.85713 17.8332 6.85713V0.571413Z" fill="#CCB7F2"/>
<path d="M12.0004 0C7.9175 0 6.16768 0.571413 6.16768 0.571413C6.16768 0.571413 7.15037 2.9911 9.02922 6.36495C9.79895 6.31701 10.7719 6.28571 12.0004 6.28571C13.2286 6.28571 14.2014 6.31699 14.971 6.36491C16.8501 2.99108 17.8332 0.571413 17.8332 0.571413C17.8332 0.571413 16.0834 0 12.0004 0Z" fill="#E2D1FF"/>
<path d="M12.0004 24C15.5439 24 18.4165 21.1858 18.4165 17.7143C18.4165 16.575 18.107 15.5064 17.5661 14.585C16.4587 12.6987 14.381 11.4286 12.0004 11.4286C9.61967 11.4286 7.54178 12.6989 6.43447 14.5855C5.89369 15.5069 5.5844 16.5752 5.5844 17.7143C5.5844 21.1858 8.45695 24 12.0004 24Z" fill="#873DC1"/>
<path fill-rule="evenodd" clip-rule="evenodd" d="M11.0685 13.5095C11.5724 12.8302 12.4275 12.8302 12.9314 13.5094C13.4846 14.255 14.1867 15.2944 14.7559 16.4394C15.0814 17.0941 15.0814 17.9059 14.7559 18.5606C14.1867 19.7056 13.4845 20.745 12.9314 21.4906C12.4275 22.1698 11.5724 22.1698 11.0685 21.4905C10.5155 20.745 9.81338 19.7057 9.24417 18.5608C8.91861 17.906 8.91861 17.094 9.24417 16.4392C9.81338 15.2943 10.5155 14.255 11.0685 13.5095ZM10.0057 17.5C10.7672 19.3034 11.9999 20.456 11.9999 20.456C11.9999 20.456 13.2332 19.3034 13.9944 17.5C13.912 17.3047 13.824 17.1169 13.7326 16.9375C12.9805 15.4604 11.9999 14.544 11.9999 14.544C11.9999 14.544 11.0198 15.4605 10.2676 16.9376C10.1762 17.117 10.0882 17.3047 10.0057 17.5Z" fill="#C0C0C0"/>
<path fill-rule="evenodd" clip-rule="evenodd" d="M9.76891 16.6402C9.76891 16.6402 9.97702 16.7674 10.2676 16.9376C10.8532 17.2806 11.7737 17.7977 12.0001 17.7977C12.2264 17.7977 13.1471 17.2805 13.7326 16.9375C14.023 16.7674 14.231 16.6402 14.231 16.6402L14.5101 17.7977C14.5101 17.7977 12.3387 19.2197 12 19.2197C11.6612 19.2197 9.48981 17.7977 9.48981 17.7977L9.76891 16.6402Z" fill="#C0C0C0"/>
<path d="M13.7326 16.9375C12.9805 15.4604 11.9999 14.544 11.9999 14.544C11.9999 14.544 11.0198 15.4605 10.2676 16.9376C10.8532 17.2806 11.7737 17.7977 12.0001 17.7977C12.2264 17.7977 13.1471 17.2805 13.7326 16.9375Z" fill="#C0C0C0"/>
</svg>
