<svg width="18" height="18" viewBox="0 0 18 18" fill="none" xmlns="http://www.w3.org/2000/svg">
<path d="M14.5546 3.07989H3.43342V13.1944H14.5546V3.07989Z" fill="white"/>
<path fill-rule="evenodd" clip-rule="evenodd" d="M18 9C18 13.9706 13.9706 18 9 18C4.02944 18 0 13.9706 0 9C0 4.02944 4.02944 0 9 0C13.9706 0 18 4.02944 18 9ZM6.44966 12.5815H4.70301C4.33599 12.5815 4.15469 12.5815 4.04415 12.5108C3.92476 12.4334 3.8518 12.3052 3.84295 12.1637C3.83631 12.0333 3.92697 11.874 4.10827 11.5557L8.42096 3.95395C8.60447 3.63115 8.69732 3.46975 8.8145 3.41005C8.94052 3.34594 9.09087 3.34594 9.2169 3.41005C9.33408 3.46975 9.42694 3.63115 9.61044 3.95395L10.5016 5.50951C10.6998 5.85581 10.8003 6.03143 10.8442 6.21574C10.8928 6.41694 10.8928 6.62919 10.8442 6.83039C10.7999 7.01611 10.7004 7.19299 10.4992 7.54453L8.2339 11.549L8.22804 11.5593C8.02853 11.9084 7.92742 12.0854 7.78729 12.2189C7.63473 12.3649 7.45122 12.4709 7.25002 12.5307C7.06651 12.5815 6.8609 12.5815 6.44966 12.5815ZM10.8605 12.5815H13.3633C13.7325 12.5815 13.9182 12.5815 14.0289 12.5087C14.1482 12.4313 14.2234 12.3008 14.2301 12.1593C14.2364 12.0332 14.1477 11.8801 13.974 11.5802C13.968 11.57 13.962 11.5596 13.9559 11.5491L12.7022 9.40446L12.688 9.38031C12.5118 9.08241 12.4229 8.93198 12.3087 8.87383C12.1827 8.80971 12.0345 8.80971 11.9085 8.87383C11.7935 8.93353 11.7007 9.0905 11.5172 9.40667L10.268 11.5513L10.2637 11.5587C10.0808 11.8743 9.98945 12.0321 9.99604 12.1615C10.0049 12.303 10.0778 12.4334 10.1972 12.5108C10.3056 12.5815 10.4913 12.5815 10.8605 12.5815Z" fill="#E5E5E5"/>
</svg>
