<svg width="18" height="18" viewBox="0 0 18 18" fill="none" xmlns="http://www.w3.org/2000/svg">
<path d="M5.50424 7.56378L8.99983 4.06827L12.4972 7.56558L14.5312 5.53158L8.99983 0L3.47034 5.52978L5.50424 7.56378ZM0 8.99972L2.03406 6.96566L4.06798 8.9996L2.03394 11.0336L0 8.99972ZM5.50424 10.4362L8.99983 13.9317L12.4971 10.4345L14.5322 12.4674L14.5312 12.4685L8.99983 18L3.46728 12.4675L5.50424 10.4362ZM13.932 9.00084L15.9661 6.96678L18 9.00071L15.966 11.0348L13.932 9.00084Z" fill="#F3BA2F"/>
<path d="M11.0629 8.99892L8.99982 6.93495L6.93775 8.99712L6.93487 8.99991L6.93775 9.00288L8.99982 11.065L11.0638 9.00108L11.0648 8.99991L11.0629 8.99892Z" fill="#F3BA2F"/>
</svg>
