<svg width="130" height="130" viewBox="0 0 130 130" fill="none" xmlns="http://www.w3.org/2000/svg">
<g filter="url(#filter0_d_590_29591)">
<path d="M89.3049 12.3809V38.5714C89.3049 38.5714 87.8788 37.1742 77.3791 36.5205C73.9562 42.6662 69.8197 49.5718 65 56.727C60.1803 49.5719 56.0442 42.6663 52.6218 36.5206C42.1246 37.1745 40.6987 38.5714 40.6987 38.5714V12.3809C40.6987 12.3809 23.8149 20.6505 15.614 37.1896C14.4828 39.4709 14.9657 42.1571 16.6433 44.0889C20.853 48.9364 29.7917 58.9359 41.8103 70.7729C46.4241 62.9122 55.082 57.619 65.0018 57.619C74.9207 57.619 83.5779 62.9112 88.1919 70.7707C100.209 58.9347 109.147 48.9361 113.357 44.0889C115.034 42.1571 115.517 39.4709 114.386 37.1896C106.185 20.6505 89.3049 12.3809 89.3049 12.3809Z" fill="#CCB7F2"/>
<path d="M40.6987 12.3809V38.5714C40.6987 38.5714 42.1246 37.1745 52.6218 36.5206C44.7932 22.4629 40.6987 12.3809 40.6987 12.3809Z" fill="#CCB7F2"/>
<path d="M89.3049 38.5714V12.3809C89.3049 12.3809 85.2087 22.4629 77.3791 36.5205C87.8788 37.1742 89.3049 38.5714 89.3049 38.5714Z" fill="#CCB7F2"/>
<path d="M65.0018 10C47.9896 10 40.6987 12.3809 40.6987 12.3809C40.6987 12.3809 44.7932 22.4629 52.6218 36.5206C55.829 36.3209 59.8829 36.1905 65.0018 36.1905C70.1192 36.1905 74.1723 36.3208 77.3791 36.5205C85.2087 22.4629 89.3049 12.3809 89.3049 12.3809C89.3049 12.3809 82.014 10 65.0018 10Z" fill="#E2D1FF"/>
<path d="M65.0018 110C79.7662 110 91.7352 98.2741 91.7352 83.8095C91.7352 79.0623 90.446 74.6102 88.1919 70.7707C83.5779 62.9112 74.9207 57.619 65.0018 57.619C55.082 57.619 46.4241 62.9122 41.8103 70.7729C39.557 74.6119 38.2683 79.0633 38.2683 83.8095C38.2683 98.2741 50.2373 110 65.0018 110Z" fill="#873DC1"/>
</g>
<path d="M63.7851 92.3498C65.7289 92.3498 67.1328 92.0361 67.9968 91.4088C68.8967 90.7814 69.3467 90.0129 69.3467 89.1033C69.3467 88.2877 69.0047 87.629 68.3207 87.1271C67.6368 86.6252 66.6109 86.1861 65.243 85.8097L62.2732 84.9628C60.7973 84.555 59.4654 84.1158 58.2775 83.6453C57.0896 83.1748 56.0817 82.6102 55.2538 81.9515C54.4258 81.2927 53.7779 80.5085 53.3099 79.5989C52.842 78.6892 52.608 77.607 52.608 76.3523C52.608 74.2193 53.3639 72.4471 54.8758 71.0355C56.3877 69.624 58.5475 68.683 61.3553 68.2124V66.5044C61.3553 65.3237 62.2782 64.2625 63.6304 64.1872C63.8818 64.1732 64.132 64.166 64.379 64.166C65.7109 64.166 66.6649 64.3699 67.2408 64.7777C67.8528 65.1855 68.1587 65.9226 68.1587 66.9891V68.0242C70.4626 68.2438 72.3344 68.73 73.7743 69.4828C75.2142 70.2043 75.9341 71.161 75.9341 72.353C75.9341 72.8951 75.7808 73.3963 75.5161 73.8498C74.8625 74.9699 73.1391 74.9084 71.7851 74.4761C71.4127 74.3572 71.0138 74.2454 70.5886 74.1409C69.2207 73.7645 67.7268 73.5763 66.1069 73.5763C64.3071 73.5763 62.9572 73.8429 62.0572 74.3762C61.1933 74.8781 60.7613 75.5368 60.7613 76.3523C60.7613 77.0111 61.0493 77.5443 61.6253 77.9521C62.2372 78.3599 63.1551 78.7363 64.379 79.0813L67.4028 79.8812C70.6425 80.7595 73.1263 81.9201 74.8542 83.363C76.6181 84.8059 77.5 86.7507 77.5 89.1974C77.5 91.3617 76.7081 93.1968 75.1242 94.7024C73.5403 96.1767 71.2185 97.1648 68.1587 97.6666V99.3276C68.1587 100.508 67.2359 101.57 65.8836 101.645C65.6324 101.659 65.3822 101.666 65.135 101.666C63.8031 101.666 62.8312 101.462 62.2192 101.054C61.6433 100.647 61.3553 99.9094 61.3553 98.8429V97.9019C58.7275 97.651 56.5857 97.102 54.9298 96.2551C53.3099 95.3768 52.5 94.2789 52.5 92.9615C52.5 92.19 52.8111 91.5202 53.3098 90.9574C54.1676 89.9895 55.7907 90.2133 57.0124 90.815C57.5317 91.0708 58.0974 91.3158 58.7095 91.55C60.1854 92.0832 61.8772 92.3498 63.7851 92.3498Z" fill="#CD7F32"/>
<defs>
<filter id="filter0_d_590_29591" x="0" y="0" width="130" height="130" filterUnits="userSpaceOnUse" color-interpolation-filters="sRGB">
<feFlood flood-opacity="0" result="BackgroundImageFix"/>
<feColorMatrix in="SourceAlpha" type="matrix" values="0 0 0 0 0 0 0 0 0 0 0 0 0 0 0 0 0 0 127 0" result="hardAlpha"/>
<feOffset dy="5"/>
<feGaussianBlur stdDeviation="7.5"/>
<feComposite in2="hardAlpha" operator="out"/>
<feColorMatrix type="matrix" values="0 0 0 0 0.803922 0 0 0 0 0.498039 0 0 0 0 0.196078 0 0 0 1 0"/>
<feBlend mode="normal" in2="BackgroundImageFix" result="effect1_dropShadow_590_29591"/>
<feBlend mode="normal" in="SourceGraphic" in2="effect1_dropShadow_590_29591" result="shape"/>
</filter>
</defs>
</svg>
