<svg width="16" height="16" viewBox="0 0 16 16" fill="none" xmlns="http://www.w3.org/2000/svg">
<path fill-rule="evenodd" clip-rule="evenodd" d="M1.71429 1.14286C1.56273 1.14286 1.41739 1.20306 1.31022 1.31022C1.20306 1.41739 1.14286 1.56273 1.14286 1.71429V12C1.14286 12.3156 0.88702 12.5714 0.571429 12.5714C0.255837 12.5714 0 12.3156 0 12V1.71429C0 1.25963 0.180612 0.823594 0.502103 0.502103C0.823594 0.180612 1.25963 0 1.71429 0H12C12.3156 0 12.5714 0.255837 12.5714 0.571429C12.5714 0.88702 12.3156 1.14286 12 1.14286H1.71429ZM4.57143 4C4.25584 4 4 4.25584 4 4.57143V14.2857C4 14.6013 4.25584 14.8571 4.57143 14.8571H14.2857C14.6013 14.8571 14.8571 14.6013 14.8571 14.2857V4.57143C14.8571 4.25584 14.6013 4 14.2857 4H4.57143ZM2.85714 4.57143C2.85714 3.62465 3.62465 2.85714 4.57143 2.85714H14.2857C15.2325 2.85714 16 3.62465 16 4.57143V14.2857C16 15.2325 15.2325 16 14.2857 16H4.57143C3.62465 16 2.85714 15.2325 2.85714 14.2857V4.57143Z" fill="#232428"/>
</svg>
