<svg width="16" height="16" viewBox="0 0 16 16" fill="none" xmlns="http://www.w3.org/2000/svg">
<path fill-rule="evenodd" clip-rule="evenodd" d="M8.54701 11.6239C8.49261 11.6239 8.44043 11.6455 8.40196 11.684C8.36349 11.7225 8.34188 11.7747 8.34188 11.8291V15.1111C8.34188 15.602 7.94391 16 7.45299 16C6.96207 16 6.5641 15.602 6.5641 15.1111V11.8291C6.5641 11.3032 6.77302 10.7988 7.14488 10.4269C7.51675 10.0551 8.02111 9.84615 8.54701 9.84615H9.64103C10.1669 9.84615 10.6713 10.0551 11.0432 10.4269C11.415 10.7988 11.6239 11.3032 11.6239 11.8291V15.1111C11.6239 15.602 11.226 16 10.735 16C10.2441 16 9.84615 15.602 9.84615 15.1111V11.8291C9.84615 11.7747 9.82454 11.7225 9.78607 11.684C9.7476 11.6455 9.69543 11.6239 9.64103 11.6239H8.54701Z" fill="#232428"/>
<path fill-rule="evenodd" clip-rule="evenodd" d="M3.96581 1.98291C3.96581 1.86962 4.05765 1.77778 4.17094 1.77778H14.0171C14.1304 1.77778 14.2222 1.86962 14.2222 1.98291V4.17094C14.2222 4.28423 14.1304 4.37607 14.0171 4.37607H4.17094C4.05765 4.37607 3.96581 4.28423 3.96581 4.17094V3.07692V1.98291ZM2.18803 3.96581V4.17094C2.18803 5.26607 3.07581 6.15385 4.17094 6.15385H14.0171C15.1122 6.15385 16 5.26607 16 4.17094V1.98291C16 0.887777 15.1122 0 14.0171 0H4.17094C3.07581 0 2.18803 0.887777 2.18803 1.98291V2.18803H1.98291C1.45701 2.18803 0.952647 2.39695 0.58078 2.76881C0.208913 3.14068 0 3.64504 0 4.17094V5.26496C0 6.08101 0.324175 6.86364 0.90121 7.44067C1.47825 8.01771 2.26087 8.34188 3.07692 8.34188H6.90598C7.25054 8.34188 7.58098 8.47875 7.82462 8.72239C8.06825 8.96603 8.20513 9.29647 8.20513 9.64103V10.735C8.20513 11.226 8.6031 11.6239 9.09402 11.6239C9.58494 11.6239 9.98291 11.226 9.98291 10.735V9.64103C9.98291 8.82498 9.65873 8.04235 9.0817 7.46531C8.50466 6.88828 7.72203 6.5641 6.90598 6.5641H3.07692C2.73237 6.5641 2.40193 6.42723 2.15829 6.18359C1.91465 5.93996 1.77778 5.60951 1.77778 5.26496V4.17094C1.77778 4.11654 1.79939 4.06436 1.83786 4.02589C1.87633 3.98742 1.9285 3.96581 1.98291 3.96581H2.18803ZM2.18803 3.96581H3.07692C3.56784 3.96581 3.96581 3.56784 3.96581 3.07692C3.96581 2.586 3.56784 2.18803 3.07692 2.18803H2.18803V3.96581Z" fill="#232428"/>
<path d="M3.96581 3.07692C3.96581 2.586 3.56784 2.18803 3.07692 2.18803H2.18803V3.96581H3.07692C3.56784 3.96581 3.96581 3.56784 3.96581 3.07692Z" fill="#232428"/>
</svg>
