<svg width="120" height="120" viewBox="0 0 120 120" fill="none" xmlns="http://www.w3.org/2000/svg">
<g filter="url(#filter0_d_590_29622)">
<path d="M79.4439 16.9047V37.8571C79.4439 37.8571 78.303 36.7394 69.9033 36.2164C67.1649 41.133 63.8557 46.6575 60 52.3816C56.1443 46.6575 52.8354 41.1331 50.0974 36.2165C41.6996 36.7396 40.5589 37.8571 40.5589 37.8571V16.9047C40.5589 16.9047 27.0519 23.5204 20.4912 36.7516C19.5862 38.5767 19.9726 40.7257 21.3146 42.2711C24.6824 46.1491 31.8334 54.1487 41.4482 63.6183C45.1393 57.3298 52.0656 53.0952 60.0014 53.0952C67.9365 53.0952 74.8623 57.329 78.5536 63.6165C88.1675 54.1477 95.3178 46.1489 98.6854 42.2711C100.027 40.7257 100.414 38.5767 99.5088 36.7516C92.9481 23.5204 79.4439 16.9047 79.4439 16.9047Z" fill="#CCB7F2"/>
<path d="M40.5589 16.9047V37.8571C40.5589 37.8571 41.6996 36.7396 50.0974 36.2165C43.8346 24.9703 40.5589 16.9047 40.5589 16.9047Z" fill="#CCB7F2"/>
<path d="M79.4439 37.8571V16.9047C79.4439 16.9047 76.1669 24.9703 69.9033 36.2164C78.303 36.7394 79.4439 37.8571 79.4439 37.8571Z" fill="#CCB7F2"/>
<path d="M60.0014 15C46.3917 15 40.5589 16.9047 40.5589 16.9047C40.5589 16.9047 43.8346 24.9703 50.0974 36.2165C52.6632 36.0567 55.9064 35.9524 60.0014 35.9524C64.0953 35.9524 67.3379 36.0566 69.9033 36.2164C76.1669 24.9703 79.4439 16.9047 79.4439 16.9047C79.4439 16.9047 73.6112 15 60.0014 15Z" fill="#E2D1FF"/>
<path fill-rule="evenodd" clip-rule="evenodd" d="M60.0014 95C71.813 95 81.3882 85.6193 81.3882 74.0476C81.3882 70.2499 80.3568 66.6881 78.5536 63.6165C74.8623 57.329 67.9365 53.0952 60.0014 53.0952C52.0656 53.0952 45.1393 57.3298 41.4482 63.6183C39.6456 66.6895 38.6147 70.2506 38.6147 74.0476C38.6147 85.6193 48.1898 95 60.0014 95Z" fill="#873DC1"/>
<path d="M76.3302 70.085L72.2412 63.0769C71.7985 62.3182 70.9862 61.8517 70.1077 61.8517H49.8923C49.0138 61.8517 48.2015 62.3182 47.7588 63.0769L43.6698 70.085C43.1045 71.054 43.2634 72.2822 44.0568 73.0754L58.8357 87.8511C59.4787 88.4941 60.5213 88.4941 61.1643 87.8511L75.9432 73.0754C76.7366 72.2822 76.8955 71.054 76.3302 70.085Z" fill="white"/>
<path d="M69.9372 76.9635C70.2113 76.2686 71.1948 76.2686 71.4689 76.9635L72.4348 79.4119C72.5185 79.624 72.6864 79.792 72.8986 79.8756L75.3476 80.8413C76.0426 81.1153 76.0426 82.0987 75.3476 82.3727L72.8986 83.3384C72.6864 83.4221 72.5185 83.59 72.4348 83.8021L71.4689 86.2506C71.1948 86.9454 70.2113 86.9454 69.9372 86.2506L68.9713 83.8021C68.8876 83.59 68.7197 83.4221 68.5075 83.3384L66.0585 82.3727C65.3635 82.0987 65.3635 81.1153 66.0585 80.8413L68.5075 79.8756C68.7197 79.792 68.8876 79.624 68.9713 79.4119L69.9372 76.9635Z" fill="#CCB7F2"/>
<path d="M55.9409 58.8545C56.215 58.1596 57.1985 58.1596 57.4726 58.8545L59.1371 63.0738C59.2208 63.286 59.3888 63.4539 59.6009 63.5376L63.8212 65.2017C64.5162 65.4757 64.5162 66.4591 63.8212 66.7332L59.6009 68.3973C59.3888 68.4809 59.2208 68.6488 59.1371 68.861L57.4726 73.0804C57.1985 73.7752 56.215 73.7752 55.9409 73.0804L54.2764 68.861C54.1927 68.6488 54.0248 68.4809 53.8126 68.3973L49.5923 66.7332C48.8973 66.4591 48.8973 65.4757 49.5923 65.2017L53.8126 63.5376C54.0247 63.4539 54.1927 63.286 54.2764 63.0738L55.9409 58.8545Z" fill="#CCB7F2"/>
</g>
<defs>
<filter id="filter0_d_590_29622" x="0" y="0" width="120" height="120" filterUnits="userSpaceOnUse" color-interpolation-filters="sRGB">
<feFlood flood-opacity="0" result="BackgroundImageFix"/>
<feColorMatrix in="SourceAlpha" type="matrix" values="0 0 0 0 0 0 0 0 0 0 0 0 0 0 0 0 0 0 127 0" result="hardAlpha"/>
<feOffset dy="5"/>
<feGaussianBlur stdDeviation="10"/>
<feComposite in2="hardAlpha" operator="out"/>
<feColorMatrix type="matrix" values="0 0 0 0 0.529412 0 0 0 0 0.239216 0 0 0 0 0.756863 0 0 0 1 0"/>
<feBlend mode="normal" in2="BackgroundImageFix" result="effect1_dropShadow_590_29622"/>
<feBlend mode="normal" in="SourceGraphic" in2="effect1_dropShadow_590_29622" result="shape"/>
</filter>
</defs>
</svg>
