<svg width="130" height="130" viewBox="0 0 130 130" fill="none" xmlns="http://www.w3.org/2000/svg">
<g filter="url(#filter0_d_590_29543)">
<path d="M89.3049 12.3809V38.5714C89.3049 38.5714 87.8788 37.1742 77.3791 36.5205C73.9562 42.6662 69.8197 49.5718 65 56.727C60.1803 49.5719 56.0442 42.6663 52.6218 36.5206C42.1246 37.1745 40.6987 38.5714 40.6987 38.5714V12.3809C40.6987 12.3809 23.8149 20.6505 15.614 37.1896C14.4828 39.4709 14.9657 42.1571 16.6433 44.0889C20.853 48.9364 29.7917 58.9359 41.8103 70.7729C46.4241 62.9122 55.082 57.619 65.0018 57.619C74.9207 57.619 83.5779 62.9112 88.1919 70.7707C100.209 58.9347 109.147 48.9361 113.357 44.0889C115.034 42.1571 115.517 39.4709 114.386 37.1896C106.185 20.6505 89.3049 12.3809 89.3049 12.3809Z" fill="#CCB7F2"/>
<path d="M40.6987 12.3809V38.5714C40.6987 38.5714 42.1246 37.1745 52.6218 36.5206C44.7932 22.4629 40.6987 12.3809 40.6987 12.3809Z" fill="#CCB7F2"/>
<path d="M89.3049 38.5714V12.3809C89.3049 12.3809 85.2087 22.4629 77.3791 36.5205C87.8788 37.1742 89.3049 38.5714 89.3049 38.5714Z" fill="#CCB7F2"/>
<path d="M65.0018 10C47.9896 10 40.6987 12.3809 40.6987 12.3809C40.6987 12.3809 44.7932 22.4629 52.6218 36.5206C55.829 36.3209 59.8829 36.1905 65.0018 36.1905C70.1192 36.1905 74.1723 36.3208 77.3791 36.5205C85.2087 22.4629 89.3049 12.3809 89.3049 12.3809C89.3049 12.3809 82.014 10 65.0018 10Z" fill="#E2D1FF"/>
<path d="M65.0018 110C79.7662 110 91.7352 98.2741 91.7352 83.8095C91.7352 79.0623 90.446 74.6102 88.1919 70.7707C83.5779 62.9112 74.9207 57.619 65.0018 57.619C55.082 57.619 46.4241 62.9122 41.8103 70.7729C39.557 74.6119 38.2683 79.0633 38.2683 83.8095C38.2683 98.2741 50.2373 110 65.0018 110Z" fill="#873DC1"/>
</g>
<path d="M63.7851 92.3488C65.7289 92.3488 67.1328 92.0352 67.9968 91.4078C68.8967 90.7805 69.3467 90.012 69.3467 89.1023C69.3467 88.2867 69.0047 87.628 68.3207 87.1261C67.6368 86.6243 66.6109 86.1851 65.243 85.8087L62.2732 84.9618C60.7973 84.554 59.4654 84.1148 58.2775 83.6443C57.0896 83.1738 56.0817 82.6092 55.2538 81.9505C54.4258 81.2918 53.7779 80.5076 53.3099 79.5979C52.842 78.6882 52.608 77.6061 52.608 76.3514C52.608 74.2184 53.3639 72.4461 54.8758 71.0345C56.3877 69.623 58.5475 68.682 61.3553 68.2115V66.5034C61.3553 65.3227 62.2782 64.2616 63.6304 64.1862C63.8818 64.1722 64.132 64.165 64.379 64.165C65.7109 64.165 66.6649 64.3689 67.2408 64.7767C67.8528 65.1845 68.1587 65.9216 68.1587 66.9881V68.0233C70.4626 68.2428 72.3344 68.729 73.7743 69.4819C75.2142 70.2033 75.9341 71.16 75.9341 72.352C75.9341 72.8941 75.7808 73.3953 75.5161 73.8488C74.8625 74.9689 73.1391 74.9074 71.7851 74.4751C71.4127 74.3562 71.0138 74.2445 70.5886 74.1399C69.2207 73.7635 67.7268 73.5753 66.1069 73.5753C64.3071 73.5753 62.9572 73.842 62.0572 74.3752C61.1933 74.8771 60.7613 75.5358 60.7613 76.3514C60.7613 77.0101 61.0493 77.5433 61.6253 77.9511C62.2372 78.3589 63.1551 78.7353 64.379 79.0803L67.4028 79.8802C70.6425 80.7585 73.1263 81.9191 74.8542 83.362C76.6181 84.8049 77.5 86.7497 77.5 89.1964C77.5 91.3608 76.7081 93.1958 75.1242 94.7014C73.5403 96.1757 71.2185 97.1638 68.1587 97.6657V99.3266C68.1587 100.507 67.2359 101.569 65.8836 101.644C65.6324 101.658 65.3822 101.665 65.135 101.665C63.8031 101.665 62.8312 101.461 62.2192 101.053C61.6433 100.646 61.3553 99.9084 61.3553 98.8419V97.9009C58.7275 97.65 56.5857 97.101 54.9298 96.2541C53.3099 95.3758 52.5 94.278 52.5 92.9605C52.5 92.189 52.8111 91.5192 53.3098 90.9564C54.1676 89.9885 55.7907 90.2123 57.0124 90.8141C57.5317 91.0698 58.0974 91.3148 58.7095 91.549C60.1854 92.0822 61.8772 92.3488 63.7851 92.3488Z" fill="#CCB7F2"/>
<defs>
<filter id="filter0_d_590_29543" x="0" y="0" width="130" height="130" filterUnits="userSpaceOnUse" color-interpolation-filters="sRGB">
<feFlood flood-opacity="0" result="BackgroundImageFix"/>
<feColorMatrix in="SourceAlpha" type="matrix" values="0 0 0 0 0 0 0 0 0 0 0 0 0 0 0 0 0 0 127 0" result="hardAlpha"/>
<feOffset dy="5"/>
<feGaussianBlur stdDeviation="7.5"/>
<feComposite in2="hardAlpha" operator="out"/>
<feColorMatrix type="matrix" values="0 0 0 0 0.8 0 0 0 0 0.717647 0 0 0 0 0.94902 0 0 0 1 0"/>
<feBlend mode="normal" in2="BackgroundImageFix" result="effect1_dropShadow_590_29543"/>
<feBlend mode="normal" in="SourceGraphic" in2="effect1_dropShadow_590_29543" result="shape"/>
</filter>
</defs>
</svg>
