<svg width="130" height="130" viewBox="0 0 130 130" fill="none" xmlns="http://www.w3.org/2000/svg">
<g filter="url(#filter0_d_590_29537)">
<path d="M89.3049 12.3809V38.5714C89.3049 38.5714 87.8788 37.1742 77.3791 36.5205C73.9562 42.6662 69.8197 49.5718 65 56.727C60.1803 49.5719 56.0442 42.6663 52.6218 36.5206C42.1246 37.1745 40.6987 38.5714 40.6987 38.5714V12.3809C40.6987 12.3809 23.8149 20.6505 15.614 37.1896C14.4828 39.4709 14.9657 42.1571 16.6433 44.0889C20.853 48.9364 29.7917 58.9359 41.8103 70.7729C46.4241 62.9122 55.082 57.619 65.0018 57.619C74.9207 57.619 83.5779 62.9112 88.1919 70.7707C100.209 58.9347 109.147 48.9361 113.357 44.0889C115.034 42.1571 115.517 39.4709 114.386 37.1896C106.185 20.6505 89.3049 12.3809 89.3049 12.3809Z" fill="#CCB7F2"/>
<path d="M40.6987 12.3809V38.5714C40.6987 38.5714 42.1246 37.1745 52.6218 36.5206C44.7932 22.4629 40.6987 12.3809 40.6987 12.3809Z" fill="#CCB7F2"/>
<path fill-rule="evenodd" clip-rule="evenodd" d="M89.3049 12.3809C89.3049 12.3809 85.2087 22.4629 77.3791 36.5205C87.8788 37.1742 89.3049 38.5714 89.3049 38.5714V12.3809Z" fill="#CCB7F2"/>
<path d="M65.0018 10C47.9896 10 40.6987 12.3809 40.6987 12.3809C40.6987 12.3809 44.7932 22.4629 52.6218 36.5206C55.829 36.3209 59.8829 36.1905 65.0018 36.1905C70.1192 36.1905 74.1723 36.3208 77.3791 36.5205C85.2087 22.4629 89.3049 12.3809 89.3049 12.3809C89.3049 12.3809 82.014 10 65.0018 10Z" fill="#E2D1FF"/>
<path d="M65.0018 110C79.7662 110 91.7352 98.2741 91.7352 83.8095C91.7352 79.0624 90.446 74.6102 88.1919 70.7707C83.5779 62.9112 74.9207 57.619 65.0018 57.619C55.082 57.619 46.4241 62.9122 41.8103 70.7729C39.557 74.6119 38.2683 79.0633 38.2683 83.8095C38.2683 98.2741 50.2373 110 65.0018 110Z" fill="#873DC1"/>
</g>
<path fill-rule="evenodd" clip-rule="evenodd" d="M61.1188 66.2878C63.2184 63.4575 66.7813 63.4574 68.8809 66.2876C71.1856 69.3943 74.1114 73.7252 76.483 78.4958C77.839 81.2236 77.839 84.6064 76.483 87.3342C74.1114 92.1049 71.1856 96.4358 68.8809 99.5424C66.7813 102.373 63.2184 102.373 61.1188 99.5422C58.8144 96.4358 55.8891 92.1053 53.5174 87.3351C52.1609 84.6068 52.1609 81.2232 53.5174 78.495C55.8891 73.7248 58.8144 69.3943 61.1188 66.2878ZM56.6905 82.915C59.8634 90.429 64.9998 95.2319 64.9998 95.2319C64.9998 95.2319 70.1382 90.429 73.3101 82.915C72.9665 82.1011 72.5998 81.319 72.2191 80.5713C69.0853 74.4169 64.9998 70.5982 64.9998 70.5982C64.9998 70.5982 60.9157 74.4171 57.7815 80.5718C57.4008 81.3193 57.0341 82.1013 56.6905 82.915Z" fill="#CCB7F2"/>
<path fill-rule="evenodd" clip-rule="evenodd" d="M55.7038 79.3324C55.7038 79.3324 56.5709 79.8627 57.7815 80.5718C60.2216 82.0008 64.0571 84.1557 65.0003 84.1557C65.9435 84.1557 69.7794 82.0004 72.2191 80.5713C73.4292 79.8625 74.2958 79.3324 74.2958 79.3324L75.4587 84.1557C75.4587 84.1557 66.4113 90.0804 64.9998 90.0804C63.5882 90.0804 54.5409 84.1557 54.5409 84.1557L55.7038 79.3324Z" fill="#CCB7F2"/>
<path d="M72.2191 80.5713C69.0853 74.4169 64.9998 70.5982 64.9998 70.5982C64.9998 70.5982 60.9157 74.4171 57.7815 80.5718C60.2216 82.0008 64.0571 84.1557 65.0003 84.1557C65.9435 84.1557 69.7794 82.0004 72.2191 80.5713Z" fill="#CCB7F2"/>
<defs>
<filter id="filter0_d_590_29537" x="0" y="0" width="130" height="130" filterUnits="userSpaceOnUse" color-interpolation-filters="sRGB">
<feFlood flood-opacity="0" result="BackgroundImageFix"/>
<feColorMatrix in="SourceAlpha" type="matrix" values="0 0 0 0 0 0 0 0 0 0 0 0 0 0 0 0 0 0 127 0" result="hardAlpha"/>
<feOffset dy="5"/>
<feGaussianBlur stdDeviation="7.5"/>
<feComposite in2="hardAlpha" operator="out"/>
<feColorMatrix type="matrix" values="0 0 0 0 0.8 0 0 0 0 0.717647 0 0 0 0 0.94902 0 0 0 1 0"/>
<feBlend mode="normal" in2="BackgroundImageFix" result="effect1_dropShadow_590_29537"/>
<feBlend mode="normal" in="SourceGraphic" in2="effect1_dropShadow_590_29537" result="shape"/>
</filter>
</defs>
</svg>
