<svg width="18" height="18" viewBox="0 0 18 18" fill="none" xmlns="http://www.w3.org/2000/svg">
<path d="M9 18C13.9706 18 18 13.9706 18 9C18 4.02944 13.9706 0 9 0C4.02944 0 0 4.02944 0 9C0 13.9706 4.02944 18 9 18Z" fill="#E5E5E5"/>
<path fill-rule="evenodd" clip-rule="evenodd" d="M9.675 7.25625L11.7 6.075V8.4375L9.675 7.25625ZM11.7 12.3187L9 13.8937L6.3 12.3187V9.5625L9 11.1375L11.7 9.5625V12.3187ZM6.3 6.075L8.325 7.25625L6.3 8.4375V6.075ZM9.3375 7.81875L11.3625 9L9.3375 10.1812V7.81875ZM8.6625 10.1812L6.6375 9L8.6625 7.81875V10.1812ZM11.3625 5.5125L9 6.8625L6.6375 5.5125L9 4.10625L11.3625 5.5125ZM5.625 5.2875V12.6562L9 14.5687L12.375 12.6562V5.2875L9 3.375L5.625 5.2875Z" fill="white"/>
</svg>
