<svg width="51" height="60" viewBox="0 0 51 60" fill="none" xmlns="http://www.w3.org/2000/svg">
<path fill-rule="evenodd" clip-rule="evenodd" d="M28.2093 6.11337C27.437 6.59884 26.5731 7.05687 25.5852 7.05687C23.3964 7.05687 22.0811 6.04985 21.1227 5.16697C20.9628 5.01962 20.8232 4.88666 20.6958 4.76538C20.4209 4.50353 20.2031 4.29614 19.9613 4.11604C19.65 3.88419 19.4296 3.8061 19.2098 3.8061C17.9645 3.8061 17.8234 4.14882 17.8003 4.20479L17.7999 4.20582C17.761 4.30017 17.7286 4.48052 17.7699 4.79759C17.8107 5.11063 17.9143 5.48937 18.0751 5.93304C18.3024 6.56012 18.6003 7.20784 18.9138 7.88956C19.0565 8.19973 19.2024 8.51694 19.3463 8.84244C19.765 9.78916 20.2098 10.8931 20.2098 11.836C20.2098 12.6545 20.8916 13.6593 22.5947 14.5189C24.2408 15.3498 26.5846 15.8927 29.2282 15.8927C31.8718 15.8927 34.2156 15.3498 35.8616 14.5189C37.5648 13.6593 38.2465 12.6545 38.2465 11.836C38.2465 8.94347 39.3443 6.29172 40.1241 4.4082C40.2103 4.20001 40.2926 4.00121 40.3691 3.8125C40.567 3.32428 40.7217 2.91794 40.8225 2.5772C40.901 2.31152 40.9314 2.13452 40.9387 2.02385C40.8718 2.01171 40.7675 2 40.6128 2C35.7984 2 32.8971 3.20782 30.8713 4.39179C30.2051 4.78118 29.6827 5.13397 29.1803 5.47336C28.8593 5.69015 28.5464 5.90147 28.2093 6.11337ZM29.8621 2.66508C32.1625 1.32061 35.4088 0 40.6128 0C41.1502 0 41.7105 0.0846147 42.166 0.397308C42.6801 0.750276 42.894 1.27352 42.9332 1.77977C42.9688 2.23933 42.8668 2.7169 42.7404 3.14432C42.6099 3.58566 42.4231 4.06927 42.2225 4.56392C42.1428 4.76049 42.0601 4.96141 41.9757 5.16648C41.1858 7.08496 40.2465 9.36616 40.2465 11.836C40.2465 13.8103 38.6856 15.3339 36.7628 16.3044C34.7829 17.3037 32.1176 17.8927 29.2282 17.8927C26.3388 17.8927 23.6734 17.3037 21.6935 16.3044C19.7708 15.3339 18.2098 13.8103 18.2098 11.836C18.2098 11.3826 17.9631 10.6595 17.5172 9.65134C17.4006 9.38763 17.2712 9.1062 17.1375 8.81531C16.8078 8.09798 16.4516 7.32313 16.1948 6.6145C16.0098 6.10397 15.854 5.57216 15.7867 5.0561C15.72 4.54408 15.7308 3.97678 15.9512 3.44277C16.4482 2.23871 17.6964 1.8061 19.2098 1.8061C20.0151 1.8061 20.6489 2.13436 21.156 2.51203C21.5008 2.76884 21.8543 3.10539 22.1678 3.40382C22.2766 3.50745 22.3806 3.60649 22.4778 3.696C23.2838 4.4385 24.131 5.05687 25.5852 5.05687C25.9635 5.05687 26.4089 4.88278 27.145 4.42009C27.3721 4.27734 27.6438 4.09477 27.9476 3.89074C28.5045 3.51657 29.1689 3.07024 29.8621 2.66508ZM17.5642 15.3768C17.9439 15.051 18.5058 15.056 18.8797 15.3883C21.0133 17.285 24.8907 18.6396 29.4444 18.6396C33.7112 18.6396 37.3961 17.4492 39.6005 15.7284C39.9783 15.4335 40.5123 15.4482 40.8734 15.7634C45.5128 19.8132 50 25.5571 50 32.678C50 36.1284 49.3767 39.103 47.7055 41.8469C49.5738 42.1096 51 43.7269 51 45.6667C51 47.0441 50.2449 48.2936 49.1957 48.9407L34.7185 57.8516C32.4361 59.2558 29.8141 60 27.1396 60C25.2856 60 23.45 59.6428 21.7294 58.9482L7.60377 53.2407V53.2857C7.60377 54.8814 6.32063 56.1905 4.71698 56.1905H0V54.1905H4.71698C5.19823 54.1905 5.60377 53.7948 5.60377 53.2857V40.9048C5.60377 40.3957 5.19823 40 4.71698 40H0V38H4.71698C6.32063 38 7.60377 39.3091 7.60377 40.9048V40.9503L9.49423 40.1006C8.37863 37.7594 8 35.4161 8 32.678C8 32.6681 8.00015 32.6582 8.00044 32.6483C8.22078 25.2323 12.8661 19.4077 17.5642 15.3768ZM10.5286 41.8284L7.60377 43.1431V51.0836L22.4781 57.0937C23.9613 57.6924 25.5427 58 27.1396 58C29.4425 58 31.7017 57.3594 33.6702 56.1484L48.1458 47.2384C48.6193 46.9464 49 46.3331 49 45.6667C49 44.6319 48.1718 43.8095 47.1698 43.8095C47.0283 43.8095 46.9625 43.8113 46.8943 43.8215C46.8367 43.83 46.7562 43.8483 46.6323 43.9007L35.8586 48.8755C35.8895 49.0696 35.9057 49.27 35.9057 49.4762C35.9057 51.5976 34.1999 53.3333 32.0755 53.3333C31.7947 53.3333 31.4885 53.3069 31.1786 53.2247L19.7622 50.2048L20.2736 48.2713L31.6906 51.2913C31.7902 51.3177 31.9166 51.3333 32.0755 51.3333C33.0775 51.3333 33.9057 50.511 33.9057 49.4762C33.9057 48.7045 33.4043 48.0296 32.6304 47.7034L18.4833 41.7358C17.2569 41.2189 15.9408 40.9524 14.6123 40.9524C13.2057 40.9524 11.8142 41.2509 10.5286 41.8284ZM35.0276 47.0563L44.9941 42.4542L44.8902 42.3699C47.1624 39.5699 48 36.5492 48 32.678C48 26.703 44.3876 21.6525 40.1497 17.7972C37.4996 19.5703 33.6511 20.6396 29.4444 20.6396C24.9746 20.6396 20.8972 19.4312 18.2398 17.4441C13.9627 21.2776 10.192 26.4216 10 32.6929C10.0014 35.2693 10.3617 37.3401 11.3766 39.3988C12.4273 39.1034 13.5158 38.9524 14.6123 38.9524C16.2083 38.9524 17.7884 39.2725 19.2601 39.8928L33.4073 45.8604C34.0249 46.1208 34.591 46.5297 35.0276 47.0563Z" fill="#7C7C7C"/>
<path d="M17 27.5V34.2143C17 34.8048 17.0868 35.3238 17.2603 35.7714C17.4338 36.219 17.6767 36.5952 17.989 36.9C18.3013 37.2048 18.67 37.4333 19.0951 37.5857C19.5202 37.7476 19.9843 37.8286 20.4875 37.8286C20.982 37.8286 21.4418 37.7476 21.8669 37.5857C22.292 37.4333 22.6607 37.2048 22.973 36.9C23.294 36.5952 23.5412 36.219 23.7147 35.7714C23.8882 35.3238 23.975 34.8048 23.975 34.2143V27.5H22.1141V34.0857C22.1141 34.6571 21.9753 35.119 21.6977 35.4714C21.4288 35.8143 21.0254 35.9857 20.4875 35.9857C19.9496 35.9857 19.5419 35.8143 19.2643 35.4714C18.9953 35.119 18.8609 34.6571 18.8609 34.0857V27.5H17Z" fill="#873DC1"/>
<path d="M32.3522 27.5V33.7L25.8717 27V37.5H27.6675V31.3L34.148 38V27.5H32.3522Z" fill="#873DC1"/>
<path fill-rule="evenodd" clip-rule="evenodd" d="M36.1271 27.5V37.5H37.3243H38.027H39.2242C40.1785 37.5 41.0113 37.2952 41.7227 36.8857C42.4428 36.4762 43.0023 35.9 43.4014 35.1571C43.8005 34.4048 44 33.519 44 32.5C44 31.481 43.8005 30.6 43.4014 29.8571C43.0023 29.1048 42.4428 28.5238 41.7227 28.1143C41.0113 27.7048 40.1785 27.5 39.2242 27.5H38.027H37.3243H36.1271ZM40.2913 29.5429C39.9356 29.419 39.5582 29.3571 39.1592 29.3571H38.027V35.6429H39.1592C39.5582 35.6429 39.9356 35.5857 40.2913 35.4714C40.647 35.3476 40.9593 35.1571 41.2282 34.9C41.4972 34.6429 41.7054 34.319 41.8529 33.9286C42.009 33.5286 42.0871 33.0524 42.0871 32.5C42.0871 31.9476 42.009 31.4762 41.8529 31.0857C41.7054 30.6857 41.4972 30.3571 41.2282 30.1C40.9593 29.8429 40.647 29.6571 40.2913 29.5429Z" fill="#873DC1"/>
</svg>
