<svg width="16" height="16" viewBox="0 0 16 16" fill="none" xmlns="http://www.w3.org/2000/svg">
<path fill-rule="evenodd" clip-rule="evenodd" d="M8 1C4.13401 1 1 4.13401 1 8C1 11.866 4.13401 15 8 15C11.866 15 15 11.866 15 8C15 4.13401 11.866 1 8 1ZM0 8C0 3.58172 3.58172 0 8 0C12.4183 0 16 3.58172 16 8C16 12.4183 12.4183 16 8 16C3.58172 16 0 12.4183 0 8ZM6.66664 5.50004C6.66664 5.2239 6.8905 5.00004 7.16664 5.00004H10.5C10.7761 5.00004 11 5.2239 11 5.50004V8.83337C11 9.10951 10.7761 9.33337 10.5 9.33337C10.2238 9.33337 9.99997 9.10951 9.99997 8.83337V6.70714L5.85348 10.8536C5.65821 11.0489 5.34163 11.0489 5.14637 10.8536C4.95111 10.6583 4.95111 10.3417 5.14637 10.1465L9.29286 6.00004H7.16664C6.8905 6.00004 6.66664 5.77618 6.66664 5.50004Z" fill="#5D3F92"/>
</svg>
