<svg width="16" height="17" viewBox="0 0 16 17" fill="none" xmlns="http://www.w3.org/2000/svg">
<path fill-rule="evenodd" clip-rule="evenodd" d="M8 15.5C11.866 15.5 15 12.366 15 8.5C15 4.63401 11.866 1.5 8 1.5C4.13401 1.5 1 4.63401 1 8.5C1 12.366 4.13401 15.5 8 15.5ZM16 8.5C16 12.9183 12.4183 16.5 8 16.5C3.58172 16.5 0 12.9183 0 8.5C0 4.08172 3.58172 0.5 8 0.5C12.4183 0.5 16 4.08172 16 8.5ZM9.33336 11C9.33336 11.2761 9.1095 11.5 8.83336 11.5H5.50003C5.22388 11.5 5.00003 11.2761 5.00003 11V7.66663C5.00003 7.39049 5.22388 7.16663 5.50003 7.16663C5.77617 7.16663 6.00003 7.39049 6.00003 7.66663V9.79286L10.1465 5.64641C10.3418 5.45115 10.6584 5.45115 10.8536 5.64641C11.0489 5.84167 11.0489 6.15826 10.8536 6.35352L6.70714 10.5H8.83336C9.1095 10.5 9.33336 10.7238 9.33336 11Z" fill="#5D3F92"/>
</svg>
