<svg width="18" height="18" viewBox="0 0 18 18" fill="none" xmlns="http://www.w3.org/2000/svg">
<path fill-rule="evenodd" clip-rule="evenodd" d="M4.16264 13.3156C4.71492 13.3156 5.16264 13.7634 5.16264 14.3156V17C5.16264 17.5523 4.71492 18 4.16264 18C3.61035 18 3.16264 17.5523 3.16264 17V14.3156C3.16264 13.7634 3.61035 13.3156 4.16264 13.3156Z" fill="#232428"/>
<path fill-rule="evenodd" clip-rule="evenodd" d="M5.16264 1C5.16264 0.447715 4.71492 0 4.16264 0C3.61035 0 3.16264 0.447715 3.16264 1V2.69907C2.517 2.82807 1.90799 3.11762 1.39518 3.54854C0.603351 4.21395 0.104084 5.16338 0.00463342 6.19288C-0.00182463 6.25974 -0.00153102 6.32707 0.00550954 6.39386C0.113404 7.41745 0.613957 8.35933 1.40193 9.0215C2.18991 9.68366 3.20393 10.0145 4.2308 9.94453C4.74124 9.90973 5.24528 10.0742 5.63696 10.4033C6.00159 10.7098 6.2424 11.1367 6.3172 11.6047C6.2424 12.0726 6.00159 12.4995 5.63696 12.806C5.24528 13.1351 4.74124 13.2996 4.2308 13.2648C4.19429 13.2623 4.15768 13.2618 4.12112 13.2633C3.77081 13.2779 3.42181 13.2121 3.10089 13.0709C2.77997 12.9297 2.49566 12.7169 2.26976 12.4487C1.91393 12.0264 1.28307 11.9724 0.860691 12.3282C0.438315 12.6841 0.384372 13.3149 0.740205 13.7373C1.1629 14.2391 1.69491 14.6373 2.29542 14.9015C2.87926 15.1584 3.51278 15.282 4.14992 15.2635C5.15789 15.3182 6.14978 14.9874 6.92365 14.3371C7.71163 13.6749 8.21218 12.7331 8.32007 11.7095C8.32742 11.6398 8.32742 11.5695 8.32007 11.4998C8.21218 10.4762 7.71163 9.53435 6.92365 8.87219C6.13567 8.21002 5.12165 7.87916 4.09478 7.94916C3.58435 7.98395 3.0803 7.81949 2.68862 7.49034C2.32288 7.183 2.08171 6.75443 2.0077 6.28476C2.07775 5.81546 2.31684 5.38645 2.68187 5.0797C3.07279 4.75119 3.57697 4.58911 4.08609 4.62828C4.13193 4.63181 4.17796 4.63217 4.22386 4.62936C4.57037 4.60816 4.91728 4.66404 5.23962 4.79298C5.56196 4.92191 5.8517 5.1207 6.08801 5.37503C6.46394 5.77962 7.09668 5.80286 7.50127 5.42694C7.90587 5.05101 7.92911 4.41827 7.55319 4.01368C7.11567 3.54279 6.5792 3.17474 5.9824 2.93602C5.7168 2.82978 5.44219 2.75033 5.16264 2.69833V1ZM5.16264 2.69833C4.83636 2.63763 4.50337 2.61433 4.17012 2.62945C3.83004 2.6093 3.49158 2.63335 3.16264 2.69907V3.49834C3.16264 4.05062 3.61035 4.49834 4.16264 4.49834C4.71492 4.49834 5.16264 4.05062 5.16264 3.49834V2.69833Z" fill="#232428"/>
<path d="M4.16264 4.49834C4.71492 4.49834 5.16264 4.05062 5.16264 3.49834V2.69833C4.83636 2.63763 4.50337 2.61433 4.17012 2.62945C3.83004 2.6093 3.49158 2.63335 3.16264 2.69907V3.49834C3.16264 4.05062 3.61035 4.49834 4.16264 4.49834Z" fill="#232428"/>
</svg>
