<svg width="18" height="16" viewBox="0 0 18 16" fill="none" xmlns="http://www.w3.org/2000/svg">
<path fill-rule="evenodd" clip-rule="evenodd" d="M7.49887 0.736991C7.96047 -0.245662 9.38279 -0.245665 9.8444 0.73699L11.6796 4.6437L16.0306 5.15026C17.125 5.27767 17.5646 6.60591 16.7554 7.34064L13.5386 10.2617L14.3925 14.4815C14.6073 15.5429 13.4566 16.3638 12.4949 15.8352L8.67163 13.7338L4.84834 15.8352C3.88667 16.3638 2.73598 15.5429 2.95076 14.4815L3.80467 10.2617L0.587839 7.34064C-0.22129 6.60592 0.218229 5.27767 1.31265 5.15026L5.66369 4.6437L7.49887 0.736991ZM8.67163 2.48429L7.18589 5.64712C6.99776 6.04761 6.61122 6.32336 6.16519 6.37529L2.64263 6.78539L5.24695 9.15024L4.6324 9.80275L5.24695 9.15024C5.57671 9.44968 5.72435 9.89586 5.63682 10.3284L4.9455 13.7447L8.0408 12.0434C8.43274 11.828 8.91052 11.828 9.30246 12.0434L12.3978 13.7447L11.7064 10.3284C11.6189 9.89585 11.7665 9.44968 12.0963 9.15024L14.7006 6.78539L11.1781 6.37529C10.732 6.32336 10.3455 6.04761 10.1574 5.64712L10.9793 5.27487L10.1574 5.64712L8.67163 2.48429Z" fill="#232428"/>
</svg>
