<svg width="130" height="130" viewBox="0 0 130 130" fill="none" xmlns="http://www.w3.org/2000/svg">
<g filter="url(#filter0_d_590_29558)">
<path d="M89.3049 12.3809V38.5714C89.3049 38.5714 87.8788 37.1742 77.3791 36.5205C73.9562 42.6662 69.8197 49.5718 65 56.727C60.1803 49.5719 56.0442 42.6663 52.6218 36.5206C42.1246 37.1745 40.6987 38.5714 40.6987 38.5714V12.3809C40.6987 12.3809 23.8149 20.6505 15.614 37.1896C14.4828 39.4709 14.9657 42.1571 16.6433 44.0889C20.853 48.9364 29.7917 58.9359 41.8103 70.7729C46.4241 62.9122 55.082 57.619 65.0018 57.619C74.9207 57.619 83.5779 62.9112 88.1919 70.7707C100.209 58.9347 109.147 48.9361 113.357 44.0889C115.034 42.1571 115.517 39.4709 114.386 37.1896C106.185 20.6505 89.3049 12.3809 89.3049 12.3809Z" fill="#CCB7F2"/>
<path d="M40.6987 12.3809V38.5714C40.6987 38.5714 42.1246 37.1745 52.6218 36.5206C44.7932 22.4629 40.6987 12.3809 40.6987 12.3809Z" fill="#CCB7F2"/>
<path d="M89.3049 38.5714V12.3809C89.3049 12.3809 85.2087 22.4629 77.3791 36.5205C87.8788 37.1742 89.3049 38.5714 89.3049 38.5714Z" fill="#CCB7F2"/>
<path d="M65.0018 10C47.9896 10 40.6987 12.3809 40.6987 12.3809C40.6987 12.3809 44.7932 22.4629 52.6218 36.5206C55.829 36.3209 59.8829 36.1905 65.0018 36.1905C70.1192 36.1905 74.1723 36.3208 77.3791 36.5205C85.2087 22.4629 89.3049 12.3809 89.3049 12.3809C89.3049 12.3809 82.014 10 65.0018 10Z" fill="#E2D1FF"/>
<path d="M65.0018 110C79.7662 110 91.7352 98.2741 91.7352 83.8095C91.7352 79.0623 90.446 74.6102 88.1919 70.7707C83.5779 62.9112 74.9207 57.619 65.0018 57.619C55.082 57.619 46.4241 62.9122 41.8103 70.7729C39.557 74.6119 38.2683 79.0633 38.2683 83.8095C38.2683 98.2741 50.2373 110 65.0018 110Z" fill="#873DC1"/>
</g>
<path d="M77.3576 101.616C77.8785 101.573 78.2366 101.192 78.2719 100.67C78.3043 100.191 78.3325 99.453 78.3325 98.335C78.3325 97.2169 78.3043 96.4789 78.2719 95.9998C78.2366 95.4782 77.8785 95.0967 77.3576 95.0537C77.0031 95.0245 76.5095 95.0016 75.8325 95.0016C75.1556 95.0016 74.6619 95.0245 74.3074 95.0537C73.7865 95.0967 73.4285 95.4782 73.3932 95.9998C73.3607 96.4789 73.3325 97.2169 73.3325 98.335C73.3325 99.453 73.3607 100.191 73.3932 100.67C73.4285 101.192 73.7865 101.573 74.3074 101.616C74.6619 101.645 75.1556 101.668 75.8325 101.668C76.5095 101.668 77.0031 101.645 77.3576 101.616Z" fill="#C0C0C0"/>
<path d="M55.6909 101.616C56.2119 101.573 56.5699 101.192 56.6052 100.67C56.6376 100.191 56.6659 99.453 56.6659 98.335C56.6659 97.2169 56.6376 96.4789 56.6052 95.9998C56.5699 95.4782 56.2119 95.0967 55.6909 95.0537C55.3365 95.0245 54.8428 95.0016 54.1659 95.0016C53.4889 95.0016 52.9952 95.0245 52.6408 95.0537C52.1198 95.0967 51.7618 95.4782 51.7265 95.9998C51.6941 96.4789 51.6659 97.2169 51.6659 98.335C51.6659 99.453 51.6941 100.191 51.7265 100.67C51.7618 101.192 52.1198 101.573 52.6408 101.616C52.9952 101.645 53.4889 101.668 54.1659 101.668C54.8428 101.668 55.3365 101.645 55.6909 101.616Z" fill="#C0C0C0"/>
<path d="M48.7871 96.1647C48.9394 97.6074 49.9004 98.7327 51.3227 99.0186C53.5511 99.4666 57.7332 100.002 64.9992 100.002C72.2652 100.002 76.4473 99.4666 78.6756 99.0186C80.0979 98.7327 81.0589 97.6074 81.2112 96.1647C81.4269 94.1218 81.6658 90.4427 81.6658 84.1683C81.6658 77.8939 81.4269 74.2148 81.2112 72.1719C81.0589 70.7291 80.0979 69.6039 78.6756 69.318C76.4473 68.8699 72.2652 68.335 64.9992 68.335C57.7332 68.335 53.5511 68.8699 51.3227 69.318C49.9004 69.6039 48.9394 70.7292 48.7871 72.1719C48.5715 74.2148 48.3325 77.8939 48.3325 84.1683C48.3325 90.4427 48.5715 94.1218 48.7871 96.1647Z" fill="white"/>
<path d="M51.981 75.1823C52.1165 73.7351 53.084 72.6125 54.5152 72.3586C56.3905 72.0259 59.6504 71.6683 64.9992 71.6683C70.348 71.6683 73.6078 72.0259 75.4831 72.3586C76.9143 72.6125 77.8818 73.7351 78.0174 75.1823C78.1753 76.8691 78.3325 79.6762 78.3325 84.1683C78.3325 88.6604 78.1753 91.4675 78.0174 93.1542C77.8818 94.6015 76.9143 95.7241 75.4831 95.978C73.6078 96.3107 70.348 96.6683 64.9992 96.6683C59.6504 96.6683 56.3905 96.3107 54.5152 95.978C53.084 95.7241 52.1165 94.6015 51.981 93.1542C51.8231 91.4675 51.6659 88.6604 51.6659 84.1683C51.6659 79.6762 51.8231 76.8691 51.981 75.1823Z" fill="#C0C0C0"/>
<path d="M71.6658 84.1683C71.6658 87.8502 68.6811 90.835 64.9992 90.835C61.3173 90.835 58.3325 87.8502 58.3325 84.1683C58.3325 80.4864 61.3173 77.5016 64.9992 77.5016C68.6811 77.5016 71.6658 80.4864 71.6658 84.1683Z" fill="white"/>
<path d="M68.3325 84.1683C68.3325 86.0092 66.8401 87.5016 64.9992 87.5016C63.1582 87.5016 61.6659 86.0092 61.6659 84.1683C61.6659 82.3273 63.1582 80.835 64.9992 80.835C66.8401 80.835 68.3325 82.3273 68.3325 84.1683Z" fill="#C0C0C0"/>
<path d="M79.9698 77.6239C79.9379 77.1003 79.5648 76.7355 79.0411 76.7049C78.6864 76.6842 78.1893 76.6683 77.4992 76.6683C76.809 76.6683 76.3119 76.6842 75.9573 76.7049C75.4336 76.7355 75.0605 77.1003 75.0286 77.6239C75.0115 77.905 74.9992 78.2734 74.9992 78.7516C74.9992 79.2298 75.0115 79.5983 75.0286 79.8794C75.0605 80.403 75.4336 80.7678 75.9573 80.7983C76.3119 80.819 76.809 80.835 77.4992 80.835C78.1893 80.835 78.6864 80.819 79.0411 80.7983C79.5648 80.7678 79.9379 80.403 79.9698 79.8794C79.9869 79.5983 79.9992 79.2298 79.9992 78.7516C79.9992 78.2734 79.9869 77.905 79.9698 77.6239Z" fill="#C0C0C0"/>
<path d="M79.9698 90.7127C79.9379 91.2363 79.5648 91.6011 79.0411 91.6317C78.6864 91.6524 78.1893 91.6683 77.4992 91.6683C76.809 91.6683 76.3119 91.6524 75.9573 91.6317C75.4336 91.6011 75.0605 91.2363 75.0286 90.7127C75.0115 90.4316 74.9992 90.0632 74.9992 89.585C74.9992 89.1067 75.0115 88.7383 75.0286 88.4572C75.0605 87.9336 75.4336 87.5688 75.9573 87.5383C76.3119 87.5175 76.809 87.5016 77.4992 87.5016C78.1893 87.5016 78.6864 87.5175 79.0411 87.5383C79.5648 87.5688 79.9379 87.9336 79.9698 88.4572C79.9869 88.7383 79.9992 89.1067 79.9992 89.585C79.9992 90.0632 79.9869 90.4316 79.9698 90.7127Z" fill="#C0C0C0"/>
<defs>
<filter id="filter0_d_590_29558" x="0" y="0" width="130" height="130" filterUnits="userSpaceOnUse" color-interpolation-filters="sRGB">
<feFlood flood-opacity="0" result="BackgroundImageFix"/>
<feColorMatrix in="SourceAlpha" type="matrix" values="0 0 0 0 0 0 0 0 0 0 0 0 0 0 0 0 0 0 127 0" result="hardAlpha"/>
<feOffset dy="5"/>
<feGaussianBlur stdDeviation="7.5"/>
<feComposite in2="hardAlpha" operator="out"/>
<feColorMatrix type="matrix" values="0 0 0 0 0.752941 0 0 0 0 0.752941 0 0 0 0 0.752941 0 0 0 1 0"/>
<feBlend mode="normal" in2="BackgroundImageFix" result="effect1_dropShadow_590_29558"/>
<feBlend mode="normal" in="SourceGraphic" in2="effect1_dropShadow_590_29558" result="shape"/>
</filter>
</defs>
</svg>
