<svg width="60" height="60" viewBox="0 0 60 60" fill="none" xmlns="http://www.w3.org/2000/svg">
<path fill-rule="evenodd" clip-rule="evenodd" d="M12.9998 6.13023C12.9998 2.72816 15.8103 0 19.2402 0H53.7593C57.1892 0 59.9998 2.72816 59.9998 6.13023V36.8698C59.9998 40.2718 57.1892 43 53.7593 43H28.6991C28.1412 43 27.6889 42.5492 27.6889 41.993C27.6889 41.4369 28.1412 40.986 28.6991 40.986H53.7593C56.1065 40.986 57.9792 39.1267 57.9792 36.8698V34.8028H39.3069C38.749 34.8028 38.2967 34.352 38.2967 33.7958C38.2967 33.2397 38.749 32.7888 39.3069 32.7888H57.9792V31.1283L41.6897 16.4631L34.7698 22.693L26.9849 15.6844L15.0203 26.4559V32.7888H26.5624C27.1204 32.7888 27.5727 33.2397 27.5727 33.7958C27.5727 34.352 27.1204 34.8028 26.5624 34.8028H15.0203V36.8698C15.0203 39.1267 16.893 40.986 19.2402 40.986H20.8092C21.3672 40.986 21.8195 41.4369 21.8195 41.993C21.8195 42.5492 21.3672 43 20.8092 43H19.2402C15.8103 43 12.9998 40.2718 12.9998 36.8698V6.13023ZM15.0203 23.742V6.13023C15.0203 3.87332 16.893 2.01396 19.2402 2.01396H53.7593C56.1065 2.01396 57.9792 3.87332 57.9792 6.13023V28.4144L41.6897 13.7493L34.7698 19.9791L26.9849 12.9705L15.0203 23.742ZM48.5478 8.30824C46.8712 8.30824 45.5421 9.63512 45.5421 11.2352C45.5421 12.8353 46.8712 14.1621 48.5478 14.1621C50.2245 14.1621 51.5536 12.8353 51.5536 11.2352C51.5536 9.63512 50.2245 8.30824 48.5478 8.30824ZM43.5215 11.2352C43.5215 8.48997 45.7885 6.29429 48.5478 6.29429C51.3071 6.29429 53.5741 8.48997 53.5741 11.2352C53.5741 13.9804 51.3071 16.1761 48.5478 16.1761C45.7885 16.1761 43.5215 13.9804 43.5215 11.2352Z" fill="#7C7C7C"/>
<path fill-rule="evenodd" clip-rule="evenodd" d="M34.4153 27.0133C34.9538 26.924 35.4617 27.2935 35.5499 27.8385L36.9866 36.7202C37.0748 37.2652 36.7098 37.7794 36.1714 37.8686C35.633 37.9579 35.125 37.5884 35.0369 37.0434L33.9855 30.5442L19.7417 50.6098C19.5562 50.8713 19.2576 51.0263 18.9395 51.0263C18.6215 51.0263 18.3229 50.8713 18.1373 50.6098L13.1486 43.5821L1.78992 59.5835C1.47155 60.032 0.854289 60.1343 0.411232 59.812C-0.0318244 59.4897 -0.132903 58.8649 0.185467 58.4164L12.3464 41.2849C12.532 41.0235 12.8306 40.8685 13.1486 40.8685C13.4667 40.8685 13.7652 41.0235 13.9508 41.2849L18.9395 48.3126L32.3811 29.3771L25.9607 30.4414C25.4223 30.5306 24.9144 30.1612 24.8262 29.6162C24.738 29.0711 25.103 28.5569 25.6414 28.4677L34.4153 27.0133Z" fill="#873DC1"/>
</svg>
