<svg width="60" height="55" viewBox="0 0 60 55" fill="none" xmlns="http://www.w3.org/2000/svg">
<path fill-rule="evenodd" clip-rule="evenodd" d="M13.0535 49.0606C19.1581 49.0606 24.1069 44.1118 24.1069 38.0072C24.1069 31.9025 19.1581 26.9537 13.0535 26.9537C6.9488 26.9537 2 31.9025 2 38.0072C2 44.1118 6.9488 49.0606 13.0535 49.0606ZM13.0535 51.0606C20.2627 51.0606 26.1069 45.2164 26.1069 38.0072C26.1069 30.7979 20.2627 24.9537 13.0535 24.9537C5.84423 24.9537 0 30.7979 0 38.0072C0 45.2164 5.84423 51.0606 13.0535 51.0606Z" fill="#7C7C7C"/>
<path fill-rule="evenodd" clip-rule="evenodd" d="M32 5.97952C32 2.69795 34.6081 0 37.8713 0H54.1287C57.3919 0 60 2.69796 60 5.97952V22.0205C60 25.302 57.3919 28 54.1287 28H37.8713C34.6081 28 32 25.302 32 22.0205V5.97952ZM34 16.9552V19.7508H58V18.4553L48.4529 10.143L44.8539 13.4667L41.5303 10.3973L34 16.9552ZM58 15.8034V5.97952C58 3.76086 56.2462 2 54.1287 2H37.8713C35.7538 2 34 3.76086 34 5.97952V14.3031L41.5695 7.71112L44.8539 10.7443L48.4136 7.45692L58 15.8034ZM58 21.7508H34V22.0205C34 24.2391 35.7538 26 37.8713 26H54.1287C56.2462 26 58 24.2391 58 22.0205V21.7508ZM38.1355 23.7395C38.1355 23.1872 38.5832 22.7395 39.1355 22.7395H43.0325C43.5848 22.7395 44.0325 23.1872 44.0325 23.7395C44.0325 24.2918 43.5848 24.7395 43.0325 24.7395H39.1355C38.5832 24.7395 38.1355 24.2918 38.1355 23.7395ZM45.9295 23.7395C45.9295 23.1872 46.3772 22.7395 46.9295 22.7395H47.9038C48.456 22.7395 48.9038 23.1872 48.9038 23.7395C48.9038 24.2918 48.456 24.7395 47.9038 24.7395H46.9295C46.3772 24.7395 45.9295 24.2918 45.9295 23.7395Z" fill="#7C7C7C"/>
<path fill-rule="evenodd" clip-rule="evenodd" d="M54 6.00049C53.4477 6.00049 53 6.4482 53 7.00049C53 7.55277 53.4477 8.00049 54 8.00049C54.5523 8.00049 55 7.55277 55 7.00049C55 6.4482 54.5523 6.00049 54 6.00049ZM51 7.00049C51 5.34363 52.3431 4.00049 54 4.00049C55.6569 4.00049 57 5.34363 57 7.00049C57 8.65734 55.6569 10.0005 54 10.0005C52.3431 10.0005 51 8.65734 51 7.00049Z" fill="#7C7C7C"/>
<path d="M8 41.022C8.152 42.93 9.66 44.416 12.364 44.592V46H13.564V44.582C16.364 44.386 18 42.89 18 40.718C18 38.744 16.748 37.726 14.51 37.198L13.564 36.974V33.14C14.764 33.276 15.528 33.932 15.712 34.84H17.816C17.664 33.002 16.088 31.564 13.564 31.408V30H12.364V31.438C9.974 31.672 8.344 33.11 8.344 35.144C8.344 36.944 9.556 38.088 11.57 38.558L12.364 38.754V42.822C11.134 42.636 10.32 41.962 10.136 41.022H8ZM12.354 36.69C11.174 36.416 10.534 35.858 10.534 35.018C10.534 34.078 11.224 33.374 12.364 33.168V36.688H12.354V36.69ZM13.738 39.076C15.172 39.408 15.834 39.946 15.834 40.896C15.834 41.98 15.01 42.724 13.564 42.86V39.036L13.738 39.076Z" fill="#7C7C7C"/>
<path fill-rule="evenodd" clip-rule="evenodd" d="M21.2309 2.2625C20.9385 1.99474 20.5155 1.92502 20.1527 2.08475C19.7898 2.24449 19.5556 2.60352 19.5556 3V5.24327L13.7143 5.24327C13.5513 5.24327 13.3899 5.25177 13.2305 5.26843C10.8306 5.51933 9 7.59314 9 10.0668V21.8235C9 22.998 9.93226 24 11.1429 24H14.9683C16.1788 24 17.1111 22.998 17.1111 21.8235V12.6487H24.4127L24.4208 12.6486H30C30.4125 12.6486 30.7826 12.3954 30.9321 12.0109C31.0815 11.6265 30.9796 11.1897 30.6754 10.9111L21.2309 2.2625ZM21.5556 5.27168V6.24327C21.5556 6.50848 21.4502 6.76284 21.2627 6.95038C21.0751 7.13791 20.8208 7.24327 20.5556 7.24327L13.7143 7.24327C13.6209 7.24327 13.5289 7.24814 13.4385 7.25759C12.0926 7.39829 11 8.58105 11 10.0668V21.8235C11 21.9485 11.0911 22 11.1429 22H14.9683C15.02 22 15.1111 21.9485 15.1111 21.8235V11.6487C15.1111 11.3834 15.2165 11.1291 15.404 10.9416C15.5915 10.754 15.8459 10.6487 16.1111 10.6487L24.4127 10.6487L24.4208 10.6486L27.4273 10.6486L21.5556 5.27168Z" fill="#873DC1"/>
<path fill-rule="evenodd" clip-rule="evenodd" d="M35.7691 54.7375C36.0615 55.0053 36.4845 55.075 36.8473 54.9152C37.2102 54.7555 37.4444 54.3965 37.4444 54V51.7567L43.2857 51.7567C43.4487 51.7567 43.6101 51.7482 43.7695 51.7316C46.1694 51.4807 48 49.4069 48 46.9332V35.1765C48 34.002 47.0677 33 45.8571 33H42.0317C40.8212 33 39.8889 34.002 39.8889 35.1765V44.3513H32.5873L32.5792 44.3514H27C26.5875 44.3514 26.2174 44.6046 26.0679 44.9891C25.9185 45.3735 26.0204 45.8103 26.3246 46.0889L35.7691 54.7375ZM35.4444 51.7283V50.7567C35.4444 50.4915 35.5498 50.2372 35.7373 50.0496C35.9249 49.8621 36.1792 49.7567 36.4444 49.7567L43.2857 49.7567C43.3791 49.7567 43.4711 49.7519 43.5615 49.7424C44.9074 49.6017 46 48.419 46 46.9332V35.1765C46 35.0515 45.9089 35 45.8571 35H42.0317C41.98 35 41.8889 35.0515 41.8889 35.1765V45.3513C41.8889 45.6166 41.7835 45.8709 41.596 46.0584C41.4085 46.246 41.1541 46.3513 40.8889 46.3513H32.5873L32.5792 46.3514L29.5727 46.3514L35.4444 51.7283Z" fill="#873DC1"/>
</svg>
