<svg width="42" height="16" viewBox="0 0 42 16" fill="none" xmlns="http://www.w3.org/2000/svg">
<path d="M0 0.727272V10.4935C0 11.3524 0.13495 12.1074 0.40485 12.7584C0.67475 13.4095 1.05261 13.9567 1.53843 14.4C2.02425 14.8433 2.59779 15.1758 3.25904 15.3974C3.9203 15.6329 4.64228 15.7506 5.42499 15.7506C6.1942 15.7506 6.90944 15.6329 7.57069 15.3974C8.23195 15.1758 8.80548 14.8433 9.2913 14.4C9.79062 13.9567 10.1752 13.4095 10.4451 12.7584C10.715 12.1074 10.85 11.3524 10.85 10.4935V0.727272H7.9553V10.3065C7.9553 11.1377 7.73938 11.8095 7.30754 12.3221C6.88919 12.8208 6.26168 13.0701 5.42499 13.0701C4.5883 13.0701 3.95403 12.8208 3.52219 12.3221C3.10385 11.8095 2.89468 11.1377 2.89468 10.3065V0.727272H0Z" fill="#873DC1"/>
<path d="M23.8812 0.727272V9.74545L13.8005 0V15.2727H16.5939V6.25455L26.6747 16V0.727272H23.8812Z" fill="#873DC1"/>
<path d="M29.7533 0.727272V15.2727H32.7087V0.727272H29.7533ZM34.571 15.2727C36.0555 15.2727 37.351 14.9749 38.4576 14.3792C39.5777 13.7836 40.4481 12.9455 41.0688 11.8649C41.6896 10.7706 42 9.48225 42 8C42 6.51775 41.6896 5.23636 41.0688 4.15584C40.4481 3.06147 39.5777 2.21645 38.4576 1.62078C37.351 1.02511 36.0555 0.727272 34.571 0.727272H31.6156V3.42857H34.4698C35.0906 3.42857 35.6776 3.51861 36.2309 3.6987C36.7842 3.86493 37.27 4.13507 37.6884 4.50909C38.1067 4.88312 38.4306 5.36104 38.66 5.94286C38.9029 6.51082 39.0244 7.19654 39.0244 8C39.0244 8.80346 38.9029 9.4961 38.66 10.0779C38.4306 10.6459 38.1067 11.1169 37.6884 11.4909C37.27 11.8649 36.7842 12.142 36.2309 12.3221C35.6776 12.4883 35.0906 12.5714 34.4698 12.5714H31.6156V15.2727H34.571Z" fill="#873DC1"/>
</svg>
