<svg width="18" height="18" viewBox="0 0 18 18" fill="none" xmlns="http://www.w3.org/2000/svg">
<path d="M9 18C13.9875 18 18 13.9875 18 9C18 4.01247 13.9875 0 9 0C4.01247 0 0 4.01247 0 9C0 13.9875 4.01247 18 9 18Z" fill="#2775CA"/>
<path d="M11.475 10.425C11.475 9.1125 10.6875 8.6625 9.1125 8.47503C7.9875 8.325 7.7625 8.02503 7.7625 7.49997C7.7625 6.97491 8.13753 6.6375 8.8875 6.6375C9.5625 6.6375 9.93753 6.8625 10.125 7.425C10.1625 7.5375 10.275 7.61247 10.3875 7.61247H10.9875C11.1375 7.61247 11.25 7.49997 11.25 7.35003V7.3125C11.1 6.48747 10.425 5.85 9.5625 5.77503V4.87503C9.5625 4.725 9.45 4.6125 9.26253 4.57497H8.70003C8.55 4.57497 8.4375 4.68747 8.39997 4.87503V5.7375C7.27497 5.88753 6.56253 6.6375 6.56253 7.57503C6.56253 8.81253 7.3125 9.29997 8.8875 9.48753C9.93753 9.675 10.275 9.9 10.275 10.5C10.275 11.1001 9.74997 11.5125 9.03753 11.5125C8.06247 11.5125 7.72497 11.1 7.61247 10.5375C7.57503 10.3875 7.46253 10.3125 7.35003 10.3125H6.71247C6.56253 10.3125 6.45003 10.425 6.45003 10.575V10.6125C6.59997 11.55 7.2 12.225 8.4375 12.4125V13.3125C8.4375 13.4625 8.55 13.575 8.73747 13.6125H9.29997C9.45 13.6125 9.5625 13.5 9.60003 13.3125V12.4125C10.725 12.225 11.475 11.4375 11.475 10.425Z" fill="white"/>
<path d="M7.0875 14.3625C4.1625 13.3125 2.66247 10.05 3.75003 7.16247C4.31253 5.58747 5.55003 4.3875 7.0875 3.825C7.23753 3.75003 7.3125 3.63753 7.3125 3.44997V2.925C7.3125 2.77497 7.23753 2.66247 7.0875 2.62503C7.04997 2.62503 6.975 2.62503 6.93747 2.66247C3.375 3.78747 1.42497 7.57503 2.54997 11.1375C3.22497 13.2375 4.8375 14.85 6.93747 15.525C7.0875 15.6 7.23753 15.525 7.27497 15.375C7.3125 15.3375 7.3125 15.3 7.3125 15.225V14.7C7.3125 14.5875 7.2 14.4375 7.0875 14.3625ZM11.0625 2.66247C10.9125 2.5875 10.7625 2.66247 10.725 2.8125C10.6875 2.85003 10.6875 2.88747 10.6875 2.96253V3.4875C10.6875 3.63753 10.8 3.78747 10.9125 3.86253C13.8375 4.91247 15.3375 8.17497 14.25 11.0625C13.6875 12.6375 12.45 13.8375 10.9125 14.4C10.7625 14.475 10.6875 14.5875 10.6875 14.775V15.3C10.6875 15.45 10.7625 15.5625 10.9125 15.6C10.95 15.6 11.025 15.6 11.0625 15.5625C14.625 14.4375 16.575 10.65 15.45 7.0875C14.775 4.95 13.125 3.33747 11.0625 2.66247Z" fill="white"/>
</svg>
